<svg xmlns="http://www.w3.org/2000/svg" width="800" height="600">
<defs>
  <marker id="ah" markerWidth="10" markerHeight="7" refX="10" refY="3.5" orient="auto">
    <polygon points="0,0 10,3.5 0,7" fill="#222"/>
  </marker>
  <marker id="ah-gray" markerWidth="10" markerHeight="7" refX="10" refY="3.5" orient="auto">
    <polygon points="0,0 10,3.5 0,7" fill="#999"/>
  </marker>
  <marker id="ah-open" markerWidth="10" markerHeight="7" refX="10" refY="3.5" orient="auto">
    <polygon points="0,0 10,3.5 0,7" fill="#aaa"/>
  </marker>
</defs>

<circle cx="400" cy="120" r="30" fill="none" stroke="#222" stroke-width="3"/>
<circle cx="400" cy="120" r="24" fill="none" stroke="#222" stroke-width="1.5" stroke-dasharray="3,3"/>
<circle cx="400" cy="120" r="5" fill="#222"/>
<line x1="400" y1="0" x2="400" y2="90" stroke="#222" stroke-width="3"/>
<path d="M 270 245 L 370 120 A 30 30 0 0 1 430 120 L 530 245" fill="none" stroke="#222" stroke-width="2.5"/>
<rect x="237.5" y="245" width="65" height="65" fill="none" stroke="#222" stroke-width="3" rx="4"/>
<text x="270" y="283.5" font-size="19" font-family="Arial" fill="#222" text-anchor="middle">m</text>
<rect x="497.5" y="245" width="65" height="65" fill="none" stroke="#222" stroke-width="3" rx="4"/>
<text x="530" y="283.5" font-size="19" font-family="Arial" fill="#222" text-anchor="middle">m</text>
<line x1="270" y1="245" x2="270" y2="175" stroke="#222" stroke-width="3" marker-end="url(#ah)"/>
<text x="262" y="173" font-size="18" font-family="Arial" fill="#222" text-anchor="end">T</text>
<line x1="270" y1="310" x2="270" y2="385" stroke="#222" stroke-width="3" marker-end="url(#ah)"/>
<text x="262" y="392" font-size="18" font-family="Arial" fill="#222" text-anchor="end">mg</text>
<line x1="530" y1="245" x2="530" y2="175" stroke="#222" stroke-width="3" marker-end="url(#ah)"/>
<text x="538" y="173" font-size="18" font-family="Arial" fill="#222" text-anchor="start">T</text>
<line x1="530" y1="310" x2="530" y2="385" stroke="#222" stroke-width="3" marker-end="url(#ah)"/>
<text x="538" y="392" font-size="18" font-family="Arial" fill="#222" text-anchor="start">mg</text>
</svg>