<svg xmlns="http://www.w3.org/2000/svg" width="800" height="600">
<defs>
  <marker id="ah" markerWidth="10" markerHeight="7" refX="10" refY="3.5" orient="auto">
    <polygon points="0,0 10,3.5 0,7" fill="#222"/>
  </marker>
  <marker id="ah-gray" markerWidth="10" markerHeight="7" refX="10" refY="3.5" orient="auto">
    <polygon points="0,0 10,3.5 0,7" fill="#999"/>
  </marker>
  <marker id="ah-open" markerWidth="10" markerHeight="7" refX="10" refY="3.5" orient="auto">
    <polygon points="0,0 10,3.5 0,7" fill="#aaa"/>
  </marker>
</defs>

<rect x="235" y="230" width="45" height="140" fill="#d44" rx="3"/>
<text x="257" y="220" font-size="22" font-family="Arial" fill="#222" text-anchor="middle">N</text>
<rect x="520" y="230" width="45" height="140" fill="#4488cc" rx="3"/>
<text x="542" y="220" font-size="22" font-family="Arial" fill="#222" text-anchor="middle">S</text>
<line x1="280" y1="260" x2="520" y2="260" stroke="#222" stroke-width="2" stroke-dasharray="8,4"/>
<line x1="280" y1="300" x2="520" y2="300" stroke="#222" stroke-width="2" stroke-dasharray="8,4"/>
<line x1="280" y1="340" x2="520" y2="340" stroke="#222" stroke-width="2" stroke-dasharray="8,4"/>
<line x1="280" y1="180" x2="520" y2="180" stroke="#222" stroke-width="2" marker-end="url(#ah)"/>
<text x="400" y="172" font-size="18" font-family="Arial" fill="#222" text-anchor="middle">B</text>
<rect x="355.0" y="225.0" width="90" height="150" fill="none" stroke="#222" stroke-width="3" rx="3"/>
<line x1="355" y1="300" x2="355" y2="130" stroke="#222" stroke-width="3" marker-end="url(#ah)"/>
<text x="345" y="128" font-size="18" font-family="Arial" fill="#222" text-anchor="end">F</text>
<line x1="445" y1="300" x2="445" y2="470" stroke="#222" stroke-width="3" marker-end="url(#ah)"/>
<text x="455" y="478" font-size="18" font-family="Arial" fill="#222" text-anchor="start">F</text>
<path d="M 485 210 A 65 65 0 0 1 515 270" fill="none" stroke="#222" stroke-width="2" marker-end="url(#ah)"/>
<text x="520" y="238" font-size="18" font-family="Arial" fill="#222">τ</text>
<line x1="400" y1="215.0" x2="400" y2="385.0" stroke="#222" stroke-width="1.5" stroke-dasharray="4,4"/>
<text x="410" y="400.0" font-size="14" font-family="Arial" fill="#666">Axis</text>
</svg>