<svg xmlns="http://www.w3.org/2000/svg" width="800" height="600">
<defs>
  <marker id="ah" markerWidth="10" markerHeight="7" refX="10" refY="3.5" orient="auto">
    <polygon points="0,0 10,3.5 0,7" fill="#222"/>
  </marker>
  <marker id="ah-gray" markerWidth="10" markerHeight="7" refX="10" refY="3.5" orient="auto">
    <polygon points="0,0 10,3.5 0,7" fill="#999"/>
  </marker>
  <marker id="ah-open" markerWidth="10" markerHeight="7" refX="10" refY="3.5" orient="auto">
    <polygon points="0,0 10,3.5 0,7" fill="#aaa"/>
  </marker>
</defs>

<polygon points="200,420 600,420 600,200" fill="#f5f5f5" stroke="#222" stroke-width="2"/>
<line x1="200" y1="420" x2="600" y2="200" stroke="#222" stroke-width="4"/>
<rect x="362.5" y="238.5" width="75" height="75" fill="none" stroke="#222" stroke-width="3" rx="4" transform="rotate(-28.8 400 276)"/>
<text x="400" y="282" font-size="19" font-family="Arial" fill="#222" text-anchor="middle">m</text>
<path d="M 235 420 A 35 35 0 0 0 230.7 403.1" fill="none" stroke="#222" stroke-width="2"/>
<text x="243" y="414" font-size="16" font-family="Arial" fill="#222">θ</text>
<line x1="400" y1="300" x2="340.0" y2="220.0" stroke="#222" stroke-width="3" marker-end="url(#ah)"/>
<text x="356.0" y="225.0" font-size="18" font-family="Arial" fill="#222" text-anchor="start">N</text>
<line x1="400" y1="300" x2="400" y2="430.0" stroke="#222" stroke-width="3" marker-end="url(#ah)"/>
<text x="416" y="454.0" font-size="18" font-family="Arial" fill="#222" text-anchor="start">mg</text>
<line x1="400" y1="300" x2="490.0" y2="255.0" stroke="#222" stroke-width="3" marker-end="url(#ah)"/>
<text x="498.0" y="239.0" font-size="18" font-family="Arial" fill="#222" text-anchor="start">f</text>
</svg>