<?xml version="1.0" encoding="utf-8" standalone="no"?>
<!DOCTYPE svg PUBLIC "-//W3C//DTD SVG 1.1//EN"
  "http://www.w3.org/Graphics/SVG/1.1/DTD/svg11.dtd">
<svg xmlns:xlink="http://www.w3.org/1999/xlink" width="420.828pt" height="336.24pt" viewBox="0 0 420.828 336.24" xmlns="http://www.w3.org/2000/svg" version="1.1">
 <metadata>
  <rdf:RDF xmlns:dc="http://purl.org/dc/elements/1.1/" xmlns:cc="http://creativecommons.org/ns#" xmlns:rdf="http://www.w3.org/1999/02/22-rdf-syntax-ns#">
   <cc:Work>
    <dc:type rdf:resource="http://purl.org/dc/dcmitype/StillImage"/>
    <dc:date>2026-06-17T16:03:05.224729</dc:date>
    <dc:format>image/svg+xml</dc:format>
    <dc:creator>
     <cc:Agent>
      <dc:title>Matplotlib v3.10.6, https://matplotlib.org/</dc:title>
     </cc:Agent>
    </dc:creator>
   </cc:Work>
  </rdf:RDF>
 </metadata>
 <defs>
  <style type="text/css">*{stroke-linejoin: round; stroke-linecap: butt}</style>
 </defs>
 <g id="figure_1">
  <g id="patch_1">
   <path d="M 0 336.24 
L 420.828 336.24 
L 420.828 0 
L 0 0 
z
" style="fill: #ffffff"/>
  </g>
  <g id="axes_1">
   <g id="line2d_1">
    <path d="M 47.148 4.68 
L 47.148 48.555 
M 47.148 68.805 
L 47.148 112.68 
" clip-path="url(#pb1c755d536)" style="fill: none; stroke: #000000; stroke-width: 2; stroke-linecap: round"/>
   </g>
   <g id="line2d_2">
    <path d="M 60.648 48.555 
L 33.648 48.555 
" clip-path="url(#pb1c755d536)" style="fill: none; stroke: #000000; stroke-width: 2; stroke-linecap: round"/>
   </g>
   <g id="line2d_3">
    <path d="M 53.898 55.305 
L 40.398 55.305 
" clip-path="url(#pb1c755d536)" style="fill: none; stroke: #000000; stroke-width: 2; stroke-linecap: round"/>
   </g>
   <g id="line2d_4">
    <path d="M 60.648 62.055 
L 33.648 62.055 
" clip-path="url(#pb1c755d536)" style="fill: none; stroke: #000000; stroke-width: 2; stroke-linecap: round"/>
   </g>
   <g id="line2d_5">
    <path d="M 53.898 68.805 
L 40.398 68.805 
" clip-path="url(#pb1c755d536)" style="fill: none; stroke: #000000; stroke-width: 2; stroke-linecap: round"/>
   </g>
   <g id="line2d_6">
    <path d="M 47.148 112.68 
L 155.148 112.68 
L 263.148 112.68 
" clip-path="url(#pb1c755d536)" style="fill: none; stroke: #000000; stroke-width: 2; stroke-linecap: round"/>
   </g>
   <g id="line2d_7">
    <path d="M 263.148 112.68 
L 263.148 166.68 
L 263.148 220.68 
" clip-path="url(#pb1c755d536)" style="fill: none; stroke: #000000; stroke-width: 2; stroke-linecap: round"/>
   </g>
   <g id="line2d_8">
    <path d="M 263.148 220.68 
L 299.148 220.68 
L 335.148 220.68 
" clip-path="url(#pb1c755d536)" style="fill: none; stroke: #000000; stroke-width: 2; stroke-linecap: round"/>
   </g>
   <g id="line2d_9">
    <path d="M 335.148 220.68 
L 335.148 256.68 
L 344.148 259.68 
L 326.148 265.68 
L 344.148 271.68 
L 326.148 277.68 
L 344.148 283.68 
L 326.148 289.68 
L 335.148 292.68 
L 335.148 328.68 
" clip-path="url(#pb1c755d536)" style="fill: none; stroke: #000000; stroke-width: 2; stroke-linecap: round"/>
   </g>
   <g id="line2d_10">
    <path d="M 335.148 328.68 
L 191.148 328.68 
L 47.148 328.68 
" clip-path="url(#pb1c755d536)" style="fill: none; stroke: #000000; stroke-width: 2; stroke-linecap: round"/>
   </g>
   <g id="line2d_11">
    <path d="M 263.148 112.68 
L 299.148 112.68 
L 335.148 112.68 
" clip-path="url(#pb1c755d536)" style="fill: none; stroke: #000000; stroke-width: 2; stroke-linecap: round"/>
   </g>
   <g id="line2d_12">
    <path d="M 335.148 112.68 
L 335.148 166.68 
L 335.148 220.68 
" clip-path="url(#pb1c755d536)" style="fill: none; stroke: #000000; stroke-width: 2; stroke-linecap: round"/>
   </g>
   <g id="line2d_13">
    <path d="M 335.148 220.68 
L 371.148 220.68 
L 407.148 220.68 
" clip-path="url(#pb1c755d536)" style="fill: none; stroke: #000000; stroke-width: 2; stroke-linecap: round"/>
   </g>
   <g id="line2d_14">
    <path d="M 407.148 220.68 
L 407.148 256.68 
L 416.148 259.68 
L 398.148 265.68 
L 416.148 271.68 
L 398.148 277.68 
L 416.148 283.68 
L 398.148 289.68 
L 407.148 292.68 
L 407.148 328.68 
" clip-path="url(#pb1c755d536)" style="fill: none; stroke: #000000; stroke-width: 2; stroke-linecap: round"/>
   </g>
   <g id="line2d_15">
    <path d="M 407.148 328.68 
L 227.148 328.68 
L 47.148 328.68 
" clip-path="url(#pb1c755d536)" style="fill: none; stroke: #000000; stroke-width: 2; stroke-linecap: round"/>
   </g>
   <g id="line2d_16">
    <path d="M 263.148 112.68 
L 335.148 112.68 
L 407.148 112.68 
" clip-path="url(#pb1c755d536)" style="fill: none; stroke: #000000; stroke-width: 2; stroke-linecap: round"/>
   </g>
   <g id="line2d_17">
    <path d="M 407.148 112.68 
L 407.148 166.68 
L 407.148 220.68 
" clip-path="url(#pb1c755d536)" style="fill: none; stroke: #000000; stroke-width: 2; stroke-linecap: round"/>
   </g>
   <g id="line2d_18">
    <path d="M 407.148 220.68 
L 407.148 256.68 
L 416.148 259.68 
L 398.148 265.68 
L 416.148 271.68 
L 398.148 277.68 
L 416.148 283.68 
L 398.148 289.68 
L 407.148 292.68 
L 407.148 328.68 
" clip-path="url(#pb1c755d536)" style="fill: none; stroke: #000000; stroke-width: 2; stroke-linecap: round"/>
   </g>
   <g id="line2d_19">
    <path d="M 407.148 328.68 
L 335.148 328.68 
L 263.148 328.68 
" clip-path="url(#pb1c755d536)" style="fill: none; stroke: #000000; stroke-width: 2; stroke-linecap: round"/>
   </g>
   <g id="text_1">
    <!-- 12V -->
    <g transform="translate(2.656125 62.543125) scale(0.14 -0.14)">
     <defs>
      <path id="DejaVuSans-31" d="M 794 531 
L 1825 531 
L 1825 4091 
L 703 3866 
L 703 4441 
L 1819 4666 
L 2450 4666 
L 2450 531 
L 3481 531 
L 3481 0 
L 794 0 
L 794 531 
z
" transform="scale(0.015625)"/>
      <path id="DejaVuSans-32" d="M 1228 531 
L 3431 531 
L 3431 0 
L 469 0 
L 469 531 
Q 828 903 1448 1529 
Q 2069 2156 2228 2338 
Q 2531 2678 2651 2914 
Q 2772 3150 2772 3378 
Q 2772 3750 2511 3984 
Q 2250 4219 1831 4219 
Q 1534 4219 1204 4116 
Q 875 4013 500 3803 
L 500 4441 
Q 881 4594 1212 4672 
Q 1544 4750 1819 4750 
Q 2544 4750 2975 4387 
Q 3406 4025 3406 3419 
Q 3406 3131 3298 2873 
Q 3191 2616 2906 2266 
Q 2828 2175 2409 1742 
Q 1991 1309 1228 531 
z
" transform="scale(0.015625)"/>
      <path id="DejaVuSans-56" d="M 1831 0 
L 50 4666 
L 709 4666 
L 2188 738 
L 3669 4666 
L 4325 4666 
L 2547 0 
L 1831 0 
z
" transform="scale(0.015625)"/>
     </defs>
     <use xlink:href="#DejaVuSans-31"/>
     <use xlink:href="#DejaVuSans-32" transform="translate(63.623047 0)"/>
     <use xlink:href="#DejaVuSans-56" transform="translate(127.246094 0)"/>
    </g>
   </g>
   <g id="text_2">
    <!-- 4Ω -->
    <g transform="translate(302.941437 278.543125) scale(0.14 -0.14)">
     <defs>
      <path id="DejaVuSans-34" d="M 2419 4116 
L 825 1625 
L 2419 1625 
L 2419 4116 
z
M 2253 4666 
L 3047 4666 
L 3047 1625 
L 3713 1625 
L 3713 1100 
L 3047 1100 
L 3047 0 
L 2419 0 
L 2419 1100 
L 313 1100 
L 313 1709 
L 2253 4666 
z
" transform="scale(0.015625)"/>
      <path id="DejaVuSans-3a9" d="M 4647 556 
L 4647 0 
L 2772 0 
L 2772 556 
Q 3325 859 3634 1378 
Q 3944 1897 3944 2528 
Q 3944 3278 3531 3731 
Q 3119 4184 2444 4184 
Q 1769 4184 1355 3729 
Q 941 3275 941 2528 
Q 941 1897 1250 1378 
Q 1563 859 2119 556 
L 2119 0 
L 244 0 
L 244 556 
L 1241 556 
Q 747 991 519 1456 
Q 294 1922 294 2497 
Q 294 3491 894 4106 
Q 1491 4722 2444 4722 
Q 3391 4722 3994 4106 
Q 4594 3494 4594 2528 
Q 4594 1922 4372 1459 
Q 4150 997 3647 556 
L 4647 556 
z
" transform="scale(0.015625)"/>
     </defs>
     <use xlink:href="#DejaVuSans-34"/>
     <use xlink:href="#DejaVuSans-3a9" transform="translate(63.623047 0)"/>
    </g>
   </g>
   <g id="text_3">
    <!-- 4Ω -->
    <g transform="translate(374.941438 278.543125) scale(0.14 -0.14)">
     <use xlink:href="#DejaVuSans-34"/>
     <use xlink:href="#DejaVuSans-3a9" transform="translate(63.623047 0)"/>
    </g>
   </g>
   <g id="text_4">
    <!-- 4Ω -->
    <g transform="translate(374.941438 278.543125) scale(0.14 -0.14)">
     <use xlink:href="#DejaVuSans-34"/>
     <use xlink:href="#DejaVuSans-3a9" transform="translate(63.623047 0)"/>
    </g>
   </g>
   <g id="patch_2">
    <path d="M 47.148 115.56 
C 47.911785 115.56 48.64439 115.256545 49.184468 114.716468 
C 49.724545 114.17639 50.028 113.443785 50.028 112.68 
C 50.028 111.916215 49.724545 111.18361 49.184468 110.643532 
C 48.64439 110.103455 47.911785 109.8 47.148 109.8 
C 46.384215 109.8 45.65161 110.103455 45.111532 110.643532 
C 44.571455 111.18361 44.268 111.916215 44.268 112.68 
C 44.268 113.443785 44.571455 114.17639 45.111532 114.716468 
C 45.65161 115.256545 46.384215 115.56 47.148 115.56 
z
" clip-path="url(#pb1c755d536)" style="stroke: #000000; stroke-width: 2; stroke-linejoin: miter"/>
   </g>
   <g id="patch_3">
    <path d="M 263.148 115.56 
C 263.911785 115.56 264.64439 115.256545 265.184468 114.716468 
C 265.724545 114.17639 266.028 113.443785 266.028 112.68 
C 266.028 111.916215 265.724545 111.18361 265.184468 110.643532 
C 264.64439 110.103455 263.911785 109.8 263.148 109.8 
C 262.384215 109.8 261.65161 110.103455 261.111532 110.643532 
C 260.571455 111.18361 260.268 111.916215 260.268 112.68 
C 260.268 113.443785 260.571455 114.17639 261.111532 114.716468 
C 261.65161 115.256545 262.384215 115.56 263.148 115.56 
z
" clip-path="url(#pb1c755d536)" style="stroke: #000000; stroke-width: 2; stroke-linejoin: miter"/>
   </g>
   <g id="patch_4">
    <path d="M 263.148 223.56 
C 263.911785 223.56 264.64439 223.256545 265.184468 222.716468 
C 265.724545 222.17639 266.028 221.443785 266.028 220.68 
C 266.028 219.916215 265.724545 219.18361 265.184468 218.643532 
C 264.64439 218.103455 263.911785 217.8 263.148 217.8 
C 262.384215 217.8 261.65161 218.103455 261.111532 218.643532 
C 260.571455 219.18361 260.268 219.916215 260.268 220.68 
C 260.268 221.443785 260.571455 222.17639 261.111532 222.716468 
C 261.65161 223.256545 262.384215 223.56 263.148 223.56 
z
" clip-path="url(#pb1c755d536)" style="stroke: #000000; stroke-width: 2; stroke-linejoin: miter"/>
   </g>
   <g id="patch_5">
    <path d="M 335.148 331.56 
C 335.911785 331.56 336.64439 331.256545 337.184468 330.716468 
C 337.724545 330.17639 338.028 329.443785 338.028 328.68 
C 338.028 327.916215 337.724545 327.18361 337.184468 326.643532 
C 336.64439 326.103455 335.911785 325.8 335.148 325.8 
C 334.384215 325.8 333.65161 326.103455 333.111532 326.643532 
C 332.571455 327.18361 332.268 327.916215 332.268 328.68 
C 332.268 329.443785 332.571455 330.17639 333.111532 330.716468 
C 333.65161 331.256545 334.384215 331.56 335.148 331.56 
z
" clip-path="url(#pb1c755d536)" style="stroke: #000000; stroke-width: 2; stroke-linejoin: miter"/>
   </g>
   <g id="patch_6">
    <path d="M 335.148 223.56 
C 335.911785 223.56 336.64439 223.256545 337.184468 222.716468 
C 337.724545 222.17639 338.028 221.443785 338.028 220.68 
C 338.028 219.916215 337.724545 219.18361 337.184468 218.643532 
C 336.64439 218.103455 335.911785 217.8 335.148 217.8 
C 334.384215 217.8 333.65161 218.103455 333.111532 218.643532 
C 332.571455 219.18361 332.268 219.916215 332.268 220.68 
C 332.268 221.443785 332.571455 222.17639 333.111532 222.716468 
C 333.65161 223.256545 334.384215 223.56 335.148 223.56 
z
" clip-path="url(#pb1c755d536)" style="stroke: #000000; stroke-width: 2; stroke-linejoin: miter"/>
   </g>
   <g id="patch_7">
    <path d="M 407.148 331.56 
C 407.911785 331.56 408.64439 331.256545 409.184468 330.716468 
C 409.724545 330.17639 410.028 329.443785 410.028 328.68 
C 410.028 327.916215 409.724545 327.18361 409.184468 326.643532 
C 408.64439 326.103455 407.911785 325.8 407.148 325.8 
C 406.384215 325.8 405.65161 326.103455 405.111532 326.643532 
C 404.571455 327.18361 404.268 327.916215 404.268 328.68 
C 404.268 329.443785 404.571455 330.17639 405.111532 330.716468 
C 405.65161 331.256545 406.384215 331.56 407.148 331.56 
z
" clip-path="url(#pb1c755d536)" style="stroke: #000000; stroke-width: 2; stroke-linejoin: miter"/>
   </g>
   <g id="patch_8">
    <path d="M 407.148 223.56 
C 407.911785 223.56 408.64439 223.256545 409.184468 222.716468 
C 409.724545 222.17639 410.028 221.443785 410.028 220.68 
C 410.028 219.916215 409.724545 219.18361 409.184468 218.643532 
C 408.64439 218.103455 407.911785 217.8 407.148 217.8 
C 406.384215 217.8 405.65161 218.103455 405.111532 218.643532 
C 404.571455 219.18361 404.268 219.916215 404.268 220.68 
C 404.268 221.443785 404.571455 222.17639 405.111532 222.716468 
C 405.65161 223.256545 406.384215 223.56 407.148 223.56 
z
" clip-path="url(#pb1c755d536)" style="stroke: #000000; stroke-width: 2; stroke-linejoin: miter"/>
   </g>
   <g id="patch_9">
    <path d="M 407.148 331.56 
C 407.911785 331.56 408.64439 331.256545 409.184468 330.716468 
C 409.724545 330.17639 410.028 329.443785 410.028 328.68 
C 410.028 327.916215 409.724545 327.18361 409.184468 326.643532 
C 408.64439 326.103455 407.911785 325.8 407.148 325.8 
C 406.384215 325.8 405.65161 326.103455 405.111532 326.643532 
C 404.571455 327.18361 404.268 327.916215 404.268 328.68 
C 404.268 329.443785 404.571455 330.17639 405.111532 330.716468 
C 405.65161 331.256545 406.384215 331.56 407.148 331.56 
z
" clip-path="url(#pb1c755d536)" style="stroke: #000000; stroke-width: 2; stroke-linejoin: miter"/>
   </g>
  </g>
 </g>
 <defs>
  <clipPath id="pb1c755d536">
   <rect x="0" y="0" width="420.828" height="336.24"/>
  </clipPath>
 </defs>
</svg>
