<?xml version="1.0" encoding="utf-8" standalone="no"?>
<!DOCTYPE svg PUBLIC "-//W3C//DTD SVG 1.1//EN"
  "http://www.w3.org/Graphics/SVG/1.1/DTD/svg11.dtd">
<svg xmlns:xlink="http://www.w3.org/1999/xlink" width="447.12pt" height="379.06pt" viewBox="0 0 447.12 379.06" xmlns="http://www.w3.org/2000/svg" version="1.1">
 <metadata>
  <rdf:RDF xmlns:dc="http://purl.org/dc/elements/1.1/" xmlns:cc="http://creativecommons.org/ns#" xmlns:rdf="http://www.w3.org/1999/02/22-rdf-syntax-ns#">
   <cc:Work>
    <dc:type rdf:resource="http://purl.org/dc/dcmitype/StillImage"/>
    <dc:date>2026-06-17T16:22:47.056078</dc:date>
    <dc:format>image/svg+xml</dc:format>
    <dc:creator>
     <cc:Agent>
      <dc:title>Matplotlib v3.10.6, https://matplotlib.org/</dc:title>
     </cc:Agent>
    </dc:creator>
   </cc:Work>
  </rdf:RDF>
 </metadata>
 <defs>
  <style type="text/css">*{stroke-linejoin: round; stroke-linecap: butt}</style>
 </defs>
 <g id="figure_1">
  <g id="patch_1">
   <path d="M 0 379.06 
L 447.12 379.06 
L 447.12 0 
L 0 0 
z
" style="fill: #ffffff"/>
  </g>
  <g id="axes_1">
   <g id="patch_2">
    <path d="M 176.76 90.88 
L 176.645765 90.880906 
L 176.531559 90.883625 
L 176.41741 90.888155 
L 176.303348 90.894496 
L 176.1894 90.902646 
L 176.075596 90.912602 
L 175.961965 90.924363 
L 175.848534 90.937925 
L 175.735333 90.953286 
L 175.62239 90.97044 
L 175.509733 90.989384 
L 175.397391 91.010113 
L 175.285392 91.032622 
L 175.173764 91.056906 
L 175.062536 91.082957 
L 174.951734 91.110769 
L 174.841389 91.140336 
L 174.731526 91.171651 
L 174.622173 91.204704 
L 174.513359 91.239488 
L 174.405111 91.275994 
L 174.297455 91.314213 
L 174.190419 91.354135 
L 174.08403 91.395751 
L 173.978315 91.439049 
L 173.8733 91.484019 
L 173.769012 91.53065 
L 173.665477 91.578929 
L 173.56272 91.628845 
L 173.460769 91.680385 
L 173.359648 91.733536 
L 173.259384 91.788284 
L 173.16 91.844617 
L 173.061523 91.902519 
L 172.963977 91.961977 
L 172.867386 92.022975 
L 172.771776 92.085497 
L 172.677169 92.149529 
L 172.58359 92.215053 
L 172.491063 92.282054 
L 172.39961 92.350515 
L 172.309255 92.420418 
L 172.220021 92.491745 
L 172.131929 92.56448 
L 172.045003 92.638603 
L 171.959263 92.714096 
L 171.874732 92.79094 
L 171.791431 92.869115 
L 171.709381 92.948602 
L 171.628602 93.029381 
L 171.549115 93.111431 
L 171.47094 93.194732 
L 171.394096 93.279263 
L 171.318603 93.365003 
L 171.24448 93.451929 
L 171.171745 93.540021 
L 171.100418 93.629255 
L 171.030515 93.71961 
L 170.962054 93.811063 
L 170.895053 93.90359 
L 170.829529 93.997169 
L 170.765497 94.091776 
L 170.702975 94.187386 
L 170.641977 94.283977 
L 170.582519 94.381523 
L 170.524617 94.48 
L 170.468284 94.579384 
L 170.413536 94.679648 
L 170.360385 94.780769 
L 170.308845 94.88272 
L 170.258929 94.985477 
L 170.21065 95.089012 
L 170.164019 95.1933 
L 170.119049 95.298315 
L 170.075751 95.40403 
L 170.034135 95.510419 
L 169.994213 95.617455 
L 169.955994 95.725111 
L 169.919488 95.833359 
L 169.884704 95.942173 
L 169.851651 96.051526 
L 169.820336 96.161389 
L 169.790769 96.271734 
L 169.762957 96.382536 
L 169.736906 96.493764 
L 169.712622 96.605392 
L 169.690113 96.717391 
L 169.669384 96.829733 
L 169.65044 96.94239 
L 169.633286 97.055333 
L 169.617925 97.168534 
L 169.604363 97.281965 
L 169.592602 97.395596 
L 169.582646 97.5094 
L 169.574496 97.623348 
L 169.568155 97.73741 
L 169.563625 97.851559 
L 169.560906 97.965765 
L 169.56 98.08 
L 169.56 137.68 
L 169.560906 137.794235 
L 169.563625 137.908441 
L 169.568155 138.02259 
L 169.574496 138.136652 
L 169.582646 138.2506 
L 169.592602 138.364404 
L 169.604363 138.478035 
L 169.617925 138.591466 
L 169.633286 138.704667 
L 169.65044 138.81761 
L 169.669384 138.930267 
L 169.690113 139.042609 
L 169.712622 139.154608 
L 169.736906 139.266236 
L 169.762957 139.377464 
L 169.790769 139.488266 
L 169.820336 139.598611 
L 169.851651 139.708474 
L 169.884704 139.817827 
L 169.919488 139.926641 
L 169.955994 140.034889 
L 169.994213 140.142545 
L 170.034135 140.249581 
L 170.075751 140.35597 
L 170.119049 140.461685 
L 170.164019 140.5667 
L 170.21065 140.670988 
L 170.258929 140.774523 
L 170.308845 140.87728 
L 170.360385 140.979231 
L 170.413536 141.080352 
L 170.468284 141.180616 
L 170.524617 141.28 
L 170.582519 141.378477 
L 170.641977 141.476023 
L 170.702975 141.572614 
L 170.765497 141.668224 
L 170.829529 141.762831 
L 170.895053 141.85641 
L 170.962054 141.948937 
L 171.030515 142.04039 
L 171.100418 142.130745 
L 171.171745 142.219979 
L 171.24448 142.308071 
L 171.318603 142.394997 
L 171.394096 142.480737 
L 171.47094 142.565268 
L 171.549115 142.648569 
L 171.628602 142.730619 
L 171.709381 142.811398 
L 171.791431 142.890885 
L 171.874732 142.96906 
L 171.959263 143.045904 
L 172.045003 143.121397 
L 172.131929 143.19552 
L 172.220021 143.268255 
L 172.309255 143.339582 
L 172.39961 143.409485 
L 172.491063 143.477946 
L 172.58359 143.544947 
L 172.677169 143.610471 
L 172.771776 143.674503 
L 172.867386 143.737025 
L 172.963977 143.798023 
L 173.061523 143.857481 
L 173.16 143.915383 
L 173.259384 143.971716 
L 173.359648 144.026464 
L 173.460769 144.079615 
L 173.56272 144.131155 
L 173.665477 144.181071 
L 173.769012 144.22935 
L 173.8733 144.275981 
L 173.978315 144.320951 
L 174.08403 144.364249 
L 174.190419 144.405865 
L 174.297455 144.445787 
L 174.405111 144.484006 
L 174.513359 144.520512 
L 174.622173 144.555296 
L 174.731526 144.588349 
L 174.841389 144.619664 
L 174.951734 144.649231 
L 175.062536 144.677043 
L 175.173764 144.703094 
L 175.285392 144.727378 
L 175.397391 144.749887 
L 175.509733 144.770616 
L 175.62239 144.78956 
L 175.735333 144.806714 
L 175.848534 144.822075 
L 175.961965 144.835637 
L 176.075596 144.847398 
L 176.1894 144.857354 
L 176.303348 144.865504 
L 176.41741 144.871845 
L 176.531559 144.876375 
L 176.645765 144.879094 
L 176.76 144.88 
L 216.36 144.88 
L 216.474235 144.879094 
L 216.588441 144.876375 
L 216.70259 144.871845 
L 216.816652 144.865504 
L 216.9306 144.857354 
L 217.044404 144.847398 
L 217.158035 144.835637 
L 217.271466 144.822075 
L 217.384667 144.806714 
L 217.49761 144.78956 
L 217.610267 144.770616 
L 217.722609 144.749887 
L 217.834608 144.727378 
L 217.946236 144.703094 
L 218.057464 144.677043 
L 218.168266 144.649231 
L 218.278611 144.619664 
L 218.388474 144.588349 
L 218.497827 144.555296 
L 218.606641 144.520512 
L 218.714889 144.484006 
L 218.822545 144.445787 
L 218.929581 144.405865 
L 219.03597 144.364249 
L 219.141685 144.320951 
L 219.2467 144.275981 
L 219.350988 144.22935 
L 219.454523 144.181071 
L 219.55728 144.131155 
L 219.659231 144.079615 
L 219.760352 144.026464 
L 219.860616 143.971716 
L 219.96 143.915383 
L 220.058477 143.857481 
L 220.156023 143.798023 
L 220.252614 143.737025 
L 220.348224 143.674503 
L 220.442831 143.610471 
L 220.53641 143.544947 
L 220.628937 143.477946 
L 220.72039 143.409485 
L 220.810745 143.339582 
L 220.899979 143.268255 
L 220.988071 143.19552 
L 221.074997 143.121397 
L 221.160737 143.045904 
L 221.245268 142.96906 
L 221.328569 142.890885 
L 221.410619 142.811398 
L 221.491398 142.730619 
L 221.570885 142.648569 
L 221.64906 142.565268 
L 221.725904 142.480737 
L 221.801397 142.394997 
L 221.87552 142.308071 
L 221.948255 142.219979 
L 222.019582 142.130745 
L 222.089485 142.04039 
L 222.157946 141.948937 
L 222.224947 141.85641 
L 222.290471 141.762831 
L 222.354503 141.668224 
L 222.417025 141.572614 
L 222.478023 141.476023 
L 222.537481 141.378477 
L 222.595383 141.28 
L 222.651716 141.180616 
L 222.706464 141.080352 
L 222.759615 140.979231 
L 222.811155 140.87728 
L 222.861071 140.774523 
L 222.90935 140.670988 
L 222.955981 140.5667 
L 223.000951 140.461685 
L 223.044249 140.35597 
L 223.085865 140.249581 
L 223.125787 140.142545 
L 223.164006 140.034889 
L 223.200512 139.926641 
L 223.235296 139.817827 
L 223.268349 139.708474 
L 223.299664 139.598611 
L 223.329231 139.488266 
L 223.357043 139.377464 
L 223.383094 139.266236 
L 223.407378 139.154608 
L 223.429887 139.042609 
L 223.450616 138.930267 
L 223.46956 138.81761 
L 223.486714 138.704667 
L 223.502075 138.591466 
L 223.515637 138.478035 
L 223.527398 138.364404 
L 223.537354 138.2506 
L 223.545504 138.136652 
L 223.551845 138.02259 
L 223.556375 137.908441 
L 223.559094 137.794235 
L 223.56 137.68 
L 223.56 98.08 
L 223.559094 97.965765 
L 223.556375 97.851559 
L 223.551845 97.73741 
L 223.545504 97.623348 
L 223.537354 97.5094 
L 223.527398 97.395596 
L 223.515637 97.281965 
L 223.502075 97.168534 
L 223.486714 97.055333 
L 223.46956 96.94239 
L 223.450616 96.829733 
L 223.429887 96.717391 
L 223.407378 96.605392 
L 223.383094 96.493764 
L 223.357043 96.382536 
L 223.329231 96.271734 
L 223.299664 96.161389 
L 223.268349 96.051526 
L 223.235296 95.942173 
L 223.200512 95.833359 
L 223.164006 95.725111 
L 223.125787 95.617455 
L 223.085865 95.510419 
L 223.044249 95.40403 
L 223.000951 95.298315 
L 222.955981 95.1933 
L 222.90935 95.089012 
L 222.861071 94.985477 
L 222.811155 94.88272 
L 222.759615 94.780769 
L 222.706464 94.679648 
L 222.651716 94.579384 
L 222.595383 94.48 
L 222.537481 94.381523 
L 222.478023 94.283977 
L 222.417025 94.187386 
L 222.354503 94.091776 
L 222.290471 93.997169 
L 222.224947 93.90359 
L 222.157946 93.811063 
L 222.089485 93.71961 
L 222.019582 93.629255 
L 221.948255 93.540021 
L 221.87552 93.451929 
L 221.801397 93.365003 
L 221.725904 93.279263 
L 221.64906 93.194732 
L 221.570885 93.111431 
L 221.491398 93.029381 
L 221.410619 92.948602 
L 221.328569 92.869115 
L 221.245268 92.79094 
L 221.160737 92.714096 
L 221.074997 92.638603 
L 220.988071 92.56448 
L 220.899979 92.491745 
L 220.810745 92.420418 
L 220.72039 92.350515 
L 220.628937 92.282054 
L 220.53641 92.215053 
L 220.442831 92.149529 
L 220.348224 92.085497 
L 220.252614 92.022975 
L 220.156023 91.961977 
L 220.058477 91.902519 
L 219.96 91.844617 
L 219.860616 91.788284 
L 219.760352 91.733536 
L 219.659231 91.680385 
L 219.55728 91.628845 
L 219.454523 91.578929 
L 219.350988 91.53065 
L 219.2467 91.484019 
L 219.141685 91.439049 
L 219.03597 91.395751 
L 218.929581 91.354135 
L 218.822545 91.314213 
L 218.714889 91.275994 
L 218.606641 91.239488 
L 218.497827 91.204704 
L 218.388474 91.171651 
L 218.278611 91.140336 
L 218.168266 91.110769 
L 218.057464 91.082957 
L 217.946236 91.056906 
L 217.834608 91.032622 
L 217.722609 91.010113 
L 217.610267 90.989384 
L 217.49761 90.97044 
L 217.384667 90.953286 
L 217.271466 90.937925 
L 217.158035 90.924363 
L 217.044404 90.912602 
L 216.9306 90.902646 
L 216.816652 90.894496 
L 216.70259 90.888155 
L 216.588441 90.883625 
L 216.474235 90.880906 
L 216.36 90.88 
L 176.76 90.88 
z
" clip-path="url(#p3a3f656b72)" style="fill: none; stroke: #000000; stroke-width: 2; stroke-linecap: round"/>
   </g>
   <g id="line2d_1">
    <path d="M 7.56 36.88 
L 115.56 36.88 
L 223.56 36.88 
" clip-path="url(#p3a3f656b72)" style="fill: none; stroke: #000000; stroke-width: 2; stroke-linecap: round"/>
   </g>
   <g id="line2d_2">
    <path d="M 223.56 36.88 
L 331.56 36.88 
L 439.56 36.88 
" clip-path="url(#p3a3f656b72)" style="fill: none; stroke: #000000; stroke-width: 2; stroke-linecap: round"/>
   </g>
   <g id="line2d_3">
    <path d="M 7.56 36.88 
L 102.832078 132.152078 
L 111.317359 127.909437 
L 102.832078 144.88 
L 119.802641 136.394719 
L 111.317359 153.365281 
L 128.287922 144.88 
L 119.802641 161.850563 
L 128.287922 157.607922 
L 223.56 252.88 
" clip-path="url(#p3a3f656b72)" style="fill: none; stroke: #000000; stroke-width: 2; stroke-linecap: round"/>
   </g>
   <g id="line2d_4">
    <path d="M 223.56 252.88 
L 318.832078 157.607922 
L 314.589437 149.122641 
L 331.56 157.607922 
L 323.074719 140.637359 
L 340.045281 149.122641 
L 331.56 132.152078 
L 348.530563 140.637359 
L 344.287922 132.152078 
L 439.56 36.88 
" clip-path="url(#p3a3f656b72)" style="fill: none; stroke: #000000; stroke-width: 2; stroke-linecap: round"/>
   </g>
   <g id="line2d_5">
    <path d="M 223.56 252.88 
L 223.56 144.88 
L 223.56 36.88 
" clip-path="url(#p3a3f656b72)" style="fill: none; stroke: #000000; stroke-width: 2; stroke-linecap: round"/>
   </g>
   <g id="patch_3">
    <path d="M 180.36 135.88 
Q 173.16 117.88 180.36 99.88 
L 192.6 104.38 
Q 187.56 117.88 192.6 131.38 
L 180.36 135.88 
z
" clip-path="url(#p3a3f656b72)" style="fill: none; stroke: #000000; stroke-linecap: round"/>
   </g>
   <g id="line2d_6">
    <path d="M 190.184095 112.294789 
L 180.952462 110.749943 
" clip-path="url(#p3a3f656b72)" style="fill: none; stroke: #000000; stroke-width: 1.5; stroke-linecap: round"/>
   </g>
   <g id="line2d_7">
    <path d="M 7.56 36.88 
L 7.56 198.88 
L 7.56 360.88 
" clip-path="url(#p3a3f656b72)" style="fill: none; stroke: #000000; stroke-width: 2; stroke-linecap: round"/>
   </g>
   <g id="line2d_8">
    <path d="M 7.56 360.88 
L 58.185 360.88 
M 64.935 360.88 
L 115.56 360.88 
" clip-path="url(#p3a3f656b72)" style="fill: none; stroke: #000000; stroke-width: 2; stroke-linecap: round"/>
   </g>
   <g id="line2d_9">
    <path d="M 58.185 347.38 
L 58.185 374.38 
" clip-path="url(#p3a3f656b72)" style="fill: none; stroke: #000000; stroke-width: 2; stroke-linecap: round"/>
   </g>
   <g id="line2d_10">
    <path d="M 64.935 354.13 
L 64.935 367.63 
" clip-path="url(#p3a3f656b72)" style="fill: none; stroke: #000000; stroke-width: 2; stroke-linecap: round"/>
   </g>
   <g id="line2d_11">
    <path d="M 126.36 360.88 
L 162.36 360.88 
M 171 357.28 
L 191.16 344.68 
M 198.36 360.88 
L 234.36 360.88 
" clip-path="url(#p3a3f656b72)" style="fill: none; stroke: #000000; stroke-width: 2; stroke-linecap: round"/>
   </g>
   <g id="line2d_12">
    <path d="M 234.36 360.88 
L 336.96 360.88 
L 439.56 360.88 
" clip-path="url(#p3a3f656b72)" style="fill: none; stroke: #000000; stroke-width: 2; stroke-linecap: round"/>
   </g>
   <g id="line2d_13">
    <path d="M 439.56 360.88 
L 439.56 198.88 
L 439.56 36.88 
" clip-path="url(#p3a3f656b72)" style="fill: none; stroke: #000000; stroke-width: 2; stroke-linecap: round"/>
   </g>
   <g id="line2d_14">
    <path d="M 223.56 36.88 
L 223.56 51.28 
L 223.56 56.68 
" clip-path="url(#p3a3f656b72)" style="fill: none; stroke: #000000; stroke-width: 2; stroke-linecap: round"/>
   </g>
   <g id="patch_4">
    <path d="M 226.26 56.68 
L 223.56 65.68 
L 220.86 56.68 
z
" clip-path="url(#p3a3f656b72)"/>
   </g>
   <g id="text_1">
    <!-- 100 cm bridge wire -->
    <g transform="translate(159.299375 15.543125) scale(0.14 -0.14)">
     <defs>
      <path id="DejaVuSans-31" d="M 794 531 
L 1825 531 
L 1825 4091 
L 703 3866 
L 703 4441 
L 1819 4666 
L 2450 4666 
L 2450 531 
L 3481 531 
L 3481 0 
L 794 0 
L 794 531 
z
" transform="scale(0.015625)"/>
      <path id="DejaVuSans-30" d="M 2034 4250 
Q 1547 4250 1301 3770 
Q 1056 3291 1056 2328 
Q 1056 1369 1301 889 
Q 1547 409 2034 409 
Q 2525 409 2770 889 
Q 3016 1369 3016 2328 
Q 3016 3291 2770 3770 
Q 2525 4250 2034 4250 
z
M 2034 4750 
Q 2819 4750 3233 4129 
Q 3647 3509 3647 2328 
Q 3647 1150 3233 529 
Q 2819 -91 2034 -91 
Q 1250 -91 836 529 
Q 422 1150 422 2328 
Q 422 3509 836 4129 
Q 1250 4750 2034 4750 
z
" transform="scale(0.015625)"/>
      <path id="DejaVuSans-20" transform="scale(0.015625)"/>
      <path id="DejaVuSans-63" d="M 3122 3366 
L 3122 2828 
Q 2878 2963 2633 3030 
Q 2388 3097 2138 3097 
Q 1578 3097 1268 2742 
Q 959 2388 959 1747 
Q 959 1106 1268 751 
Q 1578 397 2138 397 
Q 2388 397 2633 464 
Q 2878 531 3122 666 
L 3122 134 
Q 2881 22 2623 -34 
Q 2366 -91 2075 -91 
Q 1284 -91 818 406 
Q 353 903 353 1747 
Q 353 2603 823 3093 
Q 1294 3584 2113 3584 
Q 2378 3584 2631 3529 
Q 2884 3475 3122 3366 
z
" transform="scale(0.015625)"/>
      <path id="DejaVuSans-6d" d="M 3328 2828 
Q 3544 3216 3844 3400 
Q 4144 3584 4550 3584 
Q 5097 3584 5394 3201 
Q 5691 2819 5691 2113 
L 5691 0 
L 5113 0 
L 5113 2094 
Q 5113 2597 4934 2840 
Q 4756 3084 4391 3084 
Q 3944 3084 3684 2787 
Q 3425 2491 3425 1978 
L 3425 0 
L 2847 0 
L 2847 2094 
Q 2847 2600 2669 2842 
Q 2491 3084 2119 3084 
Q 1678 3084 1418 2786 
Q 1159 2488 1159 1978 
L 1159 0 
L 581 0 
L 581 3500 
L 1159 3500 
L 1159 2956 
Q 1356 3278 1631 3431 
Q 1906 3584 2284 3584 
Q 2666 3584 2933 3390 
Q 3200 3197 3328 2828 
z
" transform="scale(0.015625)"/>
      <path id="DejaVuSans-62" d="M 3116 1747 
Q 3116 2381 2855 2742 
Q 2594 3103 2138 3103 
Q 1681 3103 1420 2742 
Q 1159 2381 1159 1747 
Q 1159 1113 1420 752 
Q 1681 391 2138 391 
Q 2594 391 2855 752 
Q 3116 1113 3116 1747 
z
M 1159 2969 
Q 1341 3281 1617 3432 
Q 1894 3584 2278 3584 
Q 2916 3584 3314 3078 
Q 3713 2572 3713 1747 
Q 3713 922 3314 415 
Q 2916 -91 2278 -91 
Q 1894 -91 1617 61 
Q 1341 213 1159 525 
L 1159 0 
L 581 0 
L 581 4863 
L 1159 4863 
L 1159 2969 
z
" transform="scale(0.015625)"/>
      <path id="DejaVuSans-72" d="M 2631 2963 
Q 2534 3019 2420 3045 
Q 2306 3072 2169 3072 
Q 1681 3072 1420 2755 
Q 1159 2438 1159 1844 
L 1159 0 
L 581 0 
L 581 3500 
L 1159 3500 
L 1159 2956 
Q 1341 3275 1631 3429 
Q 1922 3584 2338 3584 
Q 2397 3584 2469 3576 
Q 2541 3569 2628 3553 
L 2631 2963 
z
" transform="scale(0.015625)"/>
      <path id="DejaVuSans-69" d="M 603 3500 
L 1178 3500 
L 1178 0 
L 603 0 
L 603 3500 
z
M 603 4863 
L 1178 4863 
L 1178 4134 
L 603 4134 
L 603 4863 
z
" transform="scale(0.015625)"/>
      <path id="DejaVuSans-64" d="M 2906 2969 
L 2906 4863 
L 3481 4863 
L 3481 0 
L 2906 0 
L 2906 525 
Q 2725 213 2448 61 
Q 2172 -91 1784 -91 
Q 1150 -91 751 415 
Q 353 922 353 1747 
Q 353 2572 751 3078 
Q 1150 3584 1784 3584 
Q 2172 3584 2448 3432 
Q 2725 3281 2906 2969 
z
M 947 1747 
Q 947 1113 1208 752 
Q 1469 391 1925 391 
Q 2381 391 2643 752 
Q 2906 1113 2906 1747 
Q 2906 2381 2643 2742 
Q 2381 3103 1925 3103 
Q 1469 3103 1208 2742 
Q 947 2381 947 1747 
z
" transform="scale(0.015625)"/>
      <path id="DejaVuSans-67" d="M 2906 1791 
Q 2906 2416 2648 2759 
Q 2391 3103 1925 3103 
Q 1463 3103 1205 2759 
Q 947 2416 947 1791 
Q 947 1169 1205 825 
Q 1463 481 1925 481 
Q 2391 481 2648 825 
Q 2906 1169 2906 1791 
z
M 3481 434 
Q 3481 -459 3084 -895 
Q 2688 -1331 1869 -1331 
Q 1566 -1331 1297 -1286 
Q 1028 -1241 775 -1147 
L 775 -588 
Q 1028 -725 1275 -790 
Q 1522 -856 1778 -856 
Q 2344 -856 2625 -561 
Q 2906 -266 2906 331 
L 2906 616 
Q 2728 306 2450 153 
Q 2172 0 1784 0 
Q 1141 0 747 490 
Q 353 981 353 1791 
Q 353 2603 747 3093 
Q 1141 3584 1784 3584 
Q 2172 3584 2450 3431 
Q 2728 3278 2906 2969 
L 2906 3500 
L 3481 3500 
L 3481 434 
z
" transform="scale(0.015625)"/>
      <path id="DejaVuSans-65" d="M 3597 1894 
L 3597 1613 
L 953 1613 
Q 991 1019 1311 708 
Q 1631 397 2203 397 
Q 2534 397 2845 478 
Q 3156 559 3463 722 
L 3463 178 
Q 3153 47 2828 -22 
Q 2503 -91 2169 -91 
Q 1331 -91 842 396 
Q 353 884 353 1716 
Q 353 2575 817 3079 
Q 1281 3584 2069 3584 
Q 2775 3584 3186 3129 
Q 3597 2675 3597 1894 
z
M 3022 2063 
Q 3016 2534 2758 2815 
Q 2500 3097 2075 3097 
Q 1594 3097 1305 2825 
Q 1016 2553 972 2059 
L 3022 2063 
z
" transform="scale(0.015625)"/>
      <path id="DejaVuSans-77" d="M 269 3500 
L 844 3500 
L 1563 769 
L 2278 3500 
L 2956 3500 
L 3675 769 
L 4391 3500 
L 4966 3500 
L 4050 0 
L 3372 0 
L 2619 2869 
L 1863 0 
L 1184 0 
L 269 3500 
z
" transform="scale(0.015625)"/>
     </defs>
     <use xlink:href="#DejaVuSans-31"/>
     <use xlink:href="#DejaVuSans-30" transform="translate(63.623047 0)"/>
     <use xlink:href="#DejaVuSans-30" transform="translate(127.246094 0)"/>
     <use xlink:href="#DejaVuSans-20" transform="translate(190.869141 0)"/>
     <use xlink:href="#DejaVuSans-63" transform="translate(222.65625 0)"/>
     <use xlink:href="#DejaVuSans-6d" transform="translate(277.636719 0)"/>
     <use xlink:href="#DejaVuSans-20" transform="translate(375.048828 0)"/>
     <use xlink:href="#DejaVuSans-62" transform="translate(406.835938 0)"/>
     <use xlink:href="#DejaVuSans-72" transform="translate(470.3125 0)"/>
     <use xlink:href="#DejaVuSans-69" transform="translate(511.425781 0)"/>
     <use xlink:href="#DejaVuSans-64" transform="translate(539.208984 0)"/>
     <use xlink:href="#DejaVuSans-67" transform="translate(602.685547 0)"/>
     <use xlink:href="#DejaVuSans-65" transform="translate(666.162109 0)"/>
     <use xlink:href="#DejaVuSans-20" transform="translate(727.685547 0)"/>
     <use xlink:href="#DejaVuSans-77" transform="translate(759.472656 0)"/>
     <use xlink:href="#DejaVuSans-69" transform="translate(841.259766 0)"/>
     <use xlink:href="#DejaVuSans-72" transform="translate(869.042969 0)"/>
     <use xlink:href="#DejaVuSans-65" transform="translate(907.90625 0)"/>
    </g>
   </g>
   <g id="text_2">
    <!-- 5Ω -->
    <g transform="translate(124.469545 133.058892) scale(0.14 -0.14)">
     <defs>
      <path id="DejaVuSans-35" d="M 691 4666 
L 3169 4666 
L 3169 4134 
L 1269 4134 
L 1269 2991 
Q 1406 3038 1543 3061 
Q 1681 3084 1819 3084 
Q 2600 3084 3056 2656 
Q 3513 2228 3513 1497 
Q 3513 744 3044 326 
Q 2575 -91 1722 -91 
Q 1428 -91 1123 -41 
Q 819 9 494 109 
L 494 744 
Q 775 591 1075 516 
Q 1375 441 1709 441 
Q 2250 441 2565 725 
Q 2881 1009 2881 1497 
Q 2881 1984 2565 2268 
Q 2250 2553 1709 2553 
Q 1456 2553 1204 2497 
Q 953 2441 691 2322 
L 691 4666 
z
" transform="scale(0.015625)"/>
      <path id="DejaVuSans-3a9" d="M 4647 556 
L 4647 0 
L 2772 0 
L 2772 556 
Q 3325 859 3634 1378 
Q 3944 1897 3944 2528 
Q 3944 3278 3531 3731 
Q 3119 4184 2444 4184 
Q 1769 4184 1355 3729 
Q 941 3275 941 2528 
Q 941 1897 1250 1378 
Q 1563 859 2119 556 
L 2119 0 
L 244 0 
L 244 556 
L 1241 556 
Q 747 991 519 1456 
Q 294 1922 294 2497 
Q 294 3491 894 4106 
Q 1491 4722 2444 4722 
Q 3391 4722 3994 4106 
Q 4594 3494 4594 2528 
Q 4594 1922 4372 1459 
Q 4150 997 3647 556 
L 4647 556 
z
" transform="scale(0.015625)"/>
     </defs>
     <use xlink:href="#DejaVuSans-35"/>
     <use xlink:href="#DejaVuSans-3a9" transform="translate(63.623047 0)"/>
    </g>
   </g>
   <g id="text_3">
    <!-- ? -->
    <g transform="translate(315.219517 133.058892) scale(0.14 -0.14)">
     <defs>
      <path id="DejaVuSans-3f" d="M 1222 794 
L 1856 794 
L 1856 0 
L 1222 0 
L 1222 794 
z
M 1838 1253 
L 1241 1253 
L 1241 1734 
Q 1241 2050 1328 2253 
Q 1416 2456 1697 2725 
L 1978 3003 
Q 2156 3169 2236 3316 
Q 2316 3463 2316 3616 
Q 2316 3894 2111 4066 
Q 1906 4238 1569 4238 
Q 1322 4238 1042 4128 
Q 763 4019 459 3809 
L 459 4397 
Q 753 4575 1054 4662 
Q 1356 4750 1678 4750 
Q 2253 4750 2601 4447 
Q 2950 4144 2950 3647 
Q 2950 3409 2837 3195 
Q 2725 2981 2444 2713 
L 2169 2444 
Q 2022 2297 1961 2214 
Q 1900 2131 1875 2053 
Q 1856 1988 1847 1894 
Q 1838 1800 1838 1638 
L 1838 1253 
z
" transform="scale(0.015625)"/>
     </defs>
     <use xlink:href="#DejaVuSans-3f"/>
    </g>
   </g>
   <g id="text_4">
    <!-- G -->
    <g transform="translate(155.112188 121.743125) scale(0.14 -0.14)">
     <defs>
      <path id="DejaVuSans-47" d="M 3809 666 
L 3809 1919 
L 2778 1919 
L 2778 2438 
L 4434 2438 
L 4434 434 
Q 4069 175 3628 42 
Q 3188 -91 2688 -91 
Q 1594 -91 976 548 
Q 359 1188 359 2328 
Q 359 3472 976 4111 
Q 1594 4750 2688 4750 
Q 3144 4750 3555 4637 
Q 3966 4525 4313 4306 
L 4313 3634 
Q 3963 3931 3569 4081 
Q 3175 4231 2741 4231 
Q 1884 4231 1454 3753 
Q 1025 3275 1025 2328 
Q 1025 1384 1454 906 
Q 1884 428 2741 428 
Q 3075 428 3337 486 
Q 3600 544 3809 666 
z
" transform="scale(0.015625)"/>
     </defs>
     <use xlink:href="#DejaVuSans-47"/>
    </g>
   </g>
   <g id="text_5">
    <!-- 2V -->
    <g transform="translate(52.317813 340.868438) scale(0.14 -0.14)">
     <defs>
      <path id="DejaVuSans-32" d="M 1228 531 
L 3431 531 
L 3431 0 
L 469 0 
L 469 531 
Q 828 903 1448 1529 
Q 2069 2156 2228 2338 
Q 2531 2678 2651 2914 
Q 2772 3150 2772 3378 
Q 2772 3750 2511 3984 
Q 2250 4219 1831 4219 
Q 1534 4219 1204 4116 
Q 875 4013 500 3803 
L 500 4441 
Q 881 4594 1212 4672 
Q 1544 4750 1819 4750 
Q 2544 4750 2975 4387 
Q 3406 4025 3406 3419 
Q 3406 3131 3298 2873 
Q 3191 2616 2906 2266 
Q 2828 2175 2409 1742 
Q 1991 1309 1228 531 
z
" transform="scale(0.015625)"/>
      <path id="DejaVuSans-56" d="M 1831 0 
L 50 4666 
L 709 4666 
L 2188 738 
L 3669 4666 
L 4325 4666 
L 2547 0 
L 1831 0 
z
" transform="scale(0.015625)"/>
     </defs>
     <use xlink:href="#DejaVuSans-32"/>
     <use xlink:href="#DejaVuSans-56" transform="translate(63.623047 0)"/>
    </g>
   </g>
   <g id="patch_5">
    <path d="M 166.68 365.2 
C 167.825677 365.2 168.924585 364.744818 169.734701 363.934701 
C 170.544818 363.124585 171 362.025677 171 360.88 
C 171 359.734323 170.544818 358.635415 169.734701 357.825299 
C 168.924585 357.015182 167.825677 356.56 166.68 356.56 
C 165.534323 356.56 164.435415 357.015182 163.625299 357.825299 
C 162.815182 358.635415 162.36 359.734323 162.36 360.88 
C 162.36 362.025677 162.815182 363.124585 163.625299 363.934701 
C 164.435415 364.744818 165.534323 365.2 166.68 365.2 
z
" clip-path="url(#p3a3f656b72)" style="fill: #ffffff; stroke: #000000; stroke-width: 2; stroke-linejoin: miter"/>
   </g>
   <g id="patch_6">
    <path d="M 194.04 365.2 
C 195.185677 365.2 196.284585 364.744818 197.094701 363.934701 
C 197.904818 363.124585 198.36 362.025677 198.36 360.88 
C 198.36 359.734323 197.904818 358.635415 197.094701 357.825299 
C 196.284585 357.015182 195.185677 356.56 194.04 356.56 
C 192.894323 356.56 191.795415 357.015182 190.985299 357.825299 
C 190.175182 358.635415 189.72 359.734323 189.72 360.88 
C 189.72 362.025677 190.175182 363.124585 190.985299 363.934701 
C 191.795415 364.744818 192.894323 365.2 194.04 365.2 
z
" clip-path="url(#p3a3f656b72)" style="fill: #ffffff; stroke: #000000; stroke-width: 2; stroke-linejoin: miter"/>
   </g>
   <g id="text_6">
    <!-- K -->
    <g transform="translate(175.769531 338.168437) scale(0.14 -0.14)">
     <defs>
      <path id="DejaVuSans-4b" d="M 628 4666 
L 1259 4666 
L 1259 2694 
L 3353 4666 
L 4166 4666 
L 1850 2491 
L 4331 0 
L 3500 0 
L 1259 2247 
L 1259 0 
L 628 0 
L 628 4666 
z
" transform="scale(0.015625)"/>
     </defs>
     <use xlink:href="#DejaVuSans-4b"/>
    </g>
   </g>
   <g id="text_7">
    <!-- J -->
    <g transform="translate(239.495 55.143125) scale(0.14 -0.14)">
     <defs>
      <path id="DejaVuSans-4a" d="M 628 4666 
L 1259 4666 
L 1259 325 
Q 1259 -519 939 -900 
Q 619 -1281 -91 -1281 
L -331 -1281 
L -331 -750 
L -134 -750 
Q 284 -750 456 -515 
Q 628 -281 628 325 
L 628 4666 
z
" transform="scale(0.015625)"/>
     </defs>
     <use xlink:href="#DejaVuSans-4a"/>
    </g>
   </g>
   <g id="patch_7">
    <path d="M 212.76 134.08 
C 213.714731 134.08 214.630488 133.700681 215.305584 133.025584 
C 215.980681 132.350488 216.36 131.434731 216.36 130.48 
C 216.36 129.525269 215.980681 128.609512 215.305584 127.934416 
C 214.630488 127.259319 213.714731 126.88 212.76 126.88 
C 211.805269 126.88 210.889512 127.259319 210.214416 127.934416 
C 209.539319 128.609512 209.16 129.525269 209.16 130.48 
C 209.16 131.434731 209.539319 132.350488 210.214416 133.025584 
C 210.889512 133.700681 211.805269 134.08 212.76 134.08 
L 212.76 134.08 
z
" clip-path="url(#p3a3f656b72)" style="fill: none; stroke: #000000; stroke-linejoin: miter"/>
   </g>
   <g id="patch_8">
    <path d="M 212.76 108.88 
C 213.714731 108.88 214.630488 108.500681 215.305584 107.825584 
C 215.980681 107.150488 216.36 106.234731 216.36 105.28 
C 216.36 104.325269 215.980681 103.409512 215.305584 102.734416 
C 214.630488 102.059319 213.714731 101.68 212.76 101.68 
C 211.805269 101.68 210.889512 102.059319 210.214416 102.734416 
C 209.539319 103.409512 209.16 104.325269 209.16 105.28 
C 209.16 106.234731 209.539319 107.150488 210.214416 107.825584 
C 210.889512 108.500681 211.805269 108.88 212.76 108.88 
L 212.76 108.88 
z
" clip-path="url(#p3a3f656b72)" style="fill: none; stroke: #000000; stroke-linejoin: miter"/>
   </g>
   <g id="patch_9">
    <path d="M 7.56 39.76 
C 8.323785 39.76 9.05639 39.456545 9.596468 38.916468 
C 10.136545 38.37639 10.44 37.643785 10.44 36.88 
C 10.44 36.116215 10.136545 35.38361 9.596468 34.843532 
C 9.05639 34.303455 8.323785 34 7.56 34 
C 6.796215 34 6.06361 34.303455 5.523532 34.843532 
C 4.983455 35.38361 4.68 36.116215 4.68 36.88 
C 4.68 37.643785 4.983455 38.37639 5.523532 38.916468 
C 6.06361 39.456545 6.796215 39.76 7.56 39.76 
z
" clip-path="url(#p3a3f656b72)" style="stroke: #000000; stroke-width: 2; stroke-linejoin: miter"/>
   </g>
   <g id="patch_10">
    <path d="M 223.56 39.76 
C 224.323785 39.76 225.05639 39.456545 225.596468 38.916468 
C 226.136545 38.37639 226.44 37.643785 226.44 36.88 
C 226.44 36.116215 226.136545 35.38361 225.596468 34.843532 
C 225.05639 34.303455 224.323785 34 223.56 34 
C 222.796215 34 222.06361 34.303455 221.523532 34.843532 
C 220.983455 35.38361 220.68 36.116215 220.68 36.88 
C 220.68 37.643785 220.983455 38.37639 221.523532 38.916468 
C 222.06361 39.456545 222.796215 39.76 223.56 39.76 
z
" clip-path="url(#p3a3f656b72)" style="stroke: #000000; stroke-width: 2; stroke-linejoin: miter"/>
   </g>
   <g id="patch_11">
    <path d="M 439.56 39.76 
C 440.323785 39.76 441.05639 39.456545 441.596468 38.916468 
C 442.136545 38.37639 442.44 37.643785 442.44 36.88 
C 442.44 36.116215 442.136545 35.38361 441.596468 34.843532 
C 441.05639 34.303455 440.323785 34 439.56 34 
C 438.796215 34 438.06361 34.303455 437.523532 34.843532 
C 436.983455 35.38361 436.68 36.116215 436.68 36.88 
C 436.68 37.643785 436.983455 38.37639 437.523532 38.916468 
C 438.06361 39.456545 438.796215 39.76 439.56 39.76 
z
" clip-path="url(#p3a3f656b72)" style="stroke: #000000; stroke-width: 2; stroke-linejoin: miter"/>
   </g>
   <g id="patch_12">
    <path d="M 223.56 255.76 
C 224.323785 255.76 225.05639 255.456545 225.596468 254.916468 
C 226.136545 254.37639 226.44 253.643785 226.44 252.88 
C 226.44 252.116215 226.136545 251.38361 225.596468 250.843532 
C 225.05639 250.303455 224.323785 250 223.56 250 
C 222.796215 250 222.06361 250.303455 221.523532 250.843532 
C 220.983455 251.38361 220.68 252.116215 220.68 252.88 
C 220.68 253.643785 220.983455 254.37639 221.523532 254.916468 
C 222.06361 255.456545 222.796215 255.76 223.56 255.76 
z
" clip-path="url(#p3a3f656b72)" style="stroke: #000000; stroke-width: 2; stroke-linejoin: miter"/>
   </g>
  </g>
 </g>
 <defs>
  <clipPath id="p3a3f656b72">
   <rect x="0" y="0" width="447.12" height="379.06"/>
  </clipPath>
 </defs>
</svg>
