<?xml version="1.0" encoding="utf-8" standalone="no"?>
<!DOCTYPE svg PUBLIC "-//W3C//DTD SVG 1.1//EN"
  "http://www.w3.org/Graphics/SVG/1.1/DTD/svg11.dtd">
<svg xmlns:xlink="http://www.w3.org/1999/xlink" width="427.932pt" height="347.36pt" viewBox="0 0 427.932 347.36" xmlns="http://www.w3.org/2000/svg" version="1.1">
 <metadata>
  <rdf:RDF xmlns:dc="http://purl.org/dc/elements/1.1/" xmlns:cc="http://creativecommons.org/ns#" xmlns:rdf="http://www.w3.org/1999/02/22-rdf-syntax-ns#">
   <cc:Work>
    <dc:type rdf:resource="http://purl.org/dc/dcmitype/StillImage"/>
    <dc:date>2026-06-17T16:22:47.111440</dc:date>
    <dc:format>image/svg+xml</dc:format>
    <dc:creator>
     <cc:Agent>
      <dc:title>Matplotlib v3.10.6, https://matplotlib.org/</dc:title>
     </cc:Agent>
    </dc:creator>
   </cc:Work>
  </rdf:RDF>
 </metadata>
 <defs>
  <style type="text/css">*{stroke-linejoin: round; stroke-linecap: butt}</style>
 </defs>
 <g id="figure_1">
  <g id="patch_1">
   <path d="M 0 347.36 
L 427.932 347.36 
L 427.932 0 
L 0 0 
z
" style="fill: #ffffff"/>
  </g>
  <g id="axes_1">
   <g id="patch_2">
    <path d="M 184.548 123.28 
L 184.433765 123.280906 
L 184.319559 123.283625 
L 184.20541 123.288155 
L 184.091348 123.294496 
L 183.9774 123.302646 
L 183.863596 123.312602 
L 183.749965 123.324363 
L 183.636534 123.337925 
L 183.523333 123.353286 
L 183.41039 123.37044 
L 183.297733 123.389384 
L 183.185391 123.410113 
L 183.073392 123.432622 
L 182.961764 123.456906 
L 182.850536 123.482957 
L 182.739734 123.510769 
L 182.629389 123.540336 
L 182.519526 123.571651 
L 182.410173 123.604704 
L 182.301359 123.639488 
L 182.193111 123.675994 
L 182.085455 123.714213 
L 181.978419 123.754135 
L 181.87203 123.795751 
L 181.766315 123.839049 
L 181.6613 123.884019 
L 181.557012 123.93065 
L 181.453477 123.978929 
L 181.35072 124.028845 
L 181.248769 124.080385 
L 181.147648 124.133536 
L 181.047384 124.188284 
L 180.948 124.244617 
L 180.849523 124.302519 
L 180.751977 124.361977 
L 180.655386 124.422975 
L 180.559776 124.485497 
L 180.465169 124.549529 
L 180.37159 124.615053 
L 180.279063 124.682054 
L 180.18761 124.750515 
L 180.097255 124.820418 
L 180.008021 124.891745 
L 179.919929 124.96448 
L 179.833003 125.038603 
L 179.747263 125.114096 
L 179.662732 125.19094 
L 179.579431 125.269115 
L 179.497381 125.348602 
L 179.416602 125.429381 
L 179.337115 125.511431 
L 179.25894 125.594732 
L 179.182096 125.679263 
L 179.106603 125.765003 
L 179.03248 125.851929 
L 178.959745 125.940021 
L 178.888418 126.029255 
L 178.818515 126.11961 
L 178.750054 126.211063 
L 178.683053 126.30359 
L 178.617529 126.397169 
L 178.553497 126.491776 
L 178.490975 126.587386 
L 178.429977 126.683977 
L 178.370519 126.781523 
L 178.312617 126.88 
L 178.256284 126.979384 
L 178.201536 127.079648 
L 178.148385 127.180769 
L 178.096845 127.28272 
L 178.046929 127.385477 
L 177.99865 127.489012 
L 177.952019 127.5933 
L 177.907049 127.698315 
L 177.863751 127.80403 
L 177.822135 127.910419 
L 177.782213 128.017455 
L 177.743994 128.125111 
L 177.707488 128.233359 
L 177.672704 128.342173 
L 177.639651 128.451526 
L 177.608336 128.561389 
L 177.578769 128.671734 
L 177.550957 128.782536 
L 177.524906 128.893764 
L 177.500622 129.005392 
L 177.478113 129.117391 
L 177.457384 129.229733 
L 177.43844 129.34239 
L 177.421286 129.455333 
L 177.405925 129.568534 
L 177.392363 129.681965 
L 177.380602 129.795596 
L 177.370646 129.9094 
L 177.362496 130.023348 
L 177.356155 130.13741 
L 177.351625 130.251559 
L 177.348906 130.365765 
L 177.348 130.48 
L 177.348 170.08 
L 177.348906 170.194235 
L 177.351625 170.308441 
L 177.356155 170.42259 
L 177.362496 170.536652 
L 177.370646 170.6506 
L 177.380602 170.764404 
L 177.392363 170.878035 
L 177.405925 170.991466 
L 177.421286 171.104667 
L 177.43844 171.21761 
L 177.457384 171.330267 
L 177.478113 171.442609 
L 177.500622 171.554608 
L 177.524906 171.666236 
L 177.550957 171.777464 
L 177.578769 171.888266 
L 177.608336 171.998611 
L 177.639651 172.108474 
L 177.672704 172.217827 
L 177.707488 172.326641 
L 177.743994 172.434889 
L 177.782213 172.542545 
L 177.822135 172.649581 
L 177.863751 172.75597 
L 177.907049 172.861685 
L 177.952019 172.9667 
L 177.99865 173.070988 
L 178.046929 173.174523 
L 178.096845 173.27728 
L 178.148385 173.379231 
L 178.201536 173.480352 
L 178.256284 173.580616 
L 178.312617 173.68 
L 178.370519 173.778477 
L 178.429977 173.876023 
L 178.490975 173.972614 
L 178.553497 174.068224 
L 178.617529 174.162831 
L 178.683053 174.25641 
L 178.750054 174.348937 
L 178.818515 174.44039 
L 178.888418 174.530745 
L 178.959745 174.619979 
L 179.03248 174.708071 
L 179.106603 174.794997 
L 179.182096 174.880737 
L 179.25894 174.965268 
L 179.337115 175.048569 
L 179.416602 175.130619 
L 179.497381 175.211398 
L 179.579431 175.290885 
L 179.662732 175.36906 
L 179.747263 175.445904 
L 179.833003 175.521397 
L 179.919929 175.59552 
L 180.008021 175.668255 
L 180.097255 175.739582 
L 180.18761 175.809485 
L 180.279063 175.877946 
L 180.37159 175.944947 
L 180.465169 176.010471 
L 180.559776 176.074503 
L 180.655386 176.137025 
L 180.751977 176.198023 
L 180.849523 176.257481 
L 180.948 176.315383 
L 181.047384 176.371716 
L 181.147648 176.426464 
L 181.248769 176.479615 
L 181.35072 176.531155 
L 181.453477 176.581071 
L 181.557012 176.62935 
L 181.6613 176.675981 
L 181.766315 176.720951 
L 181.87203 176.764249 
L 181.978419 176.805865 
L 182.085455 176.845787 
L 182.193111 176.884006 
L 182.301359 176.920512 
L 182.410173 176.955296 
L 182.519526 176.988349 
L 182.629389 177.019664 
L 182.739734 177.049231 
L 182.850536 177.077043 
L 182.961764 177.103094 
L 183.073392 177.127378 
L 183.185391 177.149887 
L 183.297733 177.170616 
L 183.41039 177.18956 
L 183.523333 177.206714 
L 183.636534 177.222075 
L 183.749965 177.235637 
L 183.863596 177.247398 
L 183.9774 177.257354 
L 184.091348 177.265504 
L 184.20541 177.271845 
L 184.319559 177.276375 
L 184.433765 177.279094 
L 184.548 177.28 
L 224.148 177.28 
L 224.262235 177.279094 
L 224.376441 177.276375 
L 224.49059 177.271845 
L 224.604652 177.265504 
L 224.7186 177.257354 
L 224.832404 177.247398 
L 224.946035 177.235637 
L 225.059466 177.222075 
L 225.172667 177.206714 
L 225.28561 177.18956 
L 225.398267 177.170616 
L 225.510609 177.149887 
L 225.622608 177.127378 
L 225.734236 177.103094 
L 225.845464 177.077043 
L 225.956266 177.049231 
L 226.066611 177.019664 
L 226.176474 176.988349 
L 226.285827 176.955296 
L 226.394641 176.920512 
L 226.502889 176.884006 
L 226.610545 176.845787 
L 226.717581 176.805865 
L 226.82397 176.764249 
L 226.929685 176.720951 
L 227.0347 176.675981 
L 227.138988 176.62935 
L 227.242523 176.581071 
L 227.34528 176.531155 
L 227.447231 176.479615 
L 227.548352 176.426464 
L 227.648616 176.371716 
L 227.748 176.315383 
L 227.846477 176.257481 
L 227.944023 176.198023 
L 228.040614 176.137025 
L 228.136224 176.074503 
L 228.230831 176.010471 
L 228.32441 175.944947 
L 228.416937 175.877946 
L 228.50839 175.809485 
L 228.598745 175.739582 
L 228.687979 175.668255 
L 228.776071 175.59552 
L 228.862997 175.521397 
L 228.948737 175.445904 
L 229.033268 175.36906 
L 229.116569 175.290885 
L 229.198619 175.211398 
L 229.279398 175.130619 
L 229.358885 175.048569 
L 229.43706 174.965268 
L 229.513904 174.880737 
L 229.589397 174.794997 
L 229.66352 174.708071 
L 229.736255 174.619979 
L 229.807582 174.530745 
L 229.877485 174.44039 
L 229.945946 174.348937 
L 230.012947 174.25641 
L 230.078471 174.162831 
L 230.142503 174.068224 
L 230.205025 173.972614 
L 230.266023 173.876023 
L 230.325481 173.778477 
L 230.383383 173.68 
L 230.439716 173.580616 
L 230.494464 173.480352 
L 230.547615 173.379231 
L 230.599155 173.27728 
L 230.649071 173.174523 
L 230.69735 173.070988 
L 230.743981 172.9667 
L 230.788951 172.861685 
L 230.832249 172.75597 
L 230.873865 172.649581 
L 230.913787 172.542545 
L 230.952006 172.434889 
L 230.988512 172.326641 
L 231.023296 172.217827 
L 231.056349 172.108474 
L 231.087664 171.998611 
L 231.117231 171.888266 
L 231.145043 171.777464 
L 231.171094 171.666236 
L 231.195378 171.554608 
L 231.217887 171.442609 
L 231.238616 171.330267 
L 231.25756 171.21761 
L 231.274714 171.104667 
L 231.290075 170.991466 
L 231.303637 170.878035 
L 231.315398 170.764404 
L 231.325354 170.6506 
L 231.333504 170.536652 
L 231.339845 170.42259 
L 231.344375 170.308441 
L 231.347094 170.194235 
L 231.348 170.08 
L 231.348 130.48 
L 231.347094 130.365765 
L 231.344375 130.251559 
L 231.339845 130.13741 
L 231.333504 130.023348 
L 231.325354 129.9094 
L 231.315398 129.795596 
L 231.303637 129.681965 
L 231.290075 129.568534 
L 231.274714 129.455333 
L 231.25756 129.34239 
L 231.238616 129.229733 
L 231.217887 129.117391 
L 231.195378 129.005392 
L 231.171094 128.893764 
L 231.145043 128.782536 
L 231.117231 128.671734 
L 231.087664 128.561389 
L 231.056349 128.451526 
L 231.023296 128.342173 
L 230.988512 128.233359 
L 230.952006 128.125111 
L 230.913787 128.017455 
L 230.873865 127.910419 
L 230.832249 127.80403 
L 230.788951 127.698315 
L 230.743981 127.5933 
L 230.69735 127.489012 
L 230.649071 127.385477 
L 230.599155 127.28272 
L 230.547615 127.180769 
L 230.494464 127.079648 
L 230.439716 126.979384 
L 230.383383 126.88 
L 230.325481 126.781523 
L 230.266023 126.683977 
L 230.205025 126.587386 
L 230.142503 126.491776 
L 230.078471 126.397169 
L 230.012947 126.30359 
L 229.945946 126.211063 
L 229.877485 126.11961 
L 229.807582 126.029255 
L 229.736255 125.940021 
L 229.66352 125.851929 
L 229.589397 125.765003 
L 229.513904 125.679263 
L 229.43706 125.594732 
L 229.358885 125.511431 
L 229.279398 125.429381 
L 229.198619 125.348602 
L 229.116569 125.269115 
L 229.033268 125.19094 
L 228.948737 125.114096 
L 228.862997 125.038603 
L 228.776071 124.96448 
L 228.687979 124.891745 
L 228.598745 124.820418 
L 228.50839 124.750515 
L 228.416937 124.682054 
L 228.32441 124.615053 
L 228.230831 124.549529 
L 228.136224 124.485497 
L 228.040614 124.422975 
L 227.944023 124.361977 
L 227.846477 124.302519 
L 227.748 124.244617 
L 227.648616 124.188284 
L 227.548352 124.133536 
L 227.447231 124.080385 
L 227.34528 124.028845 
L 227.242523 123.978929 
L 227.138988 123.93065 
L 227.0347 123.884019 
L 226.929685 123.839049 
L 226.82397 123.795751 
L 226.717581 123.754135 
L 226.610545 123.714213 
L 226.502889 123.675994 
L 226.394641 123.639488 
L 226.285827 123.604704 
L 226.176474 123.571651 
L 226.066611 123.540336 
L 225.956266 123.510769 
L 225.845464 123.482957 
L 225.734236 123.456906 
L 225.622608 123.432622 
L 225.510609 123.410113 
L 225.398267 123.389384 
L 225.28561 123.37044 
L 225.172667 123.353286 
L 225.059466 123.337925 
L 224.946035 123.324363 
L 224.832404 123.312602 
L 224.7186 123.302646 
L 224.604652 123.294496 
L 224.49059 123.288155 
L 224.376441 123.283625 
L 224.262235 123.280906 
L 224.148 123.28 
L 184.548 123.28 
z
" clip-path="url(#p28b7657681)" style="fill: none; stroke: #000000; stroke-width: 2; stroke-linecap: round"/>
   </g>
   <g id="line2d_1">
    <path d="M 51.348 15.28 
L 141.348 15.28 
L 231.348 15.28 
" clip-path="url(#p28b7657681)" style="fill: none; stroke: #000000; stroke-width: 2; stroke-linecap: round"/>
   </g>
   <g id="line2d_2">
    <path d="M 231.348 15.28 
L 321.348 15.28 
L 411.348 15.28 
" clip-path="url(#p28b7657681)" style="fill: none; stroke: #000000; stroke-width: 2; stroke-linecap: round"/>
   </g>
   <g id="line2d_3">
    <path d="M 51.348 15.28 
L 51.348 105.28 
L 51.348 195.28 
" clip-path="url(#p28b7657681)" style="fill: none; stroke: #000000; stroke-width: 2; stroke-linecap: round"/>
   </g>
   <g id="line2d_4">
    <path d="M 51.348 195.28 
L 101.973 195.28 
M 108.723 195.28 
L 159.348 195.28 
" clip-path="url(#p28b7657681)" style="fill: none; stroke: #000000; stroke-width: 2; stroke-linecap: round"/>
   </g>
   <g id="line2d_5">
    <path d="M 101.973 181.78 
L 101.973 208.78 
" clip-path="url(#p28b7657681)" style="fill: none; stroke: #000000; stroke-width: 2; stroke-linecap: round"/>
   </g>
   <g id="line2d_6">
    <path d="M 108.723 188.53 
L 108.723 202.03 
" clip-path="url(#p28b7657681)" style="fill: none; stroke: #000000; stroke-width: 2; stroke-linecap: round"/>
   </g>
   <g id="line2d_7">
    <path d="M 170.148 195.28 
L 206.148 195.28 
M 214.788 191.68 
L 234.948 179.08 
M 242.148 195.28 
L 278.148 195.28 
" clip-path="url(#p28b7657681)" style="fill: none; stroke: #000000; stroke-width: 2; stroke-linecap: round"/>
   </g>
   <g id="line2d_8">
    <path d="M 288.948 195.28 
L 332.148 195.28 
L 335.148 186.28 
L 341.148 204.28 
L 347.148 186.28 
L 353.148 204.28 
L 359.148 186.28 
L 365.148 204.28 
L 368.148 195.28 
L 411.348 195.28 
" clip-path="url(#p28b7657681)" style="fill: none; stroke: #000000; stroke-width: 2; stroke-linecap: round"/>
   </g>
   <g id="line2d_9">
    <path d="M 411.348 195.28 
L 411.348 105.28 
L 411.348 15.28 
" clip-path="url(#p28b7657681)" style="fill: none; stroke: #000000; stroke-width: 2; stroke-linecap: round"/>
   </g>
   <g id="line2d_10">
    <path d="M 231.348 15.28 
L 231.348 177.28 
L 231.348 339.28 
" clip-path="url(#p28b7657681)" style="fill: none; stroke: #000000; stroke-width: 2; stroke-linecap: round"/>
   </g>
   <g id="patch_3">
    <path d="M 188.148 168.28 
Q 180.948 150.28 188.148 132.28 
L 200.388 136.78 
Q 195.348 150.28 200.388 163.78 
L 188.148 168.28 
z
" clip-path="url(#p28b7657681)" style="fill: none; stroke: #000000; stroke-linecap: round"/>
   </g>
   <g id="line2d_11">
    <path d="M 197.972095 144.694789 
L 188.740462 143.149943 
" clip-path="url(#p28b7657681)" style="fill: none; stroke: #000000; stroke-width: 1.5; stroke-linecap: round"/>
   </g>
   <g id="line2d_12">
    <path d="M 231.348 339.28 
L 141.348 339.28 
L 51.348 339.28 
" clip-path="url(#p28b7657681)" style="fill: none; stroke: #000000; stroke-width: 2; stroke-linecap: round"/>
   </g>
   <g id="line2d_13">
    <path d="M 51.348 339.28 
L 51.348 180.655 
M 51.348 173.905 
L 51.348 15.28 
" clip-path="url(#p28b7657681)" style="fill: none; stroke: #000000; stroke-width: 2; stroke-linecap: round"/>
   </g>
   <g id="line2d_14">
    <path d="M 37.848 180.655 
L 64.848 180.655 
" clip-path="url(#p28b7657681)" style="fill: none; stroke: #000000; stroke-width: 2; stroke-linecap: round"/>
   </g>
   <g id="line2d_15">
    <path d="M 44.598 173.905 
L 58.098 173.905 
" clip-path="url(#p28b7657681)" style="fill: none; stroke: #000000; stroke-width: 2; stroke-linecap: round"/>
   </g>
   <g id="line2d_16">
    <path d="M 231.348 15.28 
L 231.348 29.68 
L 231.348 35.08 
" clip-path="url(#p28b7657681)" style="fill: none; stroke: #000000; stroke-width: 2; stroke-linecap: round"/>
   </g>
   <g id="patch_4">
    <path d="M 234.048 35.08 
L 231.348 44.08 
L 228.648 35.08 
z
" clip-path="url(#p28b7657681)"/>
   </g>
   <g id="text_1">
    <!-- 3V -->
    <g transform="translate(96.105812 175.268438) scale(0.14 -0.14)">
     <defs>
      <path id="DejaVuSans-33" d="M 2597 2516 
Q 3050 2419 3304 2112 
Q 3559 1806 3559 1356 
Q 3559 666 3084 287 
Q 2609 -91 1734 -91 
Q 1441 -91 1130 -33 
Q 819 25 488 141 
L 488 750 
Q 750 597 1062 519 
Q 1375 441 1716 441 
Q 2309 441 2620 675 
Q 2931 909 2931 1356 
Q 2931 1769 2642 2001 
Q 2353 2234 1838 2234 
L 1294 2234 
L 1294 2753 
L 1863 2753 
Q 2328 2753 2575 2939 
Q 2822 3125 2822 3475 
Q 2822 3834 2567 4026 
Q 2313 4219 1838 4219 
Q 1578 4219 1281 4162 
Q 984 4106 628 3988 
L 628 4550 
Q 988 4650 1302 4700 
Q 1616 4750 1894 4750 
Q 2613 4750 3031 4423 
Q 3450 4097 3450 3541 
Q 3450 3153 3228 2886 
Q 3006 2619 2597 2516 
z
" transform="scale(0.015625)"/>
      <path id="DejaVuSans-56" d="M 1831 0 
L 50 4666 
L 709 4666 
L 2188 738 
L 3669 4666 
L 4325 4666 
L 2547 0 
L 1831 0 
z
" transform="scale(0.015625)"/>
     </defs>
     <use xlink:href="#DejaVuSans-33"/>
     <use xlink:href="#DejaVuSans-56" transform="translate(63.623047 0)"/>
    </g>
   </g>
   <g id="patch_5">
    <path d="M 210.468 199.6 
C 211.613677 199.6 212.712585 199.144818 213.522701 198.334701 
C 214.332818 197.524585 214.788 196.425677 214.788 195.28 
C 214.788 194.134323 214.332818 193.035415 213.522701 192.225299 
C 212.712585 191.415182 211.613677 190.96 210.468 190.96 
C 209.322323 190.96 208.223415 191.415182 207.413299 192.225299 
C 206.603182 193.035415 206.148 194.134323 206.148 195.28 
C 206.148 196.425677 206.603182 197.524585 207.413299 198.334701 
C 208.223415 199.144818 209.322323 199.6 210.468 199.6 
z
" clip-path="url(#p28b7657681)" style="fill: #ffffff; stroke: #000000; stroke-width: 2; stroke-linejoin: miter"/>
   </g>
   <g id="patch_6">
    <path d="M 237.828 199.6 
C 238.973677 199.6 240.072585 199.144818 240.882701 198.334701 
C 241.692818 197.524585 242.148 196.425677 242.148 195.28 
C 242.148 194.134323 241.692818 193.035415 240.882701 192.225299 
C 240.072585 191.415182 238.973677 190.96 237.828 190.96 
C 236.682323 190.96 235.583415 191.415182 234.773299 192.225299 
C 233.963182 193.035415 233.508 194.134323 233.508 195.28 
C 233.508 196.425677 233.963182 197.524585 234.773299 198.334701 
C 235.583415 199.144818 236.682323 199.6 237.828 199.6 
z
" clip-path="url(#p28b7657681)" style="fill: #ffffff; stroke: #000000; stroke-width: 2; stroke-linejoin: miter"/>
   </g>
   <g id="text_2">
    <!-- K -->
    <g transform="translate(219.557531 172.568438) scale(0.14 -0.14)">
     <defs>
      <path id="DejaVuSans-4b" d="M 628 4666 
L 1259 4666 
L 1259 2694 
L 3353 4666 
L 4166 4666 
L 1850 2491 
L 4331 0 
L 3500 0 
L 1259 2247 
L 1259 0 
L 628 0 
L 628 4666 
z
" transform="scale(0.015625)"/>
     </defs>
     <use xlink:href="#DejaVuSans-4b"/>
    </g>
   </g>
   <g id="text_3">
    <!-- 2Ω -->
    <g transform="translate(340.344719 179.768438) scale(0.14 -0.14)">
     <defs>
      <path id="DejaVuSans-32" d="M 1228 531 
L 3431 531 
L 3431 0 
L 469 0 
L 469 531 
Q 828 903 1448 1529 
Q 2069 2156 2228 2338 
Q 2531 2678 2651 2914 
Q 2772 3150 2772 3378 
Q 2772 3750 2511 3984 
Q 2250 4219 1831 4219 
Q 1534 4219 1204 4116 
Q 875 4013 500 3803 
L 500 4441 
Q 881 4594 1212 4672 
Q 1544 4750 1819 4750 
Q 2544 4750 2975 4387 
Q 3406 4025 3406 3419 
Q 3406 3131 3298 2873 
Q 3191 2616 2906 2266 
Q 2828 2175 2409 1742 
Q 1991 1309 1228 531 
z
" transform="scale(0.015625)"/>
      <path id="DejaVuSans-3a9" d="M 4647 556 
L 4647 0 
L 2772 0 
L 2772 556 
Q 3325 859 3634 1378 
Q 3944 1897 3944 2528 
Q 3944 3278 3531 3731 
Q 3119 4184 2444 4184 
Q 1769 4184 1355 3729 
Q 941 3275 941 2528 
Q 941 1897 1250 1378 
Q 1563 859 2119 556 
L 2119 0 
L 244 0 
L 244 556 
L 1241 556 
Q 747 991 519 1456 
Q 294 1922 294 2497 
Q 294 3491 894 4106 
Q 1491 4722 2444 4722 
Q 3391 4722 3994 4106 
Q 4594 3494 4594 2528 
Q 4594 1922 4372 1459 
Q 4150 997 3647 556 
L 4647 556 
z
" transform="scale(0.015625)"/>
     </defs>
     <use xlink:href="#DejaVuSans-32"/>
     <use xlink:href="#DejaVuSans-3a9" transform="translate(63.623047 0)"/>
    </g>
   </g>
   <g id="text_4">
    <!-- G -->
    <g transform="translate(162.900187 154.143125) scale(0.14 -0.14)">
     <defs>
      <path id="DejaVuSans-47" d="M 3809 666 
L 3809 1919 
L 2778 1919 
L 2778 2438 
L 4434 2438 
L 4434 434 
Q 4069 175 3628 42 
Q 3188 -91 2688 -91 
Q 1594 -91 976 548 
Q 359 1188 359 2328 
Q 359 3472 976 4111 
Q 1594 4750 2688 4750 
Q 3144 4750 3555 4637 
Q 3966 4525 4313 4306 
L 4313 3634 
Q 3963 3931 3569 4081 
Q 3175 4231 2741 4231 
Q 1884 4231 1454 3753 
Q 1025 3275 1025 2328 
Q 1025 1384 1454 906 
Q 1884 428 2741 428 
Q 3075 428 3337 486 
Q 3600 544 3809 666 
z
" transform="scale(0.015625)"/>
     </defs>
     <use xlink:href="#DejaVuSans-47"/>
    </g>
   </g>
   <g id="text_5">
    <!-- 1.5V -->
    <g transform="translate(2.40675 181.143125) scale(0.14 -0.14)">
     <defs>
      <path id="DejaVuSans-31" d="M 794 531 
L 1825 531 
L 1825 4091 
L 703 3866 
L 703 4441 
L 1819 4666 
L 2450 4666 
L 2450 531 
L 3481 531 
L 3481 0 
L 794 0 
L 794 531 
z
" transform="scale(0.015625)"/>
      <path id="DejaVuSans-2e" d="M 684 794 
L 1344 794 
L 1344 0 
L 684 0 
L 684 794 
z
" transform="scale(0.015625)"/>
      <path id="DejaVuSans-35" d="M 691 4666 
L 3169 4666 
L 3169 4134 
L 1269 4134 
L 1269 2991 
Q 1406 3038 1543 3061 
Q 1681 3084 1819 3084 
Q 2600 3084 3056 2656 
Q 3513 2228 3513 1497 
Q 3513 744 3044 326 
Q 2575 -91 1722 -91 
Q 1428 -91 1123 -41 
Q 819 9 494 109 
L 494 744 
Q 775 591 1075 516 
Q 1375 441 1709 441 
Q 2250 441 2565 725 
Q 2881 1009 2881 1497 
Q 2881 1984 2565 2268 
Q 2250 2553 1709 2553 
Q 1456 2553 1204 2497 
Q 953 2441 691 2322 
L 691 4666 
z
" transform="scale(0.015625)"/>
     </defs>
     <use xlink:href="#DejaVuSans-31"/>
     <use xlink:href="#DejaVuSans-2e" transform="translate(63.623047 0)"/>
     <use xlink:href="#DejaVuSans-35" transform="translate(95.410156 0)"/>
     <use xlink:href="#DejaVuSans-56" transform="translate(159.033203 0)"/>
    </g>
   </g>
   <g id="text_6">
    <!-- A -->
    <g transform="translate(32.159562 15.543125) scale(0.14 -0.14)">
     <defs>
      <path id="DejaVuSans-41" d="M 2188 4044 
L 1331 1722 
L 3047 1722 
L 2188 4044 
z
M 1831 4666 
L 2547 4666 
L 4325 0 
L 3669 0 
L 3244 1197 
L 1141 1197 
L 716 0 
L 50 0 
L 1831 4666 
z
" transform="scale(0.015625)"/>
     </defs>
     <use xlink:href="#DejaVuSans-41"/>
    </g>
   </g>
   <g id="text_7">
    <!-- C -->
    <g transform="translate(413.660031 15.543125) scale(0.14 -0.14)">
     <defs>
      <path id="DejaVuSans-43" d="M 4122 4306 
L 4122 3641 
Q 3803 3938 3442 4084 
Q 3081 4231 2675 4231 
Q 1875 4231 1450 3742 
Q 1025 3253 1025 2328 
Q 1025 1406 1450 917 
Q 1875 428 2675 428 
Q 3081 428 3442 575 
Q 3803 722 4122 1019 
L 4122 359 
Q 3791 134 3420 21 
Q 3050 -91 2638 -91 
Q 1578 -91 968 557 
Q 359 1206 359 2328 
Q 359 3453 968 4101 
Q 1578 4750 2638 4750 
Q 3056 4750 3426 4639 
Q 3797 4528 4122 4306 
z
" transform="scale(0.015625)"/>
     </defs>
     <use xlink:href="#DejaVuSans-43"/>
    </g>
   </g>
   <g id="text_8">
    <!-- B -->
    <g transform="translate(237.345344 339.543125) scale(0.14 -0.14)">
     <defs>
      <path id="DejaVuSans-42" d="M 1259 2228 
L 1259 519 
L 2272 519 
Q 2781 519 3026 730 
Q 3272 941 3272 1375 
Q 3272 1813 3026 2020 
Q 2781 2228 2272 2228 
L 1259 2228 
z
M 1259 4147 
L 1259 2741 
L 2194 2741 
Q 2656 2741 2882 2914 
Q 3109 3088 3109 3444 
Q 3109 3797 2882 3972 
Q 2656 4147 2194 4147 
L 1259 4147 
z
M 628 4666 
L 2241 4666 
Q 2963 4666 3353 4366 
Q 3744 4066 3744 3513 
Q 3744 3084 3544 2831 
Q 3344 2578 2956 2516 
Q 3422 2416 3680 2098 
Q 3938 1781 3938 1306 
Q 3938 681 3513 340 
Q 3088 0 2303 0 
L 628 0 
L 628 4666 
z
" transform="scale(0.015625)"/>
     </defs>
     <use xlink:href="#DejaVuSans-42"/>
    </g>
   </g>
   <g id="text_9">
    <!-- J -->
    <g transform="translate(247.283 33.543125) scale(0.14 -0.14)">
     <defs>
      <path id="DejaVuSans-4a" d="M 628 4666 
L 1259 4666 
L 1259 325 
Q 1259 -519 939 -900 
Q 619 -1281 -91 -1281 
L -331 -1281 
L -331 -750 
L -134 -750 
Q 284 -750 456 -515 
Q 628 -281 628 325 
L 628 4666 
z
" transform="scale(0.015625)"/>
     </defs>
     <use xlink:href="#DejaVuSans-4a"/>
    </g>
   </g>
   <g id="patch_7">
    <path d="M 220.548 166.48 
C 221.502731 166.48 222.418488 166.100681 223.093584 165.425584 
C 223.768681 164.750488 224.148 163.834731 224.148 162.88 
C 224.148 161.925269 223.768681 161.009512 223.093584 160.334416 
C 222.418488 159.659319 221.502731 159.28 220.548 159.28 
C 219.593269 159.28 218.677512 159.659319 218.002416 160.334416 
C 217.327319 161.009512 216.948 161.925269 216.948 162.88 
C 216.948 163.834731 217.327319 164.750488 218.002416 165.425584 
C 218.677512 166.100681 219.593269 166.48 220.548 166.48 
L 220.548 166.48 
z
" clip-path="url(#p28b7657681)" style="fill: none; stroke: #000000; stroke-linejoin: miter"/>
   </g>
   <g id="patch_8">
    <path d="M 220.548 141.28 
C 221.502731 141.28 222.418488 140.900681 223.093584 140.225584 
C 223.768681 139.550488 224.148 138.634731 224.148 137.68 
C 224.148 136.725269 223.768681 135.809512 223.093584 135.134416 
C 222.418488 134.459319 221.502731 134.08 220.548 134.08 
C 219.593269 134.08 218.677512 134.459319 218.002416 135.134416 
C 217.327319 135.809512 216.948 136.725269 216.948 137.68 
C 216.948 138.634731 217.327319 139.550488 218.002416 140.225584 
C 218.677512 140.900681 219.593269 141.28 220.548 141.28 
L 220.548 141.28 
z
" clip-path="url(#p28b7657681)" style="fill: none; stroke: #000000; stroke-linejoin: miter"/>
   </g>
   <g id="patch_9">
    <path d="M 51.348 18.16 
C 52.111785 18.16 52.84439 17.856545 53.384468 17.316468 
C 53.924545 16.77639 54.228 16.043785 54.228 15.28 
C 54.228 14.516215 53.924545 13.78361 53.384468 13.243532 
C 52.84439 12.703455 52.111785 12.4 51.348 12.4 
C 50.584215 12.4 49.85161 12.703455 49.311532 13.243532 
C 48.771455 13.78361 48.468 14.516215 48.468 15.28 
C 48.468 16.043785 48.771455 16.77639 49.311532 17.316468 
C 49.85161 17.856545 50.584215 18.16 51.348 18.16 
z
" clip-path="url(#p28b7657681)" style="stroke: #000000; stroke-width: 2; stroke-linejoin: miter"/>
   </g>
   <g id="patch_10">
    <path d="M 231.348 18.16 
C 232.111785 18.16 232.84439 17.856545 233.384468 17.316468 
C 233.924545 16.77639 234.228 16.043785 234.228 15.28 
C 234.228 14.516215 233.924545 13.78361 233.384468 13.243532 
C 232.84439 12.703455 232.111785 12.4 231.348 12.4 
C 230.584215 12.4 229.85161 12.703455 229.311532 13.243532 
C 228.771455 13.78361 228.468 14.516215 228.468 15.28 
C 228.468 16.043785 228.771455 16.77639 229.311532 17.316468 
C 229.85161 17.856545 230.584215 18.16 231.348 18.16 
z
" clip-path="url(#p28b7657681)" style="stroke: #000000; stroke-width: 2; stroke-linejoin: miter"/>
   </g>
   <g id="patch_11">
    <path d="M 411.348 18.16 
C 412.111785 18.16 412.84439 17.856545 413.384468 17.316468 
C 413.924545 16.77639 414.228 16.043785 414.228 15.28 
C 414.228 14.516215 413.924545 13.78361 413.384468 13.243532 
C 412.84439 12.703455 412.111785 12.4 411.348 12.4 
C 410.584215 12.4 409.85161 12.703455 409.311532 13.243532 
C 408.771455 13.78361 408.468 14.516215 408.468 15.28 
C 408.468 16.043785 408.771455 16.77639 409.311532 17.316468 
C 409.85161 17.856545 410.584215 18.16 411.348 18.16 
z
" clip-path="url(#p28b7657681)" style="stroke: #000000; stroke-width: 2; stroke-linejoin: miter"/>
   </g>
   <g id="patch_12">
    <path d="M 231.348 342.16 
C 232.111785 342.16 232.84439 341.856545 233.384468 341.316468 
C 233.924545 340.77639 234.228 340.043785 234.228 339.28 
C 234.228 338.516215 233.924545 337.78361 233.384468 337.243532 
C 232.84439 336.703455 232.111785 336.4 231.348 336.4 
C 230.584215 336.4 229.85161 336.703455 229.311532 337.243532 
C 228.771455 337.78361 228.468 338.516215 228.468 339.28 
C 228.468 340.043785 228.771455 340.77639 229.311532 341.316468 
C 229.85161 341.856545 230.584215 342.16 231.348 342.16 
z
" clip-path="url(#p28b7657681)" style="stroke: #000000; stroke-width: 2; stroke-linejoin: miter"/>
   </g>
  </g>
 </g>
 <defs>
  <clipPath id="p28b7657681">
   <rect x="0" y="0" width="427.932" height="347.36"/>
  </clipPath>
 </defs>
</svg>
