<?xml version="1.0" encoding="utf-8" standalone="no"?>
<!DOCTYPE svg PUBLIC "-//W3C//DTD SVG 1.1//EN"
  "http://www.w3.org/Graphics/SVG/1.1/DTD/svg11.dtd">
<svg xmlns:xlink="http://www.w3.org/1999/xlink" width="231.12pt" height="153.36pt" viewBox="0 0 231.12 153.36" xmlns="http://www.w3.org/2000/svg" version="1.1">
 <metadata>
  <rdf:RDF xmlns:dc="http://purl.org/dc/elements/1.1/" xmlns:cc="http://creativecommons.org/ns#" xmlns:rdf="http://www.w3.org/1999/02/22-rdf-syntax-ns#">
   <cc:Work>
    <dc:type rdf:resource="http://purl.org/dc/dcmitype/StillImage"/>
    <dc:date>2026-06-17T16:09:12.147050</dc:date>
    <dc:format>image/svg+xml</dc:format>
    <dc:creator>
     <cc:Agent>
      <dc:title>Matplotlib v3.10.6, https://matplotlib.org/</dc:title>
     </cc:Agent>
    </dc:creator>
   </cc:Work>
  </rdf:RDF>
 </metadata>
 <defs>
  <style type="text/css">*{stroke-linejoin: round; stroke-linecap: butt}</style>
 </defs>
 <g id="figure_1">
  <g id="patch_1">
   <path d="M 0 153.36 
L 231.12 153.36 
L 231.12 0 
L 0 0 
z
" style="fill: #ffffff"/>
  </g>
  <g id="axes_1">
   <g id="patch_2">
    <path d="M 151.56 58.68 
C 156.333656 58.68 160.912438 56.783406 164.287922 53.407922 
C 167.663406 50.032438 169.56 45.453656 169.56 40.68 
C 169.56 35.906344 167.663406 31.327562 164.287922 27.952078 
C 160.912438 24.576594 156.333656 22.68 151.56 22.68 
C 146.786344 22.68 142.207562 24.576594 138.832078 27.952078 
C 135.456594 31.327562 133.56 35.906344 133.56 40.68 
C 133.56 45.453656 135.456594 50.032438 138.832078 53.407922 
C 142.207562 56.783406 146.786344 58.68 151.56 58.68 
L 151.56 58.68 
z
" clip-path="url(#p4bb5e0c063)" style="fill: none; stroke: #000000; stroke-width: 2; stroke-linejoin: miter"/>
   </g>
   <g id="line2d_1">
    <path d="M 7.56 76.68 
L 40.185 76.68 
M 46.935 76.68 
L 79.56 76.68 
" clip-path="url(#p4bb5e0c063)" style="fill: none; stroke: #000000; stroke-width: 2; stroke-linecap: round"/>
   </g>
   <g id="line2d_2">
    <path d="M 40.185 63.18 
L 40.185 90.18 
" clip-path="url(#p4bb5e0c063)" style="fill: none; stroke: #000000; stroke-width: 2; stroke-linecap: round"/>
   </g>
   <g id="line2d_3">
    <path d="M 46.935 69.93 
L 46.935 83.43 
" clip-path="url(#p4bb5e0c063)" style="fill: none; stroke: #000000; stroke-width: 2; stroke-linecap: round"/>
   </g>
   <g id="line2d_4">
    <path d="M 79.56 76.68 
L 97.56 76.68 
M 106.2 73.08 
L 126.36 60.48 
M 133.56 76.68 
L 151.56 76.68 
" clip-path="url(#p4bb5e0c063)" style="fill: none; stroke: #000000; stroke-width: 2; stroke-linecap: round"/>
   </g>
   <g id="line2d_5">
    <path d="M 151.56 76.68 
L 151.56 58.68 
L 151.56 58.68 
M 151.56 22.68 
L 151.56 22.68 
L 151.56 4.68 
" clip-path="url(#p4bb5e0c063)" style="fill: none; stroke: #000000; stroke-width: 2; stroke-linecap: round"/>
   </g>
   <g id="line2d_6">
    <path d="M 151.56 58.68 
L 150.934234 58.524203 
L 150.304012 58.30275 
L 149.675644 58.015507 
L 149.055421 57.662995 
L 148.449552 57.246392 
L 147.864103 56.767513 
L 147.304935 56.228802 
L 146.777645 55.633297 
L 146.287513 54.984609 
L 145.839445 54.286877 
L 145.437927 53.544734 
L 145.08698 52.763257 
L 144.790116 51.947917 
L 144.550307 51.104523 
L 144.369954 50.239166 
L 144.250863 49.358155 
L 144.194227 48.467959 
L 144.200611 47.575136 
L 144.269952 46.686271 
L 144.401556 45.807911 
L 144.594105 44.946495 
L 144.845672 44.108294 
L 145.153739 43.299348 
L 145.51522 42.525401 
L 145.926497 41.791849 
L 146.383454 41.103683 
L 146.881514 40.465439 
L 147.415692 39.881154 
L 147.980639 39.354324 
L 148.570701 38.88787 
L 149.17997 38.48411 
L 149.802346 38.144732 
L 150.431598 37.870781 
L 151.061427 37.662647 
L 151.685527 37.520061 
L 152.29765 37.442096 
L 152.891669 37.42718 
L 153.461636 37.47311 
L 154.001845 37.577073 
L 154.506887 37.735675 
L 154.971708 37.944975 
L 155.391653 38.200525 
L 155.762518 38.497414 
L 156.08059 38.830316 
L 156.342685 39.193545 
L 156.546179 39.581112 
L 156.689035 39.986784 
L 156.769823 40.404147 
L 156.787733 40.826669 
L 156.742587 41.247767 
L 156.634836 41.660873 
L 156.46556 42.059498 
L 156.236452 42.437297 
L 155.949807 42.788137 
L 155.608494 43.106151 
L 155.215931 43.385802 
L 154.776046 43.621939 
L 154.293245 43.809843 
L 153.772361 43.945281 
L 153.218607 44.024544 
L 152.637529 44.044486 
L 152.034944 44.002553 
L 151.416883 43.896812 
L 150.789535 43.72597 
L 150.159181 43.489383 
L 149.53213 43.187067 
L 148.914662 42.819695 
L 148.312956 42.388593 
L 147.733038 41.895723 
L 147.180712 41.343667 
L 146.661509 40.735598 
L 146.180626 40.075251 
L 145.742878 39.366884 
L 145.352646 38.615235 
L 145.013838 37.825477 
L 144.729846 37.003163 
L 144.503513 36.154172 
L 144.337104 35.284652 
L 144.232286 34.400953 
L 144.190108 33.50957 
L 144.210992 32.617075 
L 144.294729 31.730048 
L 144.440481 30.855017 
L 144.646789 29.99839 
L 144.911587 29.166389 
L 145.232224 28.364991 
L 145.605491 27.599866 
L 146.02765 26.876321 
L 146.494475 26.199245 
L 147.001293 25.573066 
L 147.543029 25.001699 
L 148.11426 24.48851 
L 148.709267 24.036284 
L 149.322094 23.647197 
L 149.946606 23.322789 
L 150.576549 23.063957 
L 151.205618 22.870937 
L 151.827515 22.74331 
L 152.436014 22.68 
" clip-path="url(#p4bb5e0c063)" style="fill: none; stroke: #000000; stroke-width: 2; stroke-linecap: round"/>
   </g>
   <g id="line2d_7">
    <path d="M 223.56 76.68 
L 223.56 112.68 
L 223.56 148.68 
" clip-path="url(#p4bb5e0c063)" style="fill: none; stroke: #000000; stroke-width: 2; stroke-linecap: round"/>
   </g>
   <g id="line2d_8">
    <path d="M 223.56 148.68 
L 115.56 148.68 
L 7.56 148.68 
" clip-path="url(#p4bb5e0c063)" style="fill: none; stroke: #000000; stroke-width: 2; stroke-linecap: round"/>
   </g>
   <g id="line2d_9">
    <path d="M 7.56 148.68 
L 7.56 112.68 
L 7.56 76.68 
" clip-path="url(#p4bb5e0c063)" style="fill: none; stroke: #000000; stroke-width: 2; stroke-linecap: round"/>
   </g>
   <g id="text_1">
    <!-- 1.5V -->
    <g transform="translate(27.639375 56.668437) scale(0.14 -0.14)">
     <defs>
      <path id="DejaVuSans-31" d="M 794 531 
L 1825 531 
L 1825 4091 
L 703 3866 
L 703 4441 
L 1819 4666 
L 2450 4666 
L 2450 531 
L 3481 531 
L 3481 0 
L 794 0 
L 794 531 
z
" transform="scale(0.015625)"/>
      <path id="DejaVuSans-2e" d="M 684 794 
L 1344 794 
L 1344 0 
L 684 0 
L 684 794 
z
" transform="scale(0.015625)"/>
      <path id="DejaVuSans-35" d="M 691 4666 
L 3169 4666 
L 3169 4134 
L 1269 4134 
L 1269 2991 
Q 1406 3038 1543 3061 
Q 1681 3084 1819 3084 
Q 2600 3084 3056 2656 
Q 3513 2228 3513 1497 
Q 3513 744 3044 326 
Q 2575 -91 1722 -91 
Q 1428 -91 1123 -41 
Q 819 9 494 109 
L 494 744 
Q 775 591 1075 516 
Q 1375 441 1709 441 
Q 2250 441 2565 725 
Q 2881 1009 2881 1497 
Q 2881 1984 2565 2268 
Q 2250 2553 1709 2553 
Q 1456 2553 1204 2497 
Q 953 2441 691 2322 
L 691 4666 
z
" transform="scale(0.015625)"/>
      <path id="DejaVuSans-56" d="M 1831 0 
L 50 4666 
L 709 4666 
L 2188 738 
L 3669 4666 
L 4325 4666 
L 2547 0 
L 1831 0 
z
" transform="scale(0.015625)"/>
     </defs>
     <use xlink:href="#DejaVuSans-31"/>
     <use xlink:href="#DejaVuSans-2e" transform="translate(63.623047 0)"/>
     <use xlink:href="#DejaVuSans-35" transform="translate(95.410156 0)"/>
     <use xlink:href="#DejaVuSans-56" transform="translate(159.033203 0)"/>
    </g>
   </g>
   <g id="patch_3">
    <path d="M 101.88 81 
C 103.025677 81 104.124585 80.544818 104.934701 79.734701 
C 105.744818 78.924585 106.2 77.825677 106.2 76.68 
C 106.2 75.534323 105.744818 74.435415 104.934701 73.625299 
C 104.124585 72.815182 103.025677 72.36 101.88 72.36 
C 100.734323 72.36 99.635415 72.815182 98.825299 73.625299 
C 98.015182 74.435415 97.56 75.534323 97.56 76.68 
C 97.56 77.825677 98.015182 78.924585 98.825299 79.734701 
C 99.635415 80.544818 100.734323 81 101.88 81 
z
" clip-path="url(#p4bb5e0c063)" style="fill: #ffffff; stroke: #000000; stroke-width: 2; stroke-linejoin: miter"/>
   </g>
   <g id="patch_4">
    <path d="M 129.24 81 
C 130.385677 81 131.484585 80.544818 132.294701 79.734701 
C 133.104818 78.924585 133.56 77.825677 133.56 76.68 
C 133.56 75.534323 133.104818 74.435415 132.294701 73.625299 
C 131.484585 72.815182 130.385677 72.36 129.24 72.36 
C 128.094323 72.36 126.995415 72.815182 126.185299 73.625299 
C 125.375182 74.435415 124.92 75.534323 124.92 76.68 
C 124.92 77.825677 125.375182 78.924585 126.185299 79.734701 
C 126.995415 80.544818 128.094323 81 129.24 81 
z
" clip-path="url(#p4bb5e0c063)" style="fill: #ffffff; stroke: #000000; stroke-width: 2; stroke-linejoin: miter"/>
   </g>
   <g id="text_2">
    <!-- K -->
    <g transform="translate(110.969531 53.968437) scale(0.14 -0.14)">
     <defs>
      <path id="DejaVuSans-4b" d="M 628 4666 
L 1259 4666 
L 1259 2694 
L 3353 4666 
L 4166 4666 
L 1850 2491 
L 4331 0 
L 3500 0 
L 1259 2247 
L 1259 0 
L 628 0 
L 628 4666 
z
" transform="scale(0.015625)"/>
     </defs>
     <use xlink:href="#DejaVuSans-4b"/>
    </g>
   </g>
   <g id="patch_5">
    <path d="M 7.56 79.56 
C 8.323785 79.56 9.05639 79.256545 9.596468 78.716468 
C 10.136545 78.17639 10.44 77.443785 10.44 76.68 
C 10.44 75.916215 10.136545 75.18361 9.596468 74.643532 
C 9.05639 74.103455 8.323785 73.8 7.56 73.8 
C 6.796215 73.8 6.06361 74.103455 5.523532 74.643532 
C 4.983455 75.18361 4.68 75.916215 4.68 76.68 
C 4.68 77.443785 4.983455 78.17639 5.523532 78.716468 
C 6.06361 79.256545 6.796215 79.56 7.56 79.56 
z
" clip-path="url(#p4bb5e0c063)" style="stroke: #000000; stroke-width: 2; stroke-linejoin: miter"/>
   </g>
   <g id="patch_6">
    <path d="M 79.56 79.56 
C 80.323785 79.56 81.05639 79.256545 81.596468 78.716468 
C 82.136545 78.17639 82.44 77.443785 82.44 76.68 
C 82.44 75.916215 82.136545 75.18361 81.596468 74.643532 
C 81.05639 74.103455 80.323785 73.8 79.56 73.8 
C 78.796215 73.8 78.06361 74.103455 77.523532 74.643532 
C 76.983455 75.18361 76.68 75.916215 76.68 76.68 
C 76.68 77.443785 76.983455 78.17639 77.523532 78.716468 
C 78.06361 79.256545 78.796215 79.56 79.56 79.56 
z
" clip-path="url(#p4bb5e0c063)" style="stroke: #000000; stroke-width: 2; stroke-linejoin: miter"/>
   </g>
   <g id="patch_7">
    <path d="M 151.56 79.56 
C 152.323785 79.56 153.05639 79.256545 153.596468 78.716468 
C 154.136545 78.17639 154.44 77.443785 154.44 76.68 
C 154.44 75.916215 154.136545 75.18361 153.596468 74.643532 
C 153.05639 74.103455 152.323785 73.8 151.56 73.8 
C 150.796215 73.8 150.06361 74.103455 149.523532 74.643532 
C 148.983455 75.18361 148.68 75.916215 148.68 76.68 
C 148.68 77.443785 148.983455 78.17639 149.523532 78.716468 
C 150.06361 79.256545 150.796215 79.56 151.56 79.56 
z
" clip-path="url(#p4bb5e0c063)" style="stroke: #000000; stroke-width: 2; stroke-linejoin: miter"/>
   </g>
   <g id="patch_8">
    <path d="M 223.56 79.56 
C 224.323785 79.56 225.05639 79.256545 225.596468 78.716468 
C 226.136545 78.17639 226.44 77.443785 226.44 76.68 
C 226.44 75.916215 226.136545 75.18361 225.596468 74.643532 
C 225.05639 74.103455 224.323785 73.8 223.56 73.8 
C 222.796215 73.8 222.06361 74.103455 221.523532 74.643532 
C 220.983455 75.18361 220.68 75.916215 220.68 76.68 
C 220.68 77.443785 220.983455 78.17639 221.523532 78.716468 
C 222.06361 79.256545 222.796215 79.56 223.56 79.56 
z
" clip-path="url(#p4bb5e0c063)" style="stroke: #000000; stroke-width: 2; stroke-linejoin: miter"/>
   </g>
  </g>
 </g>
 <defs>
  <clipPath id="p4bb5e0c063">
   <rect x="0" y="0" width="231.12" height="153.36"/>
  </clipPath>
 </defs>
</svg>
