<?xml version="1.0" encoding="utf-8" standalone="no"?>
<!DOCTYPE svg PUBLIC "-//W3C//DTD SVG 1.1//EN"
  "http://www.w3.org/Graphics/SVG/1.1/DTD/svg11.dtd">
<svg xmlns:xlink="http://www.w3.org/1999/xlink" width="351.36pt" height="130.86pt" viewBox="0 0 351.36 130.86" xmlns="http://www.w3.org/2000/svg" version="1.1">
 <metadata>
  <rdf:RDF xmlns:dc="http://purl.org/dc/elements/1.1/" xmlns:cc="http://creativecommons.org/ns#" xmlns:rdf="http://www.w3.org/1999/02/22-rdf-syntax-ns#">
   <cc:Work>
    <dc:type rdf:resource="http://purl.org/dc/dcmitype/StillImage"/>
    <dc:date>2026-06-17T14:41:30.910936</dc:date>
    <dc:format>image/svg+xml</dc:format>
    <dc:creator>
     <cc:Agent>
      <dc:title>Matplotlib v3.10.6, https://matplotlib.org/</dc:title>
     </cc:Agent>
    </dc:creator>
   </cc:Work>
  </rdf:RDF>
 </metadata>
 <defs>
  <style type="text/css">*{stroke-linejoin: round; stroke-linecap: butt}</style>
 </defs>
 <g id="figure_1">
  <g id="patch_1">
   <path d="M 0 130.86 
L 351.36 130.86 
L 351.36 0 
L 0 0 
L 0 130.86 
z
" style="fill: none"/>
  </g>
  <g id="axes_1">
   <g id="patch_2">
    <path d="M 328.68 76.68 
C 333.453656 76.68 338.032438 74.783406 341.407922 71.407922 
C 344.783406 68.032438 346.68 63.453656 346.68 58.68 
C 346.68 53.906344 344.783406 49.327562 341.407922 45.952078 
C 338.032438 42.576594 333.453656 40.68 328.68 40.68 
C 323.906344 40.68 319.327562 42.576594 315.952078 45.952078 
C 312.576594 49.327562 310.68 53.906344 310.68 58.68 
C 310.68 63.453656 312.576594 68.032438 315.952078 71.407922 
C 319.327562 74.783406 323.906344 76.68 328.68 76.68 
L 328.68 76.68 
z
" clip-path="url(#p5911de35af)" style="fill: none; stroke: #000000; stroke-width: 2; stroke-linejoin: miter"/>
   </g>
   <g id="line2d_1">
    <path d="M 112.68 112.68 
L 156.555 112.68 
M 176.805 112.68 
L 220.68 112.68 
" clip-path="url(#p5911de35af)" style="fill: none; stroke: #000000; stroke-width: 2; stroke-linecap: round"/>
   </g>
   <g id="line2d_2">
    <path d="M 156.555 99.18 
L 156.555 126.18 
" clip-path="url(#p5911de35af)" style="fill: none; stroke: #000000; stroke-width: 2; stroke-linecap: round"/>
   </g>
   <g id="line2d_3">
    <path d="M 163.305 105.93 
L 163.305 119.43 
" clip-path="url(#p5911de35af)" style="fill: none; stroke: #000000; stroke-width: 2; stroke-linecap: round"/>
   </g>
   <g id="line2d_4">
    <path d="M 170.055 99.18 
L 170.055 126.18 
" clip-path="url(#p5911de35af)" style="fill: none; stroke: #000000; stroke-width: 2; stroke-linecap: round"/>
   </g>
   <g id="line2d_5">
    <path d="M 176.805 105.93 
L 176.805 119.43 
" clip-path="url(#p5911de35af)" style="fill: none; stroke: #000000; stroke-width: 2; stroke-linecap: round"/>
   </g>
   <g id="line2d_6">
    <path d="M 220.68 112.68 
L 256.68 112.68 
M 265.32 109.08 
L 285.48 96.48 
M 292.68 112.68 
L 328.68 112.68 
" clip-path="url(#p5911de35af)" style="fill: none; stroke: #000000; stroke-width: 2; stroke-linecap: round"/>
   </g>
   <g id="line2d_7">
    <path d="M 328.68 112.68 
L 328.68 76.68 
L 328.68 76.68 
M 328.68 40.68 
L 328.68 40.68 
L 328.68 4.68 
" clip-path="url(#p5911de35af)" style="fill: none; stroke: #000000; stroke-width: 2; stroke-linecap: round"/>
   </g>
   <g id="line2d_8">
    <path d="M 328.68 76.68 
L 328.054234 76.524203 
L 327.424012 76.30275 
L 326.795644 76.015507 
L 326.175421 75.662995 
L 325.569552 75.246392 
L 324.984103 74.767513 
L 324.424935 74.228802 
L 323.897645 73.633297 
L 323.407513 72.984609 
L 322.959445 72.286877 
L 322.557927 71.544734 
L 322.20698 70.763257 
L 321.910116 69.947917 
L 321.670307 69.104523 
L 321.489954 68.239166 
L 321.370863 67.358155 
L 321.314227 66.467959 
L 321.320611 65.575136 
L 321.389952 64.686271 
L 321.521556 63.807911 
L 321.714105 62.946495 
L 321.965672 62.108294 
L 322.273739 61.299348 
L 322.63522 60.525401 
L 323.046497 59.791849 
L 323.503454 59.103683 
L 324.001514 58.465439 
L 324.535692 57.881154 
L 325.100639 57.354324 
L 325.690701 56.88787 
L 326.29997 56.48411 
L 326.922346 56.144732 
L 327.551598 55.870781 
L 328.181427 55.662647 
L 328.805527 55.520061 
L 329.41765 55.442096 
L 330.011669 55.42718 
L 330.581636 55.47311 
L 331.121845 55.577073 
L 331.626887 55.735675 
L 332.091708 55.944975 
L 332.511653 56.200525 
L 332.882518 56.497414 
L 333.20059 56.830316 
L 333.462685 57.193545 
L 333.666179 57.581112 
L 333.809035 57.986784 
L 333.889823 58.404147 
L 333.907733 58.826669 
L 333.862587 59.247767 
L 333.754836 59.660873 
L 333.58556 60.059498 
L 333.356452 60.437297 
L 333.069807 60.788137 
L 332.728494 61.106151 
L 332.335931 61.385802 
L 331.896046 61.621939 
L 331.413245 61.809843 
L 330.892361 61.945281 
L 330.338607 62.024544 
L 329.757529 62.044486 
L 329.154944 62.002553 
L 328.536883 61.896812 
L 327.909535 61.72597 
L 327.279181 61.489383 
L 326.65213 61.187067 
L 326.034662 60.819695 
L 325.432956 60.388593 
L 324.853038 59.895723 
L 324.300712 59.343667 
L 323.781509 58.735598 
L 323.300626 58.075251 
L 322.862878 57.366884 
L 322.472646 56.615235 
L 322.133838 55.825477 
L 321.849846 55.003163 
L 321.623513 54.154172 
L 321.457104 53.284652 
L 321.352286 52.400953 
L 321.310108 51.50957 
L 321.330992 50.617075 
L 321.414729 49.730048 
L 321.560481 48.855017 
L 321.766789 47.99839 
L 322.031587 47.166389 
L 322.352224 46.364991 
L 322.725491 45.599866 
L 323.14765 44.876321 
L 323.614475 44.199245 
L 324.121293 43.573066 
L 324.663029 43.001699 
L 325.23426 42.48851 
L 325.829267 42.036284 
L 326.442094 41.647197 
L 327.066606 41.322789 
L 327.696549 41.063957 
L 328.325618 40.870937 
L 328.947515 40.74331 
L 329.556014 40.68 
" clip-path="url(#p5911de35af)" style="fill: none; stroke: #000000; stroke-width: 2; stroke-linecap: round"/>
   </g>
   <g id="line2d_9">
    <path d="M 328.68 4.68 
L 328.68 58.68 
L 328.68 112.68 
" clip-path="url(#p5911de35af)" style="fill: none; stroke: #000000; stroke-width: 2; stroke-linecap: round"/>
   </g>
   <g id="line2d_10">
    <path d="M 328.68 112.68 
L 166.68 112.68 
L 4.68 112.68 
" clip-path="url(#p5911de35af)" style="fill: none; stroke: #000000; stroke-width: 2; stroke-linecap: round"/>
   </g>
   <g id="line2d_11">
    <path d="M 4.68 112.68 
L 4.68 58.68 
L 4.68 4.68 
" clip-path="url(#p5911de35af)" style="fill: none; stroke: #000000; stroke-width: 2; stroke-linecap: round"/>
   </g>
   <g id="text_1">
    <!-- Battery 6V -->
    <g transform="translate(129.304375 92.668438) scale(0.14 -0.14)">
     <defs>
      <path id="DejaVuSans-42" d="M 1259 2228 
L 1259 519 
L 2272 519 
Q 2781 519 3026 730 
Q 3272 941 3272 1375 
Q 3272 1813 3026 2020 
Q 2781 2228 2272 2228 
L 1259 2228 
z
M 1259 4147 
L 1259 2741 
L 2194 2741 
Q 2656 2741 2882 2914 
Q 3109 3088 3109 3444 
Q 3109 3797 2882 3972 
Q 2656 4147 2194 4147 
L 1259 4147 
z
M 628 4666 
L 2241 4666 
Q 2963 4666 3353 4366 
Q 3744 4066 3744 3513 
Q 3744 3084 3544 2831 
Q 3344 2578 2956 2516 
Q 3422 2416 3680 2098 
Q 3938 1781 3938 1306 
Q 3938 681 3513 340 
Q 3088 0 2303 0 
L 628 0 
L 628 4666 
z
" transform="scale(0.015625)"/>
      <path id="DejaVuSans-61" d="M 2194 1759 
Q 1497 1759 1228 1600 
Q 959 1441 959 1056 
Q 959 750 1161 570 
Q 1363 391 1709 391 
Q 2188 391 2477 730 
Q 2766 1069 2766 1631 
L 2766 1759 
L 2194 1759 
z
M 3341 1997 
L 3341 0 
L 2766 0 
L 2766 531 
Q 2569 213 2275 61 
Q 1981 -91 1556 -91 
Q 1019 -91 701 211 
Q 384 513 384 1019 
Q 384 1609 779 1909 
Q 1175 2209 1959 2209 
L 2766 2209 
L 2766 2266 
Q 2766 2663 2505 2880 
Q 2244 3097 1772 3097 
Q 1472 3097 1187 3025 
Q 903 2953 641 2809 
L 641 3341 
Q 956 3463 1253 3523 
Q 1550 3584 1831 3584 
Q 2591 3584 2966 3190 
Q 3341 2797 3341 1997 
z
" transform="scale(0.015625)"/>
      <path id="DejaVuSans-74" d="M 1172 4494 
L 1172 3500 
L 2356 3500 
L 2356 3053 
L 1172 3053 
L 1172 1153 
Q 1172 725 1289 603 
Q 1406 481 1766 481 
L 2356 481 
L 2356 0 
L 1766 0 
Q 1100 0 847 248 
Q 594 497 594 1153 
L 594 3053 
L 172 3053 
L 172 3500 
L 594 3500 
L 594 4494 
L 1172 4494 
z
" transform="scale(0.015625)"/>
      <path id="DejaVuSans-65" d="M 3597 1894 
L 3597 1613 
L 953 1613 
Q 991 1019 1311 708 
Q 1631 397 2203 397 
Q 2534 397 2845 478 
Q 3156 559 3463 722 
L 3463 178 
Q 3153 47 2828 -22 
Q 2503 -91 2169 -91 
Q 1331 -91 842 396 
Q 353 884 353 1716 
Q 353 2575 817 3079 
Q 1281 3584 2069 3584 
Q 2775 3584 3186 3129 
Q 3597 2675 3597 1894 
z
M 3022 2063 
Q 3016 2534 2758 2815 
Q 2500 3097 2075 3097 
Q 1594 3097 1305 2825 
Q 1016 2553 972 2059 
L 3022 2063 
z
" transform="scale(0.015625)"/>
      <path id="DejaVuSans-72" d="M 2631 2963 
Q 2534 3019 2420 3045 
Q 2306 3072 2169 3072 
Q 1681 3072 1420 2755 
Q 1159 2438 1159 1844 
L 1159 0 
L 581 0 
L 581 3500 
L 1159 3500 
L 1159 2956 
Q 1341 3275 1631 3429 
Q 1922 3584 2338 3584 
Q 2397 3584 2469 3576 
Q 2541 3569 2628 3553 
L 2631 2963 
z
" transform="scale(0.015625)"/>
      <path id="DejaVuSans-79" d="M 2059 -325 
Q 1816 -950 1584 -1140 
Q 1353 -1331 966 -1331 
L 506 -1331 
L 506 -850 
L 844 -850 
Q 1081 -850 1212 -737 
Q 1344 -625 1503 -206 
L 1606 56 
L 191 3500 
L 800 3500 
L 1894 763 
L 2988 3500 
L 3597 3500 
L 2059 -325 
z
" transform="scale(0.015625)"/>
      <path id="DejaVuSans-20" transform="scale(0.015625)"/>
      <path id="DejaVuSans-36" d="M 2113 2584 
Q 1688 2584 1439 2293 
Q 1191 2003 1191 1497 
Q 1191 994 1439 701 
Q 1688 409 2113 409 
Q 2538 409 2786 701 
Q 3034 994 3034 1497 
Q 3034 2003 2786 2293 
Q 2538 2584 2113 2584 
z
M 3366 4563 
L 3366 3988 
Q 3128 4100 2886 4159 
Q 2644 4219 2406 4219 
Q 1781 4219 1451 3797 
Q 1122 3375 1075 2522 
Q 1259 2794 1537 2939 
Q 1816 3084 2150 3084 
Q 2853 3084 3261 2657 
Q 3669 2231 3669 1497 
Q 3669 778 3244 343 
Q 2819 -91 2113 -91 
Q 1303 -91 875 529 
Q 447 1150 447 2328 
Q 447 3434 972 4092 
Q 1497 4750 2381 4750 
Q 2619 4750 2861 4703 
Q 3103 4656 3366 4563 
z
" transform="scale(0.015625)"/>
      <path id="DejaVuSans-56" d="M 1831 0 
L 50 4666 
L 709 4666 
L 2188 738 
L 3669 4666 
L 4325 4666 
L 2547 0 
L 1831 0 
z
" transform="scale(0.015625)"/>
     </defs>
     <use xlink:href="#DejaVuSans-42"/>
     <use xlink:href="#DejaVuSans-61" transform="translate(68.603516 0)"/>
     <use xlink:href="#DejaVuSans-74" transform="translate(129.882812 0)"/>
     <use xlink:href="#DejaVuSans-74" transform="translate(169.091797 0)"/>
     <use xlink:href="#DejaVuSans-65" transform="translate(208.300781 0)"/>
     <use xlink:href="#DejaVuSans-72" transform="translate(269.824219 0)"/>
     <use xlink:href="#DejaVuSans-79" transform="translate(310.9375 0)"/>
     <use xlink:href="#DejaVuSans-20" transform="translate(370.117188 0)"/>
     <use xlink:href="#DejaVuSans-36" transform="translate(401.904297 0)"/>
     <use xlink:href="#DejaVuSans-56" transform="translate(465.527344 0)"/>
    </g>
   </g>
   <g id="patch_3">
    <path d="M 261 117 
C 262.145677 117 263.244585 116.544818 264.054701 115.734701 
C 264.864818 114.924585 265.32 113.825677 265.32 112.68 
C 265.32 111.534323 264.864818 110.435415 264.054701 109.625299 
C 263.244585 108.815182 262.145677 108.36 261 108.36 
C 259.854323 108.36 258.755415 108.815182 257.945299 109.625299 
C 257.135182 110.435415 256.68 111.534323 256.68 112.68 
C 256.68 113.825677 257.135182 114.924585 257.945299 115.734701 
C 258.755415 116.544818 259.854323 117 261 117 
z
" clip-path="url(#p5911de35af)" style="fill: #ffffff; stroke: #000000; stroke-width: 2; stroke-linejoin: miter"/>
   </g>
   <g id="patch_4">
    <path d="M 288.36 117 
C 289.505677 117 290.604585 116.544818 291.414701 115.734701 
C 292.224818 114.924585 292.68 113.825677 292.68 112.68 
C 292.68 111.534323 292.224818 110.435415 291.414701 109.625299 
C 290.604585 108.815182 289.505677 108.36 288.36 108.36 
C 287.214323 108.36 286.115415 108.815182 285.305299 109.625299 
C 284.495182 110.435415 284.04 111.534323 284.04 112.68 
C 284.04 113.825677 284.495182 114.924585 285.305299 115.734701 
C 286.115415 116.544818 287.214323 117 288.36 117 
z
" clip-path="url(#p5911de35af)" style="fill: #ffffff; stroke: #000000; stroke-width: 2; stroke-linejoin: miter"/>
   </g>
   <g id="text_2">
    <!-- K -->
    <g transform="translate(270.089531 89.968438) scale(0.14 -0.14)">
     <defs>
      <path id="DejaVuSans-4b" d="M 628 4666 
L 1259 4666 
L 1259 2694 
L 3353 4666 
L 4166 4666 
L 1850 2491 
L 4331 0 
L 3500 0 
L 1259 2247 
L 1259 0 
L 628 0 
L 628 4666 
z
" transform="scale(0.015625)"/>
     </defs>
     <use xlink:href="#DejaVuSans-4b"/>
    </g>
   </g>
   <g id="text_3">
    <!-- L -->
    <g transform="translate(299.279375 62.543125) scale(0.14 -0.14)">
     <defs>
      <path id="DejaVuSans-4c" d="M 628 4666 
L 1259 4666 
L 1259 531 
L 3531 531 
L 3531 0 
L 628 0 
L 628 4666 
z
" transform="scale(0.015625)"/>
     </defs>
     <use xlink:href="#DejaVuSans-4c"/>
    </g>
   </g>
  </g>
 </g>
 <defs>
  <clipPath id="p5911de35af">
   <rect x="0" y="0" width="351.36" height="130.86"/>
  </clipPath>
 </defs>
</svg>
