<?xml version="1.0" encoding="utf-8" standalone="no"?>
<!DOCTYPE svg PUBLIC "-//W3C//DTD SVG 1.1//EN"
  "http://www.w3.org/Graphics/SVG/1.1/DTD/svg11.dtd">
<svg xmlns:xlink="http://www.w3.org/1999/xlink" width="63.36pt" height="80.96pt" viewBox="0 0 63.36 80.96" xmlns="http://www.w3.org/2000/svg" version="1.1">
 <metadata>
  <rdf:RDF xmlns:dc="http://purl.org/dc/elements/1.1/" xmlns:cc="http://creativecommons.org/ns#" xmlns:rdf="http://www.w3.org/1999/02/22-rdf-syntax-ns#">
   <cc:Work>
    <dc:type rdf:resource="http://purl.org/dc/dcmitype/StillImage"/>
    <dc:date>2026-06-17T16:04:59.308158</dc:date>
    <dc:format>image/svg+xml</dc:format>
    <dc:creator>
     <cc:Agent>
      <dc:title>Matplotlib v3.10.6, https://matplotlib.org/</dc:title>
     </cc:Agent>
    </dc:creator>
   </cc:Work>
  </rdf:RDF>
 </metadata>
 <defs>
  <style type="text/css">*{stroke-linejoin: round; stroke-linecap: butt}</style>
 </defs>
 <g id="figure_1">
  <g id="patch_1">
   <path d="M 0 80.96 
L 63.36 80.96 
L 63.36 0 
L 0 0 
z
" style="fill: #ffffff"/>
  </g>
  <g id="axes_1">
   <g id="patch_2">
    <path d="M 58.68 29.48 
L 58.679094 29.365765 
L 58.676375 29.251559 
L 58.671845 29.13741 
L 58.665504 29.023348 
L 58.657354 28.9094 
L 58.647398 28.795596 
L 58.635637 28.681965 
L 58.622075 28.568534 
L 58.606714 28.455333 
L 58.58956 28.34239 
L 58.570616 28.229733 
L 58.549887 28.117391 
L 58.527378 28.005392 
L 58.503094 27.893764 
L 58.477043 27.782536 
L 58.449231 27.671734 
L 58.419664 27.561389 
L 58.388349 27.451526 
L 58.355296 27.342173 
L 58.320512 27.233359 
L 58.284006 27.125111 
L 58.245787 27.017455 
L 58.205865 26.910419 
L 58.164249 26.80403 
L 58.120951 26.698315 
L 58.075981 26.5933 
L 58.02935 26.489012 
L 57.981071 26.385477 
L 57.931155 26.28272 
L 57.879615 26.180769 
L 57.826464 26.079648 
L 57.771716 25.979384 
L 57.715383 25.88 
L 57.657481 25.781523 
L 57.598023 25.683977 
L 57.537025 25.587386 
L 57.474503 25.491776 
L 57.410471 25.397169 
L 57.344947 25.30359 
L 57.277946 25.211063 
L 57.209485 25.11961 
L 57.139582 25.029255 
L 57.068255 24.940021 
L 56.99552 24.851929 
L 56.921397 24.765003 
L 56.845904 24.679263 
L 56.76906 24.594732 
L 56.690885 24.511431 
L 56.611398 24.429381 
L 56.530619 24.348602 
L 56.448569 24.269115 
L 56.365268 24.19094 
L 56.280737 24.114096 
L 56.194997 24.038603 
L 56.108071 23.96448 
L 56.019979 23.891745 
L 55.930745 23.820418 
L 55.84039 23.750515 
L 55.748937 23.682054 
L 55.65641 23.615053 
L 55.562831 23.549529 
L 55.468224 23.485497 
L 55.372614 23.422975 
L 55.276023 23.361977 
L 55.178477 23.302519 
L 55.08 23.244617 
L 54.980616 23.188284 
L 54.880352 23.133536 
L 54.779231 23.080385 
L 54.67728 23.028845 
L 54.574523 22.978929 
L 54.470988 22.93065 
L 54.3667 22.884019 
L 54.261685 22.839049 
L 54.15597 22.795751 
L 54.049581 22.754135 
L 53.942545 22.714213 
L 53.834889 22.675994 
L 53.726641 22.639488 
L 53.617827 22.604704 
L 53.508474 22.571651 
L 53.398611 22.540336 
L 53.288266 22.510769 
L 53.177464 22.482957 
L 53.066236 22.456906 
L 52.954608 22.432622 
L 52.842609 22.410113 
L 52.730267 22.389384 
L 52.61761 22.37044 
L 52.504667 22.353286 
L 52.391466 22.337925 
L 52.278035 22.324363 
L 52.164404 22.312602 
L 52.0506 22.302646 
L 51.936652 22.294496 
L 51.82259 22.288155 
L 51.708441 22.283625 
L 51.594235 22.280906 
L 51.48 22.28 
L 11.88 22.28 
L 11.765765 22.280906 
L 11.651559 22.283625 
L 11.53741 22.288155 
L 11.423348 22.294496 
L 11.3094 22.302646 
L 11.195596 22.312602 
L 11.081965 22.324363 
L 10.968534 22.337925 
L 10.855333 22.353286 
L 10.74239 22.37044 
L 10.629733 22.389384 
L 10.517391 22.410113 
L 10.405392 22.432622 
L 10.293764 22.456906 
L 10.182536 22.482957 
L 10.071734 22.510769 
L 9.961389 22.540336 
L 9.851526 22.571651 
L 9.742173 22.604704 
L 9.633359 22.639488 
L 9.525111 22.675994 
L 9.417455 22.714213 
L 9.310419 22.754135 
L 9.20403 22.795751 
L 9.098315 22.839049 
L 8.9933 22.884019 
L 8.889012 22.93065 
L 8.785477 22.978929 
L 8.68272 23.028845 
L 8.580769 23.080385 
L 8.479648 23.133536 
L 8.379384 23.188284 
L 8.28 23.244617 
L 8.181523 23.302519 
L 8.083977 23.361977 
L 7.987386 23.422975 
L 7.891776 23.485497 
L 7.797169 23.549529 
L 7.70359 23.615053 
L 7.611063 23.682054 
L 7.51961 23.750515 
L 7.429255 23.820418 
L 7.340021 23.891745 
L 7.251929 23.96448 
L 7.165003 24.038603 
L 7.079263 24.114096 
L 6.994732 24.19094 
L 6.911431 24.269115 
L 6.829381 24.348602 
L 6.748602 24.429381 
L 6.669115 24.511431 
L 6.59094 24.594732 
L 6.514096 24.679263 
L 6.438603 24.765003 
L 6.36448 24.851929 
L 6.291745 24.940021 
L 6.220418 25.029255 
L 6.150515 25.11961 
L 6.082054 25.211063 
L 6.015053 25.30359 
L 5.949529 25.397169 
L 5.885497 25.491776 
L 5.822975 25.587386 
L 5.761977 25.683977 
L 5.702519 25.781523 
L 5.644617 25.88 
L 5.588284 25.979384 
L 5.533536 26.079648 
L 5.480385 26.180769 
L 5.428845 26.28272 
L 5.378929 26.385477 
L 5.33065 26.489012 
L 5.284019 26.5933 
L 5.239049 26.698315 
L 5.195751 26.80403 
L 5.154135 26.910419 
L 5.114213 27.017455 
L 5.075994 27.125111 
L 5.039488 27.233359 
L 5.004704 27.342173 
L 4.971651 27.451526 
L 4.940336 27.561389 
L 4.910769 27.671734 
L 4.882957 27.782536 
L 4.856906 27.893764 
L 4.832622 28.005392 
L 4.810113 28.117391 
L 4.789384 28.229733 
L 4.77044 28.34239 
L 4.753286 28.455333 
L 4.737925 28.568534 
L 4.724363 28.681965 
L 4.712602 28.795596 
L 4.702646 28.9094 
L 4.694496 29.023348 
L 4.688155 29.13741 
L 4.683625 29.251559 
L 4.680906 29.365765 
L 4.68 29.48 
L 4.68 69.08 
L 4.680906 69.194235 
L 4.683625 69.308441 
L 4.688155 69.42259 
L 4.694496 69.536652 
L 4.702646 69.6506 
L 4.712602 69.764404 
L 4.724363 69.878035 
L 4.737925 69.991466 
L 4.753286 70.104667 
L 4.77044 70.21761 
L 4.789384 70.330267 
L 4.810113 70.442609 
L 4.832622 70.554608 
L 4.856906 70.666236 
L 4.882957 70.777464 
L 4.910769 70.888266 
L 4.940336 70.998611 
L 4.971651 71.108474 
L 5.004704 71.217827 
L 5.039488 71.326641 
L 5.075994 71.434889 
L 5.114213 71.542545 
L 5.154135 71.649581 
L 5.195751 71.75597 
L 5.239049 71.861685 
L 5.284019 71.9667 
L 5.33065 72.070988 
L 5.378929 72.174523 
L 5.428845 72.27728 
L 5.480385 72.379231 
L 5.533536 72.480352 
L 5.588284 72.580616 
L 5.644617 72.68 
L 5.702519 72.778477 
L 5.761977 72.876023 
L 5.822975 72.972614 
L 5.885497 73.068224 
L 5.949529 73.162831 
L 6.015053 73.25641 
L 6.082054 73.348937 
L 6.150515 73.44039 
L 6.220418 73.530745 
L 6.291745 73.619979 
L 6.36448 73.708071 
L 6.438603 73.794997 
L 6.514096 73.880737 
L 6.59094 73.965268 
L 6.669115 74.048569 
L 6.748602 74.130619 
L 6.829381 74.211398 
L 6.911431 74.290885 
L 6.994732 74.36906 
L 7.079263 74.445904 
L 7.165003 74.521397 
L 7.251929 74.59552 
L 7.340021 74.668255 
L 7.429255 74.739582 
L 7.51961 74.809485 
L 7.611063 74.877946 
L 7.70359 74.944947 
L 7.797169 75.010471 
L 7.891776 75.074503 
L 7.987386 75.137025 
L 8.083977 75.198023 
L 8.181523 75.257481 
L 8.28 75.315383 
L 8.379384 75.371716 
L 8.479648 75.426464 
L 8.580769 75.479615 
L 8.68272 75.531155 
L 8.785477 75.581071 
L 8.889012 75.62935 
L 8.9933 75.675981 
L 9.098315 75.720951 
L 9.20403 75.764249 
L 9.310419 75.805865 
L 9.417455 75.845787 
L 9.525111 75.884006 
L 9.633359 75.920512 
L 9.742173 75.955296 
L 9.851526 75.988349 
L 9.961389 76.019664 
L 10.071734 76.049231 
L 10.182536 76.077043 
L 10.293764 76.103094 
L 10.405392 76.127378 
L 10.517391 76.149887 
L 10.629733 76.170616 
L 10.74239 76.18956 
L 10.855333 76.206714 
L 10.968534 76.222075 
L 11.081965 76.235637 
L 11.195596 76.247398 
L 11.3094 76.257354 
L 11.423348 76.265504 
L 11.53741 76.271845 
L 11.651559 76.276375 
L 11.765765 76.279094 
L 11.88 76.28 
L 51.48 76.28 
L 51.594235 76.279094 
L 51.708441 76.276375 
L 51.82259 76.271845 
L 51.936652 76.265504 
L 52.0506 76.257354 
L 52.164404 76.247398 
L 52.278035 76.235637 
L 52.391466 76.222075 
L 52.504667 76.206714 
L 52.61761 76.18956 
L 52.730267 76.170616 
L 52.842609 76.149887 
L 52.954608 76.127378 
L 53.066236 76.103094 
L 53.177464 76.077043 
L 53.288266 76.049231 
L 53.398611 76.019664 
L 53.508474 75.988349 
L 53.617827 75.955296 
L 53.726641 75.920512 
L 53.834889 75.884006 
L 53.942545 75.845787 
L 54.049581 75.805865 
L 54.15597 75.764249 
L 54.261685 75.720951 
L 54.3667 75.675981 
L 54.470988 75.62935 
L 54.574523 75.581071 
L 54.67728 75.531155 
L 54.779231 75.479615 
L 54.880352 75.426464 
L 54.980616 75.371716 
L 55.08 75.315383 
L 55.178477 75.257481 
L 55.276023 75.198023 
L 55.372614 75.137025 
L 55.468224 75.074503 
L 55.562831 75.010471 
L 55.65641 74.944947 
L 55.748937 74.877946 
L 55.84039 74.809485 
L 55.930745 74.739582 
L 56.019979 74.668255 
L 56.108071 74.59552 
L 56.194997 74.521397 
L 56.280737 74.445904 
L 56.365268 74.36906 
L 56.448569 74.290885 
L 56.530619 74.211398 
L 56.611398 74.130619 
L 56.690885 74.048569 
L 56.76906 73.965268 
L 56.845904 73.880737 
L 56.921397 73.794997 
L 56.99552 73.708071 
L 57.068255 73.619979 
L 57.139582 73.530745 
L 57.209485 73.44039 
L 57.277946 73.348937 
L 57.344947 73.25641 
L 57.410471 73.162831 
L 57.474503 73.068224 
L 57.537025 72.972614 
L 57.598023 72.876023 
L 57.657481 72.778477 
L 57.715383 72.68 
L 57.771716 72.580616 
L 57.826464 72.480352 
L 57.879615 72.379231 
L 57.931155 72.27728 
L 57.981071 72.174523 
L 58.02935 72.070988 
L 58.075981 71.9667 
L 58.120951 71.861685 
L 58.164249 71.75597 
L 58.205865 71.649581 
L 58.245787 71.542545 
L 58.284006 71.434889 
L 58.320512 71.326641 
L 58.355296 71.217827 
L 58.388349 71.108474 
L 58.419664 70.998611 
L 58.449231 70.888266 
L 58.477043 70.777464 
L 58.503094 70.666236 
L 58.527378 70.554608 
L 58.549887 70.442609 
L 58.570616 70.330267 
L 58.58956 70.21761 
L 58.606714 70.104667 
L 58.622075 69.991466 
L 58.635637 69.878035 
L 58.647398 69.764404 
L 58.657354 69.6506 
L 58.665504 69.536652 
L 58.671845 69.42259 
L 58.676375 69.308441 
L 58.679094 69.194235 
L 58.68 69.08 
L 58.68 29.48 
z
" clip-path="url(#p0f8ec6c478)" style="fill: none; stroke: #000000; stroke-width: 2; stroke-linecap: round"/>
   </g>
   <g id="patch_3">
    <path d="M 13.68 33.08 
Q 31.68 25.88 49.68 33.08 
L 45.18 45.32 
Q 31.68 40.28 18.18 45.32 
L 13.68 33.08 
z
" clip-path="url(#p0f8ec6c478)" style="fill: none; stroke: #000000; stroke-linecap: round"/>
   </g>
   <g id="line2d_1">
    <path d="M 37.265211 42.904095 
L 38.810057 33.672462 
" clip-path="url(#p0f8ec6c478)" style="fill: none; stroke: #000000; stroke-width: 1.5; stroke-linecap: round"/>
   </g>
   <g id="text_1">
    <!-- G -->
    <g transform="translate(26.256094 15.768437) scale(0.14 -0.14)">
     <defs>
      <path id="DejaVuSans-47" d="M 3809 666 
L 3809 1919 
L 2778 1919 
L 2778 2438 
L 4434 2438 
L 4434 434 
Q 4069 175 3628 42 
Q 3188 -91 2688 -91 
Q 1594 -91 976 548 
Q 359 1188 359 2328 
Q 359 3472 976 4111 
Q 1594 4750 2688 4750 
Q 3144 4750 3555 4637 
Q 3966 4525 4313 4306 
L 4313 3634 
Q 3963 3931 3569 4081 
Q 3175 4231 2741 4231 
Q 1884 4231 1454 3753 
Q 1025 3275 1025 2328 
Q 1025 1384 1454 906 
Q 1884 428 2741 428 
Q 3075 428 3337 486 
Q 3600 544 3809 666 
z
" transform="scale(0.015625)"/>
     </defs>
     <use xlink:href="#DejaVuSans-47"/>
    </g>
   </g>
   <g id="patch_4">
    <path d="M 19.08 69.08 
C 20.034731 69.08 20.950488 68.700681 21.625584 68.025584 
C 22.300681 67.350488 22.68 66.434731 22.68 65.48 
C 22.68 64.525269 22.300681 63.609512 21.625584 62.934416 
C 20.950488 62.259319 20.034731 61.88 19.08 61.88 
C 18.125269 61.88 17.209512 62.259319 16.534416 62.934416 
C 15.859319 63.609512 15.48 64.525269 15.48 65.48 
C 15.48 66.434731 15.859319 67.350488 16.534416 68.025584 
C 17.209512 68.700681 18.125269 69.08 19.08 69.08 
L 19.08 69.08 
z
" clip-path="url(#p0f8ec6c478)" style="fill: none; stroke: #000000; stroke-linejoin: miter"/>
   </g>
   <g id="patch_5">
    <path d="M 44.28 69.08 
C 45.234731 69.08 46.150488 68.700681 46.825584 68.025584 
C 47.500681 67.350488 47.88 66.434731 47.88 65.48 
C 47.88 64.525269 47.500681 63.609512 46.825584 62.934416 
C 46.150488 62.259319 45.234731 61.88 44.28 61.88 
C 43.325269 61.88 42.409512 62.259319 41.734416 62.934416 
C 41.059319 63.609512 40.68 64.525269 40.68 65.48 
C 40.68 66.434731 41.059319 67.350488 41.734416 68.025584 
C 42.409512 68.700681 43.325269 69.08 44.28 69.08 
L 44.28 69.08 
z
" clip-path="url(#p0f8ec6c478)" style="fill: none; stroke: #000000; stroke-linejoin: miter"/>
   </g>
  </g>
 </g>
 <defs>
  <clipPath id="p0f8ec6c478">
   <rect x="0" y="0" width="63.36" height="80.96"/>
  </clipPath>
 </defs>
</svg>
