<?xml version="1.0" encoding="utf-8" standalone="no"?>
<!DOCTYPE svg PUBLIC "-//W3C//DTD SVG 1.1//EN"
  "http://www.w3.org/Graphics/SVG/1.1/DTD/svg11.dtd">
<svg xmlns:xlink="http://www.w3.org/1999/xlink" width="333.36pt" height="130.86pt" viewBox="0 0 333.36 130.86" xmlns="http://www.w3.org/2000/svg" version="1.1">
 <metadata>
  <rdf:RDF xmlns:dc="http://purl.org/dc/elements/1.1/" xmlns:cc="http://creativecommons.org/ns#" xmlns:rdf="http://www.w3.org/1999/02/22-rdf-syntax-ns#">
   <cc:Work>
    <dc:type rdf:resource="http://purl.org/dc/dcmitype/StillImage"/>
    <dc:date>2026-06-17T14:51:39.644460</dc:date>
    <dc:format>image/svg+xml</dc:format>
    <dc:creator>
     <cc:Agent>
      <dc:title>Matplotlib v3.10.6, https://matplotlib.org/</dc:title>
     </cc:Agent>
    </dc:creator>
   </cc:Work>
  </rdf:RDF>
 </metadata>
 <defs>
  <style type="text/css">*{stroke-linejoin: round; stroke-linecap: butt}</style>
 </defs>
 <g id="figure_1">
  <g id="patch_1">
   <path d="M 0 130.86 
L 333.36 130.86 
L 333.36 0 
L 0 0 
L 0 130.86 
z
" style="fill: none"/>
  </g>
  <g id="axes_1">
   <g id="patch_2">
    <path d="M 220.68 76.68 
C 225.453656 76.68 230.032438 74.783406 233.407922 71.407922 
C 236.783406 68.032438 238.68 63.453656 238.68 58.68 
C 238.68 53.906344 236.783406 49.327562 233.407922 45.952078 
C 230.032438 42.576594 225.453656 40.68 220.68 40.68 
C 215.906344 40.68 211.327562 42.576594 207.952078 45.952078 
C 204.576594 49.327562 202.68 53.906344 202.68 58.68 
C 202.68 63.453656 204.576594 68.032438 207.952078 71.407922 
C 211.327562 74.783406 215.906344 76.68 220.68 76.68 
L 220.68 76.68 
z
" clip-path="url(#p3f0b9f76e0)" style="fill: none; stroke: #000000; stroke-width: 2; stroke-linejoin: miter"/>
   </g>
   <g id="line2d_1">
    <path d="M 4.68 112.68 
L 48.555 112.68 
M 68.805 112.68 
L 112.68 112.68 
" clip-path="url(#p3f0b9f76e0)" style="fill: none; stroke: #000000; stroke-width: 2; stroke-linecap: round"/>
   </g>
   <g id="line2d_2">
    <path d="M 48.555 99.18 
L 48.555 126.18 
" clip-path="url(#p3f0b9f76e0)" style="fill: none; stroke: #000000; stroke-width: 2; stroke-linecap: round"/>
   </g>
   <g id="line2d_3">
    <path d="M 55.305 105.93 
L 55.305 119.43 
" clip-path="url(#p3f0b9f76e0)" style="fill: none; stroke: #000000; stroke-width: 2; stroke-linecap: round"/>
   </g>
   <g id="line2d_4">
    <path d="M 62.055 99.18 
L 62.055 126.18 
" clip-path="url(#p3f0b9f76e0)" style="fill: none; stroke: #000000; stroke-width: 2; stroke-linecap: round"/>
   </g>
   <g id="line2d_5">
    <path d="M 68.805 105.93 
L 68.805 119.43 
" clip-path="url(#p3f0b9f76e0)" style="fill: none; stroke: #000000; stroke-width: 2; stroke-linecap: round"/>
   </g>
   <g id="line2d_6">
    <path d="M 112.68 112.68 
L 166.68 112.68 
L 220.68 112.68 
" clip-path="url(#p3f0b9f76e0)" style="fill: none; stroke: #000000; stroke-width: 2; stroke-linecap: round"/>
   </g>
   <g id="line2d_7">
    <path d="M 220.68 112.68 
L 256.68 112.68 
L 259.68 103.68 
L 265.68 121.68 
L 271.68 103.68 
L 277.68 121.68 
L 283.68 103.68 
L 289.68 121.68 
L 292.68 112.68 
L 328.68 112.68 
" clip-path="url(#p3f0b9f76e0)" style="fill: none; stroke: #000000; stroke-width: 2; stroke-linecap: round"/>
   </g>
   <g id="line2d_8">
    <path d="M 328.68 112.68 
L 274.68 112.68 
L 220.68 112.68 
" clip-path="url(#p3f0b9f76e0)" style="fill: none; stroke: #000000; stroke-width: 2; stroke-linecap: round"/>
   </g>
   <g id="line2d_9">
    <path d="M 112.68 112.68 
L 166.68 112.68 
L 220.68 112.68 
" clip-path="url(#p3f0b9f76e0)" style="fill: none; stroke: #000000; stroke-width: 2; stroke-linecap: round"/>
   </g>
   <g id="line2d_10">
    <path d="M 220.68 112.68 
L 220.68 76.68 
L 220.68 76.68 
M 220.68 40.68 
L 220.68 40.68 
L 220.68 4.68 
" clip-path="url(#p3f0b9f76e0)" style="fill: none; stroke: #000000; stroke-width: 2; stroke-linecap: round"/>
   </g>
   <g id="line2d_11">
    <path d="M 220.68 4.68 
L 166.68 4.68 
L 112.68 4.68 
" clip-path="url(#p3f0b9f76e0)" style="fill: none; stroke: #000000; stroke-width: 2; stroke-linecap: round"/>
   </g>
   <g id="text_1">
    <!--  12V -->
    <g transform="translate(42.759375 92.668438) scale(0.14 -0.14)">
     <defs>
      <path id="DejaVuSans-20" transform="scale(0.015625)"/>
      <path id="DejaVuSans-31" d="M 794 531 
L 1825 531 
L 1825 4091 
L 703 3866 
L 703 4441 
L 1819 4666 
L 2450 4666 
L 2450 531 
L 3481 531 
L 3481 0 
L 794 0 
L 794 531 
z
" transform="scale(0.015625)"/>
      <path id="DejaVuSans-32" d="M 1228 531 
L 3431 531 
L 3431 0 
L 469 0 
L 469 531 
Q 828 903 1448 1529 
Q 2069 2156 2228 2338 
Q 2531 2678 2651 2914 
Q 2772 3150 2772 3378 
Q 2772 3750 2511 3984 
Q 2250 4219 1831 4219 
Q 1534 4219 1204 4116 
Q 875 4013 500 3803 
L 500 4441 
Q 881 4594 1212 4672 
Q 1544 4750 1819 4750 
Q 2544 4750 2975 4387 
Q 3406 4025 3406 3419 
Q 3406 3131 3298 2873 
Q 3191 2616 2906 2266 
Q 2828 2175 2409 1742 
Q 1991 1309 1228 531 
z
" transform="scale(0.015625)"/>
      <path id="DejaVuSans-56" d="M 1831 0 
L 50 4666 
L 709 4666 
L 2188 738 
L 3669 4666 
L 4325 4666 
L 2547 0 
L 1831 0 
z
" transform="scale(0.015625)"/>
     </defs>
     <use xlink:href="#DejaVuSans-20"/>
     <use xlink:href="#DejaVuSans-31" transform="translate(31.787109 0)"/>
     <use xlink:href="#DejaVuSans-32" transform="translate(95.410156 0)"/>
     <use xlink:href="#DejaVuSans-56" transform="translate(159.033203 0)"/>
    </g>
   </g>
   <g id="text_2">
    <!--  4Ω -->
    <g transform="translate(262.652031 97.168438) scale(0.14 -0.14)">
     <defs>
      <path id="DejaVuSans-34" d="M 2419 4116 
L 825 1625 
L 2419 1625 
L 2419 4116 
z
M 2253 4666 
L 3047 4666 
L 3047 1625 
L 3713 1625 
L 3713 1100 
L 3047 1100 
L 3047 0 
L 2419 0 
L 2419 1100 
L 313 1100 
L 313 1709 
L 2253 4666 
z
" transform="scale(0.015625)"/>
      <path id="DejaVuSans-3a9" d="M 4647 556 
L 4647 0 
L 2772 0 
L 2772 556 
Q 3325 859 3634 1378 
Q 3944 1897 3944 2528 
Q 3944 3278 3531 3731 
Q 3119 4184 2444 4184 
Q 1769 4184 1355 3729 
Q 941 3275 941 2528 
Q 941 1897 1250 1378 
Q 1563 859 2119 556 
L 2119 0 
L 244 0 
L 244 556 
L 1241 556 
Q 747 991 519 1456 
Q 294 1922 294 2497 
Q 294 3491 894 4106 
Q 1491 4722 2444 4722 
Q 3391 4722 3994 4106 
Q 4594 3494 4594 2528 
Q 4594 1922 4372 1459 
Q 4150 997 3647 556 
L 4647 556 
z
" transform="scale(0.015625)"/>
     </defs>
     <use xlink:href="#DejaVuSans-20"/>
     <use xlink:href="#DejaVuSans-34" transform="translate(31.787109 0)"/>
     <use xlink:href="#DejaVuSans-3a9" transform="translate(95.410156 0)"/>
    </g>
   </g>
   <g id="text_3">
    <!-- V -->
    <g transform="translate(215.891563 62.543125) scale(0.14 -0.14)">
     <use xlink:href="#DejaVuSans-56"/>
    </g>
   </g>
   <g id="text_4">
    <!-- V -->
    <g transform="translate(189.503125 62.543125) scale(0.14 -0.14)">
     <use xlink:href="#DejaVuSans-56"/>
    </g>
   </g>
  </g>
 </g>
 <defs>
  <clipPath id="p3f0b9f76e0">
   <rect x="0" y="0" width="333.36" height="130.86"/>
  </clipPath>
 </defs>
</svg>
