<?xml version="1.0" encoding="utf-8" standalone="no"?>
<!DOCTYPE svg PUBLIC "-//W3C//DTD SVG 1.1//EN"
  "http://www.w3.org/Graphics/SVG/1.1/DTD/svg11.dtd">
<svg xmlns:xlink="http://www.w3.org/1999/xlink" width="351.36pt" height="130.86pt" viewBox="0 0 351.36 130.86" xmlns="http://www.w3.org/2000/svg" version="1.1">
 <metadata>
  <rdf:RDF xmlns:dc="http://purl.org/dc/elements/1.1/" xmlns:cc="http://creativecommons.org/ns#" xmlns:rdf="http://www.w3.org/1999/02/22-rdf-syntax-ns#">
   <cc:Work>
    <dc:type rdf:resource="http://purl.org/dc/dcmitype/StillImage"/>
    <dc:date>2026-06-17T14:51:39.669073</dc:date>
    <dc:format>image/svg+xml</dc:format>
    <dc:creator>
     <cc:Agent>
      <dc:title>Matplotlib v3.10.6, https://matplotlib.org/</dc:title>
     </cc:Agent>
    </dc:creator>
   </cc:Work>
  </rdf:RDF>
 </metadata>
 <defs>
  <style type="text/css">*{stroke-linejoin: round; stroke-linecap: butt}</style>
 </defs>
 <g id="figure_1">
  <g id="patch_1">
   <path d="M 0 130.86 
L 351.36 130.86 
L 351.36 0 
L 0 0 
L 0 130.86 
z
" style="fill: none"/>
  </g>
  <g id="axes_1">
   <g id="patch_2">
    <path d="M 328.68 76.68 
C 333.453656 76.68 338.032438 74.783406 341.407922 71.407922 
C 344.783406 68.032438 346.68 63.453656 346.68 58.68 
C 346.68 53.906344 344.783406 49.327562 341.407922 45.952078 
C 338.032438 42.576594 333.453656 40.68 328.68 40.68 
C 323.906344 40.68 319.327562 42.576594 315.952078 45.952078 
C 312.576594 49.327562 310.68 53.906344 310.68 58.68 
C 310.68 63.453656 312.576594 68.032438 315.952078 71.407922 
C 319.327562 74.783406 323.906344 76.68 328.68 76.68 
L 328.68 76.68 
z
" clip-path="url(#p0afd1d8c48)" style="fill: none; stroke: #000000; stroke-width: 2; stroke-linejoin: miter"/>
   </g>
   <g id="line2d_1">
    <path d="M 112.68 112.68 
L 163.305 112.68 
M 170.055 112.68 
L 220.68 112.68 
" clip-path="url(#p0afd1d8c48)" style="fill: none; stroke: #000000; stroke-width: 2; stroke-linecap: round"/>
   </g>
   <g id="line2d_2">
    <path d="M 163.305 99.18 
L 163.305 126.18 
" clip-path="url(#p0afd1d8c48)" style="fill: none; stroke: #000000; stroke-width: 2; stroke-linecap: round"/>
   </g>
   <g id="line2d_3">
    <path d="M 170.055 105.93 
L 170.055 119.43 
" clip-path="url(#p0afd1d8c48)" style="fill: none; stroke: #000000; stroke-width: 2; stroke-linecap: round"/>
   </g>
   <g id="line2d_4">
    <path d="M 220.68 112.68 
L 256.68 112.68 
M 265.32 109.08 
L 285.48 96.48 
M 292.68 112.68 
L 328.68 112.68 
" clip-path="url(#p0afd1d8c48)" style="fill: none; stroke: #000000; stroke-width: 2; stroke-linecap: round"/>
   </g>
   <g id="line2d_5">
    <path d="M 328.68 112.68 
L 328.68 76.68 
L 328.68 76.68 
M 328.68 40.68 
L 328.68 40.68 
L 328.68 4.68 
" clip-path="url(#p0afd1d8c48)" style="fill: none; stroke: #000000; stroke-width: 2; stroke-linecap: round"/>
   </g>
   <g id="line2d_6">
    <path d="M 328.68 76.68 
L 328.054234 76.524203 
L 327.424012 76.30275 
L 326.795644 76.015507 
L 326.175421 75.662995 
L 325.569552 75.246392 
L 324.984103 74.767513 
L 324.424935 74.228802 
L 323.897645 73.633297 
L 323.407513 72.984609 
L 322.959445 72.286877 
L 322.557927 71.544734 
L 322.20698 70.763257 
L 321.910116 69.947917 
L 321.670307 69.104523 
L 321.489954 68.239166 
L 321.370863 67.358155 
L 321.314227 66.467959 
L 321.320611 65.575136 
L 321.389952 64.686271 
L 321.521556 63.807911 
L 321.714105 62.946495 
L 321.965672 62.108294 
L 322.273739 61.299348 
L 322.63522 60.525401 
L 323.046497 59.791849 
L 323.503454 59.103683 
L 324.001514 58.465439 
L 324.535692 57.881154 
L 325.100639 57.354324 
L 325.690701 56.88787 
L 326.29997 56.48411 
L 326.922346 56.144732 
L 327.551598 55.870781 
L 328.181427 55.662647 
L 328.805527 55.520061 
L 329.41765 55.442096 
L 330.011669 55.42718 
L 330.581636 55.47311 
L 331.121845 55.577073 
L 331.626887 55.735675 
L 332.091708 55.944975 
L 332.511653 56.200525 
L 332.882518 56.497414 
L 333.20059 56.830316 
L 333.462685 57.193545 
L 333.666179 57.581112 
L 333.809035 57.986784 
L 333.889823 58.404147 
L 333.907733 58.826669 
L 333.862587 59.247767 
L 333.754836 59.660873 
L 333.58556 60.059498 
L 333.356452 60.437297 
L 333.069807 60.788137 
L 332.728494 61.106151 
L 332.335931 61.385802 
L 331.896046 61.621939 
L 331.413245 61.809843 
L 330.892361 61.945281 
L 330.338607 62.024544 
L 329.757529 62.044486 
L 329.154944 62.002553 
L 328.536883 61.896812 
L 327.909535 61.72597 
L 327.279181 61.489383 
L 326.65213 61.187067 
L 326.034662 60.819695 
L 325.432956 60.388593 
L 324.853038 59.895723 
L 324.300712 59.343667 
L 323.781509 58.735598 
L 323.300626 58.075251 
L 322.862878 57.366884 
L 322.472646 56.615235 
L 322.133838 55.825477 
L 321.849846 55.003163 
L 321.623513 54.154172 
L 321.457104 53.284652 
L 321.352286 52.400953 
L 321.310108 51.50957 
L 321.330992 50.617075 
L 321.414729 49.730048 
L 321.560481 48.855017 
L 321.766789 47.99839 
L 322.031587 47.166389 
L 322.352224 46.364991 
L 322.725491 45.599866 
L 323.14765 44.876321 
L 323.614475 44.199245 
L 324.121293 43.573066 
L 324.663029 43.001699 
L 325.23426 42.48851 
L 325.829267 42.036284 
L 326.442094 41.647197 
L 327.066606 41.322789 
L 327.696549 41.063957 
L 328.325618 40.870937 
L 328.947515 40.74331 
L 329.556014 40.68 
" clip-path="url(#p0afd1d8c48)" style="fill: none; stroke: #000000; stroke-width: 2; stroke-linecap: round"/>
   </g>
   <g id="line2d_7">
    <path d="M 328.68 4.68 
L 328.68 58.68 
L 328.68 112.68 
" clip-path="url(#p0afd1d8c48)" style="fill: none; stroke: #000000; stroke-width: 2; stroke-linecap: round"/>
   </g>
   <g id="line2d_8">
    <path d="M 328.68 112.68 
L 166.68 112.68 
L 4.68 112.68 
" clip-path="url(#p0afd1d8c48)" style="fill: none; stroke: #000000; stroke-width: 2; stroke-linecap: round"/>
   </g>
   <g id="line2d_9">
    <path d="M 4.68 112.68 
L 4.68 58.68 
L 4.68 4.68 
" clip-path="url(#p0afd1d8c48)" style="fill: none; stroke: #000000; stroke-width: 2; stroke-linecap: round"/>
   </g>
   <g id="text_1">
    <!--  1.5V -->
    <g transform="translate(148.534688 92.668438) scale(0.14 -0.14)">
     <defs>
      <path id="DejaVuSans-20" transform="scale(0.015625)"/>
      <path id="DejaVuSans-31" d="M 794 531 
L 1825 531 
L 1825 4091 
L 703 3866 
L 703 4441 
L 1819 4666 
L 2450 4666 
L 2450 531 
L 3481 531 
L 3481 0 
L 794 0 
L 794 531 
z
" transform="scale(0.015625)"/>
      <path id="DejaVuSans-2e" d="M 684 794 
L 1344 794 
L 1344 0 
L 684 0 
L 684 794 
z
" transform="scale(0.015625)"/>
      <path id="DejaVuSans-35" d="M 691 4666 
L 3169 4666 
L 3169 4134 
L 1269 4134 
L 1269 2991 
Q 1406 3038 1543 3061 
Q 1681 3084 1819 3084 
Q 2600 3084 3056 2656 
Q 3513 2228 3513 1497 
Q 3513 744 3044 326 
Q 2575 -91 1722 -91 
Q 1428 -91 1123 -41 
Q 819 9 494 109 
L 494 744 
Q 775 591 1075 516 
Q 1375 441 1709 441 
Q 2250 441 2565 725 
Q 2881 1009 2881 1497 
Q 2881 1984 2565 2268 
Q 2250 2553 1709 2553 
Q 1456 2553 1204 2497 
Q 953 2441 691 2322 
L 691 4666 
z
" transform="scale(0.015625)"/>
      <path id="DejaVuSans-56" d="M 1831 0 
L 50 4666 
L 709 4666 
L 2188 738 
L 3669 4666 
L 4325 4666 
L 2547 0 
L 1831 0 
z
" transform="scale(0.015625)"/>
     </defs>
     <use xlink:href="#DejaVuSans-20"/>
     <use xlink:href="#DejaVuSans-31" transform="translate(31.787109 0)"/>
     <use xlink:href="#DejaVuSans-2e" transform="translate(95.410156 0)"/>
     <use xlink:href="#DejaVuSans-35" transform="translate(127.197266 0)"/>
     <use xlink:href="#DejaVuSans-56" transform="translate(190.820312 0)"/>
    </g>
   </g>
   <g id="patch_3">
    <path d="M 261 117 
C 262.145677 117 263.244585 116.544818 264.054701 115.734701 
C 264.864818 114.924585 265.32 113.825677 265.32 112.68 
C 265.32 111.534323 264.864818 110.435415 264.054701 109.625299 
C 263.244585 108.815182 262.145677 108.36 261 108.36 
C 259.854323 108.36 258.755415 108.815182 257.945299 109.625299 
C 257.135182 110.435415 256.68 111.534323 256.68 112.68 
C 256.68 113.825677 257.135182 114.924585 257.945299 115.734701 
C 258.755415 116.544818 259.854323 117 261 117 
z
" clip-path="url(#p0afd1d8c48)" style="fill: #ffffff; stroke: #000000; stroke-width: 2; stroke-linejoin: miter"/>
   </g>
   <g id="patch_4">
    <path d="M 288.36 117 
C 289.505677 117 290.604585 116.544818 291.414701 115.734701 
C 292.224818 114.924585 292.68 113.825677 292.68 112.68 
C 292.68 111.534323 292.224818 110.435415 291.414701 109.625299 
C 290.604585 108.815182 289.505677 108.36 288.36 108.36 
C 287.214323 108.36 286.115415 108.815182 285.305299 109.625299 
C 284.495182 110.435415 284.04 111.534323 284.04 112.68 
C 284.04 113.825677 284.495182 114.924585 285.305299 115.734701 
C 286.115415 116.544818 287.214323 117 288.36 117 
z
" clip-path="url(#p0afd1d8c48)" style="fill: #ffffff; stroke: #000000; stroke-width: 2; stroke-linejoin: miter"/>
   </g>
   <g id="text_2">
    <!-- K -->
    <g transform="translate(270.089531 89.968438) scale(0.14 -0.14)">
     <defs>
      <path id="DejaVuSans-4b" d="M 628 4666 
L 1259 4666 
L 1259 2694 
L 3353 4666 
L 4166 4666 
L 1850 2491 
L 4331 0 
L 3500 0 
L 1259 2247 
L 1259 0 
L 628 0 
L 628 4666 
z
" transform="scale(0.015625)"/>
     </defs>
     <use xlink:href="#DejaVuSans-4b"/>
    </g>
   </g>
   <g id="text_3">
    <!-- L -->
    <g transform="translate(299.279375 62.543125) scale(0.14 -0.14)">
     <defs>
      <path id="DejaVuSans-4c" d="M 628 4666 
L 1259 4666 
L 1259 531 
L 3531 531 
L 3531 0 
L 628 0 
L 628 4666 
z
" transform="scale(0.015625)"/>
     </defs>
     <use xlink:href="#DejaVuSans-4c"/>
    </g>
   </g>
  </g>
 </g>
 <defs>
  <clipPath id="p0afd1d8c48">
   <rect x="0" y="0" width="351.36" height="130.86"/>
  </clipPath>
 </defs>
</svg>
