<?xml version="1.0" encoding="utf-8" standalone="no"?>
<!DOCTYPE svg PUBLIC "-//W3C//DTD SVG 1.1//EN"
  "http://www.w3.org/Graphics/SVG/1.1/DTD/svg11.dtd">
<svg xmlns:xlink="http://www.w3.org/1999/xlink" width="273.96pt" height="197.96pt" viewBox="0 0 273.96 197.96" xmlns="http://www.w3.org/2000/svg" version="1.1">
 <metadata>
  <rdf:RDF xmlns:dc="http://purl.org/dc/elements/1.1/" xmlns:cc="http://creativecommons.org/ns#" xmlns:rdf="http://www.w3.org/1999/02/22-rdf-syntax-ns#">
   <cc:Work>
    <dc:type rdf:resource="http://purl.org/dc/dcmitype/StillImage"/>
    <dc:date>2026-06-17T14:51:39.701320</dc:date>
    <dc:format>image/svg+xml</dc:format>
    <dc:creator>
     <cc:Agent>
      <dc:title>Matplotlib v3.10.6, https://matplotlib.org/</dc:title>
     </cc:Agent>
    </dc:creator>
   </cc:Work>
  </rdf:RDF>
 </metadata>
 <defs>
  <style type="text/css">*{stroke-linejoin: round; stroke-linecap: butt}</style>
 </defs>
 <g id="figure_1">
  <g id="patch_1">
   <path d="M 0 197.96 
L 273.96 197.96 
L 273.96 0 
L 0 0 
L 0 197.96 
z
" style="fill: none"/>
  </g>
  <g id="axes_1">
   <g id="patch_2">
    <path d="M 98.28 186.08 
L 98.280906 186.194235 
L 98.283625 186.308441 
L 98.288155 186.42259 
L 98.294496 186.536652 
L 98.302646 186.6506 
L 98.312602 186.764404 
L 98.324363 186.878035 
L 98.337925 186.991466 
L 98.353286 187.104667 
L 98.37044 187.21761 
L 98.389384 187.330267 
L 98.410113 187.442609 
L 98.432622 187.554608 
L 98.456906 187.666236 
L 98.482957 187.777464 
L 98.510769 187.888266 
L 98.540336 187.998611 
L 98.571651 188.108474 
L 98.604704 188.217827 
L 98.639488 188.326641 
L 98.675994 188.434889 
L 98.714213 188.542545 
L 98.754135 188.649581 
L 98.795751 188.75597 
L 98.839049 188.861685 
L 98.884019 188.9667 
L 98.93065 189.070988 
L 98.978929 189.174523 
L 99.028845 189.27728 
L 99.080385 189.379231 
L 99.133536 189.480352 
L 99.188284 189.580616 
L 99.244617 189.68 
L 99.302519 189.778477 
L 99.361977 189.876023 
L 99.422975 189.972614 
L 99.485497 190.068224 
L 99.549529 190.162831 
L 99.615053 190.25641 
L 99.682054 190.348937 
L 99.750515 190.44039 
L 99.820418 190.530745 
L 99.891745 190.619979 
L 99.96448 190.708071 
L 100.038603 190.794997 
L 100.114096 190.880737 
L 100.19094 190.965268 
L 100.269115 191.048569 
L 100.348602 191.130619 
L 100.429381 191.211398 
L 100.511431 191.290885 
L 100.594732 191.36906 
L 100.679263 191.445904 
L 100.765003 191.521397 
L 100.851929 191.59552 
L 100.940021 191.668255 
L 101.029255 191.739582 
L 101.11961 191.809485 
L 101.211063 191.877946 
L 101.30359 191.944947 
L 101.397169 192.010471 
L 101.491776 192.074503 
L 101.587386 192.137025 
L 101.683977 192.198023 
L 101.781523 192.257481 
L 101.88 192.315383 
L 101.979384 192.371716 
L 102.079648 192.426464 
L 102.180769 192.479615 
L 102.28272 192.531155 
L 102.385477 192.581071 
L 102.489012 192.62935 
L 102.5933 192.675981 
L 102.698315 192.720951 
L 102.80403 192.764249 
L 102.910419 192.805865 
L 103.017455 192.845787 
L 103.125111 192.884006 
L 103.233359 192.920512 
L 103.342173 192.955296 
L 103.451526 192.988349 
L 103.561389 193.019664 
L 103.671734 193.049231 
L 103.782536 193.077043 
L 103.893764 193.103094 
L 104.005392 193.127378 
L 104.117391 193.149887 
L 104.229733 193.170616 
L 104.34239 193.18956 
L 104.455333 193.206714 
L 104.568534 193.222075 
L 104.681965 193.235637 
L 104.795596 193.247398 
L 104.9094 193.257354 
L 105.023348 193.265504 
L 105.13741 193.271845 
L 105.251559 193.276375 
L 105.365765 193.279094 
L 105.48 193.28 
L 145.08 193.28 
L 145.194235 193.279094 
L 145.308441 193.276375 
L 145.42259 193.271845 
L 145.536652 193.265504 
L 145.6506 193.257354 
L 145.764404 193.247398 
L 145.878035 193.235637 
L 145.991466 193.222075 
L 146.104667 193.206714 
L 146.21761 193.18956 
L 146.330267 193.170616 
L 146.442609 193.149887 
L 146.554608 193.127378 
L 146.666236 193.103094 
L 146.777464 193.077043 
L 146.888266 193.049231 
L 146.998611 193.019664 
L 147.108474 192.988349 
L 147.217827 192.955296 
L 147.326641 192.920512 
L 147.434889 192.884006 
L 147.542545 192.845787 
L 147.649581 192.805865 
L 147.75597 192.764249 
L 147.861685 192.720951 
L 147.9667 192.675981 
L 148.070988 192.62935 
L 148.174523 192.581071 
L 148.27728 192.531155 
L 148.379231 192.479615 
L 148.480352 192.426464 
L 148.580616 192.371716 
L 148.68 192.315383 
L 148.778477 192.257481 
L 148.876023 192.198023 
L 148.972614 192.137025 
L 149.068224 192.074503 
L 149.162831 192.010471 
L 149.25641 191.944947 
L 149.348937 191.877946 
L 149.44039 191.809485 
L 149.530745 191.739582 
L 149.619979 191.668255 
L 149.708071 191.59552 
L 149.794997 191.521397 
L 149.880737 191.445904 
L 149.965268 191.36906 
L 150.048569 191.290885 
L 150.130619 191.211398 
L 150.211398 191.130619 
L 150.290885 191.048569 
L 150.36906 190.965268 
L 150.445904 190.880737 
L 150.521397 190.794997 
L 150.59552 190.708071 
L 150.668255 190.619979 
L 150.739582 190.530745 
L 150.809485 190.44039 
L 150.877946 190.348937 
L 150.944947 190.25641 
L 151.010471 190.162831 
L 151.074503 190.068224 
L 151.137025 189.972614 
L 151.198023 189.876023 
L 151.257481 189.778477 
L 151.315383 189.68 
L 151.371716 189.580616 
L 151.426464 189.480352 
L 151.479615 189.379231 
L 151.531155 189.27728 
L 151.581071 189.174523 
L 151.62935 189.070988 
L 151.675981 188.9667 
L 151.720951 188.861685 
L 151.764249 188.75597 
L 151.805865 188.649581 
L 151.845787 188.542545 
L 151.884006 188.434889 
L 151.920512 188.326641 
L 151.955296 188.217827 
L 151.988349 188.108474 
L 152.019664 187.998611 
L 152.049231 187.888266 
L 152.077043 187.777464 
L 152.103094 187.666236 
L 152.127378 187.554608 
L 152.149887 187.442609 
L 152.170616 187.330267 
L 152.18956 187.21761 
L 152.206714 187.104667 
L 152.222075 186.991466 
L 152.235637 186.878035 
L 152.247398 186.764404 
L 152.257354 186.6506 
L 152.265504 186.536652 
L 152.271845 186.42259 
L 152.276375 186.308441 
L 152.279094 186.194235 
L 152.28 186.08 
L 152.28 146.48 
L 152.279094 146.365765 
L 152.276375 146.251559 
L 152.271845 146.13741 
L 152.265504 146.023348 
L 152.257354 145.9094 
L 152.247398 145.795596 
L 152.235637 145.681965 
L 152.222075 145.568534 
L 152.206714 145.455333 
L 152.18956 145.34239 
L 152.170616 145.229733 
L 152.149887 145.117391 
L 152.127378 145.005392 
L 152.103094 144.893764 
L 152.077043 144.782536 
L 152.049231 144.671734 
L 152.019664 144.561389 
L 151.988349 144.451526 
L 151.955296 144.342173 
L 151.920512 144.233359 
L 151.884006 144.125111 
L 151.845787 144.017455 
L 151.805865 143.910419 
L 151.764249 143.80403 
L 151.720951 143.698315 
L 151.675981 143.5933 
L 151.62935 143.489012 
L 151.581071 143.385477 
L 151.531155 143.28272 
L 151.479615 143.180769 
L 151.426464 143.079648 
L 151.371716 142.979384 
L 151.315383 142.88 
L 151.257481 142.781523 
L 151.198023 142.683977 
L 151.137025 142.587386 
L 151.074503 142.491776 
L 151.010471 142.397169 
L 150.944947 142.30359 
L 150.877946 142.211063 
L 150.809485 142.11961 
L 150.739582 142.029255 
L 150.668255 141.940021 
L 150.59552 141.851929 
L 150.521397 141.765003 
L 150.445904 141.679263 
L 150.36906 141.594732 
L 150.290885 141.511431 
L 150.211398 141.429381 
L 150.130619 141.348602 
L 150.048569 141.269115 
L 149.965268 141.19094 
L 149.880737 141.114096 
L 149.794997 141.038603 
L 149.708071 140.96448 
L 149.619979 140.891745 
L 149.530745 140.820418 
L 149.44039 140.750515 
L 149.348937 140.682054 
L 149.25641 140.615053 
L 149.162831 140.549529 
L 149.068224 140.485497 
L 148.972614 140.422975 
L 148.876023 140.361977 
L 148.778477 140.302519 
L 148.68 140.244617 
L 148.580616 140.188284 
L 148.480352 140.133536 
L 148.379231 140.080385 
L 148.27728 140.028845 
L 148.174523 139.978929 
L 148.070988 139.93065 
L 147.9667 139.884019 
L 147.861685 139.839049 
L 147.75597 139.795751 
L 147.649581 139.754135 
L 147.542545 139.714213 
L 147.434889 139.675994 
L 147.326641 139.639488 
L 147.217827 139.604704 
L 147.108474 139.571651 
L 146.998611 139.540336 
L 146.888266 139.510769 
L 146.777464 139.482957 
L 146.666236 139.456906 
L 146.554608 139.432622 
L 146.442609 139.410113 
L 146.330267 139.389384 
L 146.21761 139.37044 
L 146.104667 139.353286 
L 145.991466 139.337925 
L 145.878035 139.324363 
L 145.764404 139.312602 
L 145.6506 139.302646 
L 145.536652 139.294496 
L 145.42259 139.288155 
L 145.308441 139.283625 
L 145.194235 139.280906 
L 145.08 139.28 
L 105.48 139.28 
L 105.365765 139.280906 
L 105.251559 139.283625 
L 105.13741 139.288155 
L 105.023348 139.294496 
L 104.9094 139.302646 
L 104.795596 139.312602 
L 104.681965 139.324363 
L 104.568534 139.337925 
L 104.455333 139.353286 
L 104.34239 139.37044 
L 104.229733 139.389384 
L 104.117391 139.410113 
L 104.005392 139.432622 
L 103.893764 139.456906 
L 103.782536 139.482957 
L 103.671734 139.510769 
L 103.561389 139.540336 
L 103.451526 139.571651 
L 103.342173 139.604704 
L 103.233359 139.639488 
L 103.125111 139.675994 
L 103.017455 139.714213 
L 102.910419 139.754135 
L 102.80403 139.795751 
L 102.698315 139.839049 
L 102.5933 139.884019 
L 102.489012 139.93065 
L 102.385477 139.978929 
L 102.28272 140.028845 
L 102.180769 140.080385 
L 102.079648 140.133536 
L 101.979384 140.188284 
L 101.88 140.244617 
L 101.781523 140.302519 
L 101.683977 140.361977 
L 101.587386 140.422975 
L 101.491776 140.485497 
L 101.397169 140.549529 
L 101.30359 140.615053 
L 101.211063 140.682054 
L 101.11961 140.750515 
L 101.029255 140.820418 
L 100.940021 140.891745 
L 100.851929 140.96448 
L 100.765003 141.038603 
L 100.679263 141.114096 
L 100.594732 141.19094 
L 100.511431 141.269115 
L 100.429381 141.348602 
L 100.348602 141.429381 
L 100.269115 141.511431 
L 100.19094 141.594732 
L 100.114096 141.679263 
L 100.038603 141.765003 
L 99.96448 141.851929 
L 99.891745 141.940021 
L 99.820418 142.029255 
L 99.750515 142.11961 
L 99.682054 142.211063 
L 99.615053 142.30359 
L 99.549529 142.397169 
L 99.485497 142.491776 
L 99.422975 142.587386 
L 99.361977 142.683977 
L 99.302519 142.781523 
L 99.244617 142.88 
L 99.188284 142.979384 
L 99.133536 143.079648 
L 99.080385 143.180769 
L 99.028845 143.28272 
L 98.978929 143.385477 
L 98.93065 143.489012 
L 98.884019 143.5933 
L 98.839049 143.698315 
L 98.795751 143.80403 
L 98.754135 143.910419 
L 98.714213 144.017455 
L 98.675994 144.125111 
L 98.639488 144.233359 
L 98.604704 144.342173 
L 98.571651 144.451526 
L 98.540336 144.561389 
L 98.510769 144.671734 
L 98.482957 144.782536 
L 98.456906 144.893764 
L 98.432622 145.005392 
L 98.410113 145.117391 
L 98.389384 145.229733 
L 98.37044 145.34239 
L 98.353286 145.455333 
L 98.337925 145.568534 
L 98.324363 145.681965 
L 98.312602 145.795596 
L 98.302646 145.9094 
L 98.294496 146.023348 
L 98.288155 146.13741 
L 98.283625 146.251559 
L 98.280906 146.365765 
L 98.28 146.48 
L 98.28 186.08 
z
" clip-path="url(#p78b85800cd)" style="fill: none; stroke: #000000; stroke-width: 2; stroke-linecap: round"/>
   </g>
   <g id="line2d_1">
    <path d="M 152.28 31.28 
L 188.28 31.28 
L 191.28 22.28 
L 197.28 40.28 
L 203.28 22.28 
L 209.28 40.28 
L 215.28 22.28 
L 221.28 40.28 
L 224.28 31.28 
L 260.28 31.28 
" clip-path="url(#p78b85800cd)" style="fill: none; stroke: #000000; stroke-width: 2; stroke-linecap: round"/>
   </g>
   <g id="line2d_2">
    <path d="M 260.28 31.28 
L 260.28 67.28 
L 269.28 70.28 
L 251.28 76.28 
L 269.28 82.28 
L 251.28 88.28 
L 269.28 94.28 
L 251.28 100.28 
L 260.28 103.28 
L 260.28 139.28 
" clip-path="url(#p78b85800cd)" style="fill: none; stroke: #000000; stroke-width: 2; stroke-linecap: round"/>
   </g>
   <g id="line2d_3">
    <path d="M 260.28 139.28 
L 260.28 103.28 
L 251.28 100.28 
L 269.28 94.28 
L 251.28 88.28 
L 269.28 82.28 
L 251.28 76.28 
L 269.28 70.28 
L 260.28 67.28 
L 260.28 31.28 
" clip-path="url(#p78b85800cd)" style="fill: none; stroke: #000000; stroke-width: 2; stroke-linecap: round"/>
   </g>
   <g id="line2d_4">
    <path d="M 260.28 139.28 
L 224.28 139.28 
L 221.28 148.28 
L 215.28 130.28 
L 209.28 148.28 
L 203.28 130.28 
L 197.28 148.28 
L 191.28 130.28 
L 188.28 139.28 
L 152.28 139.28 
" clip-path="url(#p78b85800cd)" style="fill: none; stroke: #000000; stroke-width: 2; stroke-linecap: round"/>
   </g>
   <g id="patch_3">
    <path d="M 143.28 182.48 
Q 125.28 189.68 107.28 182.48 
L 111.78 170.24 
Q 125.28 175.28 138.78 170.24 
L 143.28 182.48 
z
" clip-path="url(#p78b85800cd)" style="fill: none; stroke: #000000; stroke-linecap: round"/>
   </g>
   <g id="line2d_5">
    <path d="M 119.694789 172.655905 
L 118.149943 181.887538 
" clip-path="url(#p78b85800cd)" style="fill: none; stroke: #000000; stroke-width: 1.5; stroke-linecap: round"/>
   </g>
   <g id="line2d_6">
    <path d="M 112.68 150.08 
L 68.805 150.08 
M 48.555 150.08 
L 4.68 150.08 
" clip-path="url(#p78b85800cd)" style="fill: none; stroke: #000000; stroke-width: 2; stroke-linecap: round"/>
   </g>
   <g id="line2d_7">
    <path d="M 68.805 163.58 
L 68.805 136.58 
" clip-path="url(#p78b85800cd)" style="fill: none; stroke: #000000; stroke-width: 2; stroke-linecap: round"/>
   </g>
   <g id="line2d_8">
    <path d="M 62.055 156.83 
L 62.055 143.33 
" clip-path="url(#p78b85800cd)" style="fill: none; stroke: #000000; stroke-width: 2; stroke-linecap: round"/>
   </g>
   <g id="line2d_9">
    <path d="M 55.305 163.58 
L 55.305 136.58 
" clip-path="url(#p78b85800cd)" style="fill: none; stroke: #000000; stroke-width: 2; stroke-linecap: round"/>
   </g>
   <g id="line2d_10">
    <path d="M 48.555 156.83 
L 48.555 143.33 
" clip-path="url(#p78b85800cd)" style="fill: none; stroke: #000000; stroke-width: 2; stroke-linecap: round"/>
   </g>
   <g id="text_1">
    <!--  2Ω -->
    <g transform="translate(194.252031 15.768437) scale(0.14 -0.14)">
     <defs>
      <path id="DejaVuSans-20" transform="scale(0.015625)"/>
      <path id="DejaVuSans-32" d="M 1228 531 
L 3431 531 
L 3431 0 
L 469 0 
L 469 531 
Q 828 903 1448 1529 
Q 2069 2156 2228 2338 
Q 2531 2678 2651 2914 
Q 2772 3150 2772 3378 
Q 2772 3750 2511 3984 
Q 2250 4219 1831 4219 
Q 1534 4219 1204 4116 
Q 875 4013 500 3803 
L 500 4441 
Q 881 4594 1212 4672 
Q 1544 4750 1819 4750 
Q 2544 4750 2975 4387 
Q 3406 4025 3406 3419 
Q 3406 3131 3298 2873 
Q 3191 2616 2906 2266 
Q 2828 2175 2409 1742 
Q 1991 1309 1228 531 
z
" transform="scale(0.015625)"/>
      <path id="DejaVuSans-3a9" d="M 4647 556 
L 4647 0 
L 2772 0 
L 2772 556 
Q 3325 859 3634 1378 
Q 3944 1897 3944 2528 
Q 3944 3278 3531 3731 
Q 3119 4184 2444 4184 
Q 1769 4184 1355 3729 
Q 941 3275 941 2528 
Q 941 1897 1250 1378 
Q 1563 859 2119 556 
L 2119 0 
L 244 0 
L 244 556 
L 1241 556 
Q 747 991 519 1456 
Q 294 1922 294 2497 
Q 294 3491 894 4106 
Q 1491 4722 2444 4722 
Q 3391 4722 3994 4106 
Q 4594 3494 4594 2528 
Q 4594 1922 4372 1459 
Q 4150 997 3647 556 
L 4647 556 
z
" transform="scale(0.015625)"/>
     </defs>
     <use xlink:href="#DejaVuSans-20"/>
     <use xlink:href="#DejaVuSans-32" transform="translate(31.787109 0)"/>
     <use xlink:href="#DejaVuSans-3a9" transform="translate(95.410156 0)"/>
    </g>
   </g>
   <g id="text_2">
    <!-- P -->
    <g transform="translate(202.059219 15.768437) scale(0.14 -0.14)">
     <defs>
      <path id="DejaVuSans-50" d="M 1259 4147 
L 1259 2394 
L 2053 2394 
Q 2494 2394 2734 2622 
Q 2975 2850 2975 3272 
Q 2975 3691 2734 3919 
Q 2494 4147 2053 4147 
L 1259 4147 
z
M 628 4666 
L 2053 4666 
Q 2838 4666 3239 4311 
Q 3641 3956 3641 3272 
Q 3641 2581 3239 2228 
Q 2838 1875 2053 1875 
L 1259 1875 
L 1259 0 
L 628 0 
L 628 4666 
z
" transform="scale(0.015625)"/>
     </defs>
     <use xlink:href="#DejaVuSans-50"/>
    </g>
   </g>
   <g id="text_3">
    <!--  2Ω -->
    <g transform="translate(223.624062 89.143125) scale(0.14 -0.14)">
     <use xlink:href="#DejaVuSans-20"/>
     <use xlink:href="#DejaVuSans-32" transform="translate(31.787109 0)"/>
     <use xlink:href="#DejaVuSans-3a9" transform="translate(95.410156 0)"/>
    </g>
   </g>
   <g id="text_4">
    <!-- Q -->
    <g transform="translate(236.659375 89.143125) scale(0.14 -0.14)">
     <defs>
      <path id="DejaVuSans-51" d="M 2522 4238 
Q 1834 4238 1429 3725 
Q 1025 3213 1025 2328 
Q 1025 1447 1429 934 
Q 1834 422 2522 422 
Q 3209 422 3611 934 
Q 4013 1447 4013 2328 
Q 4013 3213 3611 3725 
Q 3209 4238 2522 4238 
z
M 3406 84 
L 4238 -825 
L 3475 -825 
L 2784 -78 
Q 2681 -84 2626 -87 
Q 2572 -91 2522 -91 
Q 1538 -91 948 567 
Q 359 1225 359 2328 
Q 359 3434 948 4092 
Q 1538 4750 2522 4750 
Q 3503 4750 4090 4092 
Q 4678 3434 4678 2328 
Q 4678 1516 4351 937 
Q 4025 359 3406 84 
z
" transform="scale(0.015625)"/>
     </defs>
     <use xlink:href="#DejaVuSans-51"/>
    </g>
   </g>
   <g id="text_5">
    <!--  4Ω -->
    <g transform="translate(223.624062 89.143125) scale(0.14 -0.14)">
     <defs>
      <path id="DejaVuSans-34" d="M 2419 4116 
L 825 1625 
L 2419 1625 
L 2419 4116 
z
M 2253 4666 
L 3047 4666 
L 3047 1625 
L 3713 1625 
L 3713 1100 
L 3047 1100 
L 3047 0 
L 2419 0 
L 2419 1100 
L 313 1100 
L 313 1709 
L 2253 4666 
z
" transform="scale(0.015625)"/>
     </defs>
     <use xlink:href="#DejaVuSans-20"/>
     <use xlink:href="#DejaVuSans-34" transform="translate(31.787109 0)"/>
     <use xlink:href="#DejaVuSans-3a9" transform="translate(95.410156 0)"/>
    </g>
   </g>
   <g id="text_6">
    <!-- R -->
    <g transform="translate(237.952187 89.143125) scale(0.14 -0.14)">
     <defs>
      <path id="DejaVuSans-52" d="M 2841 2188 
Q 3044 2119 3236 1894 
Q 3428 1669 3622 1275 
L 4263 0 
L 3584 0 
L 2988 1197 
Q 2756 1666 2539 1819 
Q 2322 1972 1947 1972 
L 1259 1972 
L 1259 0 
L 628 0 
L 628 4666 
L 2053 4666 
Q 2853 4666 3247 4331 
Q 3641 3997 3641 3322 
Q 3641 2881 3436 2590 
Q 3231 2300 2841 2188 
z
M 1259 4147 
L 1259 2491 
L 2053 2491 
Q 2509 2491 2742 2702 
Q 2975 2913 2975 3322 
Q 2975 3731 2742 3939 
Q 2509 4147 2053 4147 
L 1259 4147 
z
" transform="scale(0.015625)"/>
     </defs>
     <use xlink:href="#DejaVuSans-52"/>
    </g>
   </g>
   <g id="text_7">
    <!--  4Ω -->
    <g transform="translate(194.252031 123.768437) scale(0.14 -0.14)">
     <use xlink:href="#DejaVuSans-20"/>
     <use xlink:href="#DejaVuSans-34" transform="translate(31.787109 0)"/>
     <use xlink:href="#DejaVuSans-3a9" transform="translate(95.410156 0)"/>
    </g>
   </g>
   <g id="text_8">
    <!-- S -->
    <g transform="translate(201.836094 123.768437) scale(0.14 -0.14)">
     <defs>
      <path id="DejaVuSans-53" d="M 3425 4513 
L 3425 3897 
Q 3066 4069 2747 4153 
Q 2428 4238 2131 4238 
Q 1616 4238 1336 4038 
Q 1056 3838 1056 3469 
Q 1056 3159 1242 3001 
Q 1428 2844 1947 2747 
L 2328 2669 
Q 3034 2534 3370 2195 
Q 3706 1856 3706 1288 
Q 3706 609 3251 259 
Q 2797 -91 1919 -91 
Q 1588 -91 1214 -16 
Q 841 59 441 206 
L 441 856 
Q 825 641 1194 531 
Q 1563 422 1919 422 
Q 2459 422 2753 634 
Q 3047 847 3047 1241 
Q 3047 1584 2836 1778 
Q 2625 1972 2144 2069 
L 1759 2144 
Q 1053 2284 737 2584 
Q 422 2884 422 3419 
Q 422 4038 858 4394 
Q 1294 4750 2059 4750 
Q 2388 4750 2728 4690 
Q 3069 4631 3425 4513 
z
" transform="scale(0.015625)"/>
     </defs>
     <use xlink:href="#DejaVuSans-53"/>
    </g>
   </g>
   <g id="text_9">
    <!-- G -->
    <g transform="translate(119.856094 132.768437) scale(0.14 -0.14)">
     <defs>
      <path id="DejaVuSans-47" d="M 3809 666 
L 3809 1919 
L 2778 1919 
L 2778 2438 
L 4434 2438 
L 4434 434 
Q 4069 175 3628 42 
Q 3188 -91 2688 -91 
Q 1594 -91 976 548 
Q 359 1188 359 2328 
Q 359 3472 976 4111 
Q 1594 4750 2688 4750 
Q 3144 4750 3555 4637 
Q 3966 4525 4313 4306 
L 4313 3634 
Q 3963 3931 3569 4081 
Q 3175 4231 2741 4231 
Q 1884 4231 1454 3753 
Q 1025 3275 1025 2328 
Q 1025 1384 1454 906 
Q 1884 428 2741 428 
Q 3075 428 3337 486 
Q 3600 544 3809 666 
z
" transform="scale(0.015625)"/>
     </defs>
     <use xlink:href="#DejaVuSans-47"/>
    </g>
   </g>
   <g id="text_10">
    <!--  12V -->
    <g transform="translate(42.759375 130.068437) scale(0.14 -0.14)">
     <defs>
      <path id="DejaVuSans-31" d="M 794 531 
L 1825 531 
L 1825 4091 
L 703 3866 
L 703 4441 
L 1819 4666 
L 2450 4666 
L 2450 531 
L 3481 531 
L 3481 0 
L 794 0 
L 794 531 
z
" transform="scale(0.015625)"/>
      <path id="DejaVuSans-56" d="M 1831 0 
L 50 4666 
L 709 4666 
L 2188 738 
L 3669 4666 
L 4325 4666 
L 2547 0 
L 1831 0 
z
" transform="scale(0.015625)"/>
     </defs>
     <use xlink:href="#DejaVuSans-20"/>
     <use xlink:href="#DejaVuSans-31" transform="translate(31.787109 0)"/>
     <use xlink:href="#DejaVuSans-32" transform="translate(95.410156 0)"/>
     <use xlink:href="#DejaVuSans-56" transform="translate(159.033203 0)"/>
    </g>
   </g>
   <g id="patch_4">
    <path d="M 137.88 153.68 
C 138.834731 153.68 139.750488 153.300681 140.425584 152.625584 
C 141.100681 151.950488 141.48 151.034731 141.48 150.08 
C 141.48 149.125269 141.100681 148.209512 140.425584 147.534416 
C 139.750488 146.859319 138.834731 146.48 137.88 146.48 
C 136.925269 146.48 136.009512 146.859319 135.334416 147.534416 
C 134.659319 148.209512 134.28 149.125269 134.28 150.08 
C 134.28 151.034731 134.659319 151.950488 135.334416 152.625584 
C 136.009512 153.300681 136.925269 153.68 137.88 153.68 
L 137.88 153.68 
z
" clip-path="url(#p78b85800cd)" style="fill: none; stroke: #000000; stroke-linejoin: miter"/>
   </g>
   <g id="patch_5">
    <path d="M 112.68 153.68 
C 113.634731 153.68 114.550488 153.300681 115.225584 152.625584 
C 115.900681 151.950488 116.28 151.034731 116.28 150.08 
C 116.28 149.125269 115.900681 148.209512 115.225584 147.534416 
C 114.550488 146.859319 113.634731 146.48 112.68 146.48 
C 111.725269 146.48 110.809512 146.859319 110.134416 147.534416 
C 109.459319 148.209512 109.08 149.125269 109.08 150.08 
C 109.08 151.034731 109.459319 151.950488 110.134416 152.625584 
C 110.809512 153.300681 111.725269 153.68 112.68 153.68 
L 112.68 153.68 
z
" clip-path="url(#p78b85800cd)" style="fill: none; stroke: #000000; stroke-linejoin: miter"/>
   </g>
  </g>
 </g>
 <defs>
  <clipPath id="p78b85800cd">
   <rect x="0" y="-0" width="273.96" height="197.96"/>
  </clipPath>
 </defs>
</svg>
