<?xml version="1.0" encoding="utf-8" ?>
<svg baseProfile="full" height="560.0px" version="1.1" viewBox="0,0,900.0,560.0" width="900.0px" xmlns="http://www.w3.org/2000/svg" xmlns:ev="http://www.w3.org/2001/xml-events" xmlns:xlink="http://www.w3.org/1999/xlink"><defs><marker id="arrowhead-black" markerHeight="8" markerWidth="8" orient="auto" refX="8" refY="4.0"><polygon fill="#000000" points="0,0 8,4.0 0,8" /></marker><marker id="arrowhead-red" markerHeight="8" markerWidth="8" orient="auto" refX="8" refY="4.0"><polygon fill="#CC0000" points="0,0 8,4.0 0,8" /></marker><marker id="arrowhead-blue" markerHeight="8" markerWidth="8" orient="auto" refX="8" refY="4.0"><polygon fill="#0000CC" points="0,0 8,4.0 0,8" /></marker><marker id="arrowhead-gray" markerHeight="7" markerWidth="7" orient="auto" refX="7" refY="3.5"><polygon fill="#666666" points="0,0 7,3.5 0,7" /></marker></defs><rect fill="#FFFFFF" height="560.0" width="900.0" x="0" y="0" /><rect fill="#FFF8F8" height="210.0" opacity="1.0" stroke="none" stroke-width="1.0" width="270.0" x="130.0" y="125.0" /><rect fill="#F8F8FF" height="210.0" opacity="1.0" stroke="none" stroke-width="1.0" width="270.0" x="500.0" y="125.0" /><rect fill="#F0F0F0" height="210.0" opacity="1.0" stroke="none" stroke-width="1.0" width="100.0" x="400.0" y="125.0" /><rect fill="none" height="210.0" opacity="1.0" stroke="#000000" stroke-width="1.5" width="640.0" x="130.0" y="125.0" /><line fill="none" opacity="1.0" stroke="#444444" stroke-dasharray="6,4" stroke-width="1.0" x1="400.0" x2="400.0" y1="125.0" y2="335.0" /><line fill="none" opacity="1.0" stroke="#444444" stroke-dasharray="6,4" stroke-width="1.0" x1="500.0" x2="500.0" y1="125.0" y2="335.0" /><text fill="#000000" font-family="Arial" font-size="15.0px" font-weight="bold" opacity="1.0" text-anchor="middle" x="425.0" y="192.0">−</text><text fill="#000000" font-family="Arial" font-size="15.0px" font-weight="bold" opacity="1.0" text-anchor="middle" x="425.0" y="237.0">−</text><text fill="#000000" font-family="Arial" font-size="15.0px" font-weight="bold" opacity="1.0" text-anchor="middle" x="425.0" y="282.0">−</text><text fill="#000000" font-family="Arial" font-size="15.0px" font-weight="bold" opacity="1.0" text-anchor="middle" x="475.0" y="192.0">+</text><text fill="#000000" font-family="Arial" font-size="15.0px" font-weight="bold" opacity="1.0" text-anchor="middle" x="475.0" y="237.0">+</text><text fill="#000000" font-family="Arial" font-size="15.0px" font-weight="bold" opacity="1.0" text-anchor="middle" x="475.0" y="282.0">+</text><line fill="none" opacity="1.0" stroke="#000000" stroke-width="1.5" x1="130.0" x2="70.0" y1="230.0" y2="230.0" /><line fill="none" opacity="1.0" stroke="#000000" stroke-width="1.5" x1="70.0" x2="70.0" y1="230.0" y2="475.0" /><line fill="none" opacity="1.0" stroke="#000000" stroke-width="1.5" x1="70.0" x2="190.0" y1="475.0" y2="475.0" /><line fill="none" stroke="#000000" stroke-width="1.5" x1="190.0" x2="202.6" y1="475.0" y2="475.0" /><circle cx="202.6" cy="475.0" fill="#000000" r="2.5" stroke="none" /><circle cx="222.4" cy="475.0" fill="#000000" r="2.5" stroke="none" /><line fill="none" stroke="#000000" stroke-width="1.5" x1="202.6" x2="222.4" y1="475.0" y2="475.0" /><line fill="none" stroke="#000000" stroke-width="1.5" x1="222.4" x2="235.0" y1="475.0" y2="475.0" /><text fill="#000000" font-family="Arial" font-size="11px" text-anchor="middle" x="212.5" y="463.0">K</text><line fill="none" opacity="1.0" stroke="#000000" stroke-width="1.5" x1="235.0" x2="370.0" y1="475.0" y2="475.0" /><line fill="none" stroke="#000000" stroke-width="1.5" x1="370.0" x2="380.0" y1="475.0" y2="475.0" /><line fill="none" stroke="#000000" stroke-width="3.75" x1="380.0" x2="380.0" y1="461.0" y2="489.0" /><line fill="none" stroke="#000000" stroke-width="2.25" x1="395.0" x2="395.0" y1="467.0" y2="483.0" /><line fill="none" stroke="#000000" stroke-width="1.5" x1="395.0" x2="410.0" y1="475.0" y2="475.0" /><text fill="#000000" font-family="Arial" font-size="13px" font-weight="bold" text-anchor="middle" x="380.0" y="456.0">+</text><text fill="#000000" font-family="Arial" font-size="13px" font-weight="bold" text-anchor="middle" x="395.0" y="462.0">−</text><line fill="none" opacity="1.0" stroke="#000000" stroke-width="1.5" x1="410.0" x2="570.0" y1="475.0" y2="475.0" /><line fill="none" stroke="#000000" stroke-width="1.5" x1="570.0" x2="584.4" y1="475.0" y2="475.0" /><rect fill="#FFFFFF" height="14.0" stroke="#000000" stroke-width="1.5" width="51.2" x="584.4" y="468.0" /><line fill="none" stroke="#000000" stroke-width="1.5" x1="635.6" x2="650.0" y1="475.0" y2="475.0" /><text fill="#000000" font-family="Arial" font-size="11px" text-anchor="middle" x="610.0" y="464.0">Rh</text><line fill="none" opacity="1.0" stroke="#000000" stroke-width="1.5" x1="650.0" x2="830.0" y1="475.0" y2="475.0" /><line fill="none" opacity="1.0" stroke="#000000" stroke-width="1.5" x1="830.0" x2="830.0" y1="230.0" y2="475.0" /><line fill="none" opacity="1.0" stroke="#000000" stroke-width="1.5" x1="770.0" x2="830.0" y1="230.0" y2="230.0" /><circle cx="175.0" cy="160.0" fill="#FFFFFF" r="9.0" stroke="#000000" stroke-width="1.5" /><text fill="#000000" font-family="Arial" font-size="12px" font-weight="bold" text-anchor="middle" x="175.0" y="163.42">+</text><line fill="none" stroke="#000000" stroke-width="1.125" x1="186.0" x2="201.75" y1="160.0" y2="160.0" /><polygon fill="#000000" points="206.0,160.0 201.0,162.1 201.0,157.9" stroke="none" /><circle cx="237.0" cy="160.0" fill="#FFFFFF" r="9.0" stroke="#000000" stroke-width="1.5" /><text fill="#000000" font-family="Arial" font-size="12px" font-weight="bold" text-anchor="middle" x="237.0" y="163.42">+</text><line fill="none" stroke="#000000" stroke-width="1.125" x1="248.0" x2="263.75" y1="160.0" y2="160.0" /><polygon fill="#000000" points="268.0,160.0 263.0,162.1 263.0,157.9" stroke="none" /><circle cx="299.0" cy="160.0" fill="#FFFFFF" r="9.0" stroke="#000000" stroke-width="1.5" /><text fill="#000000" font-family="Arial" font-size="12px" font-weight="bold" text-anchor="middle" x="299.0" y="163.42">+</text><line fill="none" stroke="#000000" stroke-width="1.125" x1="310.0" x2="325.75" y1="160.0" y2="160.0" /><polygon fill="#000000" points="330.0,160.0 325.0,162.1 325.0,157.9" stroke="none" /><circle cx="175.0" cy="215.0" fill="#FFFFFF" r="9.0" stroke="#000000" stroke-width="1.5" /><text fill="#000000" font-family="Arial" font-size="12px" font-weight="bold" text-anchor="middle" x="175.0" y="218.42">+</text><line fill="none" stroke="#000000" stroke-width="1.125" x1="186.0" x2="201.75" y1="215.0" y2="215.0" /><polygon fill="#000000" points="206.0,215.0 201.0,217.1 201.0,212.9" stroke="none" /><circle cx="237.0" cy="215.0" fill="#FFFFFF" r="9.0" stroke="#000000" stroke-width="1.5" /><text fill="#000000" font-family="Arial" font-size="12px" font-weight="bold" text-anchor="middle" x="237.0" y="218.42">+</text><line fill="none" stroke="#000000" stroke-width="1.125" x1="248.0" x2="263.75" y1="215.0" y2="215.0" /><polygon fill="#000000" points="268.0,215.0 263.0,217.1 263.0,212.9" stroke="none" /><circle cx="299.0" cy="215.0" fill="#FFFFFF" r="9.0" stroke="#000000" stroke-width="1.5" /><text fill="#000000" font-family="Arial" font-size="12px" font-weight="bold" text-anchor="middle" x="299.0" y="218.42">+</text><line fill="none" stroke="#000000" stroke-width="1.125" x1="310.0" x2="325.75" y1="215.0" y2="215.0" /><polygon fill="#000000" points="330.0,215.0 325.0,217.1 325.0,212.9" stroke="none" /><circle cx="175.0" cy="270.0" fill="#FFFFFF" r="9.0" stroke="#000000" stroke-width="1.5" /><text fill="#000000" font-family="Arial" font-size="12px" font-weight="bold" text-anchor="middle" x="175.0" y="273.42">+</text><line fill="none" stroke="#000000" stroke-width="1.125" x1="186.0" x2="201.75" y1="270.0" y2="270.0" /><polygon fill="#000000" points="206.0,270.0 201.0,272.1 201.0,267.9" stroke="none" /><circle cx="237.0" cy="270.0" fill="#FFFFFF" r="9.0" stroke="#000000" stroke-width="1.5" /><text fill="#000000" font-family="Arial" font-size="12px" font-weight="bold" text-anchor="middle" x="237.0" y="273.42">+</text><line fill="none" stroke="#000000" stroke-width="1.125" x1="248.0" x2="263.75" y1="270.0" y2="270.0" /><polygon fill="#000000" points="268.0,270.0 263.0,272.1 263.0,267.9" stroke="none" /><circle cx="299.0" cy="270.0" fill="#FFFFFF" r="9.0" stroke="#000000" stroke-width="1.5" /><text fill="#000000" font-family="Arial" font-size="12px" font-weight="bold" text-anchor="middle" x="299.0" y="273.42">+</text><line fill="none" stroke="#000000" stroke-width="1.125" x1="310.0" x2="325.75" y1="270.0" y2="270.0" /><polygon fill="#000000" points="330.0,270.0 325.0,272.1 325.0,267.9" stroke="none" /><circle cx="530.0" cy="160.0" fill="#000000" r="7.0" stroke="#000000" stroke-width="1.0" /><line fill="none" stroke="#000000" stroke-width="0.8" x1="521.0" x2="505.25" y1="160.0" y2="160.0" /><polygon fill="#000000" points="501.0,160.0 506.0,157.9 506.0,162.1" stroke="none" /><circle cx="590.0" cy="160.0" fill="#000000" r="7.0" stroke="#000000" stroke-width="1.0" /><line fill="none" stroke="#000000" stroke-width="0.8" x1="581.0" x2="565.25" y1="160.0" y2="160.0" /><polygon fill="#000000" points="561.0,160.0 566.0,157.9 566.0,162.1" stroke="none" /><circle cx="650.0" cy="160.0" fill="#000000" r="7.0" stroke="#000000" stroke-width="1.0" /><line fill="none" stroke="#000000" stroke-width="0.8" x1="641.0" x2="625.25" y1="160.0" y2="160.0" /><polygon fill="#000000" points="621.0,160.0 626.0,157.9 626.0,162.1" stroke="none" /><circle cx="530.0" cy="215.0" fill="#000000" r="7.0" stroke="#000000" stroke-width="1.0" /><line fill="none" stroke="#000000" stroke-width="0.8" x1="521.0" x2="505.25" y1="215.0" y2="215.0" /><polygon fill="#000000" points="501.0,215.0 506.0,212.9 506.0,217.1" stroke="none" /><circle cx="590.0" cy="215.0" fill="#000000" r="7.0" stroke="#000000" stroke-width="1.0" /><line fill="none" stroke="#000000" stroke-width="0.8" x1="581.0" x2="565.25" y1="215.0" y2="215.0" /><polygon fill="#000000" points="561.0,215.0 566.0,212.9 566.0,217.1" stroke="none" /><circle cx="650.0" cy="215.0" fill="#000000" r="7.0" stroke="#000000" stroke-width="1.0" /><line fill="none" stroke="#000000" stroke-width="0.8" x1="641.0" x2="625.25" y1="215.0" y2="215.0" /><polygon fill="#000000" points="621.0,215.0 626.0,212.9 626.0,217.1" stroke="none" /><circle cx="530.0" cy="270.0" fill="#000000" r="7.0" stroke="#000000" stroke-width="1.0" /><line fill="none" stroke="#000000" stroke-width="0.8" x1="521.0" x2="505.25" y1="270.0" y2="270.0" /><polygon fill="#000000" points="501.0,270.0 506.0,267.9 506.0,272.1" stroke="none" /><circle cx="590.0" cy="270.0" fill="#000000" r="7.0" stroke="#000000" stroke-width="1.0" /><line fill="none" stroke="#000000" stroke-width="0.8" x1="581.0" x2="565.25" y1="270.0" y2="270.0" /><polygon fill="#000000" points="561.0,270.0 566.0,267.9 566.0,272.1" stroke="none" /><circle cx="650.0" cy="270.0" fill="#000000" r="7.0" stroke="#000000" stroke-width="1.0" /><line fill="none" stroke="#000000" stroke-width="0.8" x1="641.0" x2="625.25" y1="270.0" y2="270.0" /><polygon fill="#000000" points="621.0,270.0 626.0,267.9 626.0,272.1" stroke="none" /><line fill="none" stroke="#000000" stroke-width="1.2" x1="488.0" x2="417.6" y1="230.0" y2="230.0" /><polygon fill="#000000" points="412.0,230.0 419.0,227.2 419.0,232.8" stroke="none" /><text fill="#000000" font-family="Arial" font-size="17.0px" font-weight="bold" opacity="1.0" text-anchor="middle" x="450.0" y="32.0">Forward Biased P-N Junction Diode</text><text fill="#000000" font-family="Arial" font-size="18.0px" font-weight="bold" opacity="1.0" text-anchor="middle" x="265.0" y="116.0">p</text><text fill="#000000" font-family="Arial" font-size="18.0px" font-weight="bold" opacity="1.0" text-anchor="middle" x="635.0" y="116.0">n</text><text fill="#333333" font-family="Arial" font-size="9.0px" font-weight="normal" opacity="1.0" text-anchor="middle" x="450.0" y="113.0">Depletion</text><text fill="#333333" font-family="Arial" font-size="9.0px" font-weight="normal" opacity="1.0" text-anchor="middle" x="450.0" y="124.0">layer</text><text fill="#000000" font-family="Arial" font-size="10.0px" font-weight="normal" opacity="1.0" text-anchor="middle" x="450.0" y="219.0">Ei</text><text fill="#000000" font-family="Arial" font-size="11.0px" font-weight="normal" opacity="1.0" text-anchor="middle" x="237.0" y="354.0">Holes</text><text fill="#000000" font-family="Arial" font-size="11.0px" font-weight="normal" opacity="1.0" text-anchor="middle" x="620.0" y="354.0">Electrons</text><text fill="#000000" font-family="Arial" font-size="12.0px" font-weight="normal" opacity="1.0" text-anchor="middle" x="390.0" y="455.0">E</text><text fill="#222222" font-family="Arial" font-size="11.0px" font-weight="normal" opacity="1.0" text-anchor="middle" x="450.0" y="545.0">Fig. 14.15  Forward biasing of a p-n junction.</text></svg>