<?xml version="1.0" encoding="utf-8" ?>
<svg baseProfile="full" height="480.0px" version="1.1" viewBox="0,0,900.0,480.0" width="900.0px" xmlns="http://www.w3.org/2000/svg" xmlns:ev="http://www.w3.org/2001/xml-events" xmlns:xlink="http://www.w3.org/1999/xlink"><defs><marker id="arrowhead-black" markerHeight="8" markerWidth="8" orient="auto" refX="8" refY="4.0"><polygon fill="#000000" points="0,0 8,4.0 0,8" /></marker><marker id="arrowhead-red" markerHeight="8" markerWidth="8" orient="auto" refX="8" refY="4.0"><polygon fill="#CC0000" points="0,0 8,4.0 0,8" /></marker><marker id="arrowhead-blue" markerHeight="8" markerWidth="8" orient="auto" refX="8" refY="4.0"><polygon fill="#0000CC" points="0,0 8,4.0 0,8" /></marker><marker id="arrowhead-gray" markerHeight="7" markerWidth="7" orient="auto" refX="7" refY="3.5"><polygon fill="#666666" points="0,0 7,3.5 0,7" /></marker></defs><rect fill="#FFFFFF" height="480.0" width="900.0" x="0" y="0" /><rect fill="#FFF9F9" height="165.0" opacity="1.0" stroke="none" stroke-width="1.0" width="292.0" x="85.0" y="75.0" /><rect fill="#F2F2F2" height="165.0" opacity="1.0" stroke="none" stroke-width="1.0" width="102.2" x="377.0" y="75.0" /><rect fill="#F8F8FF" height="165.0" opacity="1.0" stroke="none" stroke-width="1.0" width="335.8" x="479.2" y="75.0" /><rect fill="none" height="165.0" opacity="1.0" stroke="#000000" stroke-width="1.5" width="730.0" x="85.0" y="75.0" /><line fill="none" opacity="1.0" stroke="#444444" stroke-dasharray="5,4" stroke-width="1.0" x1="377.0" x2="377.0" y1="75.0" y2="240.0" /><line fill="none" opacity="1.0" stroke="#444444" stroke-dasharray="5,4" stroke-width="1.0" x1="479.2" x2="479.2" y1="75.0" y2="240.0" /><text fill="#111111" font-family="Arial" font-size="16.0px" font-weight="bold" text-anchor="middle" x="402.55" y="113.5">−</text><text fill="#111111" font-family="Arial" font-size="16.0px" font-weight="bold" text-anchor="middle" x="402.55" y="157.5">−</text><text fill="#111111" font-family="Arial" font-size="16.0px" font-weight="bold" text-anchor="middle" x="402.55" y="201.5">−</text><text fill="#111111" font-family="Arial" font-size="16.0px" font-weight="bold" text-anchor="middle" x="453.65" y="113.5">+</text><text fill="#111111" font-family="Arial" font-size="16.0px" font-weight="bold" text-anchor="middle" x="453.65" y="157.5">+</text><text fill="#111111" font-family="Arial" font-size="16.0px" font-weight="bold" text-anchor="middle" x="453.65" y="201.5">+</text><line fill="none" stroke="#000000" stroke-width="1.4" x1="85.0" x2="43.0" y1="157.5" y2="157.5" /><line fill="none" stroke="#000000" stroke-width="1.4" x1="43.0" x2="43.0" y1="157.5" y2="290.0" /><line fill="none" stroke="#000000" stroke-width="1.4" x1="43.0" x2="58.400000000000006" y1="290.0" y2="290.0" /><circle cx="58.400000000000006" cy="290.0" fill="#000000" r="2.5" stroke="none" /><circle cx="82.6" cy="290.0" fill="#000000" r="2.5" stroke="none" /><line fill="none" stroke="#000000" stroke-width="1.4" x1="58.400000000000006" x2="82.6" y1="290.0" y2="290.0" /><line fill="none" stroke="#000000" stroke-width="1.4" x1="82.6" x2="98.0" y1="290.0" y2="290.0" /><text fill="#000000" font-family="Arial" font-size="11px" text-anchor="middle" x="70.5" y="278.0">K</text><line fill="none" stroke="#000000" stroke-width="1.4" x1="98.0" x2="116.0" y1="290.0" y2="290.0" /><line fill="none" stroke="#000000" stroke-width="1.4" x1="116.0" x2="126.0" y1="290.0" y2="290.0" /><line fill="none" stroke="#000000" stroke-width="3.5" x1="126.0" x2="126.0" y1="276.0" y2="304.0" /><line fill="none" stroke="#000000" stroke-width="2.0999999999999996" x1="141.0" x2="141.0" y1="282.0" y2="298.0" /><line fill="none" stroke="#000000" stroke-width="1.4" x1="141.0" x2="156.0" y1="290.0" y2="290.0" /><text fill="#000000" font-family="Arial" font-size="13px" font-weight="bold" text-anchor="middle" x="126.0" y="271.0">+</text><text fill="#000000" font-family="Arial" font-size="13px" font-weight="bold" text-anchor="middle" x="141.0" y="277.0">−</text><line fill="none" stroke="#000000" stroke-width="1.4" x1="156.0" x2="777.0" y1="290.0" y2="290.0" /><line fill="none" stroke="#000000" stroke-width="1.4" x1="777.0" x2="791.4" y1="290.0" y2="290.0" /><rect fill="#FFFFFF" height="14.0" stroke="#000000" stroke-width="1.4" width="51.2" x="791.4" y="283.0" /><line fill="none" stroke="#000000" stroke-width="1.4" x1="842.6" x2="857.0" y1="290.0" y2="290.0" /><text fill="#000000" font-family="Arial" font-size="11px" text-anchor="middle" x="817.0" y="279.0">Rh</text><line fill="none" stroke="#000000" stroke-width="1.4" x1="857.0" x2="857.0" y1="290.0" y2="157.5" /><line fill="none" stroke="#000000" stroke-width="1.4" x1="857.0" x2="815.0" y1="157.5" y2="157.5" /><circle cx="173.0" cy="111.5" fill="#FFFFFF" r="8.0" stroke="#000000" stroke-width="1.4" /><line fill="none" stroke="#000000" stroke-width="1.0499999999999998" x1="183.0" x2="196.75" y1="111.5" y2="111.5" /><polygon fill="#000000" points="201.0,111.5 196.0,113.6 196.0,109.4" stroke="none" /><circle cx="231.0" cy="111.5" fill="#FFFFFF" r="8.0" stroke="#000000" stroke-width="1.4" /><line fill="none" stroke="#000000" stroke-width="1.0499999999999998" x1="241.0" x2="254.75" y1="111.5" y2="111.5" /><polygon fill="#000000" points="259.0,111.5 254.0,113.6 254.0,109.4" stroke="none" /><circle cx="289.0" cy="111.5" fill="#FFFFFF" r="8.0" stroke="#000000" stroke-width="1.4" /><line fill="none" stroke="#000000" stroke-width="1.0499999999999998" x1="299.0" x2="312.75" y1="111.5" y2="111.5" /><polygon fill="#000000" points="317.0,111.5 312.0,113.6 312.0,109.4" stroke="none" /><circle cx="173.0" cy="157.5" fill="#FFFFFF" r="8.0" stroke="#000000" stroke-width="1.4" /><line fill="none" stroke="#000000" stroke-width="1.0499999999999998" x1="183.0" x2="196.75" y1="157.5" y2="157.5" /><polygon fill="#000000" points="201.0,157.5 196.0,159.6 196.0,155.4" stroke="none" /><circle cx="231.0" cy="157.5" fill="#FFFFFF" r="8.0" stroke="#000000" stroke-width="1.4" /><line fill="none" stroke="#000000" stroke-width="1.0499999999999998" x1="241.0" x2="254.75" y1="157.5" y2="157.5" /><polygon fill="#000000" points="259.0,157.5 254.0,159.6 254.0,155.4" stroke="none" /><circle cx="289.0" cy="157.5" fill="#FFFFFF" r="8.0" stroke="#000000" stroke-width="1.4" /><line fill="none" stroke="#000000" stroke-width="1.0499999999999998" x1="299.0" x2="312.75" y1="157.5" y2="157.5" /><polygon fill="#000000" points="317.0,157.5 312.0,159.6 312.0,155.4" stroke="none" /><circle cx="173.0" cy="203.5" fill="#FFFFFF" r="8.0" stroke="#000000" stroke-width="1.4" /><line fill="none" stroke="#000000" stroke-width="1.0499999999999998" x1="183.0" x2="196.75" y1="203.5" y2="203.5" /><polygon fill="#000000" points="201.0,203.5 196.0,205.6 196.0,201.4" stroke="none" /><circle cx="231.0" cy="203.5" fill="#FFFFFF" r="8.0" stroke="#000000" stroke-width="1.4" /><line fill="none" stroke="#000000" stroke-width="1.0499999999999998" x1="241.0" x2="254.75" y1="203.5" y2="203.5" /><polygon fill="#000000" points="259.0,203.5 254.0,205.6 254.0,201.4" stroke="none" /><circle cx="289.0" cy="203.5" fill="#FFFFFF" r="8.0" stroke="#000000" stroke-width="1.4" /><line fill="none" stroke="#000000" stroke-width="1.0499999999999998" x1="299.0" x2="312.75" y1="203.5" y2="203.5" /><polygon fill="#000000" points="317.0,203.5 312.0,205.6 312.0,201.4" stroke="none" /><circle cx="587.1" cy="111.5" fill="#000000" r="7.0" stroke="#000000" stroke-width="1.0" /><line fill="none" stroke="#000000" stroke-width="0.8" x1="578.1" x2="564.35" y1="111.5" y2="111.5" /><polygon fill="#000000" points="560.1,111.5 565.1,109.4 565.1,113.6" stroke="none" /><circle cx="647.1" cy="111.5" fill="#000000" r="7.0" stroke="#000000" stroke-width="1.0" /><line fill="none" stroke="#000000" stroke-width="0.8" x1="638.1" x2="624.35" y1="111.5" y2="111.5" /><polygon fill="#000000" points="620.1,111.5 625.1,109.4 625.1,113.6" stroke="none" /><circle cx="707.1" cy="111.5" fill="#000000" r="7.0" stroke="#000000" stroke-width="1.0" /><line fill="none" stroke="#000000" stroke-width="0.8" x1="698.1" x2="684.35" y1="111.5" y2="111.5" /><polygon fill="#000000" points="680.1,111.5 685.1,109.4 685.1,113.6" stroke="none" /><circle cx="587.1" cy="157.5" fill="#000000" r="7.0" stroke="#000000" stroke-width="1.0" /><line fill="none" stroke="#000000" stroke-width="0.8" x1="578.1" x2="564.35" y1="157.5" y2="157.5" /><polygon fill="#000000" points="560.1,157.5 565.1,155.4 565.1,159.6" stroke="none" /><circle cx="647.1" cy="157.5" fill="#000000" r="7.0" stroke="#000000" stroke-width="1.0" /><line fill="none" stroke="#000000" stroke-width="0.8" x1="638.1" x2="624.35" y1="157.5" y2="157.5" /><polygon fill="#000000" points="620.1,157.5 625.1,155.4 625.1,159.6" stroke="none" /><circle cx="707.1" cy="157.5" fill="#000000" r="7.0" stroke="#000000" stroke-width="1.0" /><line fill="none" stroke="#000000" stroke-width="0.8" x1="698.1" x2="684.35" y1="157.5" y2="157.5" /><polygon fill="#000000" points="680.1,157.5 685.1,155.4 685.1,159.6" stroke="none" /><circle cx="587.1" cy="203.5" fill="#000000" r="7.0" stroke="#000000" stroke-width="1.0" /><line fill="none" stroke="#000000" stroke-width="0.8" x1="578.1" x2="564.35" y1="203.5" y2="203.5" /><polygon fill="#000000" points="560.1,203.5 565.1,201.4 565.1,205.6" stroke="none" /><circle cx="647.1" cy="203.5" fill="#000000" r="7.0" stroke="#000000" stroke-width="1.0" /><line fill="none" stroke="#000000" stroke-width="0.8" x1="638.1" x2="624.35" y1="203.5" y2="203.5" /><polygon fill="#000000" points="620.1,203.5 625.1,201.4 625.1,205.6" stroke="none" /><circle cx="707.1" cy="203.5" fill="#000000" r="7.0" stroke="#000000" stroke-width="1.0" /><line fill="none" stroke="#000000" stroke-width="0.8" x1="698.1" x2="684.35" y1="203.5" y2="203.5" /><polygon fill="#000000" points="680.1,203.5 685.1,201.4 685.1,205.6" stroke="none" /><line fill="none" stroke="#222222" stroke-width="1.1" x1="99.0" x2="796.2" y1="132.75" y2="132.75" /><polygon fill="#222222" points="801.0,132.75 795.0,135.27 795.0,130.23" stroke="none" /><text fill="#222222" font-family="Arial" font-size="10.0px" text-anchor="middle" x="450.0" y="121.75">E</text><line fill="none" stroke="#222222" stroke-width="1.1" x1="469.2" x2="391.8" y1="182.25" y2="182.25" /><polygon fill="#222222" points="387.0,182.25 393.0,179.73 393.0,184.77" stroke="none" /><text fill="#222222" font-family="Arial" font-size="10.0px" text-anchor="middle" x="428.1" y="171.25">Ei</text><text fill="#000000" font-family="Arial" font-size="16.0px" font-weight="bold" opacity="1.0" text-anchor="middle" x="450.0" y="30.0">Forward Biased P-N Junction Diode</text><text fill="#000000" font-family="Arial" font-size="18.0px" font-weight="bold" opacity="1.0" text-anchor="middle" x="231.0" y="62.0">p</text><text fill="#000000" font-family="Arial" font-size="18.0px" font-weight="bold" opacity="1.0" text-anchor="middle" x="647.1" y="62.0">n</text><text fill="#444444" font-family="Arial" font-size="9.0px" font-weight="normal" opacity="1.0" text-anchor="middle" x="428.1" y="62.0">Depl.</text><text fill="#000000" font-family="Arial" font-size="11.0px" font-weight="normal" opacity="1.0" text-anchor="middle" x="231.0" y="254.0">Holes</text><text fill="#000000" font-family="Arial" font-size="11.0px" font-weight="normal" opacity="1.0" text-anchor="middle" x="647.1" y="254.0">Electrons</text><text fill="#333333" font-family="Arial" font-size="10.0px" font-weight="normal" opacity="1.0" text-anchor="middle" x="450.0" y="462.0">Fig. 14.15  Forward biasing of a p-n junction.</text></svg>