<?xml version="1.0" encoding="utf-8" ?>
<svg baseProfile="full" height="550.0px" version="1.1" viewBox="0,0,800.0,550.0" width="800.0px" xmlns="http://www.w3.org/2000/svg" xmlns:ev="http://www.w3.org/2001/xml-events" xmlns:xlink="http://www.w3.org/1999/xlink"><defs><marker id="arrowhead-black" markerHeight="8" markerWidth="8" orient="auto" refX="8" refY="4.0"><polygon fill="#000000" points="0,0 8,4.0 0,8" /></marker><marker id="arrowhead-red" markerHeight="8" markerWidth="8" orient="auto" refX="8" refY="4.0"><polygon fill="#CC0000" points="0,0 8,4.0 0,8" /></marker><marker id="arrowhead-blue" markerHeight="8" markerWidth="8" orient="auto" refX="8" refY="4.0"><polygon fill="#0000CC" points="0,0 8,4.0 0,8" /></marker><marker id="arrowhead-gray" markerHeight="7" markerWidth="7" orient="auto" refX="7" refY="3.5"><polygon fill="#666666" points="0,0 7,3.5 0,7" /></marker></defs><rect fill="#FFFFFF" height="550.0" width="800.0" x="0" y="0" /><rect fill="#FFFFFF" height="550.0" opacity="1.0" stroke="none" stroke-width="1.0" width="800.0" x="0.0" y="0.0" /><rect fill="#FFAAAA" height="200.0" opacity="1.0" stroke="#CC4444" stroke-width="2.0" width="220.0" x="100.0" y="150.0" /><rect fill="#AAAAFF" height="200.0" opacity="1.0" stroke="#4444CC" stroke-width="2.0" width="220.0" x="460.0" y="150.0" /><rect fill="#DDDDDD" height="200.0" opacity="1.0" stroke="#888888" stroke-width="1.0" width="140.0" x="320.0" y="150.0" /><circle cx="150.0" cy="200.0" fill="#FF4444" opacity="1.0" r="10.0" stroke="#CC0000" stroke-width="1.0" /><circle cx="200.0" cy="230.0" fill="#FF4444" opacity="1.0" r="10.0" stroke="#CC0000" stroke-width="1.0" /><circle cx="150.0" cy="270.0" fill="#FF4444" opacity="1.0" r="10.0" stroke="#CC0000" stroke-width="1.0" /><circle cx="240.0" cy="200.0" fill="#FF4444" opacity="1.0" r="10.0" stroke="#CC0000" stroke-width="1.0" /><circle cx="200.0" cy="310.0" fill="#FF4444" opacity="1.0" r="10.0" stroke="#CC0000" stroke-width="1.0" /><circle cx="260.0" cy="270.0" fill="#FF4444" opacity="1.0" r="10.0" stroke="#CC0000" stroke-width="1.0" /><circle cx="520.0" cy="200.0" fill="#4444FF" opacity="1.0" r="10.0" stroke="#0000CC" stroke-width="1.0" /><circle cx="570.0" cy="230.0" fill="#4444FF" opacity="1.0" r="10.0" stroke="#0000CC" stroke-width="1.0" /><circle cx="520.0" cy="270.0" fill="#4444FF" opacity="1.0" r="10.0" stroke="#0000CC" stroke-width="1.0" /><circle cx="620.0" cy="200.0" fill="#4444FF" opacity="1.0" r="10.0" stroke="#0000CC" stroke-width="1.0" /><circle cx="580.0" cy="310.0" fill="#4444FF" opacity="1.0" r="10.0" stroke="#0000CC" stroke-width="1.0" /><circle cx="640.0" cy="270.0" fill="#4444FF" opacity="1.0" r="10.0" stroke="#0000CC" stroke-width="1.0" /><line fill="none" opacity="1.0" stroke="#000000" stroke-width="2.0" x1="210.0" x2="210.0" y1="150.0" y2="80.0" /><line fill="none" opacity="1.0" stroke="#000000" stroke-width="2.0" x1="210.0" x2="580.0" y1="80.0" y2="80.0" /><line fill="none" opacity="1.0" stroke="#000000" stroke-width="2.0" x1="580.0" x2="580.0" y1="80.0" y2="150.0" /><line fill="none" opacity="1.0" stroke="#000000" stroke-width="2.0" x1="210.0" x2="210.0" y1="350.0" y2="460.0" /><line fill="none" opacity="1.0" stroke="#000000" stroke-width="2.0" x1="210.0" x2="400.0" y1="460.0" y2="460.0" /><line fill="none" opacity="1.0" stroke="#000000" stroke-width="2.0" x1="580.0" x2="580.0" y1="350.0" y2="460.0" /><line fill="none" opacity="1.0" stroke="#000000" stroke-width="4.0" x1="356.0" x2="384.0" y1="453.0" y2="453.0" /><line fill="none" opacity="1.0" stroke="#000000" stroke-width="2.0" x1="362.0" x2="378.0" y1="463.0" y2="463.0" /><line fill="none" opacity="1.0" stroke="#000000" stroke-width="4.0" x1="356.0" x2="384.0" y1="473.0" y2="473.0" /><line fill="none" opacity="1.0" stroke="#000000" stroke-width="2.0" x1="362.0" x2="378.0" y1="483.0" y2="483.0" /><line fill="none" opacity="1.0" stroke="#000000" stroke-width="2.0" x1="370.0" x2="370.0" y1="460.0" y2="453.0" /><line fill="none" opacity="1.0" stroke="#000000" stroke-width="2.0" x1="370.0" x2="370.0" y1="483.0" y2="490.0" /><line fill="none" opacity="1.0" stroke="#000000" stroke-width="2.0" x1="210.0" x2="356.0" y1="460.0" y2="460.0" /><line fill="none" opacity="1.0" stroke="#000000" stroke-width="2.0" x1="384.0" x2="580.0" y1="460.0" y2="460.0" /><line fill="none" opacity="1.0" stroke="#000000" stroke-width="2.0" x1="210.0" x2="356.0" y1="490.0" y2="490.0" /><line fill="none" opacity="1.0" stroke="#000000" stroke-width="2.0" x1="384.0" x2="580.0" y1="490.0" y2="490.0" /><line fill="none" stroke="#CC0000" stroke-width="2.0" x1="270.0" x2="307.0" y1="215.0" y2="215.0" /><polygon fill="#CC0000" points="315.0,215.0 305.0,219.0 305.0,211.0" stroke="none" /><line fill="none" stroke="#CC0000" stroke-width="2.0" x1="270.0" x2="307.0" y1="250.0" y2="250.0" /><polygon fill="#CC0000" points="315.0,250.0 305.0,254.0 305.0,246.0" stroke="none" /><line fill="none" stroke="#CC0000" stroke-width="2.0" x1="270.0" x2="307.0" y1="285.0" y2="285.0" /><polygon fill="#CC0000" points="315.0,285.0 305.0,289.0 305.0,281.0" stroke="none" /><line fill="none" stroke="#0000CC" stroke-width="2.0" x1="510.0" x2="473.0" y1="215.0" y2="215.0" /><polygon fill="#0000CC" points="465.0,215.0 475.0,211.0 475.0,219.0" stroke="none" /><line fill="none" stroke="#0000CC" stroke-width="2.0" x1="510.0" x2="473.0" y1="250.0" y2="250.0" /><polygon fill="#0000CC" points="465.0,250.0 475.0,246.0 475.0,254.0" stroke="none" /><line fill="none" stroke="#0000CC" stroke-width="2.0" x1="510.0" x2="473.0" y1="285.0" y2="285.0" /><polygon fill="#0000CC" points="465.0,285.0 475.0,281.0 475.0,289.0" stroke="none" /><line fill="none" stroke="#666666" stroke-dasharray="5,3" stroke-width="1.5" x1="440.0" x2="353.0" y1="250.0" y2="250.0" /><polygon fill="#666666" points="345.0,250.0 355.0,246.0 355.0,254.0" stroke="none" /><text fill="#CC0000" font-family="Arial" font-size="28.0px" font-weight="bold" opacity="1.0" text-anchor="middle" x="210.0" y="140.0">P</text><text fill="#0000CC" font-family="Arial" font-size="28.0px" font-weight="bold" opacity="1.0" text-anchor="middle" x="570.0" y="140.0">N</text><text fill="#555555" font-family="Arial" font-size="11.0px" font-weight="normal" opacity="1.0" text-anchor="middle" x="390.0" y="145.0">Depletion</text><text fill="#555555" font-family="Arial" font-size="11.0px" font-weight="normal" opacity="1.0" text-anchor="middle" x="390.0" y="158.0">Region</text><text fill="#CC0000" font-family="Arial" font-size="12.0px" font-weight="normal" opacity="1.0" text-anchor="middle" x="195.0" y="380.0">Holes</text><text fill="#0000CC" font-family="Arial" font-size="12.0px" font-weight="normal" opacity="1.0" text-anchor="middle" x="580.0" y="380.0">Electrons</text><text fill="#000000" font-family="Arial" font-size="14.0px" font-weight="bold" opacity="1.0" text-anchor="middle" x="350.0" y="457.0">+</text><text fill="#000000" font-family="Arial" font-size="14.0px" font-weight="bold" opacity="1.0" text-anchor="middle" x="390.0" y="480.0">-</text><text fill="#666666" font-family="Arial" font-size="10.0px" font-weight="normal" opacity="1.0" text-anchor="middle" x="392.0" y="238.0">E (internal)</text><text fill="#000000" font-family="Arial" font-size="18.0px" font-weight="bold" opacity="1.0" text-anchor="middle" x="400.0" y="38.0">Forward Biased PN Junction Diode</text><text fill="#444444" font-family="Arial" font-size="12.0px" font-weight="normal" opacity="1.0" text-anchor="middle" x="400.0" y="530.0">Fig: Forward Biased PN Junction (NCERT Class 12 Physics)</text><text fill="#000000" font-family="Arial" font-size="11.0px" font-weight="normal" opacity="1.0" text-anchor="middle" x="370.0" y="510.0">Battery</text></svg>