
    <svg xmlns="http://www.w3.org/2000/svg"
         width="800" height="600">
    <style>
      .bg { fill: #ffffff; }
      .title { font: bold 22px Arial,Helvetica,sans-serif; fill: #1a1a1a; }
      .lbl { font: bold 18px Arial,Helvetica,sans-serif; fill: #1a1a1a; }
      .lbl-sm { font: 14px Arial,Helvetica,sans-serif; fill: #1a1a1a; }
      .p-reg { fill: #D6EAF8; stroke: #1a1a1a; stroke-width: 2; }
      .n-reg { fill: #FADBD8; stroke: #1a1a1a; stroke-width: 2; }
      .dep { fill: url(#hatch); stroke: #1a1a1a; stroke-width: 2; }
      .dep-s { fill: #E8E8E8; stroke: #1a1a1a; stroke-width: 2; }
      .wire { stroke: #1a1a1a; stroke-width: 2; fill: none; }
      .wire-t { stroke: #1a1a1a; stroke-width: 1.5; fill: none; }
      .sym { stroke: #1a1a1a; stroke-width: 2.5; fill: none; }
      .cr { font: 16px Arial,Helvetica,sans-serif; fill: #1a1a1a; text-anchor: middle; }
      .ion { font: 12px Arial,Helvetica,sans-serif; fill: #888; text-anchor: middle; }
      .gt { stroke: #1a1a1a; stroke-width: 2.5; fill: #F4F4F4; }
      .light { font: 16px Arial,Helvetica,sans-serif; fill: #E67E22; text-anchor: middle; }
    </style>
    <defs>
      <pattern id="hatch" width="8" height="8"
               patternUnits="userSpaceOnUse"
               patternTransform="rotate(45)">
        <line x1="0" y1="0" x2="0" y2="8"
              stroke="#999" stroke-width="1"/>
      </pattern>
      <marker id="arr" viewBox="0 0 10 10"
              refX="9" refY="5"
              markerWidth="7" markerHeight="7"
              orient="auto">
        <path d="M0,1 L9,5 L0,9 Z" fill="#1a1a1a"/>
      </marker>
      <marker id="arr-o" viewBox="0 0 10 10"
              refX="9" refY="5"
              markerWidth="7" markerHeight="7"
              orient="auto">
        <path d="M0,1 L9,5 L0,9 Z"
              fill="none" stroke="#1a1a1a" stroke-width="1.5"/>
      </marker>
      <marker id="arr-l" viewBox="0 0 10 10"
              refX="9" refY="5"
              markerWidth="7" markerHeight="7"
              orient="auto">
        <path d="M0,1 L9,5 L0,9 Z" fill="#E67E22"/>
      </marker>
    </defs>
    <rect class="bg" width="100%" height="100%"/>
    
    <text class="title" x="400" y="55"
          text-anchor="middle">PN Junction – Reverse Bias</text>

    <text class="lbl-sm" x="400" y="80"
          text-anchor="middle">P connected to negative terminal</text>

    <!-- Battery on right -->
    <line class="wire" x1="615" y1="385" x2="655" y2="385"/>
    <line class="wire" x1="625" y1="235" x2="645" y2="235"/>
    <line class="wire" x1="635" y1="235" x2="635" y2="250"/>
    <line class="wire" x1="635" y1="370" x2="635" y2="385"/>
    <text class="lbl" x="662" y="390" text-anchor="start">+</text>
    <text class="lbl" x="662" y="240" text-anchor="start">&#x2212;</text>

    <!-- Wires -->
    <line class="wire" x1="625" y1="235" x2="390" y2="235"/>
    <line class="wire" x1="635" y1="385" x2="635" y2="440"/>
    <line class="wire" x1="635" y1="440" x2="570" y2="440"/>
    <line class="wire" x1="570" y1="440" x2="570" y2="380"/>

    <!-- P region -->
    <rect class="p-reg" x="260" y="220" width="130" height="160"/>
    <text class="lbl" x="325" y="310" text-anchor="middle">P</text>

    <text class="cr" x="280" y="260">+</text>
    <text class="cr" x="355" y="255">+</text>
    <text class="cr" x="310" y="345">+</text>
    <text class="cr" x="275" y="305">+</text>

    <!-- N region -->
    <rect class="n-reg" x="430" y="220" width="140" height="160"/>
    <text class="lbl" x="500" y="310" text-anchor="middle">N</text>

    <text class="cr" x="460" y="260">&#x2022;</text>
    <text class="cr" x="530" y="255">&#x2022;</text>
    <text class="cr" x="485" y="345">&#x2022;</text>
    <text class="cr" x="520" y="305">&#x2022;</text>

    <!-- Widened depletion -->
    <rect class="dep" x="390" y="220" width="40" height="160"/>
    <text class="lbl" x="410" y="205"
          text-anchor="middle">Widened Depletion</text>

    <text class="ion" x="400" y="260">&#x2212;</text>
    <text class="ion" x="415" y="255">+</text>
    <text class="ion" x="395" y="345">&#x2212;</text>
    <text class="ion" x="420" y="345">+</text>
    <text class="ion" x="410" y="300">+</text>
    <text class="ion" x="405" y="320">&#x2212;</text>

    <!-- Reverse current -->
    <line class="wire-t" x1="330" y1="205" x2="310" y2="205"
          marker-end="url(#arr-o)"/>
    <text class="lbl-sm" x="320" y="195"
          text-anchor="middle">Small reverse current</text>
    </svg>