<?xml version="1.0" encoding="utf-8" standalone="no"?>
<!DOCTYPE svg PUBLIC "-//W3C//DTD SVG 1.1//EN"
  "http://www.w3.org/Graphics/SVG/1.1/DTD/svg11.dtd">
<svg xmlns="http://www.w3.org/2000/svg" width="300.0pt" height="280pt" viewBox="-40 -120 300.0 280" version="1.1">
  <circle cx="0" cy="-80" r="3" fill="black" stroke="black" stroke-width="2" />
  <circle cx="0" cy="80" r="3" fill="black" stroke="black" stroke-width="2" />
  <line x1="0" y1="-80" x2="0" y2="80" stroke="black" stroke-width="2" />
  <g transform="translate(0,0) rotate(0)">
<line x1="-20" y1="0" x2="-6" y2="0" stroke="black" stroke-width="2" />
<line x1="-4" y1="-8" x2="-4" y2="8" stroke="black" stroke-width="2" />
<line x1="4" y1="-5" x2="4" y2="5" stroke="black" stroke-width="2" />
<line x1="6" y1="0" x2="20" y2="0" stroke="black" stroke-width="2" />
<text x="0" y="20" font-size="11" text-anchor="middle" fill="black">12V</text>
<text x="-10" y="3" font-size="10" text-anchor="middle" fill="black">+</text>
<text x="10" y="3" font-size="10" text-anchor="middle" fill="black">-</text>
</g>
  <g transform="translate(60.0,0) rotate(0)">
<line x1="-20" y1="0" x2="-15" y2="0" stroke="black" stroke-width="2" />
<line x1="-15" y1="0" x2="-9.0" y2="0" stroke="black" stroke-width="2" />
<line x1="-9.0" y1="-6" x2="-3.0" y2="6" stroke="black" stroke-width="2" />
<line x1="-3.0" y1="6" x2="3.0" y2="-6" stroke="black" stroke-width="2" />
<line x1="3.0" y1="-6" x2="9.0" y2="6" stroke="black" stroke-width="2" />
<line x1="9.0" y1="6" x2="15.0" y2="0" stroke="black" stroke-width="2" />
<line x1="15" y1="0" x2="20" y2="0" stroke="black" stroke-width="2" />
<text x="0" y="-14" font-size="12" text-anchor="middle" fill="black">2Ω</text>
</g>
  <g transform="translate(120.0,0) rotate(0)">
<line x1="-20" y1="0" x2="-15" y2="0" stroke="black" stroke-width="2" />
<line x1="-15" y1="0" x2="-9.0" y2="0" stroke="black" stroke-width="2" />
<line x1="-9.0" y1="-6" x2="-3.0" y2="6" stroke="black" stroke-width="2" />
<line x1="-3.0" y1="6" x2="3.0" y2="-6" stroke="black" stroke-width="2" />
<line x1="3.0" y1="-6" x2="9.0" y2="6" stroke="black" stroke-width="2" />
<line x1="9.0" y1="6" x2="15.0" y2="0" stroke="black" stroke-width="2" />
<line x1="15" y1="0" x2="20" y2="0" stroke="black" stroke-width="2" />
<text x="0" y="-14" font-size="12" text-anchor="middle" fill="black">4Ω</text>
</g>
  <g transform="translate(180.0,0) rotate(0)">
<line x1="-20" y1="0" x2="-15" y2="0" stroke="black" stroke-width="2" />
<line x1="-15" y1="0" x2="-9.0" y2="0" stroke="black" stroke-width="2" />
<line x1="-9.0" y1="-6" x2="-3.0" y2="6" stroke="black" stroke-width="2" />
<line x1="-3.0" y1="6" x2="3.0" y2="-6" stroke="black" stroke-width="2" />
<line x1="3.0" y1="-6" x2="9.0" y2="6" stroke="black" stroke-width="2" />
<line x1="9.0" y1="6" x2="15.0" y2="0" stroke="black" stroke-width="2" />
<line x1="15" y1="0" x2="20" y2="0" stroke="black" stroke-width="2" />
<text x="0" y="-14" font-size="12" text-anchor="middle" fill="black">6Ω</text>
</g>
</svg>