
    <svg xmlns="http://www.w3.org/2000/svg"
         width="800" height="600"
         font-family="Arial, sans-serif">
      <defs>
        <marker id="arrow" markerWidth="10" markerHeight="7"
                refX="10" refY="3.5" orient="auto" markerUnits="strokeWidth">
          <polygon points="0 0, 10 3.5, 0 7" fill="black"/>
        </marker>
        <marker id="arrowSmall" markerWidth="8" markerHeight="6"
                refX="8" refY="3" orient="auto" markerUnits="strokeWidth">
          <polygon points="0 0, 8 3, 0 6" fill="black"/>
        </marker>
        <marker id="arrowBlue" markerWidth="10" markerHeight="7"
                refX="10" refY="3.5" orient="auto" markerUnits="strokeWidth">
          <polygon points="0 0, 10 3.5, 0 7" fill="#1976d2"/>
        </marker>
      </defs>
      <rect width="100%" height="100%" fill="white"/>
    
        <circle cx="200" cy="300" r="30"
                fill="none" stroke="black" stroke-width="1.5"/>

        <circle cx="240" cy="300" r="30"
                fill="none" stroke="black" stroke-width="1.5"/>

        <circle cx="280" cy="300" r="30"
                fill="none" stroke="black" stroke-width="1.5"/>

        <circle cx="320" cy="300" r="30"
                fill="none" stroke="black" stroke-width="1.5"/>

        <circle cx="360" cy="300" r="30"
                fill="none" stroke="black" stroke-width="1.5"/>

        <circle cx="400" cy="300" r="30"
                fill="none" stroke="black" stroke-width="1.5"/>

        <circle cx="440" cy="300" r="30"
                fill="none" stroke="black" stroke-width="1.5"/>

        <circle cx="480" cy="300" r="30"
                fill="none" stroke="black" stroke-width="1.5"/>

        <circle cx="520" cy="300" r="30"
                fill="none" stroke="black" stroke-width="1.5"/>

        <circle cx="560" cy="300" r="30"
                fill="none" stroke="black" stroke-width="1.5"/>

        <circle cx="600" cy="300" r="30"
                fill="none" stroke="black" stroke-width="1.5"/>

        <polyline points="180.0,260.0 620.0,260.0"
                  fill="none"
                  stroke="black"
                  stroke-width="1.5"
                  marker-end="url(#arrow)"/>

        <polyline points="180.0,300.0 620.0,300.0"
                  fill="none"
                  stroke="black"
                  stroke-width="1.5"
                  marker-end="url(#arrow)"/>

        <polyline points="180.0,340.0 620.0,340.0"
                  fill="none"
                  stroke="black"
                  stroke-width="1.5"
                  marker-end="url(#arrow)"/>

    <text x="150" y="225" font-size="18"
          font-weight="bold" fill="#d32f2f">S</text>
    <text x="630" y="225" font-size="18"
          font-weight="bold" fill="#1976d2">N</text>
    </svg>