
    <svg xmlns="http://www.w3.org/2000/svg"
         width="800" height="600"
         font-family="Arial, sans-serif">
      <defs>
        <marker id="arrow" markerWidth="10" markerHeight="7"
                refX="10" refY="3.5" orient="auto" markerUnits="strokeWidth">
          <polygon points="0 0, 10 3.5, 0 7" fill="black"/>
        </marker>
        <marker id="arrowSmall" markerWidth="8" markerHeight="6"
                refX="8" refY="3" orient="auto" markerUnits="strokeWidth">
          <polygon points="0 0, 8 3, 0 6" fill="black"/>
        </marker>
        <marker id="arrowBlue" markerWidth="10" markerHeight="7"
                refX="10" refY="3.5" orient="auto" markerUnits="strokeWidth">
          <polygon points="0 0, 10 3.5, 0 7" fill="#1976d2"/>
        </marker>
      </defs>
      <rect width="100%" height="100%" fill="white"/>
    
    <polyline points="490.0,300.0 489.5,309.4 488.0,318.7 485.6,327.8 482.2,336.6 477.9,345.0 472.8,352.9 466.9,360.2 460.2,366.9 452.9,372.8 445.0,377.9 436.6,382.2 427.8,385.6 418.7,388.0 409.4,389.5 400.0,390.0 390.6,389.5 381.3,388.0 372.2,385.6 363.4,382.2 355.0,377.9 347.1,372.8 339.8,366.9 333.1,360.2 327.2,352.9 322.1,345.0 317.8,336.6 314.4,327.8 312.0,318.7 310.5,309.4 310.0,300.0 310.5,290.6 312.0,281.3 314.4,272.2 317.8,263.4 322.1,255.0 327.2,247.1 333.1,239.8 339.8,233.1 347.1,227.2 355.0,222.1 363.4,217.8 372.2,214.4 381.3,212.0 390.6,210.5 400.0,210.0 409.4,210.5 418.7,212.0 427.8,214.4 436.6,217.8 445.0,222.1 452.9,227.2 460.2,233.1 466.9,239.8 472.8,247.1 477.9,255.0 482.2,263.4 485.6,272.2 488.0,281.3 489.5,290.6 490.0,300.0"
              fill="none"
              stroke="black"
              stroke-width="1.5"/>
    
    <polygon points="400.0,210.0 392.0,207.2 392.0,212.8"
             fill="black"/>
    
    <polygon points="400.0,390.0 392.0,387.2 392.0,392.8"
             fill="black"/>
    
    <polyline points="520.0,300.0 519.3,312.5 517.4,324.9 514.1,337.1 509.6,348.8 503.9,360.0 497.1,370.5 489.2,380.3 480.3,389.2 470.5,397.1 460.0,403.9 448.8,409.6 437.1,414.1 424.9,417.4 412.5,419.3 400.0,420.0 387.5,419.3 375.1,417.4 362.9,414.1 351.2,409.6 340.0,403.9 329.5,397.1 319.7,389.2 310.8,380.3 302.9,370.5 296.1,360.0 290.4,348.8 285.9,337.1 282.6,324.9 280.7,312.5 280.0,300.0 280.7,287.5 282.6,275.1 285.9,262.9 290.4,251.2 296.1,240.0 302.9,229.5 310.8,219.7 319.7,210.8 329.5,202.9 340.0,196.1 351.2,190.4 362.9,185.9 375.1,182.6 387.5,180.7 400.0,180.0 412.5,180.7 424.9,182.6 437.1,185.9 448.8,190.4 460.0,196.1 470.5,202.9 480.3,210.8 489.2,219.7 497.1,229.5 503.9,240.0 509.6,251.2 514.1,262.9 517.4,275.1 519.3,287.5 520.0,300.0"
              fill="none"
              stroke="black"
              stroke-width="1.5"/>
    
    <polygon points="400.0,180.0 392.0,177.2 392.0,182.8"
             fill="black"/>
    
    <polygon points="400.0,420.0 392.0,417.2 392.0,422.8"
             fill="black"/>
    
    <polyline points="550.0,300.0 549.2,315.7 546.7,331.2 542.7,346.4 537.0,361.0 529.9,375.0 521.4,388.2 511.5,400.4 500.4,411.5 488.2,421.4 475.0,429.9 461.0,437.0 446.4,442.7 431.2,446.7 415.7,449.2 400.0,450.0 384.3,449.2 368.8,446.7 353.6,442.7 339.0,437.0 325.0,429.9 311.8,421.4 299.6,411.5 288.5,400.4 278.6,388.2 270.1,375.0 263.0,361.0 257.3,346.4 253.3,331.2 250.8,315.7 250.0,300.0 250.8,284.3 253.3,268.8 257.3,253.6 263.0,239.0 270.1,225.0 278.6,211.8 288.5,199.6 299.6,188.5 311.8,178.6 325.0,170.1 339.0,163.0 353.6,157.3 368.8,153.3 384.3,150.8 400.0,150.0 415.7,150.8 431.2,153.3 446.4,157.3 461.0,163.0 475.0,170.1 488.2,178.6 500.4,188.5 511.5,199.6 521.4,211.8 529.9,225.0 537.0,239.0 542.7,253.6 546.7,268.8 549.2,284.3 550.0,300.0"
              fill="none"
              stroke="black"
              stroke-width="1.5"/>
    
    <polygon points="400.0,150.0 392.0,147.2 392.0,152.8"
             fill="black"/>
    
    <polygon points="400.0,450.0 392.0,447.2 392.0,452.8"
             fill="black"/>
    
    <polyline points="580.0,300.0 579.0,318.8 576.1,337.4 571.2,355.6 564.4,373.2 555.9,390.0 545.6,405.8 533.8,420.4 520.4,433.8 505.8,445.6 490.0,455.9 473.2,464.4 455.6,471.2 437.4,476.1 418.8,479.0 400.0,480.0 381.2,479.0 362.6,476.1 344.4,471.2 326.8,464.4 310.0,455.9 294.2,445.6 279.6,433.8 266.2,420.4 254.4,405.8 244.1,390.0 235.6,373.2 228.8,355.6 223.9,337.4 221.0,318.8 220.0,300.0 221.0,281.2 223.9,262.6 228.8,244.4 235.6,226.8 244.1,210.0 254.4,194.2 266.2,179.6 279.6,166.2 294.2,154.4 310.0,144.1 326.8,135.6 344.4,128.8 362.6,123.9 381.2,121.0 400.0,120.0 418.8,121.0 437.4,123.9 455.6,128.8 473.2,135.6 490.0,144.1 505.8,154.4 520.4,166.2 533.8,179.6 545.6,194.2 555.9,210.0 564.4,226.8 571.2,244.4 576.1,262.6 579.0,281.2 580.0,300.0"
              fill="none"
              stroke="black"
              stroke-width="1.5"/>
    
    <polygon points="400.0,120.0 392.0,117.2 392.0,122.8"
             fill="black"/>
    
    <polygon points="400.0,480.0 392.0,477.2 392.0,482.8"
             fill="black"/>
    
    <rect x="250" y="260" width="300" height="80"
          fill="#f5f5f5" stroke="black" stroke-width="2"/>

    <text x="285" y="305" font-size="18"
          font-weight="bold" fill="#1976d2">N</text>
    <text x="505" y="305" font-size="18"
          font-weight="bold" fill="#d32f2f">S</text>
    </svg>