
    <svg xmlns="http://www.w3.org/2000/svg"
         width="800" height="600"
         font-family="Arial, sans-serif">
      <defs>
        <marker id="arrow" markerWidth="10" markerHeight="7"
                refX="10" refY="3.5" orient="auto" markerUnits="strokeWidth">
          <polygon points="0 0, 10 3.5, 0 7" fill="black"/>
        </marker>
        <marker id="arrowSmall" markerWidth="8" markerHeight="6"
                refX="8" refY="3" orient="auto" markerUnits="strokeWidth">
          <polygon points="0 0, 8 3, 0 6" fill="black"/>
        </marker>
        <marker id="arrowBlue" markerWidth="10" markerHeight="7"
                refX="10" refY="3.5" orient="auto" markerUnits="strokeWidth">
          <polygon points="0 0, 10 3.5, 0 7" fill="#1976d2"/>
        </marker>
      </defs>
      <rect width="100%" height="100%" fill="white"/>
    
    <rect x="240" y="160" width="320" height="280"
          fill="none" stroke="black" stroke-width="2"/>

    <text x="385" y="145" font-size="15" font-weight="bold">Velocity Selector</text>

        <line x1="290" y1="200" x2="290" y2="250"
              stroke="black" stroke-width="1.5"
              marker-end="url(#arrow)"/>

        <line x1="340" y1="200" x2="340" y2="250"
              stroke="black" stroke-width="1.5"
              marker-end="url(#arrow)"/>

        <line x1="390" y1="200" x2="390" y2="250"
              stroke="black" stroke-width="1.5"
              marker-end="url(#arrow)"/>

        <line x1="440" y1="200" x2="440" y2="250"
              stroke="black" stroke-width="1.5"
              marker-end="url(#arrow)"/>

        <line x1="490" y1="200" x2="490" y2="250"
              stroke="black" stroke-width="1.5"
              marker-end="url(#arrow)"/>

    <text x="250" y="230" font-size="14" font-style="italic">E</text>

        <line x1="285" y1="335" x2="295" y2="345"
              stroke="black" stroke-width="1.5"/>
        <line x1="285" y1="345" x2="295" y2="335"
              stroke="black" stroke-width="1.5"/>

        <line x1="335" y1="335" x2="345" y2="345"
              stroke="black" stroke-width="1.5"/>
        <line x1="335" y1="345" x2="345" y2="335"
              stroke="black" stroke-width="1.5"/>

        <line x1="385" y1="335" x2="395" y2="345"
              stroke="black" stroke-width="1.5"/>
        <line x1="385" y1="345" x2="395" y2="335"
              stroke="black" stroke-width="1.5"/>

        <line x1="435" y1="335" x2="445" y2="345"
              stroke="black" stroke-width="1.5"/>
        <line x1="435" y1="345" x2="445" y2="335"
              stroke="black" stroke-width="1.5"/>

        <line x1="485" y1="335" x2="495" y2="345"
              stroke="black" stroke-width="1.5"/>
        <line x1="485" y1="345" x2="495" y2="335"
              stroke="black" stroke-width="1.5"/>

    <text x="250" y="350" font-size="14" font-style="italic">B</text>

    <line x1="100" y1="300" x2="220" y2="300"
          stroke="black" stroke-width="2"
          marker-end="url(#arrow)"/>
    <text x="225" y="295" font-size="14" font-style="italic">v</text>

    <circle cx="240" cy="300" r="10"
            fill="none" stroke="black" stroke-width="1.5"/>
    <text x="237" y="304" font-size="12" font-weight="bold">+</text>
    </svg>