<?xml version="1.0" encoding="utf-8" standalone="no"?>
<!DOCTYPE svg PUBLIC "-//W3C//DTD SVG 1.1//EN"
  "http://www.w3.org/Graphics/SVG/1.1/DTD/svg11.dtd">
<svg xmlns:xlink="http://www.w3.org/1999/xlink" width="303.12pt" height="115.16pt" viewBox="0 0 303.12 115.16" xmlns="http://www.w3.org/2000/svg" version="1.1">
 <metadata>
  <rdf:RDF xmlns:dc="http://purl.org/dc/elements/1.1/" xmlns:cc="http://creativecommons.org/ns#" xmlns:rdf="http://www.w3.org/1999/02/22-rdf-syntax-ns#">
   <cc:Work>
    <dc:type rdf:resource="http://purl.org/dc/dcmitype/StillImage"/>
    <dc:date>2026-06-17T16:08:55.132960</dc:date>
    <dc:format>image/svg+xml</dc:format>
    <dc:creator>
     <cc:Agent>
      <dc:title>Matplotlib v3.10.6, https://matplotlib.org/</dc:title>
     </cc:Agent>
    </dc:creator>
   </cc:Work>
  </rdf:RDF>
 </metadata>
 <defs>
  <style type="text/css">*{stroke-linejoin: round; stroke-linecap: butt}</style>
 </defs>
 <g id="figure_1">
  <g id="patch_1">
   <path d="M 0 115.16 
L 303.12 115.16 
L 303.12 0 
L 0 0 
z
" style="fill: #ffffff"/>
  </g>
  <g id="axes_1">
   <g id="line2d_1">
    <path d="M 7.56 38.48 
L 33.435 38.48 
M 53.685 38.48 
L 79.56 38.48 
" clip-path="url(#pede8d31df4)" style="fill: none; stroke: #000000; stroke-width: 2; stroke-linecap: round"/>
   </g>
   <g id="line2d_2">
    <path d="M 33.435 24.98 
L 33.435 51.98 
" clip-path="url(#pede8d31df4)" style="fill: none; stroke: #000000; stroke-width: 2; stroke-linecap: round"/>
   </g>
   <g id="line2d_3">
    <path d="M 40.185 31.73 
L 40.185 45.23 
" clip-path="url(#pede8d31df4)" style="fill: none; stroke: #000000; stroke-width: 2; stroke-linecap: round"/>
   </g>
   <g id="line2d_4">
    <path d="M 46.935 24.98 
L 46.935 51.98 
" clip-path="url(#pede8d31df4)" style="fill: none; stroke: #000000; stroke-width: 2; stroke-linecap: round"/>
   </g>
   <g id="line2d_5">
    <path d="M 53.685 31.73 
L 53.685 45.23 
" clip-path="url(#pede8d31df4)" style="fill: none; stroke: #000000; stroke-width: 2; stroke-linecap: round"/>
   </g>
   <g id="line2d_6">
    <path d="M 79.56 38.48 
L 97.56 38.48 
L 100.56 29.48 
L 106.56 47.48 
L 112.56 29.48 
L 118.56 47.48 
L 124.56 29.48 
L 130.56 47.48 
L 133.56 38.48 
L 151.56 38.48 
" clip-path="url(#pede8d31df4)" style="fill: none; stroke: #000000; stroke-width: 2; stroke-linecap: round"/>
   </g>
   <g id="line2d_7">
    <path d="M 151.56 38.48 
L 169.56 38.48 
L 172.56 29.48 
L 178.56 47.48 
L 184.56 29.48 
L 190.56 47.48 
L 196.56 29.48 
L 202.56 47.48 
L 205.56 38.48 
L 223.56 38.48 
" clip-path="url(#pede8d31df4)" style="fill: none; stroke: #000000; stroke-width: 2; stroke-linecap: round"/>
   </g>
   <g id="line2d_8">
    <path d="M 223.56 38.48 
L 241.56 38.48 
M 250.2 34.88 
L 270.36 22.28 
M 277.56 38.48 
L 295.56 38.48 
" clip-path="url(#pede8d31df4)" style="fill: none; stroke: #000000; stroke-width: 2; stroke-linecap: round"/>
   </g>
   <g id="line2d_9">
    <path d="M 295.56 38.48 
L 295.56 74.48 
L 295.56 110.48 
" clip-path="url(#pede8d31df4)" style="fill: none; stroke: #000000; stroke-width: 2; stroke-linecap: round"/>
   </g>
   <g id="line2d_10">
    <path d="M 295.56 110.48 
L 151.56 110.48 
L 7.56 110.48 
" clip-path="url(#pede8d31df4)" style="fill: none; stroke: #000000; stroke-width: 2; stroke-linecap: round"/>
   </g>
   <g id="line2d_11">
    <path d="M 7.56 110.48 
L 7.56 74.48 
L 7.56 38.48 
" clip-path="url(#pede8d31df4)" style="fill: none; stroke: #000000; stroke-width: 2; stroke-linecap: round"/>
   </g>
   <g id="text_1">
    <!-- 12V -->
    <g transform="translate(29.864063 18.468437) scale(0.14 -0.14)">
     <defs>
      <path id="DejaVuSans-31" d="M 794 531 
L 1825 531 
L 1825 4091 
L 703 3866 
L 703 4441 
L 1819 4666 
L 2450 4666 
L 2450 531 
L 3481 531 
L 3481 0 
L 794 0 
L 794 531 
z
" transform="scale(0.015625)"/>
      <path id="DejaVuSans-32" d="M 1228 531 
L 3431 531 
L 3431 0 
L 469 0 
L 469 531 
Q 828 903 1448 1529 
Q 2069 2156 2228 2338 
Q 2531 2678 2651 2914 
Q 2772 3150 2772 3378 
Q 2772 3750 2511 3984 
Q 2250 4219 1831 4219 
Q 1534 4219 1204 4116 
Q 875 4013 500 3803 
L 500 4441 
Q 881 4594 1212 4672 
Q 1544 4750 1819 4750 
Q 2544 4750 2975 4387 
Q 3406 4025 3406 3419 
Q 3406 3131 3298 2873 
Q 3191 2616 2906 2266 
Q 2828 2175 2409 1742 
Q 1991 1309 1228 531 
z
" transform="scale(0.015625)"/>
      <path id="DejaVuSans-56" d="M 1831 0 
L 50 4666 
L 709 4666 
L 2188 738 
L 3669 4666 
L 4325 4666 
L 2547 0 
L 1831 0 
z
" transform="scale(0.015625)"/>
     </defs>
     <use xlink:href="#DejaVuSans-31"/>
     <use xlink:href="#DejaVuSans-32" transform="translate(63.623047 0)"/>
     <use xlink:href="#DejaVuSans-56" transform="translate(127.246094 0)"/>
    </g>
   </g>
   <g id="text_2">
    <!-- 4Ω -->
    <g transform="translate(105.756719 22.968437) scale(0.14 -0.14)">
     <defs>
      <path id="DejaVuSans-34" d="M 2419 4116 
L 825 1625 
L 2419 1625 
L 2419 4116 
z
M 2253 4666 
L 3047 4666 
L 3047 1625 
L 3713 1625 
L 3713 1100 
L 3047 1100 
L 3047 0 
L 2419 0 
L 2419 1100 
L 313 1100 
L 313 1709 
L 2253 4666 
z
" transform="scale(0.015625)"/>
      <path id="DejaVuSans-3a9" d="M 4647 556 
L 4647 0 
L 2772 0 
L 2772 556 
Q 3325 859 3634 1378 
Q 3944 1897 3944 2528 
Q 3944 3278 3531 3731 
Q 3119 4184 2444 4184 
Q 1769 4184 1355 3729 
Q 941 3275 941 2528 
Q 941 1897 1250 1378 
Q 1563 859 2119 556 
L 2119 0 
L 244 0 
L 244 556 
L 1241 556 
Q 747 991 519 1456 
Q 294 1922 294 2497 
Q 294 3491 894 4106 
Q 1491 4722 2444 4722 
Q 3391 4722 3994 4106 
Q 4594 3494 4594 2528 
Q 4594 1922 4372 1459 
Q 4150 997 3647 556 
L 4647 556 
z
" transform="scale(0.015625)"/>
     </defs>
     <use xlink:href="#DejaVuSans-34"/>
     <use xlink:href="#DejaVuSans-3a9" transform="translate(63.623047 0)"/>
    </g>
   </g>
   <g id="text_3">
    <!-- 8Ω -->
    <g transform="translate(177.756719 22.968437) scale(0.14 -0.14)">
     <defs>
      <path id="DejaVuSans-38" d="M 2034 2216 
Q 1584 2216 1326 1975 
Q 1069 1734 1069 1313 
Q 1069 891 1326 650 
Q 1584 409 2034 409 
Q 2484 409 2743 651 
Q 3003 894 3003 1313 
Q 3003 1734 2745 1975 
Q 2488 2216 2034 2216 
z
M 1403 2484 
Q 997 2584 770 2862 
Q 544 3141 544 3541 
Q 544 4100 942 4425 
Q 1341 4750 2034 4750 
Q 2731 4750 3128 4425 
Q 3525 4100 3525 3541 
Q 3525 3141 3298 2862 
Q 3072 2584 2669 2484 
Q 3125 2378 3379 2068 
Q 3634 1759 3634 1313 
Q 3634 634 3220 271 
Q 2806 -91 2034 -91 
Q 1263 -91 848 271 
Q 434 634 434 1313 
Q 434 1759 690 2068 
Q 947 2378 1403 2484 
z
M 1172 3481 
Q 1172 3119 1398 2916 
Q 1625 2713 2034 2713 
Q 2441 2713 2670 2916 
Q 2900 3119 2900 3481 
Q 2900 3844 2670 4047 
Q 2441 4250 2034 4250 
Q 1625 4250 1398 4047 
Q 1172 3844 1172 3481 
z
" transform="scale(0.015625)"/>
     </defs>
     <use xlink:href="#DejaVuSans-38"/>
     <use xlink:href="#DejaVuSans-3a9" transform="translate(63.623047 0)"/>
    </g>
   </g>
   <g id="patch_2">
    <path d="M 245.88 42.8 
C 247.025677 42.8 248.124585 42.344818 248.934701 41.534701 
C 249.744818 40.724585 250.2 39.625677 250.2 38.48 
C 250.2 37.334323 249.744818 36.235415 248.934701 35.425299 
C 248.124585 34.615182 247.025677 34.16 245.88 34.16 
C 244.734323 34.16 243.635415 34.615182 242.825299 35.425299 
C 242.015182 36.235415 241.56 37.334323 241.56 38.48 
C 241.56 39.625677 242.015182 40.724585 242.825299 41.534701 
C 243.635415 42.344818 244.734323 42.8 245.88 42.8 
z
" clip-path="url(#pede8d31df4)" style="fill: #ffffff; stroke: #000000; stroke-width: 2; stroke-linejoin: miter"/>
   </g>
   <g id="patch_3">
    <path d="M 273.24 42.8 
C 274.385677 42.8 275.484585 42.344818 276.294701 41.534701 
C 277.104818 40.724585 277.56 39.625677 277.56 38.48 
C 277.56 37.334323 277.104818 36.235415 276.294701 35.425299 
C 275.484585 34.615182 274.385677 34.16 273.24 34.16 
C 272.094323 34.16 270.995415 34.615182 270.185299 35.425299 
C 269.375182 36.235415 268.92 37.334323 268.92 38.48 
C 268.92 39.625677 269.375182 40.724585 270.185299 41.534701 
C 270.995415 42.344818 272.094323 42.8 273.24 42.8 
z
" clip-path="url(#pede8d31df4)" style="fill: #ffffff; stroke: #000000; stroke-width: 2; stroke-linejoin: miter"/>
   </g>
   <g id="text_4">
    <!-- SW -->
    <g transform="translate(248.194844 15.768437) scale(0.14 -0.14)">
     <defs>
      <path id="DejaVuSans-53" d="M 3425 4513 
L 3425 3897 
Q 3066 4069 2747 4153 
Q 2428 4238 2131 4238 
Q 1616 4238 1336 4038 
Q 1056 3838 1056 3469 
Q 1056 3159 1242 3001 
Q 1428 2844 1947 2747 
L 2328 2669 
Q 3034 2534 3370 2195 
Q 3706 1856 3706 1288 
Q 3706 609 3251 259 
Q 2797 -91 1919 -91 
Q 1588 -91 1214 -16 
Q 841 59 441 206 
L 441 856 
Q 825 641 1194 531 
Q 1563 422 1919 422 
Q 2459 422 2753 634 
Q 3047 847 3047 1241 
Q 3047 1584 2836 1778 
Q 2625 1972 2144 2069 
L 1759 2144 
Q 1053 2284 737 2584 
Q 422 2884 422 3419 
Q 422 4038 858 4394 
Q 1294 4750 2059 4750 
Q 2388 4750 2728 4690 
Q 3069 4631 3425 4513 
z
" transform="scale(0.015625)"/>
      <path id="DejaVuSans-57" d="M 213 4666 
L 850 4666 
L 1831 722 
L 2809 4666 
L 3519 4666 
L 4500 722 
L 5478 4666 
L 6119 4666 
L 4947 0 
L 4153 0 
L 3169 4050 
L 2175 0 
L 1381 0 
L 213 4666 
z
" transform="scale(0.015625)"/>
     </defs>
     <use xlink:href="#DejaVuSans-53"/>
     <use xlink:href="#DejaVuSans-57" transform="translate(63.476562 0)"/>
    </g>
   </g>
   <g id="patch_4">
    <path d="M 7.56 41.36 
C 8.323785 41.36 9.05639 41.056545 9.596468 40.516468 
C 10.136545 39.97639 10.44 39.243785 10.44 38.48 
C 10.44 37.716215 10.136545 36.98361 9.596468 36.443532 
C 9.05639 35.903455 8.323785 35.6 7.56 35.6 
C 6.796215 35.6 6.06361 35.903455 5.523532 36.443532 
C 4.983455 36.98361 4.68 37.716215 4.68 38.48 
C 4.68 39.243785 4.983455 39.97639 5.523532 40.516468 
C 6.06361 41.056545 6.796215 41.36 7.56 41.36 
z
" clip-path="url(#pede8d31df4)" style="stroke: #000000; stroke-width: 2; stroke-linejoin: miter"/>
   </g>
   <g id="patch_5">
    <path d="M 79.56 41.36 
C 80.323785 41.36 81.05639 41.056545 81.596468 40.516468 
C 82.136545 39.97639 82.44 39.243785 82.44 38.48 
C 82.44 37.716215 82.136545 36.98361 81.596468 36.443532 
C 81.05639 35.903455 80.323785 35.6 79.56 35.6 
C 78.796215 35.6 78.06361 35.903455 77.523532 36.443532 
C 76.983455 36.98361 76.68 37.716215 76.68 38.48 
C 76.68 39.243785 76.983455 39.97639 77.523532 40.516468 
C 78.06361 41.056545 78.796215 41.36 79.56 41.36 
z
" clip-path="url(#pede8d31df4)" style="stroke: #000000; stroke-width: 2; stroke-linejoin: miter"/>
   </g>
   <g id="patch_6">
    <path d="M 151.56 41.36 
C 152.323785 41.36 153.05639 41.056545 153.596468 40.516468 
C 154.136545 39.97639 154.44 39.243785 154.44 38.48 
C 154.44 37.716215 154.136545 36.98361 153.596468 36.443532 
C 153.05639 35.903455 152.323785 35.6 151.56 35.6 
C 150.796215 35.6 150.06361 35.903455 149.523532 36.443532 
C 148.983455 36.98361 148.68 37.716215 148.68 38.48 
C 148.68 39.243785 148.983455 39.97639 149.523532 40.516468 
C 150.06361 41.056545 150.796215 41.36 151.56 41.36 
z
" clip-path="url(#pede8d31df4)" style="stroke: #000000; stroke-width: 2; stroke-linejoin: miter"/>
   </g>
   <g id="patch_7">
    <path d="M 223.56 41.36 
C 224.323785 41.36 225.05639 41.056545 225.596468 40.516468 
C 226.136545 39.97639 226.44 39.243785 226.44 38.48 
C 226.44 37.716215 226.136545 36.98361 225.596468 36.443532 
C 225.05639 35.903455 224.323785 35.6 223.56 35.6 
C 222.796215 35.6 222.06361 35.903455 221.523532 36.443532 
C 220.983455 36.98361 220.68 37.716215 220.68 38.48 
C 220.68 39.243785 220.983455 39.97639 221.523532 40.516468 
C 222.06361 41.056545 222.796215 41.36 223.56 41.36 
z
" clip-path="url(#pede8d31df4)" style="stroke: #000000; stroke-width: 2; stroke-linejoin: miter"/>
   </g>
   <g id="patch_8">
    <path d="M 295.56 41.36 
C 296.323785 41.36 297.05639 41.056545 297.596468 40.516468 
C 298.136545 39.97639 298.44 39.243785 298.44 38.48 
C 298.44 37.716215 298.136545 36.98361 297.596468 36.443532 
C 297.05639 35.903455 296.323785 35.6 295.56 35.6 
C 294.796215 35.6 294.06361 35.903455 293.523532 36.443532 
C 292.983455 36.98361 292.68 37.716215 292.68 38.48 
C 292.68 39.243785 292.983455 39.97639 293.523532 40.516468 
C 294.06361 41.056545 294.796215 41.36 295.56 41.36 
z
" clip-path="url(#pede8d31df4)" style="stroke: #000000; stroke-width: 2; stroke-linejoin: miter"/>
   </g>
  </g>
 </g>
 <defs>
  <clipPath id="pede8d31df4">
   <rect x="0" y="-0" width="303.12" height="115.16"/>
  </clipPath>
 </defs>
</svg>
