<?xml version="1.0" encoding="utf-8" standalone="no"?>
<!DOCTYPE svg PUBLIC "-//W3C//DTD SVG 1.1//EN"
  "http://www.w3.org/Graphics/SVG/1.1/DTD/svg11.dtd">
<svg xmlns="http://www.w3.org/2000/svg" width="360pt" height="200pt" viewBox="-40 -120 360 200" version="1.1">
  <circle cx="0" cy="0" r="3" fill="black" stroke="black" stroke-width="2" />
  <circle cx="120" cy="0" r="3" fill="black" stroke="black" stroke-width="2" />
  <circle cx="120" cy="-80" r="3" fill="black" stroke="black" stroke-width="2" />
  <circle cx="240" cy="0" r="3" fill="black" stroke="black" stroke-width="2" />
  <line x1="0" y1="0" x2="240" y2="0" stroke="black" stroke-width="2" />
  <line x1="0" y1="0" x2="120" y2="-80" stroke="black" stroke-width="2" />
  <line x1="120" y1="-80" x2="240" y2="0" stroke="black" stroke-width="2" />
  <line x1="120" y1="-80" x2="120" y2="0" stroke="black" stroke-width="2" />
  <line x1="0" y1="0" x2="120" y2="0" stroke="black" stroke-width="2" />
  <line x1="120" y1="0" x2="240" y2="0" stroke="black" stroke-width="2" />
  <g transform="translate(120.0,0.0) rotate(0)">
<line x1="-20" y1="0" x2="-2" y2="0" stroke="black" stroke-width="2" />
<line x1="0" y1="-8" x2="0" y2="8" stroke="black" stroke-width="2" />
<line x1="4" y1="-5" x2="4" y2="5" stroke="black" stroke-width="2" />
<line x1="6" y1="0" x2="20" y2="0" stroke="black" stroke-width="2" />
<text x="0" y="20" font-size="11" text-anchor="middle" fill="black">2V</text>
<text x="-6" y="3" font-size="10" text-anchor="middle" fill="black">+</text>
<text x="10" y="3" font-size="10" text-anchor="middle" fill="black">-</text>
</g>
  <g transform="translate(60.0,-40.0) rotate(0)">
<line x1="-20" y1="0" x2="-15" y2="0" stroke="black" stroke-width="2" />
<line x1="-15" y1="0" x2="-9.0" y2="0" stroke="black" stroke-width="2" />
<line x1="-9.0" y1="-6" x2="-3.0" y2="6" stroke="black" stroke-width="2" />
<line x1="-3.0" y1="6" x2="3.0" y2="-6" stroke="black" stroke-width="2" />
<line x1="3.0" y1="-6" x2="9.0" y2="6" stroke="black" stroke-width="2" />
<line x1="9.0" y1="6" x2="15.0" y2="0" stroke="black" stroke-width="2" />
<line x1="15" y1="0" x2="20" y2="0" stroke="black" stroke-width="2" />
<text x="0" y="-14" font-size="12" text-anchor="middle" fill="black">5Ω</text>
</g>
  <g transform="translate(180.0,-40.0) rotate(0)">
<line x1="-20" y1="0" x2="-15" y2="0" stroke="black" stroke-width="2" />
<line x1="-15" y1="0" x2="-9.0" y2="0" stroke="black" stroke-width="2" />
<line x1="-9.0" y1="-6" x2="-3.0" y2="6" stroke="black" stroke-width="2" />
<line x1="-3.0" y1="6" x2="3.0" y2="-6" stroke="black" stroke-width="2" />
<line x1="3.0" y1="-6" x2="9.0" y2="6" stroke="black" stroke-width="2" />
<line x1="9.0" y1="6" x2="15.0" y2="0" stroke="black" stroke-width="2" />
<line x1="15" y1="0" x2="20" y2="0" stroke="black" stroke-width="2" />
</g>
  <g transform="translate(120.0,-40.0) rotate(0)">
<line x1="-20" y1="0" x2="-12" y2="0" stroke="black" stroke-width="2" />
<line x1="12" y1="0" x2="20" y2="0" stroke="black" stroke-width="2" />
<circle cx="0" cy="0" r="12" fill="none" stroke="black" stroke-width="2" />
<text x="0" y="4" font-size="14" text-anchor="middle" font-family="Arial, sans-serif" fill="black">G</text>
</g>
  <g transform="translate(60.0,0.0) rotate(0)">
<line x1="-20" y1="0" x2="20" y2="0" stroke="black" stroke-width="2" />
</g>
  <g transform="translate(180.0,0.0) rotate(0)">
<line x1="-20" y1="0" x2="20" y2="0" stroke="black" stroke-width="2" />
</g>
</svg>