<?xml version="1.0" encoding="utf-8" standalone="no"?>
<!DOCTYPE svg PUBLIC "-//W3C//DTD SVG 1.1//EN"
  "http://www.w3.org/Graphics/SVG/1.1/DTD/svg11.dtd">
<svg xmlns:xlink="http://www.w3.org/1999/xlink" width="447.12pt" height="316.26pt" viewBox="0 0 447.12 316.26" xmlns="http://www.w3.org/2000/svg" version="1.1">
 <metadata>
  <rdf:RDF xmlns:dc="http://purl.org/dc/elements/1.1/" xmlns:cc="http://creativecommons.org/ns#" xmlns:rdf="http://www.w3.org/1999/02/22-rdf-syntax-ns#">
   <cc:Work>
    <dc:type rdf:resource="http://purl.org/dc/dcmitype/StillImage"/>
    <dc:date>2026-06-17T16:08:55.442817</dc:date>
    <dc:format>image/svg+xml</dc:format>
    <dc:creator>
     <cc:Agent>
      <dc:title>Matplotlib v3.10.6, https://matplotlib.org/</dc:title>
     </cc:Agent>
    </dc:creator>
   </cc:Work>
  </rdf:RDF>
 </metadata>
 <defs>
  <style type="text/css">*{stroke-linejoin: round; stroke-linecap: butt}</style>
 </defs>
 <g id="figure_1">
  <g id="patch_1">
   <path d="M 0 316.26 
L 447.12 316.26 
L 447.12 0 
L 0 0 
z
" style="fill: #ffffff"/>
  </g>
  <g id="axes_1">
   <g id="patch_2">
    <path d="M 270.36 172.08 
L 270.474235 172.079094 
L 270.588441 172.076375 
L 270.70259 172.071845 
L 270.816652 172.065504 
L 270.9306 172.057354 
L 271.044404 172.047398 
L 271.158035 172.035637 
L 271.271466 172.022075 
L 271.384667 172.006714 
L 271.49761 171.98956 
L 271.610267 171.970616 
L 271.722609 171.949887 
L 271.834608 171.927378 
L 271.946236 171.903094 
L 272.057464 171.877043 
L 272.168266 171.849231 
L 272.278611 171.819664 
L 272.388474 171.788349 
L 272.497827 171.755296 
L 272.606641 171.720512 
L 272.714889 171.684006 
L 272.822545 171.645787 
L 272.929581 171.605865 
L 273.03597 171.564249 
L 273.141685 171.520951 
L 273.2467 171.475981 
L 273.350988 171.42935 
L 273.454523 171.381071 
L 273.55728 171.331155 
L 273.659231 171.279615 
L 273.760352 171.226464 
L 273.860616 171.171716 
L 273.96 171.115383 
L 274.058477 171.057481 
L 274.156023 170.998023 
L 274.252614 170.937025 
L 274.348224 170.874503 
L 274.442831 170.810471 
L 274.53641 170.744947 
L 274.628937 170.677946 
L 274.72039 170.609485 
L 274.810745 170.539582 
L 274.899979 170.468255 
L 274.988071 170.39552 
L 275.074997 170.321397 
L 275.160737 170.245904 
L 275.245268 170.16906 
L 275.328569 170.090885 
L 275.410619 170.011398 
L 275.491398 169.930619 
L 275.570885 169.848569 
L 275.64906 169.765268 
L 275.725904 169.680737 
L 275.801397 169.594997 
L 275.87552 169.508071 
L 275.948255 169.419979 
L 276.019582 169.330745 
L 276.089485 169.24039 
L 276.157946 169.148937 
L 276.224947 169.05641 
L 276.290471 168.962831 
L 276.354503 168.868224 
L 276.417025 168.772614 
L 276.478023 168.676023 
L 276.537481 168.578477 
L 276.595383 168.48 
L 276.651716 168.380616 
L 276.706464 168.280352 
L 276.759615 168.179231 
L 276.811155 168.07728 
L 276.861071 167.974523 
L 276.90935 167.870988 
L 276.955981 167.7667 
L 277.000951 167.661685 
L 277.044249 167.55597 
L 277.085865 167.449581 
L 277.125787 167.342545 
L 277.164006 167.234889 
L 277.200512 167.126641 
L 277.235296 167.017827 
L 277.268349 166.908474 
L 277.299664 166.798611 
L 277.329231 166.688266 
L 277.357043 166.577464 
L 277.383094 166.466236 
L 277.407378 166.354608 
L 277.429887 166.242609 
L 277.450616 166.130267 
L 277.46956 166.01761 
L 277.486714 165.904667 
L 277.502075 165.791466 
L 277.515637 165.678035 
L 277.527398 165.564404 
L 277.537354 165.4506 
L 277.545504 165.336652 
L 277.551845 165.22259 
L 277.556375 165.108441 
L 277.559094 164.994235 
L 277.56 164.88 
L 277.56 125.28 
L 277.559094 125.165765 
L 277.556375 125.051559 
L 277.551845 124.93741 
L 277.545504 124.823348 
L 277.537354 124.7094 
L 277.527398 124.595596 
L 277.515637 124.481965 
L 277.502075 124.368534 
L 277.486714 124.255333 
L 277.46956 124.14239 
L 277.450616 124.029733 
L 277.429887 123.917391 
L 277.407378 123.805392 
L 277.383094 123.693764 
L 277.357043 123.582536 
L 277.329231 123.471734 
L 277.299664 123.361389 
L 277.268349 123.251526 
L 277.235296 123.142173 
L 277.200512 123.033359 
L 277.164006 122.925111 
L 277.125787 122.817455 
L 277.085865 122.710419 
L 277.044249 122.60403 
L 277.000951 122.498315 
L 276.955981 122.3933 
L 276.90935 122.289012 
L 276.861071 122.185477 
L 276.811155 122.08272 
L 276.759615 121.980769 
L 276.706464 121.879648 
L 276.651716 121.779384 
L 276.595383 121.68 
L 276.537481 121.581523 
L 276.478023 121.483977 
L 276.417025 121.387386 
L 276.354503 121.291776 
L 276.290471 121.197169 
L 276.224947 121.10359 
L 276.157946 121.011063 
L 276.089485 120.91961 
L 276.019582 120.829255 
L 275.948255 120.740021 
L 275.87552 120.651929 
L 275.801397 120.565003 
L 275.725904 120.479263 
L 275.64906 120.394732 
L 275.570885 120.311431 
L 275.491398 120.229381 
L 275.410619 120.148602 
L 275.328569 120.069115 
L 275.245268 119.99094 
L 275.160737 119.914096 
L 275.074997 119.838603 
L 274.988071 119.76448 
L 274.899979 119.691745 
L 274.810745 119.620418 
L 274.72039 119.550515 
L 274.628937 119.482054 
L 274.53641 119.415053 
L 274.442831 119.349529 
L 274.348224 119.285497 
L 274.252614 119.222975 
L 274.156023 119.161977 
L 274.058477 119.102519 
L 273.96 119.044617 
L 273.860616 118.988284 
L 273.760352 118.933536 
L 273.659231 118.880385 
L 273.55728 118.828845 
L 273.454523 118.778929 
L 273.350988 118.73065 
L 273.2467 118.684019 
L 273.141685 118.639049 
L 273.03597 118.595751 
L 272.929581 118.554135 
L 272.822545 118.514213 
L 272.714889 118.475994 
L 272.606641 118.439488 
L 272.497827 118.404704 
L 272.388474 118.371651 
L 272.278611 118.340336 
L 272.168266 118.310769 
L 272.057464 118.282957 
L 271.946236 118.256906 
L 271.834608 118.232622 
L 271.722609 118.210113 
L 271.610267 118.189384 
L 271.49761 118.17044 
L 271.384667 118.153286 
L 271.271466 118.137925 
L 271.158035 118.124363 
L 271.044404 118.112602 
L 270.9306 118.102646 
L 270.816652 118.094496 
L 270.70259 118.088155 
L 270.588441 118.083625 
L 270.474235 118.080906 
L 270.36 118.08 
L 230.76 118.08 
L 230.645765 118.080906 
L 230.531559 118.083625 
L 230.41741 118.088155 
L 230.303348 118.094496 
L 230.1894 118.102646 
L 230.075596 118.112602 
L 229.961965 118.124363 
L 229.848534 118.137925 
L 229.735333 118.153286 
L 229.62239 118.17044 
L 229.509733 118.189384 
L 229.397391 118.210113 
L 229.285392 118.232622 
L 229.173764 118.256906 
L 229.062536 118.282957 
L 228.951734 118.310769 
L 228.841389 118.340336 
L 228.731526 118.371651 
L 228.622173 118.404704 
L 228.513359 118.439488 
L 228.405111 118.475994 
L 228.297455 118.514213 
L 228.190419 118.554135 
L 228.08403 118.595751 
L 227.978315 118.639049 
L 227.8733 118.684019 
L 227.769012 118.73065 
L 227.665477 118.778929 
L 227.56272 118.828845 
L 227.460769 118.880385 
L 227.359648 118.933536 
L 227.259384 118.988284 
L 227.16 119.044617 
L 227.061523 119.102519 
L 226.963977 119.161977 
L 226.867386 119.222975 
L 226.771776 119.285497 
L 226.677169 119.349529 
L 226.58359 119.415053 
L 226.491063 119.482054 
L 226.39961 119.550515 
L 226.309255 119.620418 
L 226.220021 119.691745 
L 226.131929 119.76448 
L 226.045003 119.838603 
L 225.959263 119.914096 
L 225.874732 119.99094 
L 225.791431 120.069115 
L 225.709381 120.148602 
L 225.628602 120.229381 
L 225.549115 120.311431 
L 225.47094 120.394732 
L 225.394096 120.479263 
L 225.318603 120.565003 
L 225.24448 120.651929 
L 225.171745 120.740021 
L 225.100418 120.829255 
L 225.030515 120.91961 
L 224.962054 121.011063 
L 224.895053 121.10359 
L 224.829529 121.197169 
L 224.765497 121.291776 
L 224.702975 121.387386 
L 224.641977 121.483977 
L 224.582519 121.581523 
L 224.524617 121.68 
L 224.468284 121.779384 
L 224.413536 121.879648 
L 224.360385 121.980769 
L 224.308845 122.08272 
L 224.258929 122.185477 
L 224.21065 122.289012 
L 224.164019 122.3933 
L 224.119049 122.498315 
L 224.075751 122.60403 
L 224.034135 122.710419 
L 223.994213 122.817455 
L 223.955994 122.925111 
L 223.919488 123.033359 
L 223.884704 123.142173 
L 223.851651 123.251526 
L 223.820336 123.361389 
L 223.790769 123.471734 
L 223.762957 123.582536 
L 223.736906 123.693764 
L 223.712622 123.805392 
L 223.690113 123.917391 
L 223.669384 124.029733 
L 223.65044 124.14239 
L 223.633286 124.255333 
L 223.617925 124.368534 
L 223.604363 124.481965 
L 223.592602 124.595596 
L 223.582646 124.7094 
L 223.574496 124.823348 
L 223.568155 124.93741 
L 223.563625 125.051559 
L 223.560906 125.165765 
L 223.56 125.28 
L 223.56 164.88 
L 223.560906 164.994235 
L 223.563625 165.108441 
L 223.568155 165.22259 
L 223.574496 165.336652 
L 223.582646 165.4506 
L 223.592602 165.564404 
L 223.604363 165.678035 
L 223.617925 165.791466 
L 223.633286 165.904667 
L 223.65044 166.01761 
L 223.669384 166.130267 
L 223.690113 166.242609 
L 223.712622 166.354608 
L 223.736906 166.466236 
L 223.762957 166.577464 
L 223.790769 166.688266 
L 223.820336 166.798611 
L 223.851651 166.908474 
L 223.884704 167.017827 
L 223.919488 167.126641 
L 223.955994 167.234889 
L 223.994213 167.342545 
L 224.034135 167.449581 
L 224.075751 167.55597 
L 224.119049 167.661685 
L 224.164019 167.7667 
L 224.21065 167.870988 
L 224.258929 167.974523 
L 224.308845 168.07728 
L 224.360385 168.179231 
L 224.413536 168.280352 
L 224.468284 168.380616 
L 224.524617 168.48 
L 224.582519 168.578477 
L 224.641977 168.676023 
L 224.702975 168.772614 
L 224.765497 168.868224 
L 224.829529 168.962831 
L 224.895053 169.05641 
L 224.962054 169.148937 
L 225.030515 169.24039 
L 225.100418 169.330745 
L 225.171745 169.419979 
L 225.24448 169.508071 
L 225.318603 169.594997 
L 225.394096 169.680737 
L 225.47094 169.765268 
L 225.549115 169.848569 
L 225.628602 169.930619 
L 225.709381 170.011398 
L 225.791431 170.090885 
L 225.874732 170.16906 
L 225.959263 170.245904 
L 226.045003 170.321397 
L 226.131929 170.39552 
L 226.220021 170.468255 
L 226.309255 170.539582 
L 226.39961 170.609485 
L 226.491063 170.677946 
L 226.58359 170.744947 
L 226.677169 170.810471 
L 226.771776 170.874503 
L 226.867386 170.937025 
L 226.963977 170.998023 
L 227.061523 171.057481 
L 227.16 171.115383 
L 227.259384 171.171716 
L 227.359648 171.226464 
L 227.460769 171.279615 
L 227.56272 171.331155 
L 227.665477 171.381071 
L 227.769012 171.42935 
L 227.8733 171.475981 
L 227.978315 171.520951 
L 228.08403 171.564249 
L 228.190419 171.605865 
L 228.297455 171.645787 
L 228.405111 171.684006 
L 228.513359 171.720512 
L 228.622173 171.755296 
L 228.731526 171.788349 
L 228.841389 171.819664 
L 228.951734 171.849231 
L 229.062536 171.877043 
L 229.173764 171.903094 
L 229.285392 171.927378 
L 229.397391 171.949887 
L 229.509733 171.970616 
L 229.62239 171.98956 
L 229.735333 172.006714 
L 229.848534 172.022075 
L 229.961965 172.035637 
L 230.075596 172.047398 
L 230.1894 172.057354 
L 230.303348 172.065504 
L 230.41741 172.071845 
L 230.531559 172.076375 
L 230.645765 172.079094 
L 230.76 172.08 
L 270.36 172.08 
z
" clip-path="url(#p4fcdb6e1fa)" style="fill: none; stroke: #000000; stroke-width: 2; stroke-linecap: round"/>
   </g>
   <g id="line2d_1">
    <path d="M 7.56 10.08 
L 115.56 10.08 
L 223.56 10.08 
" clip-path="url(#p4fcdb6e1fa)" style="fill: none; stroke: #000000; stroke-width: 2; stroke-linecap: round"/>
   </g>
   <g id="line2d_2">
    <path d="M 223.56 10.08 
L 331.56 10.08 
L 439.56 10.08 
" clip-path="url(#p4fcdb6e1fa)" style="fill: none; stroke: #000000; stroke-width: 2; stroke-linecap: round"/>
   </g>
   <g id="line2d_3">
    <path d="M 7.56 10.08 
L 102.832078 105.352078 
L 111.317359 101.109437 
L 102.832078 118.08 
L 119.802641 109.594719 
L 111.317359 126.565281 
L 128.287922 118.08 
L 119.802641 135.050563 
L 128.287922 130.807922 
L 223.56 226.08 
" clip-path="url(#p4fcdb6e1fa)" style="fill: none; stroke: #000000; stroke-width: 2; stroke-linecap: round"/>
   </g>
   <g id="line2d_4">
    <path d="M 223.56 226.08 
L 318.832078 130.807922 
L 314.589437 122.322641 
L 331.56 130.807922 
L 323.074719 113.837359 
L 340.045281 122.322641 
L 331.56 105.352078 
L 348.530563 113.837359 
L 344.287922 105.352078 
L 439.56 10.08 
" clip-path="url(#p4fcdb6e1fa)" style="fill: none; stroke: #000000; stroke-width: 2; stroke-linecap: round"/>
   </g>
   <g id="line2d_5">
    <path d="M 223.56 10.08 
L 223.56 118.08 
L 223.56 226.08 
" clip-path="url(#p4fcdb6e1fa)" style="fill: none; stroke: #000000; stroke-width: 2; stroke-linecap: round"/>
   </g>
   <g id="patch_3">
    <path d="M 266.76 127.08 
Q 273.96 145.08 266.76 163.08 
L 254.52 158.58 
Q 259.56 145.08 254.52 131.58 
L 266.76 127.08 
z
" clip-path="url(#p4fcdb6e1fa)" style="fill: none; stroke: #000000; stroke-linecap: round"/>
   </g>
   <g id="line2d_6">
    <path d="M 256.935905 150.665211 
L 266.167538 152.210057 
" clip-path="url(#p4fcdb6e1fa)" style="fill: none; stroke: #000000; stroke-width: 1.5; stroke-linecap: round"/>
   </g>
   <g id="line2d_7">
    <path d="M 7.56 10.08 
L 7.56 154.08 
L 7.56 298.08 
" clip-path="url(#p4fcdb6e1fa)" style="fill: none; stroke: #000000; stroke-width: 2; stroke-linecap: round"/>
   </g>
   <g id="line2d_8">
    <path d="M 439.56 10.08 
L 439.56 154.08 
L 439.56 298.08 
" clip-path="url(#p4fcdb6e1fa)" style="fill: none; stroke: #000000; stroke-width: 2; stroke-linecap: round"/>
   </g>
   <g id="line2d_9">
    <path d="M 7.56 298.08 
L 220.185 298.08 
M 226.935 298.08 
L 439.56 298.08 
" clip-path="url(#p4fcdb6e1fa)" style="fill: none; stroke: #000000; stroke-width: 2; stroke-linecap: round"/>
   </g>
   <g id="line2d_10">
    <path d="M 220.185 284.58 
L 220.185 311.58 
" clip-path="url(#p4fcdb6e1fa)" style="fill: none; stroke: #000000; stroke-width: 2; stroke-linecap: round"/>
   </g>
   <g id="line2d_11">
    <path d="M 226.935 291.33 
L 226.935 304.83 
" clip-path="url(#p4fcdb6e1fa)" style="fill: none; stroke: #000000; stroke-width: 2; stroke-linecap: round"/>
   </g>
   <g id="line2d_12">
    <path d="M 223.56 10.08 
L 223.56 24.48 
L 223.56 29.88 
" clip-path="url(#p4fcdb6e1fa)" style="fill: none; stroke: #000000; stroke-width: 2; stroke-linecap: round"/>
   </g>
   <g id="patch_4">
    <path d="M 226.26 29.88 
L 223.56 38.88 
L 220.86 29.88 
z
" clip-path="url(#p4fcdb6e1fa)"/>
   </g>
   <g id="text_1">
    <!-- 5Ω -->
    <g transform="translate(124.469545 106.258892) scale(0.14 -0.14)">
     <defs>
      <path id="DejaVuSans-35" d="M 691 4666 
L 3169 4666 
L 3169 4134 
L 1269 4134 
L 1269 2991 
Q 1406 3038 1543 3061 
Q 1681 3084 1819 3084 
Q 2600 3084 3056 2656 
Q 3513 2228 3513 1497 
Q 3513 744 3044 326 
Q 2575 -91 1722 -91 
Q 1428 -91 1123 -41 
Q 819 9 494 109 
L 494 744 
Q 775 591 1075 516 
Q 1375 441 1709 441 
Q 2250 441 2565 725 
Q 2881 1009 2881 1497 
Q 2881 1984 2565 2268 
Q 2250 2553 1709 2553 
Q 1456 2553 1204 2497 
Q 953 2441 691 2322 
L 691 4666 
z
" transform="scale(0.015625)"/>
      <path id="DejaVuSans-3a9" d="M 4647 556 
L 4647 0 
L 2772 0 
L 2772 556 
Q 3325 859 3634 1378 
Q 3944 1897 3944 2528 
Q 3944 3278 3531 3731 
Q 3119 4184 2444 4184 
Q 1769 4184 1355 3729 
Q 941 3275 941 2528 
Q 941 1897 1250 1378 
Q 1563 859 2119 556 
L 2119 0 
L 244 0 
L 244 556 
L 1241 556 
Q 747 991 519 1456 
Q 294 1922 294 2497 
Q 294 3491 894 4106 
Q 1491 4722 2444 4722 
Q 3391 4722 3994 4106 
Q 4594 3494 4594 2528 
Q 4594 1922 4372 1459 
Q 4150 997 3647 556 
L 4647 556 
z
" transform="scale(0.015625)"/>
     </defs>
     <use xlink:href="#DejaVuSans-35"/>
     <use xlink:href="#DejaVuSans-3a9" transform="translate(63.623047 0)"/>
    </g>
   </g>
   <g id="text_2">
    <!-- ? -->
    <g transform="translate(315.219517 106.258892) scale(0.14 -0.14)">
     <defs>
      <path id="DejaVuSans-3f" d="M 1222 794 
L 1856 794 
L 1856 0 
L 1222 0 
L 1222 794 
z
M 1838 1253 
L 1241 1253 
L 1241 1734 
Q 1241 2050 1328 2253 
Q 1416 2456 1697 2725 
L 1978 3003 
Q 2156 3169 2236 3316 
Q 2316 3463 2316 3616 
Q 2316 3894 2111 4066 
Q 1906 4238 1569 4238 
Q 1322 4238 1042 4128 
Q 763 4019 459 3809 
L 459 4397 
Q 753 4575 1054 4662 
Q 1356 4750 1678 4750 
Q 2253 4750 2601 4447 
Q 2950 4144 2950 3647 
Q 2950 3409 2837 3195 
Q 2725 2981 2444 2713 
L 2169 2444 
Q 2022 2297 1961 2214 
Q 1900 2131 1875 2053 
Q 1856 1988 1847 1894 
Q 1838 1800 1838 1638 
L 1838 1253 
z
" transform="scale(0.015625)"/>
     </defs>
     <use xlink:href="#DejaVuSans-3f"/>
    </g>
   </g>
   <g id="text_3">
    <!-- G -->
    <g transform="translate(209.112188 148.943125) scale(0.14 -0.14)">
     <defs>
      <path id="DejaVuSans-47" d="M 3809 666 
L 3809 1919 
L 2778 1919 
L 2778 2438 
L 4434 2438 
L 4434 434 
Q 4069 175 3628 42 
Q 3188 -91 2688 -91 
Q 1594 -91 976 548 
Q 359 1188 359 2328 
Q 359 3472 976 4111 
Q 1594 4750 2688 4750 
Q 3144 4750 3555 4637 
Q 3966 4525 4313 4306 
L 4313 3634 
Q 3963 3931 3569 4081 
Q 3175 4231 2741 4231 
Q 1884 4231 1454 3753 
Q 1025 3275 1025 2328 
Q 1025 1384 1454 906 
Q 1884 428 2741 428 
Q 3075 428 3337 486 
Q 3600 544 3809 666 
z
" transform="scale(0.015625)"/>
     </defs>
     <use xlink:href="#DejaVuSans-47"/>
    </g>
   </g>
   <g id="text_4">
    <!-- 2V -->
    <g transform="translate(214.317813 278.068438) scale(0.14 -0.14)">
     <defs>
      <path id="DejaVuSans-32" d="M 1228 531 
L 3431 531 
L 3431 0 
L 469 0 
L 469 531 
Q 828 903 1448 1529 
Q 2069 2156 2228 2338 
Q 2531 2678 2651 2914 
Q 2772 3150 2772 3378 
Q 2772 3750 2511 3984 
Q 2250 4219 1831 4219 
Q 1534 4219 1204 4116 
Q 875 4013 500 3803 
L 500 4441 
Q 881 4594 1212 4672 
Q 1544 4750 1819 4750 
Q 2544 4750 2975 4387 
Q 3406 4025 3406 3419 
Q 3406 3131 3298 2873 
Q 3191 2616 2906 2266 
Q 2828 2175 2409 1742 
Q 1991 1309 1228 531 
z
" transform="scale(0.015625)"/>
      <path id="DejaVuSans-56" d="M 1831 0 
L 50 4666 
L 709 4666 
L 2188 738 
L 3669 4666 
L 4325 4666 
L 2547 0 
L 1831 0 
z
" transform="scale(0.015625)"/>
     </defs>
     <use xlink:href="#DejaVuSans-32"/>
     <use xlink:href="#DejaVuSans-56" transform="translate(63.623047 0)"/>
    </g>
   </g>
   <g id="patch_5">
    <path d="M 7.56 12.96 
C 8.323785 12.96 9.05639 12.656545 9.596468 12.116468 
C 10.136545 11.57639 10.44 10.843785 10.44 10.08 
C 10.44 9.316215 10.136545 8.58361 9.596468 8.043532 
C 9.05639 7.503455 8.323785 7.2 7.56 7.2 
C 6.796215 7.2 6.06361 7.503455 5.523532 8.043532 
C 4.983455 8.58361 4.68 9.316215 4.68 10.08 
C 4.68 10.843785 4.983455 11.57639 5.523532 12.116468 
C 6.06361 12.656545 6.796215 12.96 7.56 12.96 
z
" clip-path="url(#p4fcdb6e1fa)" style="stroke: #000000; stroke-width: 2; stroke-linejoin: miter"/>
   </g>
   <g id="patch_6">
    <path d="M 223.56 12.96 
C 224.323785 12.96 225.05639 12.656545 225.596468 12.116468 
C 226.136545 11.57639 226.44 10.843785 226.44 10.08 
C 226.44 9.316215 226.136545 8.58361 225.596468 8.043532 
C 225.05639 7.503455 224.323785 7.2 223.56 7.2 
C 222.796215 7.2 222.06361 7.503455 221.523532 8.043532 
C 220.983455 8.58361 220.68 9.316215 220.68 10.08 
C 220.68 10.843785 220.983455 11.57639 221.523532 12.116468 
C 222.06361 12.656545 222.796215 12.96 223.56 12.96 
z
" clip-path="url(#p4fcdb6e1fa)" style="stroke: #000000; stroke-width: 2; stroke-linejoin: miter"/>
   </g>
   <g id="patch_7">
    <path d="M 439.56 12.96 
C 440.323785 12.96 441.05639 12.656545 441.596468 12.116468 
C 442.136545 11.57639 442.44 10.843785 442.44 10.08 
C 442.44 9.316215 442.136545 8.58361 441.596468 8.043532 
C 441.05639 7.503455 440.323785 7.2 439.56 7.2 
C 438.796215 7.2 438.06361 7.503455 437.523532 8.043532 
C 436.983455 8.58361 436.68 9.316215 436.68 10.08 
C 436.68 10.843785 436.983455 11.57639 437.523532 12.116468 
C 438.06361 12.656545 438.796215 12.96 439.56 12.96 
z
" clip-path="url(#p4fcdb6e1fa)" style="stroke: #000000; stroke-width: 2; stroke-linejoin: miter"/>
   </g>
   <g id="patch_8">
    <path d="M 223.56 228.96 
C 224.323785 228.96 225.05639 228.656545 225.596468 228.116468 
C 226.136545 227.57639 226.44 226.843785 226.44 226.08 
C 226.44 225.316215 226.136545 224.58361 225.596468 224.043532 
C 225.05639 223.503455 224.323785 223.2 223.56 223.2 
C 222.796215 223.2 222.06361 223.503455 221.523532 224.043532 
C 220.983455 224.58361 220.68 225.316215 220.68 226.08 
C 220.68 226.843785 220.983455 227.57639 221.523532 228.116468 
C 222.06361 228.656545 222.796215 228.96 223.56 228.96 
z
" clip-path="url(#p4fcdb6e1fa)" style="stroke: #000000; stroke-width: 2; stroke-linejoin: miter"/>
   </g>
   <g id="patch_9">
    <path d="M 234.36 136.08 
C 235.314731 136.08 236.230488 135.700681 236.905584 135.025584 
C 237.580681 134.350488 237.96 133.434731 237.96 132.48 
C 237.96 131.525269 237.580681 130.609512 236.905584 129.934416 
C 236.230488 129.259319 235.314731 128.88 234.36 128.88 
C 233.405269 128.88 232.489512 129.259319 231.814416 129.934416 
C 231.139319 130.609512 230.76 131.525269 230.76 132.48 
C 230.76 133.434731 231.139319 134.350488 231.814416 135.025584 
C 232.489512 135.700681 233.405269 136.08 234.36 136.08 
L 234.36 136.08 
z
" clip-path="url(#p4fcdb6e1fa)" style="fill: none; stroke: #000000; stroke-linejoin: miter"/>
   </g>
   <g id="patch_10">
    <path d="M 234.36 161.28 
C 235.314731 161.28 236.230488 160.900681 236.905584 160.225584 
C 237.580681 159.550488 237.96 158.634731 237.96 157.68 
C 237.96 156.725269 237.580681 155.809512 236.905584 155.134416 
C 236.230488 154.459319 235.314731 154.08 234.36 154.08 
C 233.405269 154.08 232.489512 154.459319 231.814416 155.134416 
C 231.139319 155.809512 230.76 156.725269 230.76 157.68 
C 230.76 158.634731 231.139319 159.550488 231.814416 160.225584 
C 232.489512 160.900681 233.405269 161.28 234.36 161.28 
L 234.36 161.28 
z
" clip-path="url(#p4fcdb6e1fa)" style="fill: none; stroke: #000000; stroke-linejoin: miter"/>
   </g>
  </g>
 </g>
 <defs>
  <clipPath id="p4fcdb6e1fa">
   <rect x="0" y="0" width="447.12" height="316.26"/>
  </clipPath>
 </defs>
</svg>
