<?xml version="1.0" encoding="utf-8" standalone="no"?>
<!DOCTYPE svg PUBLIC "-//W3C//DTD SVG 1.1//EN"
  "http://www.w3.org/Graphics/SVG/1.1/DTD/svg11.dtd">
<svg xmlns:xlink="http://www.w3.org/1999/xlink" width="490.908pt" height="447.12pt" viewBox="0 0 490.908 447.12" xmlns="http://www.w3.org/2000/svg" version="1.1">
 <metadata>
  <rdf:RDF xmlns:dc="http://purl.org/dc/elements/1.1/" xmlns:cc="http://creativecommons.org/ns#" xmlns:rdf="http://www.w3.org/1999/02/22-rdf-syntax-ns#">
   <cc:Work>
    <dc:type rdf:resource="http://purl.org/dc/dcmitype/StillImage"/>
    <dc:date>2026-06-17T16:08:55.486640</dc:date>
    <dc:format>image/svg+xml</dc:format>
    <dc:creator>
     <cc:Agent>
      <dc:title>Matplotlib v3.10.6, https://matplotlib.org/</dc:title>
     </cc:Agent>
    </dc:creator>
   </cc:Work>
  </rdf:RDF>
 </metadata>
 <defs>
  <style type="text/css">*{stroke-linejoin: round; stroke-linecap: butt}</style>
 </defs>
 <g id="figure_1">
  <g id="patch_1">
   <path d="M 0 447.12 
L 490.908 447.12 
L 490.908 0 
L 0 0 
z
" style="fill: #ffffff"/>
  </g>
  <g id="axes_1">
   <g id="patch_2">
    <path d="M 164.439169 260.283636 
L 164.357752 260.203501 
L 164.275073 260.124667 
L 164.191155 260.047155 
L 164.106017 259.970985 
L 164.019681 259.896174 
L 163.932169 259.822743 
L 163.843503 259.75071 
L 163.753706 259.680092 
L 163.662799 259.610908 
L 163.570806 259.543175 
L 163.47775 259.476911 
L 163.383655 259.41213 
L 163.288543 259.348851 
L 163.19244 259.287089 
L 163.095368 259.22686 
L 162.997353 259.168178 
L 162.89842 259.111059 
L 162.798593 259.055517 
L 162.697897 259.001565 
L 162.596358 258.949218 
L 162.494 258.898488 
L 162.390851 258.849389 
L 162.286936 258.801933 
L 162.182282 258.756131 
L 162.076913 258.711996 
L 161.970858 258.669537 
L 161.864142 258.628767 
L 161.756793 258.589695 
L 161.648837 258.552332 
L 161.540303 258.516685 
L 161.431216 258.482766 
L 161.321605 258.450581 
L 161.211497 258.420139 
L 161.10092 258.391449 
L 160.989902 258.364516 
L 160.87847 258.339348 
L 160.766653 258.315951 
L 160.654479 258.294331 
L 160.541976 258.274494 
L 160.429172 258.256444 
L 160.316097 258.240186 
L 160.202777 258.225725 
L 160.089243 258.213063 
L 159.975521 258.202203 
L 159.861642 258.19315 
L 159.747634 258.185905 
L 159.633524 258.180469 
L 159.519343 258.176844 
L 159.405119 258.175032 
L 159.290881 258.175032 
L 159.176657 258.176844 
L 159.062476 258.180469 
L 158.948366 258.185905 
L 158.834358 258.19315 
L 158.720479 258.202203 
L 158.606757 258.213063 
L 158.493223 258.225725 
L 158.379903 258.240186 
L 158.266828 258.256444 
L 158.154024 258.274494 
L 158.041521 258.294331 
L 157.929347 258.315951 
L 157.81753 258.339348 
L 157.706098 258.364516 
L 157.59508 258.391449 
L 157.484503 258.420139 
L 157.374395 258.450581 
L 157.264784 258.482766 
L 157.155697 258.516685 
L 157.047163 258.552332 
L 156.939207 258.589695 
L 156.831858 258.628767 
L 156.725142 258.669537 
L 156.619087 258.711996 
L 156.513718 258.756131 
L 156.409064 258.801933 
L 156.305149 258.849389 
L 156.202 258.898488 
L 156.099642 258.949218 
L 155.998103 259.001565 
L 155.897407 259.055517 
L 155.79758 259.111059 
L 155.698647 259.168178 
L 155.600632 259.22686 
L 155.50356 259.287089 
L 155.407457 259.348851 
L 155.312345 259.41213 
L 155.21825 259.476911 
L 155.125194 259.543175 
L 155.033201 259.610908 
L 154.942294 259.680092 
L 154.852497 259.75071 
L 154.763831 259.822743 
L 154.676319 259.896174 
L 154.589983 259.970985 
L 154.504845 260.047155 
L 154.420927 260.124667 
L 154.338248 260.203501 
L 154.256831 260.283636 
L 126.255403 288.285065 
L 126.175267 288.366482 
L 126.096434 288.44916 
L 126.018922 288.533079 
L 125.942751 288.618217 
L 125.867941 288.704553 
L 125.794509 288.792065 
L 125.722476 288.88073 
L 125.651858 288.970528 
L 125.582675 289.061435 
L 125.514942 289.153428 
L 125.448677 289.246483 
L 125.383897 289.340579 
L 125.320618 289.435691 
L 125.258856 289.531794 
L 125.198626 289.628866 
L 125.139944 289.72688 
L 125.082825 289.825814 
L 125.027283 289.925641 
L 124.973331 290.026337 
L 124.920984 290.127876 
L 124.870255 290.230233 
L 124.821155 290.333382 
L 124.773699 290.437297 
L 124.727897 290.541952 
L 124.683762 290.647321 
L 124.641304 290.753376 
L 124.600533 290.860092 
L 124.561462 290.967441 
L 124.524098 291.075396 
L 124.488452 291.183931 
L 124.454532 291.293018 
L 124.422347 291.402629 
L 124.391906 291.512737 
L 124.363215 291.623314 
L 124.336282 291.734332 
L 124.311114 291.845764 
L 124.287717 291.957581 
L 124.266097 292.069755 
L 124.24626 292.182258 
L 124.22821 292.295061 
L 124.211952 292.408137 
L 124.197491 292.521457 
L 124.184829 292.634991 
L 124.17397 292.748712 
L 124.164916 292.862592 
L 124.157671 292.9766 
L 124.152235 293.090709 
L 124.148611 293.20489 
L 124.146798 293.319115 
L 124.146798 293.433353 
L 124.148611 293.547577 
L 124.152235 293.661758 
L 124.157671 293.775867 
L 124.164916 293.889876 
L 124.17397 294.003755 
L 124.184829 294.117476 
L 124.197491 294.231011 
L 124.211952 294.344331 
L 124.22821 294.457406 
L 124.24626 294.57021 
L 124.266097 294.682713 
L 124.287717 294.794887 
L 124.311114 294.906704 
L 124.336282 295.018136 
L 124.363215 295.129154 
L 124.391906 295.239731 
L 124.422347 295.349839 
L 124.454532 295.45945 
L 124.488452 295.568537 
L 124.524098 295.677071 
L 124.561462 295.785027 
L 124.600533 295.892376 
L 124.641304 295.999092 
L 124.683762 296.105147 
L 124.727897 296.210515 
L 124.773699 296.31517 
L 124.821155 296.419085 
L 124.870255 296.522234 
L 124.920984 296.624591 
L 124.973331 296.726131 
L 125.027283 296.826827 
L 125.082825 296.926654 
L 125.139944 297.025587 
L 125.198626 297.123602 
L 125.258856 297.220673 
L 125.320618 297.316777 
L 125.383897 297.411889 
L 125.448677 297.505984 
L 125.514942 297.59904 
L 125.582675 297.691033 
L 125.651858 297.78194 
L 125.722476 297.871737 
L 125.794509 297.960403 
L 125.867941 298.047915 
L 125.942751 298.134251 
L 126.018922 298.219389 
L 126.096434 298.303307 
L 126.175267 298.385986 
L 126.255403 298.467403 
L 154.256831 326.468831 
L 154.338248 326.548967 
L 154.420927 326.6278 
L 154.504845 326.705312 
L 154.589983 326.781483 
L 154.676319 326.856293 
L 154.763831 326.929724 
L 154.852497 327.001758 
L 154.942294 327.072375 
L 155.033201 327.141559 
L 155.125194 327.209292 
L 155.21825 327.275557 
L 155.312345 327.340337 
L 155.407457 327.403616 
L 155.50356 327.465378 
L 155.600632 327.525608 
L 155.698647 327.584289 
L 155.79758 327.641409 
L 155.897407 327.696951 
L 155.998103 327.750903 
L 156.099642 327.80325 
L 156.202 327.853979 
L 156.305149 327.903078 
L 156.409064 327.950535 
L 156.513718 327.996337 
L 156.619087 328.040472 
L 156.725142 328.08293 
L 156.831858 328.1237 
L 156.939207 328.162772 
L 157.047163 328.200136 
L 157.155697 328.235782 
L 157.264784 328.269702 
L 157.374395 328.301887 
L 157.484503 328.332328 
L 157.59508 328.361019 
L 157.706098 328.387952 
L 157.81753 328.41312 
L 157.929347 328.436517 
L 158.041521 328.458136 
L 158.154024 328.477974 
L 158.266828 328.496024 
L 158.379903 328.512281 
L 158.493223 328.526743 
L 158.606757 328.539405 
L 158.720479 328.550264 
L 158.834358 328.559318 
L 158.948366 328.566563 
L 159.062476 328.571999 
L 159.176657 328.575623 
L 159.290881 328.577436 
L 159.405119 328.577436 
L 159.519343 328.575623 
L 159.633524 328.571999 
L 159.747634 328.566563 
L 159.861642 328.559318 
L 159.975521 328.550264 
L 160.089243 328.539405 
L 160.202777 328.526743 
L 160.316097 328.512281 
L 160.429172 328.496024 
L 160.541976 328.477974 
L 160.654479 328.458136 
L 160.766653 328.436517 
L 160.87847 328.41312 
L 160.989902 328.387952 
L 161.10092 328.361019 
L 161.211497 328.332328 
L 161.321605 328.301887 
L 161.431216 328.269702 
L 161.540303 328.235782 
L 161.648837 328.200136 
L 161.756793 328.162772 
L 161.864142 328.1237 
L 161.970858 328.08293 
L 162.076913 328.040472 
L 162.182282 327.996337 
L 162.286936 327.950535 
L 162.390851 327.903078 
L 162.494 327.853979 
L 162.596358 327.80325 
L 162.697897 327.750903 
L 162.798593 327.696951 
L 162.89842 327.641409 
L 162.997353 327.584289 
L 163.095368 327.525608 
L 163.19244 327.465378 
L 163.288543 327.403616 
L 163.383655 327.340337 
L 163.47775 327.275557 
L 163.570806 327.209292 
L 163.662799 327.141559 
L 163.753706 327.072375 
L 163.843503 327.001758 
L 163.932169 326.929724 
L 164.019681 326.856293 
L 164.106017 326.781483 
L 164.191155 326.705312 
L 164.275073 326.6278 
L 164.357752 326.548967 
L 164.439169 326.468831 
L 192.440597 298.467403 
L 192.520733 298.385986 
L 192.599566 298.303307 
L 192.677078 298.219389 
L 192.753249 298.134251 
L 192.828059 298.047915 
L 192.901491 297.960403 
L 192.973524 297.871737 
L 193.044142 297.78194 
L 193.113325 297.691033 
L 193.181058 297.59904 
L 193.247323 297.505984 
L 193.312103 297.411889 
L 193.375382 297.316777 
L 193.437144 297.220673 
L 193.497374 297.123602 
L 193.556056 297.025587 
L 193.613175 296.926654 
L 193.668717 296.826827 
L 193.722669 296.726131 
L 193.775016 296.624591 
L 193.825745 296.522234 
L 193.874845 296.419085 
L 193.922301 296.31517 
L 193.968103 296.210515 
L 194.012238 296.105147 
L 194.054696 295.999092 
L 194.095467 295.892376 
L 194.134538 295.785027 
L 194.171902 295.677071 
L 194.207548 295.568537 
L 194.241468 295.45945 
L 194.273653 295.349839 
L 194.304094 295.239731 
L 194.332785 295.129154 
L 194.359718 295.018136 
L 194.384886 294.906704 
L 194.408283 294.794887 
L 194.429903 294.682713 
L 194.44974 294.57021 
L 194.46779 294.457406 
L 194.484048 294.344331 
L 194.498509 294.231011 
L 194.511171 294.117476 
L 194.52203 294.003755 
L 194.531084 293.889876 
L 194.538329 293.775867 
L 194.543765 293.661758 
L 194.547389 293.547577 
L 194.549202 293.433353 
L 194.549202 293.319115 
L 194.547389 293.20489 
L 194.543765 293.090709 
L 194.538329 292.9766 
L 194.531084 292.862592 
L 194.52203 292.748712 
L 194.511171 292.634991 
L 194.498509 292.521457 
L 194.484048 292.408137 
L 194.46779 292.295061 
L 194.44974 292.182258 
L 194.429903 292.069755 
L 194.408283 291.957581 
L 194.384886 291.845764 
L 194.359718 291.734332 
L 194.332785 291.623314 
L 194.304094 291.512737 
L 194.273653 291.402629 
L 194.241468 291.293018 
L 194.207548 291.183931 
L 194.171902 291.075396 
L 194.134538 290.967441 
L 194.095467 290.860092 
L 194.054696 290.753376 
L 194.012238 290.647321 
L 193.968103 290.541952 
L 193.922301 290.437297 
L 193.874845 290.333382 
L 193.825745 290.230233 
L 193.775016 290.127876 
L 193.722669 290.026337 
L 193.668717 289.925641 
L 193.613175 289.825814 
L 193.556056 289.72688 
L 193.497374 289.628866 
L 193.437144 289.531794 
L 193.375382 289.435691 
L 193.312103 289.340579 
L 193.247323 289.246483 
L 193.181058 289.153428 
L 193.113325 289.061435 
L 193.044142 288.970528 
L 192.973524 288.88073 
L 192.901491 288.792065 
L 192.828059 288.704553 
L 192.753249 288.618217 
L 192.677078 288.533079 
L 192.599566 288.44916 
L 192.520733 288.366482 
L 192.440597 288.285065 
L 164.439169 260.283636 
z
" clip-path="url(#p9b465258e0)" style="fill: none; stroke: #000000; stroke-width: 2; stroke-linecap: round"/>
   </g>
   <g id="line2d_1">
    <path d="M 51.348 223.56 
L 159.348 223.56 
L 267.348 223.56 
" clip-path="url(#p9b465258e0)" style="fill: none; stroke: #000000; stroke-width: 2; stroke-linecap: round"/>
   </g>
   <g id="line2d_2">
    <path d="M 267.348 223.56 
L 375.348 223.56 
L 483.348 223.56 
" clip-path="url(#p9b465258e0)" style="fill: none; stroke: #000000; stroke-width: 2; stroke-linecap: round"/>
   </g>
   <g id="line2d_3">
    <path d="M 51.348 223.56 
L 159.348 115.56 
L 267.348 7.56 
" clip-path="url(#p9b465258e0)" style="fill: none; stroke: #000000; stroke-width: 2; stroke-linecap: round"/>
   </g>
   <g id="line2d_4">
    <path d="M 267.348 7.56 
L 375.348 115.56 
L 483.348 223.56 
" clip-path="url(#p9b465258e0)" style="fill: none; stroke: #000000; stroke-width: 2; stroke-linecap: round"/>
   </g>
   <g id="line2d_5">
    <path d="M 267.348 223.56 
L 159.348 331.56 
L 51.348 439.56 
" clip-path="url(#p9b465258e0)" style="fill: none; stroke: #000000; stroke-width: 2; stroke-linecap: round"/>
   </g>
   <g id="patch_3">
    <path d="M 135.164948 294.649026 
Q 142.801701 276.829935 160.620792 269.193182 
L 166.093799 281.030149 
Q 152.984039 287.012273 147.001916 300.122033 
L 135.164948 294.649026 
z
" clip-path="url(#p9b465258e0)" style="fill: none; stroke: #000000; stroke-linecap: round"/>
   </g>
   <g id="line2d_6">
    <path d="M 158.788895 284.918448 
L 153.353515 277.298327 
" clip-path="url(#p9b465258e0)" style="fill: none; stroke: #000000; stroke-width: 1.5; stroke-linecap: round"/>
   </g>
   <g id="line2d_7">
    <path d="M 51.348 439.56 
L 51.348 334.935 
M 51.348 328.185 
L 51.348 223.56 
" clip-path="url(#p9b465258e0)" style="fill: none; stroke: #000000; stroke-width: 2; stroke-linecap: round"/>
   </g>
   <g id="line2d_8">
    <path d="M 37.848 334.935 
L 64.848 334.935 
" clip-path="url(#p9b465258e0)" style="fill: none; stroke: #000000; stroke-width: 2; stroke-linecap: round"/>
   </g>
   <g id="line2d_9">
    <path d="M 44.598 328.185 
L 58.098 328.185 
" clip-path="url(#p9b465258e0)" style="fill: none; stroke: #000000; stroke-width: 2; stroke-linecap: round"/>
   </g>
   <g id="line2d_10">
    <path d="M 51.348 223.56 
L 156.961515 117.946485 
M 161.734485 113.173515 
L 267.348 7.56 
" clip-path="url(#p9b465258e0)" style="fill: none; stroke: #000000; stroke-width: 2; stroke-linecap: round"/>
   </g>
   <g id="line2d_11">
    <path d="M 147.415573 108.400544 
L 166.507456 127.492427 
" clip-path="url(#p9b465258e0)" style="fill: none; stroke: #000000; stroke-width: 2; stroke-linecap: round"/>
   </g>
   <g id="line2d_12">
    <path d="M 156.961515 108.400544 
L 166.507456 117.946485 
" clip-path="url(#p9b465258e0)" style="fill: none; stroke: #000000; stroke-width: 2; stroke-linecap: round"/>
   </g>
   <g id="line2d_13">
    <path d="M 267.348 7.56 
L 362.620078 102.832078 
L 371.105359 98.589437 
L 362.620078 115.56 
L 379.590641 107.074719 
L 371.105359 124.045281 
L 388.075922 115.56 
L 379.590641 132.530563 
L 388.075922 128.287922 
L 483.348 223.56 
" clip-path="url(#p9b465258e0)" style="fill: none; stroke: #000000; stroke-width: 2; stroke-linecap: round"/>
   </g>
   <g id="line2d_14">
    <path d="M 267.348 223.56 
L 267.348 209.16 
L 267.348 203.76 
" clip-path="url(#p9b465258e0)" style="fill: none; stroke: #000000; stroke-width: 2; stroke-linecap: round"/>
   </g>
   <g id="patch_4">
    <path d="M 264.648 203.76 
L 267.348 194.76 
L 270.048 203.76 
z
" clip-path="url(#p9b465258e0)"/>
   </g>
   <g id="text_1">
    <!-- G -->
    <g transform="translate(126.86272 268.827204) scale(0.14 -0.14)">
     <defs>
      <path id="DejaVuSans-47" d="M 3809 666 
L 3809 1919 
L 2778 1919 
L 2778 2438 
L 4434 2438 
L 4434 434 
Q 4069 175 3628 42 
Q 3188 -91 2688 -91 
Q 1594 -91 976 548 
Q 359 1188 359 2328 
Q 359 3472 976 4111 
Q 1594 4750 2688 4750 
Q 3144 4750 3555 4637 
Q 3966 4525 4313 4306 
L 4313 3634 
Q 3963 3931 3569 4081 
Q 3175 4231 2741 4231 
Q 1884 4231 1454 3753 
Q 1025 3275 1025 2328 
Q 1025 1384 1454 906 
Q 1884 428 2741 428 
Q 3075 428 3337 486 
Q 3600 544 3809 666 
z
" transform="scale(0.015625)"/>
     </defs>
     <use xlink:href="#DejaVuSans-47"/>
    </g>
   </g>
   <g id="text_2">
    <!-- 1.5V -->
    <g transform="translate(2.40675 335.423125) scale(0.14 -0.14)">
     <defs>
      <path id="DejaVuSans-31" d="M 794 531 
L 1825 531 
L 1825 4091 
L 703 3866 
L 703 4441 
L 1819 4666 
L 2450 4666 
L 2450 531 
L 3481 531 
L 3481 0 
L 794 0 
L 794 531 
z
" transform="scale(0.015625)"/>
      <path id="DejaVuSans-2e" d="M 684 794 
L 1344 794 
L 1344 0 
L 684 0 
L 684 794 
z
" transform="scale(0.015625)"/>
      <path id="DejaVuSans-35" d="M 691 4666 
L 3169 4666 
L 3169 4134 
L 1269 4134 
L 1269 2991 
Q 1406 3038 1543 3061 
Q 1681 3084 1819 3084 
Q 2600 3084 3056 2656 
Q 3513 2228 3513 1497 
Q 3513 744 3044 326 
Q 2575 -91 1722 -91 
Q 1428 -91 1123 -41 
Q 819 9 494 109 
L 494 744 
Q 775 591 1075 516 
Q 1375 441 1709 441 
Q 2250 441 2565 725 
Q 2881 1009 2881 1497 
Q 2881 1984 2565 2268 
Q 2250 2553 1709 2553 
Q 1456 2553 1204 2497 
Q 953 2441 691 2322 
L 691 4666 
z
" transform="scale(0.015625)"/>
      <path id="DejaVuSans-56" d="M 1831 0 
L 50 4666 
L 709 4666 
L 2188 738 
L 3669 4666 
L 4325 4666 
L 2547 0 
L 1831 0 
z
" transform="scale(0.015625)"/>
     </defs>
     <use xlink:href="#DejaVuSans-31"/>
     <use xlink:href="#DejaVuSans-2e" transform="translate(63.623047 0)"/>
     <use xlink:href="#DejaVuSans-35" transform="translate(95.410156 0)"/>
     <use xlink:href="#DejaVuSans-56" transform="translate(159.033203 0)"/>
    </g>
   </g>
   <g id="text_3">
    <!-- 3V -->
    <g transform="translate(128.772099 100.556912) scale(0.14 -0.14)">
     <defs>
      <path id="DejaVuSans-33" d="M 2597 2516 
Q 3050 2419 3304 2112 
Q 3559 1806 3559 1356 
Q 3559 666 3084 287 
Q 2609 -91 1734 -91 
Q 1441 -91 1130 -33 
Q 819 25 488 141 
L 488 750 
Q 750 597 1062 519 
Q 1375 441 1716 441 
Q 2309 441 2620 675 
Q 2931 909 2931 1356 
Q 2931 1769 2642 2001 
Q 2353 2234 1838 2234 
L 1294 2234 
L 1294 2753 
L 1863 2753 
Q 2328 2753 2575 2939 
Q 2822 3125 2822 3475 
Q 2822 3834 2567 4026 
Q 2313 4219 1838 4219 
Q 1578 4219 1281 4162 
Q 984 4106 628 3988 
L 628 4550 
Q 988 4650 1302 4700 
Q 1616 4750 1894 4750 
Q 2613 4750 3031 4423 
Q 3450 4097 3450 3541 
Q 3450 3153 3228 2886 
Q 3006 2619 2597 2516 
z
" transform="scale(0.015625)"/>
     </defs>
     <use xlink:href="#DejaVuSans-33"/>
     <use xlink:href="#DejaVuSans-56" transform="translate(63.623047 0)"/>
    </g>
   </g>
   <g id="text_4">
    <!-- 2Ω -->
    <g transform="translate(384.257545 103.738892) scale(0.14 -0.14)">
     <defs>
      <path id="DejaVuSans-32" d="M 1228 531 
L 3431 531 
L 3431 0 
L 469 0 
L 469 531 
Q 828 903 1448 1529 
Q 2069 2156 2228 2338 
Q 2531 2678 2651 2914 
Q 2772 3150 2772 3378 
Q 2772 3750 2511 3984 
Q 2250 4219 1831 4219 
Q 1534 4219 1204 4116 
Q 875 4013 500 3803 
L 500 4441 
Q 881 4594 1212 4672 
Q 1544 4750 1819 4750 
Q 2544 4750 2975 4387 
Q 3406 4025 3406 3419 
Q 3406 3131 3298 2873 
Q 3191 2616 2906 2266 
Q 2828 2175 2409 1742 
Q 1991 1309 1228 531 
z
" transform="scale(0.015625)"/>
      <path id="DejaVuSans-3a9" d="M 4647 556 
L 4647 0 
L 2772 0 
L 2772 556 
Q 3325 859 3634 1378 
Q 3944 1897 3944 2528 
Q 3944 3278 3531 3731 
Q 3119 4184 2444 4184 
Q 1769 4184 1355 3729 
Q 941 3275 941 2528 
Q 941 1897 1250 1378 
Q 1563 859 2119 556 
L 2119 0 
L 244 0 
L 244 556 
L 1241 556 
Q 747 991 519 1456 
Q 294 1922 294 2497 
Q 294 3491 894 4106 
Q 1491 4722 2444 4722 
Q 3391 4722 3994 4106 
Q 4594 3494 4594 2528 
Q 4594 1922 4372 1459 
Q 4150 997 3647 556 
L 4647 556 
z
" transform="scale(0.015625)"/>
     </defs>
     <use xlink:href="#DejaVuSans-32"/>
     <use xlink:href="#DejaVuSans-3a9" transform="translate(63.623047 0)"/>
    </g>
   </g>
   <g id="patch_5">
    <path d="M 51.348 226.44 
C 52.111785 226.44 52.84439 226.136545 53.384468 225.596468 
C 53.924545 225.05639 54.228 224.323785 54.228 223.56 
C 54.228 222.796215 53.924545 222.06361 53.384468 221.523532 
C 52.84439 220.983455 52.111785 220.68 51.348 220.68 
C 50.584215 220.68 49.85161 220.983455 49.311532 221.523532 
C 48.771455 222.06361 48.468 222.796215 48.468 223.56 
C 48.468 224.323785 48.771455 225.05639 49.311532 225.596468 
C 49.85161 226.136545 50.584215 226.44 51.348 226.44 
z
" clip-path="url(#p9b465258e0)" style="stroke: #000000; stroke-width: 2; stroke-linejoin: miter"/>
   </g>
   <g id="patch_6">
    <path d="M 267.348 226.44 
C 268.111785 226.44 268.84439 226.136545 269.384468 225.596468 
C 269.924545 225.05639 270.228 224.323785 270.228 223.56 
C 270.228 222.796215 269.924545 222.06361 269.384468 221.523532 
C 268.84439 220.983455 268.111785 220.68 267.348 220.68 
C 266.584215 220.68 265.85161 220.983455 265.311532 221.523532 
C 264.771455 222.06361 264.468 222.796215 264.468 223.56 
C 264.468 224.323785 264.771455 225.05639 265.311532 225.596468 
C 265.85161 226.136545 266.584215 226.44 267.348 226.44 
z
" clip-path="url(#p9b465258e0)" style="stroke: #000000; stroke-width: 2; stroke-linejoin: miter"/>
   </g>
   <g id="patch_7">
    <path d="M 483.348 226.44 
C 484.111785 226.44 484.84439 226.136545 485.384468 225.596468 
C 485.924545 225.05639 486.228 224.323785 486.228 223.56 
C 486.228 222.796215 485.924545 222.06361 485.384468 221.523532 
C 484.84439 220.983455 484.111785 220.68 483.348 220.68 
C 482.584215 220.68 481.85161 220.983455 481.311532 221.523532 
C 480.771455 222.06361 480.468 222.796215 480.468 223.56 
C 480.468 224.323785 480.771455 225.05639 481.311532 225.596468 
C 481.85161 226.136545 482.584215 226.44 483.348 226.44 
z
" clip-path="url(#p9b465258e0)" style="stroke: #000000; stroke-width: 2; stroke-linejoin: miter"/>
   </g>
   <g id="patch_8">
    <path d="M 51.348 442.44 
C 52.111785 442.44 52.84439 442.136545 53.384468 441.596468 
C 53.924545 441.05639 54.228 440.323785 54.228 439.56 
C 54.228 438.796215 53.924545 438.06361 53.384468 437.523532 
C 52.84439 436.983455 52.111785 436.68 51.348 436.68 
C 50.584215 436.68 49.85161 436.983455 49.311532 437.523532 
C 48.771455 438.06361 48.468 438.796215 48.468 439.56 
C 48.468 440.323785 48.771455 441.05639 49.311532 441.596468 
C 49.85161 442.136545 50.584215 442.44 51.348 442.44 
z
" clip-path="url(#p9b465258e0)" style="stroke: #000000; stroke-width: 2; stroke-linejoin: miter"/>
   </g>
   <g id="patch_9">
    <path d="M 267.348 10.44 
C 268.111785 10.44 268.84439 10.136545 269.384468 9.596468 
C 269.924545 9.05639 270.228 8.323785 270.228 7.56 
C 270.228 6.796215 269.924545 6.06361 269.384468 5.523532 
C 268.84439 4.983455 268.111785 4.68 267.348 4.68 
C 266.584215 4.68 265.85161 4.983455 265.311532 5.523532 
C 264.771455 6.06361 264.468 6.796215 264.468 7.56 
C 264.468 8.323785 264.771455 9.05639 265.311532 9.596468 
C 265.85161 10.136545 266.584215 10.44 267.348 10.44 
z
" clip-path="url(#p9b465258e0)" style="stroke: #000000; stroke-width: 2; stroke-linejoin: miter"/>
   </g>
   <g id="patch_10">
    <path d="M 161.893584 317.340909 
C 162.848316 317.340909 163.764072 316.96159 164.439169 316.286494 
C 165.114266 315.611397 165.493584 314.69564 165.493584 313.740909 
C 165.493584 312.786178 165.114266 311.870422 164.439169 311.195325 
C 163.764072 310.520228 162.848316 310.140909 161.893584 310.140909 
C 160.938853 310.140909 160.023097 310.520228 159.348 311.195325 
C 158.672903 311.870422 158.293584 312.786178 158.293584 313.740909 
C 158.293584 314.69564 158.672903 315.611397 159.348 316.286494 
C 160.023097 316.96159 160.938853 317.340909 161.893584 317.340909 
L 161.893584 317.340909 
z
" clip-path="url(#p9b465258e0)" style="fill: none; stroke: #000000; stroke-linejoin: miter"/>
   </g>
   <g id="patch_11">
    <path d="M 179.712675 299.521818 
C 180.667406 299.521818 181.583163 299.1425 182.25826 298.467403 
C 182.933357 297.792306 183.312675 296.876549 183.312675 295.921818 
C 183.312675 294.967087 182.933357 294.051331 182.25826 293.376234 
C 181.583163 292.701137 180.667406 292.321818 179.712675 292.321818 
C 178.757944 292.321818 177.842188 292.701137 177.167091 293.376234 
C 176.491994 294.051331 176.112675 294.967087 176.112675 295.921818 
C 176.112675 296.876549 176.491994 297.792306 177.167091 298.467403 
C 177.842188 299.1425 178.757944 299.521818 179.712675 299.521818 
L 179.712675 299.521818 
z
" clip-path="url(#p9b465258e0)" style="fill: none; stroke: #000000; stroke-linejoin: miter"/>
   </g>
  </g>
 </g>
 <defs>
  <clipPath id="p9b465258e0">
   <rect x="0" y="0" width="490.908" height="447.12"/>
  </clipPath>
 </defs>
</svg>
