<?xml version="1.0" encoding="utf-8" standalone="no"?>
<!DOCTYPE svg PUBLIC "-//W3C//DTD SVG 1.1//EN"
  "http://www.w3.org/Graphics/SVG/1.1/DTD/svg11.dtd">
<svg xmlns:xlink="http://www.w3.org/1999/xlink" width="231.12pt" height="112.46pt" viewBox="0 0 231.12 112.46" xmlns="http://www.w3.org/2000/svg" version="1.1">
 <metadata>
  <rdf:RDF xmlns:dc="http://purl.org/dc/elements/1.1/" xmlns:cc="http://creativecommons.org/ns#" xmlns:rdf="http://www.w3.org/1999/02/22-rdf-syntax-ns#">
   <cc:Work>
    <dc:type rdf:resource="http://purl.org/dc/dcmitype/StillImage"/>
    <dc:date>2026-06-17T16:33:37.361714</dc:date>
    <dc:format>image/svg+xml</dc:format>
    <dc:creator>
     <cc:Agent>
      <dc:title>Matplotlib v3.10.6, https://matplotlib.org/</dc:title>
     </cc:Agent>
    </dc:creator>
   </cc:Work>
  </rdf:RDF>
 </metadata>
 <defs>
  <style type="text/css">*{stroke-linejoin: round; stroke-linecap: butt}</style>
 </defs>
 <g id="figure_1">
  <g id="patch_1">
   <path d="M 0 112.46 
L 231.12 112.46 
L 231.12 0 
L 0 0 
z
" style="fill: #ffffff"/>
  </g>
  <g id="axes_1">
   <g id="line2d_1">
    <path d="M 7.56 35.78 
L 33.435 35.78 
M 53.685 35.78 
L 79.56 35.78 
" clip-path="url(#p2a2734a012)" style="fill: none; stroke: #000000; stroke-width: 2; stroke-linecap: round"/>
   </g>
   <g id="line2d_2">
    <path d="M 33.435 22.28 
L 33.435 49.28 
" clip-path="url(#p2a2734a012)" style="fill: none; stroke: #000000; stroke-width: 2; stroke-linecap: round"/>
   </g>
   <g id="line2d_3">
    <path d="M 40.185 29.03 
L 40.185 42.53 
" clip-path="url(#p2a2734a012)" style="fill: none; stroke: #000000; stroke-width: 2; stroke-linecap: round"/>
   </g>
   <g id="line2d_4">
    <path d="M 46.935 22.28 
L 46.935 49.28 
" clip-path="url(#p2a2734a012)" style="fill: none; stroke: #000000; stroke-width: 2; stroke-linecap: round"/>
   </g>
   <g id="line2d_5">
    <path d="M 53.685 29.03 
L 53.685 42.53 
" clip-path="url(#p2a2734a012)" style="fill: none; stroke: #000000; stroke-width: 2; stroke-linecap: round"/>
   </g>
   <g id="line2d_6">
    <path d="M 79.56 35.78 
L 97.56 35.78 
L 100.56 26.78 
L 106.56 44.78 
L 112.56 26.78 
L 118.56 44.78 
L 124.56 26.78 
L 130.56 44.78 
L 133.56 35.78 
L 151.56 35.78 
" clip-path="url(#p2a2734a012)" style="fill: none; stroke: #000000; stroke-width: 2; stroke-linecap: round"/>
   </g>
   <g id="line2d_7">
    <path d="M 151.56 35.78 
L 169.56 35.78 
L 172.56 26.78 
L 178.56 44.78 
L 184.56 26.78 
L 190.56 44.78 
L 196.56 26.78 
L 202.56 44.78 
L 205.56 35.78 
L 223.56 35.78 
" clip-path="url(#p2a2734a012)" style="fill: none; stroke: #000000; stroke-width: 2; stroke-linecap: round"/>
   </g>
   <g id="line2d_8">
    <path d="M 223.56 35.78 
L 223.56 71.78 
L 223.56 107.78 
" clip-path="url(#p2a2734a012)" style="fill: none; stroke: #000000; stroke-width: 2; stroke-linecap: round"/>
   </g>
   <g id="line2d_9">
    <path d="M 223.56 107.78 
L 115.56 107.78 
L 7.56 107.78 
" clip-path="url(#p2a2734a012)" style="fill: none; stroke: #000000; stroke-width: 2; stroke-linecap: round"/>
   </g>
   <g id="line2d_10">
    <path d="M 7.56 107.78 
L 7.56 71.78 
L 7.56 35.78 
" clip-path="url(#p2a2734a012)" style="fill: none; stroke: #000000; stroke-width: 2; stroke-linecap: round"/>
   </g>
   <g id="text_1">
    <!-- 12V -->
    <g transform="translate(29.864063 15.768438) scale(0.14 -0.14)">
     <defs>
      <path id="DejaVuSans-31" d="M 794 531 
L 1825 531 
L 1825 4091 
L 703 3866 
L 703 4441 
L 1819 4666 
L 2450 4666 
L 2450 531 
L 3481 531 
L 3481 0 
L 794 0 
L 794 531 
z
" transform="scale(0.015625)"/>
      <path id="DejaVuSans-32" d="M 1228 531 
L 3431 531 
L 3431 0 
L 469 0 
L 469 531 
Q 828 903 1448 1529 
Q 2069 2156 2228 2338 
Q 2531 2678 2651 2914 
Q 2772 3150 2772 3378 
Q 2772 3750 2511 3984 
Q 2250 4219 1831 4219 
Q 1534 4219 1204 4116 
Q 875 4013 500 3803 
L 500 4441 
Q 881 4594 1212 4672 
Q 1544 4750 1819 4750 
Q 2544 4750 2975 4387 
Q 3406 4025 3406 3419 
Q 3406 3131 3298 2873 
Q 3191 2616 2906 2266 
Q 2828 2175 2409 1742 
Q 1991 1309 1228 531 
z
" transform="scale(0.015625)"/>
      <path id="DejaVuSans-56" d="M 1831 0 
L 50 4666 
L 709 4666 
L 2188 738 
L 3669 4666 
L 4325 4666 
L 2547 0 
L 1831 0 
z
" transform="scale(0.015625)"/>
     </defs>
     <use xlink:href="#DejaVuSans-31"/>
     <use xlink:href="#DejaVuSans-32" transform="translate(63.623047 0)"/>
     <use xlink:href="#DejaVuSans-56" transform="translate(127.246094 0)"/>
    </g>
   </g>
   <g id="text_2">
    <!-- 2Ω -->
    <g transform="translate(105.756719 20.268438) scale(0.14 -0.14)">
     <defs>
      <path id="DejaVuSans-3a9" d="M 4647 556 
L 4647 0 
L 2772 0 
L 2772 556 
Q 3325 859 3634 1378 
Q 3944 1897 3944 2528 
Q 3944 3278 3531 3731 
Q 3119 4184 2444 4184 
Q 1769 4184 1355 3729 
Q 941 3275 941 2528 
Q 941 1897 1250 1378 
Q 1563 859 2119 556 
L 2119 0 
L 244 0 
L 244 556 
L 1241 556 
Q 747 991 519 1456 
Q 294 1922 294 2497 
Q 294 3491 894 4106 
Q 1491 4722 2444 4722 
Q 3391 4722 3994 4106 
Q 4594 3494 4594 2528 
Q 4594 1922 4372 1459 
Q 4150 997 3647 556 
L 4647 556 
z
" transform="scale(0.015625)"/>
     </defs>
     <use xlink:href="#DejaVuSans-32"/>
     <use xlink:href="#DejaVuSans-3a9" transform="translate(63.623047 0)"/>
    </g>
   </g>
   <g id="text_3">
    <!-- 4Ω -->
    <g transform="translate(177.756719 20.268438) scale(0.14 -0.14)">
     <defs>
      <path id="DejaVuSans-34" d="M 2419 4116 
L 825 1625 
L 2419 1625 
L 2419 4116 
z
M 2253 4666 
L 3047 4666 
L 3047 1625 
L 3713 1625 
L 3713 1100 
L 3047 1100 
L 3047 0 
L 2419 0 
L 2419 1100 
L 313 1100 
L 313 1709 
L 2253 4666 
z
" transform="scale(0.015625)"/>
     </defs>
     <use xlink:href="#DejaVuSans-34"/>
     <use xlink:href="#DejaVuSans-3a9" transform="translate(63.623047 0)"/>
    </g>
   </g>
   <g id="patch_2">
    <path d="M 7.56 38.66 
C 8.323785 38.66 9.05639 38.356545 9.596468 37.816468 
C 10.136545 37.27639 10.44 36.543785 10.44 35.78 
C 10.44 35.016215 10.136545 34.28361 9.596468 33.743532 
C 9.05639 33.203455 8.323785 32.9 7.56 32.9 
C 6.796215 32.9 6.06361 33.203455 5.523532 33.743532 
C 4.983455 34.28361 4.68 35.016215 4.68 35.78 
C 4.68 36.543785 4.983455 37.27639 5.523532 37.816468 
C 6.06361 38.356545 6.796215 38.66 7.56 38.66 
z
" clip-path="url(#p2a2734a012)" style="stroke: #000000; stroke-width: 2; stroke-linejoin: miter"/>
   </g>
   <g id="patch_3">
    <path d="M 79.56 38.66 
C 80.323785 38.66 81.05639 38.356545 81.596468 37.816468 
C 82.136545 37.27639 82.44 36.543785 82.44 35.78 
C 82.44 35.016215 82.136545 34.28361 81.596468 33.743532 
C 81.05639 33.203455 80.323785 32.9 79.56 32.9 
C 78.796215 32.9 78.06361 33.203455 77.523532 33.743532 
C 76.983455 34.28361 76.68 35.016215 76.68 35.78 
C 76.68 36.543785 76.983455 37.27639 77.523532 37.816468 
C 78.06361 38.356545 78.796215 38.66 79.56 38.66 
z
" clip-path="url(#p2a2734a012)" style="stroke: #000000; stroke-width: 2; stroke-linejoin: miter"/>
   </g>
   <g id="patch_4">
    <path d="M 151.56 38.66 
C 152.323785 38.66 153.05639 38.356545 153.596468 37.816468 
C 154.136545 37.27639 154.44 36.543785 154.44 35.78 
C 154.44 35.016215 154.136545 34.28361 153.596468 33.743532 
C 153.05639 33.203455 152.323785 32.9 151.56 32.9 
C 150.796215 32.9 150.06361 33.203455 149.523532 33.743532 
C 148.983455 34.28361 148.68 35.016215 148.68 35.78 
C 148.68 36.543785 148.983455 37.27639 149.523532 37.816468 
C 150.06361 38.356545 150.796215 38.66 151.56 38.66 
z
" clip-path="url(#p2a2734a012)" style="stroke: #000000; stroke-width: 2; stroke-linejoin: miter"/>
   </g>
   <g id="patch_5">
    <path d="M 223.56 38.66 
C 224.323785 38.66 225.05639 38.356545 225.596468 37.816468 
C 226.136545 37.27639 226.44 36.543785 226.44 35.78 
C 226.44 35.016215 226.136545 34.28361 225.596468 33.743532 
C 225.05639 33.203455 224.323785 32.9 223.56 32.9 
C 222.796215 32.9 222.06361 33.203455 221.523532 33.743532 
C 220.983455 34.28361 220.68 35.016215 220.68 35.78 
C 220.68 36.543785 220.983455 37.27639 221.523532 37.816468 
C 222.06361 38.356545 222.796215 38.66 223.56 38.66 
z
" clip-path="url(#p2a2734a012)" style="stroke: #000000; stroke-width: 2; stroke-linejoin: miter"/>
   </g>
  </g>
 </g>
 <defs>
  <clipPath id="p2a2734a012">
   <rect x="0" y="0" width="231.12" height="112.46"/>
  </clipPath>
 </defs>
</svg>
