<?xml version="1.0" encoding="utf-8" standalone="no"?>
<!DOCTYPE svg PUBLIC "-//W3C//DTD SVG 1.1//EN"
  "http://www.w3.org/Graphics/SVG/1.1/DTD/svg11.dtd">
<svg xmlns:xlink="http://www.w3.org/1999/xlink" width="384.828pt" height="159.12pt" viewBox="0 0 384.828 159.12" xmlns="http://www.w3.org/2000/svg" version="1.1">
 <metadata>
  <rdf:RDF xmlns:dc="http://purl.org/dc/elements/1.1/" xmlns:cc="http://creativecommons.org/ns#" xmlns:rdf="http://www.w3.org/1999/02/22-rdf-syntax-ns#">
   <cc:Work>
    <dc:type rdf:resource="http://purl.org/dc/dcmitype/StillImage"/>
    <dc:date>2026-06-17T16:33:37.483656</dc:date>
    <dc:format>image/svg+xml</dc:format>
    <dc:creator>
     <cc:Agent>
      <dc:title>Matplotlib v3.10.6, https://matplotlib.org/</dc:title>
     </cc:Agent>
    </dc:creator>
   </cc:Work>
  </rdf:RDF>
 </metadata>
 <defs>
  <style type="text/css">*{stroke-linejoin: round; stroke-linecap: butt}</style>
 </defs>
 <g id="figure_1">
  <g id="patch_1">
   <path d="M 0 159.12 
L 384.828 159.12 
L 384.828 0 
L 0 0 
z
" style="fill: #ffffff"/>
  </g>
  <g id="axes_1">
   <g id="line2d_1">
    <path d="M 155.148 7.56 
L 155.148 61.56 
L 164.148 64.56 
L 146.148 70.56 
L 164.148 76.56 
L 146.148 82.56 
L 164.148 88.56 
L 146.148 94.56 
L 155.148 97.56 
L 155.148 151.56 
" clip-path="url(#p38c6baa5b4)" style="fill: none; stroke: #000000; stroke-width: 2; stroke-linecap: round"/>
   </g>
   <g id="line2d_2">
    <path d="M 263.148 7.56 
L 263.148 61.56 
L 272.148 64.56 
L 254.148 70.56 
L 272.148 76.56 
L 254.148 82.56 
L 272.148 88.56 
L 254.148 94.56 
L 263.148 97.56 
L 263.148 151.56 
" clip-path="url(#p38c6baa5b4)" style="fill: none; stroke: #000000; stroke-width: 2; stroke-linecap: round"/>
   </g>
   <g id="line2d_3">
    <path d="M 155.148 7.56 
L 209.148 7.56 
L 263.148 7.56 
" clip-path="url(#p38c6baa5b4)" style="fill: none; stroke: #000000; stroke-width: 2; stroke-linecap: round"/>
   </g>
   <g id="line2d_4">
    <path d="M 155.148 151.56 
L 209.148 151.56 
L 263.148 151.56 
" clip-path="url(#p38c6baa5b4)" style="fill: none; stroke: #000000; stroke-width: 2; stroke-linecap: round"/>
   </g>
   <g id="line2d_5">
    <path d="M 371.148 7.56 
L 371.148 61.56 
L 380.148 64.56 
L 362.148 70.56 
L 380.148 76.56 
L 362.148 82.56 
L 380.148 88.56 
L 362.148 94.56 
L 371.148 97.56 
L 371.148 151.56 
" clip-path="url(#p38c6baa5b4)" style="fill: none; stroke: #000000; stroke-width: 2; stroke-linecap: round"/>
   </g>
   <g id="line2d_6">
    <path d="M 263.148 7.56 
L 317.148 7.56 
L 371.148 7.56 
" clip-path="url(#p38c6baa5b4)" style="fill: none; stroke: #000000; stroke-width: 2; stroke-linecap: round"/>
   </g>
   <g id="line2d_7">
    <path d="M 263.148 151.56 
L 317.148 151.56 
L 371.148 151.56 
" clip-path="url(#p38c6baa5b4)" style="fill: none; stroke: #000000; stroke-width: 2; stroke-linecap: round"/>
   </g>
   <g id="line2d_8">
    <path d="M 47.148 7.56 
L 101.148 7.56 
L 155.148 7.56 
" clip-path="url(#p38c6baa5b4)" style="fill: none; stroke: #000000; stroke-width: 2; stroke-linecap: round"/>
   </g>
   <g id="line2d_9">
    <path d="M 47.148 151.56 
L 101.148 151.56 
L 155.148 151.56 
" clip-path="url(#p38c6baa5b4)" style="fill: none; stroke: #000000; stroke-width: 2; stroke-linecap: round"/>
   </g>
   <g id="line2d_10">
    <path d="M 47.148 7.56 
L 47.148 69.435 
M 47.148 89.685 
L 47.148 151.56 
" clip-path="url(#p38c6baa5b4)" style="fill: none; stroke: #000000; stroke-width: 2; stroke-linecap: round"/>
   </g>
   <g id="line2d_11">
    <path d="M 60.648 69.435 
L 33.648 69.435 
" clip-path="url(#p38c6baa5b4)" style="fill: none; stroke: #000000; stroke-width: 2; stroke-linecap: round"/>
   </g>
   <g id="line2d_12">
    <path d="M 53.898 76.185 
L 40.398 76.185 
" clip-path="url(#p38c6baa5b4)" style="fill: none; stroke: #000000; stroke-width: 2; stroke-linecap: round"/>
   </g>
   <g id="line2d_13">
    <path d="M 60.648 82.935 
L 33.648 82.935 
" clip-path="url(#p38c6baa5b4)" style="fill: none; stroke: #000000; stroke-width: 2; stroke-linecap: round"/>
   </g>
   <g id="line2d_14">
    <path d="M 53.898 89.685 
L 40.398 89.685 
" clip-path="url(#p38c6baa5b4)" style="fill: none; stroke: #000000; stroke-width: 2; stroke-linecap: round"/>
   </g>
   <g id="text_1">
    <!-- 2Ω -->
    <g transform="translate(122.941437 83.423125) scale(0.14 -0.14)">
     <defs>
      <path id="DejaVuSans-32" d="M 1228 531 
L 3431 531 
L 3431 0 
L 469 0 
L 469 531 
Q 828 903 1448 1529 
Q 2069 2156 2228 2338 
Q 2531 2678 2651 2914 
Q 2772 3150 2772 3378 
Q 2772 3750 2511 3984 
Q 2250 4219 1831 4219 
Q 1534 4219 1204 4116 
Q 875 4013 500 3803 
L 500 4441 
Q 881 4594 1212 4672 
Q 1544 4750 1819 4750 
Q 2544 4750 2975 4387 
Q 3406 4025 3406 3419 
Q 3406 3131 3298 2873 
Q 3191 2616 2906 2266 
Q 2828 2175 2409 1742 
Q 1991 1309 1228 531 
z
" transform="scale(0.015625)"/>
      <path id="DejaVuSans-3a9" d="M 4647 556 
L 4647 0 
L 2772 0 
L 2772 556 
Q 3325 859 3634 1378 
Q 3944 1897 3944 2528 
Q 3944 3278 3531 3731 
Q 3119 4184 2444 4184 
Q 1769 4184 1355 3729 
Q 941 3275 941 2528 
Q 941 1897 1250 1378 
Q 1563 859 2119 556 
L 2119 0 
L 244 0 
L 244 556 
L 1241 556 
Q 747 991 519 1456 
Q 294 1922 294 2497 
Q 294 3491 894 4106 
Q 1491 4722 2444 4722 
Q 3391 4722 3994 4106 
Q 4594 3494 4594 2528 
Q 4594 1922 4372 1459 
Q 4150 997 3647 556 
L 4647 556 
z
" transform="scale(0.015625)"/>
     </defs>
     <use xlink:href="#DejaVuSans-32"/>
     <use xlink:href="#DejaVuSans-3a9" transform="translate(63.623047 0)"/>
    </g>
   </g>
   <g id="text_2">
    <!-- 4Ω -->
    <g transform="translate(230.941437 83.423125) scale(0.14 -0.14)">
     <defs>
      <path id="DejaVuSans-34" d="M 2419 4116 
L 825 1625 
L 2419 1625 
L 2419 4116 
z
M 2253 4666 
L 3047 4666 
L 3047 1625 
L 3713 1625 
L 3713 1100 
L 3047 1100 
L 3047 0 
L 2419 0 
L 2419 1100 
L 313 1100 
L 313 1709 
L 2253 4666 
z
" transform="scale(0.015625)"/>
     </defs>
     <use xlink:href="#DejaVuSans-34"/>
     <use xlink:href="#DejaVuSans-3a9" transform="translate(63.623047 0)"/>
    </g>
   </g>
   <g id="text_3">
    <!-- 6Ω -->
    <g transform="translate(338.941438 83.423125) scale(0.14 -0.14)">
     <defs>
      <path id="DejaVuSans-36" d="M 2113 2584 
Q 1688 2584 1439 2293 
Q 1191 2003 1191 1497 
Q 1191 994 1439 701 
Q 1688 409 2113 409 
Q 2538 409 2786 701 
Q 3034 994 3034 1497 
Q 3034 2003 2786 2293 
Q 2538 2584 2113 2584 
z
M 3366 4563 
L 3366 3988 
Q 3128 4100 2886 4159 
Q 2644 4219 2406 4219 
Q 1781 4219 1451 3797 
Q 1122 3375 1075 2522 
Q 1259 2794 1537 2939 
Q 1816 3084 2150 3084 
Q 2853 3084 3261 2657 
Q 3669 2231 3669 1497 
Q 3669 778 3244 343 
Q 2819 -91 2113 -91 
Q 1303 -91 875 529 
Q 447 1150 447 2328 
Q 447 3434 972 4092 
Q 1497 4750 2381 4750 
Q 2619 4750 2861 4703 
Q 3103 4656 3366 4563 
z
" transform="scale(0.015625)"/>
     </defs>
     <use xlink:href="#DejaVuSans-36"/>
     <use xlink:href="#DejaVuSans-3a9" transform="translate(63.623047 0)"/>
    </g>
   </g>
   <g id="text_4">
    <!-- 12V -->
    <g transform="translate(2.656125 83.423125) scale(0.14 -0.14)">
     <defs>
      <path id="DejaVuSans-31" d="M 794 531 
L 1825 531 
L 1825 4091 
L 703 3866 
L 703 4441 
L 1819 4666 
L 2450 4666 
L 2450 531 
L 3481 531 
L 3481 0 
L 794 0 
L 794 531 
z
" transform="scale(0.015625)"/>
      <path id="DejaVuSans-56" d="M 1831 0 
L 50 4666 
L 709 4666 
L 2188 738 
L 3669 4666 
L 4325 4666 
L 2547 0 
L 1831 0 
z
" transform="scale(0.015625)"/>
     </defs>
     <use xlink:href="#DejaVuSans-31"/>
     <use xlink:href="#DejaVuSans-32" transform="translate(63.623047 0)"/>
     <use xlink:href="#DejaVuSans-56" transform="translate(127.246094 0)"/>
    </g>
   </g>
   <g id="patch_2">
    <path d="M 155.148 10.44 
C 155.911785 10.44 156.64439 10.136545 157.184468 9.596468 
C 157.724545 9.05639 158.028 8.323785 158.028 7.56 
C 158.028 6.796215 157.724545 6.06361 157.184468 5.523532 
C 156.64439 4.983455 155.911785 4.68 155.148 4.68 
C 154.384215 4.68 153.65161 4.983455 153.111532 5.523532 
C 152.571455 6.06361 152.268 6.796215 152.268 7.56 
C 152.268 8.323785 152.571455 9.05639 153.111532 9.596468 
C 153.65161 10.136545 154.384215 10.44 155.148 10.44 
z
" clip-path="url(#p38c6baa5b4)" style="stroke: #000000; stroke-width: 2; stroke-linejoin: miter"/>
   </g>
   <g id="patch_3">
    <path d="M 155.148 154.44 
C 155.911785 154.44 156.64439 154.136545 157.184468 153.596468 
C 157.724545 153.05639 158.028 152.323785 158.028 151.56 
C 158.028 150.796215 157.724545 150.06361 157.184468 149.523532 
C 156.64439 148.983455 155.911785 148.68 155.148 148.68 
C 154.384215 148.68 153.65161 148.983455 153.111532 149.523532 
C 152.571455 150.06361 152.268 150.796215 152.268 151.56 
C 152.268 152.323785 152.571455 153.05639 153.111532 153.596468 
C 153.65161 154.136545 154.384215 154.44 155.148 154.44 
z
" clip-path="url(#p38c6baa5b4)" style="stroke: #000000; stroke-width: 2; stroke-linejoin: miter"/>
   </g>
   <g id="patch_4">
    <path d="M 263.148 10.44 
C 263.911785 10.44 264.64439 10.136545 265.184468 9.596468 
C 265.724545 9.05639 266.028 8.323785 266.028 7.56 
C 266.028 6.796215 265.724545 6.06361 265.184468 5.523532 
C 264.64439 4.983455 263.911785 4.68 263.148 4.68 
C 262.384215 4.68 261.65161 4.983455 261.111532 5.523532 
C 260.571455 6.06361 260.268 6.796215 260.268 7.56 
C 260.268 8.323785 260.571455 9.05639 261.111532 9.596468 
C 261.65161 10.136545 262.384215 10.44 263.148 10.44 
z
" clip-path="url(#p38c6baa5b4)" style="stroke: #000000; stroke-width: 2; stroke-linejoin: miter"/>
   </g>
   <g id="patch_5">
    <path d="M 263.148 154.44 
C 263.911785 154.44 264.64439 154.136545 265.184468 153.596468 
C 265.724545 153.05639 266.028 152.323785 266.028 151.56 
C 266.028 150.796215 265.724545 150.06361 265.184468 149.523532 
C 264.64439 148.983455 263.911785 148.68 263.148 148.68 
C 262.384215 148.68 261.65161 148.983455 261.111532 149.523532 
C 260.571455 150.06361 260.268 150.796215 260.268 151.56 
C 260.268 152.323785 260.571455 153.05639 261.111532 153.596468 
C 261.65161 154.136545 262.384215 154.44 263.148 154.44 
z
" clip-path="url(#p38c6baa5b4)" style="stroke: #000000; stroke-width: 2; stroke-linejoin: miter"/>
   </g>
   <g id="patch_6">
    <path d="M 371.148 10.44 
C 371.911785 10.44 372.64439 10.136545 373.184468 9.596468 
C 373.724545 9.05639 374.028 8.323785 374.028 7.56 
C 374.028 6.796215 373.724545 6.06361 373.184468 5.523532 
C 372.64439 4.983455 371.911785 4.68 371.148 4.68 
C 370.384215 4.68 369.65161 4.983455 369.111532 5.523532 
C 368.571455 6.06361 368.268 6.796215 368.268 7.56 
C 368.268 8.323785 368.571455 9.05639 369.111532 9.596468 
C 369.65161 10.136545 370.384215 10.44 371.148 10.44 
z
" clip-path="url(#p38c6baa5b4)" style="stroke: #000000; stroke-width: 2; stroke-linejoin: miter"/>
   </g>
   <g id="patch_7">
    <path d="M 371.148 154.44 
C 371.911785 154.44 372.64439 154.136545 373.184468 153.596468 
C 373.724545 153.05639 374.028 152.323785 374.028 151.56 
C 374.028 150.796215 373.724545 150.06361 373.184468 149.523532 
C 372.64439 148.983455 371.911785 148.68 371.148 148.68 
C 370.384215 148.68 369.65161 148.983455 369.111532 149.523532 
C 368.571455 150.06361 368.268 150.796215 368.268 151.56 
C 368.268 152.323785 368.571455 153.05639 369.111532 153.596468 
C 369.65161 154.136545 370.384215 154.44 371.148 154.44 
z
" clip-path="url(#p38c6baa5b4)" style="stroke: #000000; stroke-width: 2; stroke-linejoin: miter"/>
   </g>
  </g>
 </g>
 <defs>
  <clipPath id="p38c6baa5b4">
   <rect x="0" y="0" width="384.828" height="159.12"/>
  </clipPath>
 </defs>
</svg>
