<?xml version="1.0" encoding="utf-8" standalone="no"?>
<!DOCTYPE svg PUBLIC "-//W3C//DTD SVG 1.1//EN"
  "http://www.w3.org/Graphics/SVG/1.1/DTD/svg11.dtd">
<svg xmlns:xlink="http://www.w3.org/1999/xlink" width="231.12pt" height="153.36pt" viewBox="0 0 231.12 153.36" xmlns="http://www.w3.org/2000/svg" version="1.1">
 <metadata>
  <rdf:RDF xmlns:dc="http://purl.org/dc/elements/1.1/" xmlns:cc="http://creativecommons.org/ns#" xmlns:rdf="http://www.w3.org/1999/02/22-rdf-syntax-ns#">
   <cc:Work>
    <dc:type rdf:resource="http://purl.org/dc/dcmitype/StillImage"/>
    <dc:date>2026-06-17T16:08:55.291273</dc:date>
    <dc:format>image/svg+xml</dc:format>
    <dc:creator>
     <cc:Agent>
      <dc:title>Matplotlib v3.10.6, https://matplotlib.org/</dc:title>
     </cc:Agent>
    </dc:creator>
   </cc:Work>
  </rdf:RDF>
 </metadata>
 <defs>
  <style type="text/css">*{stroke-linejoin: round; stroke-linecap: butt}</style>
 </defs>
 <g id="figure_1">
  <g id="patch_1">
   <path d="M 0 153.36 
L 231.12 153.36 
L 231.12 0 
L 0 0 
z
" style="fill: #ffffff"/>
  </g>
  <g id="axes_1">
   <g id="patch_2">
    <path d="M 79.56 58.68 
C 84.333656 58.68 88.912438 56.783406 92.287922 53.407922 
C 95.663406 50.032438 97.56 45.453656 97.56 40.68 
C 97.56 35.906344 95.663406 31.327562 92.287922 27.952078 
C 88.912438 24.576594 84.333656 22.68 79.56 22.68 
C 74.786344 22.68 70.207562 24.576594 66.832078 27.952078 
C 63.456594 31.327562 61.56 35.906344 61.56 40.68 
C 61.56 45.453656 63.456594 50.032438 66.832078 53.407922 
C 70.207562 56.783406 74.786344 58.68 79.56 58.68 
L 79.56 58.68 
z
" clip-path="url(#p7ae58eefa7)" style="fill: none; stroke: #000000; stroke-width: 2; stroke-linejoin: miter"/>
   </g>
   <g id="line2d_1">
    <path d="M 7.56 76.68 
L 33.435 76.68 
M 53.685 76.68 
L 79.56 76.68 
" clip-path="url(#p7ae58eefa7)" style="fill: none; stroke: #000000; stroke-width: 2; stroke-linecap: round"/>
   </g>
   <g id="line2d_2">
    <path d="M 33.435 63.18 
L 33.435 90.18 
" clip-path="url(#p7ae58eefa7)" style="fill: none; stroke: #000000; stroke-width: 2; stroke-linecap: round"/>
   </g>
   <g id="line2d_3">
    <path d="M 40.185 69.93 
L 40.185 83.43 
" clip-path="url(#p7ae58eefa7)" style="fill: none; stroke: #000000; stroke-width: 2; stroke-linecap: round"/>
   </g>
   <g id="line2d_4">
    <path d="M 46.935 63.18 
L 46.935 90.18 
" clip-path="url(#p7ae58eefa7)" style="fill: none; stroke: #000000; stroke-width: 2; stroke-linecap: round"/>
   </g>
   <g id="line2d_5">
    <path d="M 53.685 69.93 
L 53.685 83.43 
" clip-path="url(#p7ae58eefa7)" style="fill: none; stroke: #000000; stroke-width: 2; stroke-linecap: round"/>
   </g>
   <g id="line2d_6">
    <path d="M 79.56 76.68 
L 79.56 58.68 
L 79.56 58.68 
M 79.56 22.68 
L 79.56 22.68 
L 79.56 4.68 
" clip-path="url(#p7ae58eefa7)" style="fill: none; stroke: #000000; stroke-width: 2; stroke-linecap: round"/>
   </g>
   <g id="line2d_7">
    <path d="M 151.56 76.68 
L 169.56 76.68 
L 172.56 67.68 
L 178.56 85.68 
L 184.56 67.68 
L 190.56 85.68 
L 196.56 67.68 
L 202.56 85.68 
L 205.56 76.68 
L 223.56 76.68 
" clip-path="url(#p7ae58eefa7)" style="fill: none; stroke: #000000; stroke-width: 2; stroke-linecap: round"/>
   </g>
   <g id="line2d_8">
    <path d="M 223.56 76.68 
L 223.56 112.68 
L 223.56 148.68 
" clip-path="url(#p7ae58eefa7)" style="fill: none; stroke: #000000; stroke-width: 2; stroke-linecap: round"/>
   </g>
   <g id="line2d_9">
    <path d="M 223.56 148.68 
L 115.56 148.68 
L 7.56 148.68 
" clip-path="url(#p7ae58eefa7)" style="fill: none; stroke: #000000; stroke-width: 2; stroke-linecap: round"/>
   </g>
   <g id="line2d_10">
    <path d="M 7.56 148.68 
L 7.56 112.68 
L 7.56 76.68 
" clip-path="url(#p7ae58eefa7)" style="fill: none; stroke: #000000; stroke-width: 2; stroke-linecap: round"/>
   </g>
   <g id="text_1">
    <!-- 6V -->
    <g transform="translate(34.317813 56.668437) scale(0.14 -0.14)">
     <defs>
      <path id="DejaVuSans-36" d="M 2113 2584 
Q 1688 2584 1439 2293 
Q 1191 2003 1191 1497 
Q 1191 994 1439 701 
Q 1688 409 2113 409 
Q 2538 409 2786 701 
Q 3034 994 3034 1497 
Q 3034 2003 2786 2293 
Q 2538 2584 2113 2584 
z
M 3366 4563 
L 3366 3988 
Q 3128 4100 2886 4159 
Q 2644 4219 2406 4219 
Q 1781 4219 1451 3797 
Q 1122 3375 1075 2522 
Q 1259 2794 1537 2939 
Q 1816 3084 2150 3084 
Q 2853 3084 3261 2657 
Q 3669 2231 3669 1497 
Q 3669 778 3244 343 
Q 2819 -91 2113 -91 
Q 1303 -91 875 529 
Q 447 1150 447 2328 
Q 447 3434 972 4092 
Q 1497 4750 2381 4750 
Q 2619 4750 2861 4703 
Q 3103 4656 3366 4563 
z
" transform="scale(0.015625)"/>
      <path id="DejaVuSans-56" d="M 1831 0 
L 50 4666 
L 709 4666 
L 2188 738 
L 3669 4666 
L 4325 4666 
L 2547 0 
L 1831 0 
z
" transform="scale(0.015625)"/>
     </defs>
     <use xlink:href="#DejaVuSans-36"/>
     <use xlink:href="#DejaVuSans-56" transform="translate(63.623047 0)"/>
    </g>
   </g>
   <g id="text_2">
    <!-- A -->
    <g transform="translate(74.771563 44.543125) scale(0.14 -0.14)">
     <defs>
      <path id="DejaVuSans-41" d="M 2188 4044 
L 1331 1722 
L 3047 1722 
L 2188 4044 
z
M 1831 4666 
L 2547 4666 
L 4325 0 
L 3669 0 
L 3244 1197 
L 1141 1197 
L 716 0 
L 50 0 
L 1831 4666 
z
" transform="scale(0.015625)"/>
     </defs>
     <use xlink:href="#DejaVuSans-41"/>
    </g>
   </g>
   <g id="text_3">
    <!-- A -->
    <g transform="translate(48.383125 44.543125) scale(0.14 -0.14)">
     <use xlink:href="#DejaVuSans-41"/>
    </g>
   </g>
   <g id="text_4">
    <!-- 2Ω -->
    <g transform="translate(177.756719 61.168437) scale(0.14 -0.14)">
     <defs>
      <path id="DejaVuSans-32" d="M 1228 531 
L 3431 531 
L 3431 0 
L 469 0 
L 469 531 
Q 828 903 1448 1529 
Q 2069 2156 2228 2338 
Q 2531 2678 2651 2914 
Q 2772 3150 2772 3378 
Q 2772 3750 2511 3984 
Q 2250 4219 1831 4219 
Q 1534 4219 1204 4116 
Q 875 4013 500 3803 
L 500 4441 
Q 881 4594 1212 4672 
Q 1544 4750 1819 4750 
Q 2544 4750 2975 4387 
Q 3406 4025 3406 3419 
Q 3406 3131 3298 2873 
Q 3191 2616 2906 2266 
Q 2828 2175 2409 1742 
Q 1991 1309 1228 531 
z
" transform="scale(0.015625)"/>
      <path id="DejaVuSans-3a9" d="M 4647 556 
L 4647 0 
L 2772 0 
L 2772 556 
Q 3325 859 3634 1378 
Q 3944 1897 3944 2528 
Q 3944 3278 3531 3731 
Q 3119 4184 2444 4184 
Q 1769 4184 1355 3729 
Q 941 3275 941 2528 
Q 941 1897 1250 1378 
Q 1563 859 2119 556 
L 2119 0 
L 244 0 
L 244 556 
L 1241 556 
Q 747 991 519 1456 
Q 294 1922 294 2497 
Q 294 3491 894 4106 
Q 1491 4722 2444 4722 
Q 3391 4722 3994 4106 
Q 4594 3494 4594 2528 
Q 4594 1922 4372 1459 
Q 4150 997 3647 556 
L 4647 556 
z
" transform="scale(0.015625)"/>
     </defs>
     <use xlink:href="#DejaVuSans-32"/>
     <use xlink:href="#DejaVuSans-3a9" transform="translate(63.623047 0)"/>
    </g>
   </g>
   <g id="patch_3">
    <path d="M 7.56 79.56 
C 8.323785 79.56 9.05639 79.256545 9.596468 78.716468 
C 10.136545 78.17639 10.44 77.443785 10.44 76.68 
C 10.44 75.916215 10.136545 75.18361 9.596468 74.643532 
C 9.05639 74.103455 8.323785 73.8 7.56 73.8 
C 6.796215 73.8 6.06361 74.103455 5.523532 74.643532 
C 4.983455 75.18361 4.68 75.916215 4.68 76.68 
C 4.68 77.443785 4.983455 78.17639 5.523532 78.716468 
C 6.06361 79.256545 6.796215 79.56 7.56 79.56 
z
" clip-path="url(#p7ae58eefa7)" style="stroke: #000000; stroke-width: 2; stroke-linejoin: miter"/>
   </g>
   <g id="patch_4">
    <path d="M 79.56 79.56 
C 80.323785 79.56 81.05639 79.256545 81.596468 78.716468 
C 82.136545 78.17639 82.44 77.443785 82.44 76.68 
C 82.44 75.916215 82.136545 75.18361 81.596468 74.643532 
C 81.05639 74.103455 80.323785 73.8 79.56 73.8 
C 78.796215 73.8 78.06361 74.103455 77.523532 74.643532 
C 76.983455 75.18361 76.68 75.916215 76.68 76.68 
C 76.68 77.443785 76.983455 78.17639 77.523532 78.716468 
C 78.06361 79.256545 78.796215 79.56 79.56 79.56 
z
" clip-path="url(#p7ae58eefa7)" style="stroke: #000000; stroke-width: 2; stroke-linejoin: miter"/>
   </g>
   <g id="patch_5">
    <path d="M 151.56 79.56 
C 152.323785 79.56 153.05639 79.256545 153.596468 78.716468 
C 154.136545 78.17639 154.44 77.443785 154.44 76.68 
C 154.44 75.916215 154.136545 75.18361 153.596468 74.643532 
C 153.05639 74.103455 152.323785 73.8 151.56 73.8 
C 150.796215 73.8 150.06361 74.103455 149.523532 74.643532 
C 148.983455 75.18361 148.68 75.916215 148.68 76.68 
C 148.68 77.443785 148.983455 78.17639 149.523532 78.716468 
C 150.06361 79.256545 150.796215 79.56 151.56 79.56 
z
" clip-path="url(#p7ae58eefa7)" style="stroke: #000000; stroke-width: 2; stroke-linejoin: miter"/>
   </g>
   <g id="patch_6">
    <path d="M 223.56 79.56 
C 224.323785 79.56 225.05639 79.256545 225.596468 78.716468 
C 226.136545 78.17639 226.44 77.443785 226.44 76.68 
C 226.44 75.916215 226.136545 75.18361 225.596468 74.643532 
C 225.05639 74.103455 224.323785 73.8 223.56 73.8 
C 222.796215 73.8 222.06361 74.103455 221.523532 74.643532 
C 220.983455 75.18361 220.68 75.916215 220.68 76.68 
C 220.68 77.443785 220.983455 78.17639 221.523532 78.716468 
C 222.06361 79.256545 222.796215 79.56 223.56 79.56 
z
" clip-path="url(#p7ae58eefa7)" style="stroke: #000000; stroke-width: 2; stroke-linejoin: miter"/>
   </g>
  </g>
 </g>
 <defs>
  <clipPath id="p7ae58eefa7">
   <rect x="0" y="0" width="231.12" height="153.36"/>
  </clipPath>
 </defs>
</svg>
