<?xml version="1.0" encoding="utf-8" standalone="no"?>
<!DOCTYPE svg PUBLIC "-//W3C//DTD SVG 1.1//EN"
  "http://www.w3.org/Graphics/SVG/1.1/DTD/svg11.dtd">
<svg xmlns:xlink="http://www.w3.org/1999/xlink" width="357.828pt" height="300.24pt" viewBox="0 0 357.828 300.24" xmlns="http://www.w3.org/2000/svg" version="1.1">
 <metadata>
  <rdf:RDF xmlns:dc="http://purl.org/dc/elements/1.1/" xmlns:cc="http://creativecommons.org/ns#" xmlns:rdf="http://www.w3.org/1999/02/22-rdf-syntax-ns#">
   <cc:Work>
    <dc:type rdf:resource="http://purl.org/dc/dcmitype/StillImage"/>
    <dc:date>2026-06-17T16:08:55.325646</dc:date>
    <dc:format>image/svg+xml</dc:format>
    <dc:creator>
     <cc:Agent>
      <dc:title>Matplotlib v3.10.6, https://matplotlib.org/</dc:title>
     </cc:Agent>
    </dc:creator>
   </cc:Work>
  </rdf:RDF>
 </metadata>
 <defs>
  <style type="text/css">*{stroke-linejoin: round; stroke-linecap: butt}</style>
 </defs>
 <g id="figure_1">
  <g id="patch_1">
   <path d="M 0 300.24 
L 357.828 300.24 
L 357.828 0 
L 0 0 
z
" style="fill: #ffffff"/>
  </g>
  <g id="axes_1">
   <g id="patch_2">
    <path d="M 335.148 94.68 
C 339.921656 94.68 344.500438 92.783406 347.875922 89.407922 
C 351.251406 86.032438 353.148 81.453656 353.148 76.68 
C 353.148 71.906344 351.251406 67.327562 347.875922 63.952078 
C 344.500438 60.576594 339.921656 58.68 335.148 58.68 
C 330.374344 58.68 325.795562 60.576594 322.420078 63.952078 
C 319.044594 67.327562 317.148 71.906344 317.148 76.68 
C 317.148 81.453656 319.044594 86.032438 322.420078 89.407922 
C 325.795562 92.783406 330.374344 94.68 335.148 94.68 
L 335.148 94.68 
z
" clip-path="url(#pd1b1728727)" style="fill: none; stroke: #000000; stroke-width: 2; stroke-linejoin: miter"/>
   </g>
   <g id="line2d_1">
    <path d="M 47.148 148.68 
L 47.148 210.555 
M 47.148 230.805 
L 47.148 292.68 
" clip-path="url(#pd1b1728727)" style="fill: none; stroke: #000000; stroke-width: 2; stroke-linecap: round"/>
   </g>
   <g id="line2d_2">
    <path d="M 60.648 210.555 
L 33.648 210.555 
" clip-path="url(#pd1b1728727)" style="fill: none; stroke: #000000; stroke-width: 2; stroke-linecap: round"/>
   </g>
   <g id="line2d_3">
    <path d="M 53.898 217.305 
L 40.398 217.305 
" clip-path="url(#pd1b1728727)" style="fill: none; stroke: #000000; stroke-width: 2; stroke-linecap: round"/>
   </g>
   <g id="line2d_4">
    <path d="M 60.648 224.055 
L 33.648 224.055 
" clip-path="url(#pd1b1728727)" style="fill: none; stroke: #000000; stroke-width: 2; stroke-linecap: round"/>
   </g>
   <g id="line2d_5">
    <path d="M 53.898 230.805 
L 40.398 230.805 
" clip-path="url(#pd1b1728727)" style="fill: none; stroke: #000000; stroke-width: 2; stroke-linecap: round"/>
   </g>
   <g id="line2d_6">
    <path d="M 47.148 148.68 
L 119.148 148.68 
L 191.148 148.68 
" clip-path="url(#pd1b1728727)" style="fill: none; stroke: #000000; stroke-width: 2; stroke-linecap: round"/>
   </g>
   <g id="line2d_7">
    <path d="M 191.148 148.68 
L 191.148 202.68 
L 200.148 205.68 
L 182.148 211.68 
L 200.148 217.68 
L 182.148 223.68 
L 200.148 229.68 
L 182.148 235.68 
L 191.148 238.68 
L 191.148 292.68 
" clip-path="url(#pd1b1728727)" style="fill: none; stroke: #000000; stroke-width: 2; stroke-linecap: round"/>
   </g>
   <g id="line2d_8">
    <path d="M 191.148 292.68 
L 119.148 292.68 
L 47.148 292.68 
" clip-path="url(#pd1b1728727)" style="fill: none; stroke: #000000; stroke-width: 2; stroke-linecap: round"/>
   </g>
   <g id="line2d_9">
    <path d="M 47.148 148.68 
L 191.148 148.68 
L 335.148 148.68 
" clip-path="url(#pd1b1728727)" style="fill: none; stroke: #000000; stroke-width: 2; stroke-linecap: round"/>
   </g>
   <g id="line2d_10">
    <path d="M 335.148 148.68 
L 335.148 94.68 
L 335.148 94.68 
M 335.148 58.68 
L 335.148 58.68 
L 335.148 4.68 
" clip-path="url(#pd1b1728727)" style="fill: none; stroke: #000000; stroke-width: 2; stroke-linecap: round"/>
   </g>
   <g id="line2d_11">
    <path d="M 335.148 292.68 
L 191.148 292.68 
L 47.148 292.68 
" clip-path="url(#pd1b1728727)" style="fill: none; stroke: #000000; stroke-width: 2; stroke-linecap: round"/>
   </g>
   <g id="text_1">
    <!-- 12V -->
    <g transform="translate(2.656125 224.543125) scale(0.14 -0.14)">
     <defs>
      <path id="DejaVuSans-31" d="M 794 531 
L 1825 531 
L 1825 4091 
L 703 3866 
L 703 4441 
L 1819 4666 
L 2450 4666 
L 2450 531 
L 3481 531 
L 3481 0 
L 794 0 
L 794 531 
z
" transform="scale(0.015625)"/>
      <path id="DejaVuSans-32" d="M 1228 531 
L 3431 531 
L 3431 0 
L 469 0 
L 469 531 
Q 828 903 1448 1529 
Q 2069 2156 2228 2338 
Q 2531 2678 2651 2914 
Q 2772 3150 2772 3378 
Q 2772 3750 2511 3984 
Q 2250 4219 1831 4219 
Q 1534 4219 1204 4116 
Q 875 4013 500 3803 
L 500 4441 
Q 881 4594 1212 4672 
Q 1544 4750 1819 4750 
Q 2544 4750 2975 4387 
Q 3406 4025 3406 3419 
Q 3406 3131 3298 2873 
Q 3191 2616 2906 2266 
Q 2828 2175 2409 1742 
Q 1991 1309 1228 531 
z
" transform="scale(0.015625)"/>
      <path id="DejaVuSans-56" d="M 1831 0 
L 50 4666 
L 709 4666 
L 2188 738 
L 3669 4666 
L 4325 4666 
L 2547 0 
L 1831 0 
z
" transform="scale(0.015625)"/>
     </defs>
     <use xlink:href="#DejaVuSans-31"/>
     <use xlink:href="#DejaVuSans-32" transform="translate(63.623047 0)"/>
     <use xlink:href="#DejaVuSans-56" transform="translate(127.246094 0)"/>
    </g>
   </g>
   <g id="text_2">
    <!-- 4Ω -->
    <g transform="translate(158.941438 224.543125) scale(0.14 -0.14)">
     <defs>
      <path id="DejaVuSans-34" d="M 2419 4116 
L 825 1625 
L 2419 1625 
L 2419 4116 
z
M 2253 4666 
L 3047 4666 
L 3047 1625 
L 3713 1625 
L 3713 1100 
L 3047 1100 
L 3047 0 
L 2419 0 
L 2419 1100 
L 313 1100 
L 313 1709 
L 2253 4666 
z
" transform="scale(0.015625)"/>
      <path id="DejaVuSans-3a9" d="M 4647 556 
L 4647 0 
L 2772 0 
L 2772 556 
Q 3325 859 3634 1378 
Q 3944 1897 3944 2528 
Q 3944 3278 3531 3731 
Q 3119 4184 2444 4184 
Q 1769 4184 1355 3729 
Q 941 3275 941 2528 
Q 941 1897 1250 1378 
Q 1563 859 2119 556 
L 2119 0 
L 244 0 
L 244 556 
L 1241 556 
Q 747 991 519 1456 
Q 294 1922 294 2497 
Q 294 3491 894 4106 
Q 1491 4722 2444 4722 
Q 3391 4722 3994 4106 
Q 4594 3494 4594 2528 
Q 4594 1922 4372 1459 
Q 4150 997 3647 556 
L 4647 556 
z
" transform="scale(0.015625)"/>
     </defs>
     <use xlink:href="#DejaVuSans-34"/>
     <use xlink:href="#DejaVuSans-3a9" transform="translate(63.623047 0)"/>
    </g>
   </g>
   <g id="text_3">
    <!-- V -->
    <g transform="translate(330.359562 80.543125) scale(0.14 -0.14)">
     <use xlink:href="#DejaVuSans-56"/>
    </g>
   </g>
   <g id="text_4">
    <!-- V -->
    <g transform="translate(303.971125 80.543125) scale(0.14 -0.14)">
     <use xlink:href="#DejaVuSans-56"/>
    </g>
   </g>
   <g id="patch_3">
    <path d="M 47.148 151.56 
C 47.911785 151.56 48.64439 151.256545 49.184468 150.716468 
C 49.724545 150.17639 50.028 149.443785 50.028 148.68 
C 50.028 147.916215 49.724545 147.18361 49.184468 146.643532 
C 48.64439 146.103455 47.911785 145.8 47.148 145.8 
C 46.384215 145.8 45.65161 146.103455 45.111532 146.643532 
C 44.571455 147.18361 44.268 147.916215 44.268 148.68 
C 44.268 149.443785 44.571455 150.17639 45.111532 150.716468 
C 45.65161 151.256545 46.384215 151.56 47.148 151.56 
z
" clip-path="url(#pd1b1728727)" style="stroke: #000000; stroke-width: 2; stroke-linejoin: miter"/>
   </g>
   <g id="patch_4">
    <path d="M 47.148 295.56 
C 47.911785 295.56 48.64439 295.256545 49.184468 294.716468 
C 49.724545 294.17639 50.028 293.443785 50.028 292.68 
C 50.028 291.916215 49.724545 291.18361 49.184468 290.643532 
C 48.64439 290.103455 47.911785 289.8 47.148 289.8 
C 46.384215 289.8 45.65161 290.103455 45.111532 290.643532 
C 44.571455 291.18361 44.268 291.916215 44.268 292.68 
C 44.268 293.443785 44.571455 294.17639 45.111532 294.716468 
C 45.65161 295.256545 46.384215 295.56 47.148 295.56 
z
" clip-path="url(#pd1b1728727)" style="stroke: #000000; stroke-width: 2; stroke-linejoin: miter"/>
   </g>
   <g id="patch_5">
    <path d="M 191.148 151.56 
C 191.911785 151.56 192.64439 151.256545 193.184468 150.716468 
C 193.724545 150.17639 194.028 149.443785 194.028 148.68 
C 194.028 147.916215 193.724545 147.18361 193.184468 146.643532 
C 192.64439 146.103455 191.911785 145.8 191.148 145.8 
C 190.384215 145.8 189.65161 146.103455 189.111532 146.643532 
C 188.571455 147.18361 188.268 147.916215 188.268 148.68 
C 188.268 149.443785 188.571455 150.17639 189.111532 150.716468 
C 189.65161 151.256545 190.384215 151.56 191.148 151.56 
z
" clip-path="url(#pd1b1728727)" style="stroke: #000000; stroke-width: 2; stroke-linejoin: miter"/>
   </g>
   <g id="patch_6">
    <path d="M 191.148 295.56 
C 191.911785 295.56 192.64439 295.256545 193.184468 294.716468 
C 193.724545 294.17639 194.028 293.443785 194.028 292.68 
C 194.028 291.916215 193.724545 291.18361 193.184468 290.643532 
C 192.64439 290.103455 191.911785 289.8 191.148 289.8 
C 190.384215 289.8 189.65161 290.103455 189.111532 290.643532 
C 188.571455 291.18361 188.268 291.916215 188.268 292.68 
C 188.268 293.443785 188.571455 294.17639 189.111532 294.716468 
C 189.65161 295.256545 190.384215 295.56 191.148 295.56 
z
" clip-path="url(#pd1b1728727)" style="stroke: #000000; stroke-width: 2; stroke-linejoin: miter"/>
   </g>
   <g id="patch_7">
    <path d="M 335.148 151.56 
C 335.911785 151.56 336.64439 151.256545 337.184468 150.716468 
C 337.724545 150.17639 338.028 149.443785 338.028 148.68 
C 338.028 147.916215 337.724545 147.18361 337.184468 146.643532 
C 336.64439 146.103455 335.911785 145.8 335.148 145.8 
C 334.384215 145.8 333.65161 146.103455 333.111532 146.643532 
C 332.571455 147.18361 332.268 147.916215 332.268 148.68 
C 332.268 149.443785 332.571455 150.17639 333.111532 150.716468 
C 333.65161 151.256545 334.384215 151.56 335.148 151.56 
z
" clip-path="url(#pd1b1728727)" style="stroke: #000000; stroke-width: 2; stroke-linejoin: miter"/>
   </g>
   <g id="patch_8">
    <path d="M 335.148 295.56 
C 335.911785 295.56 336.64439 295.256545 337.184468 294.716468 
C 337.724545 294.17639 338.028 293.443785 338.028 292.68 
C 338.028 291.916215 337.724545 291.18361 337.184468 290.643532 
C 336.64439 290.103455 335.911785 289.8 335.148 289.8 
C 334.384215 289.8 333.65161 290.103455 333.111532 290.643532 
C 332.571455 291.18361 332.268 291.916215 332.268 292.68 
C 332.268 293.443785 332.571455 294.17639 333.111532 294.716468 
C 333.65161 295.256545 334.384215 295.56 335.148 295.56 
z
" clip-path="url(#pd1b1728727)" style="stroke: #000000; stroke-width: 2; stroke-linejoin: miter"/>
   </g>
  </g>
 </g>
 <defs>
  <clipPath id="pd1b1728727">
   <rect x="0" y="0" width="357.828" height="300.24"/>
  </clipPath>
 </defs>
</svg>
