<?xml version="1.0" encoding="utf-8" standalone="no"?>
<!DOCTYPE svg PUBLIC "-//W3C//DTD SVG 1.1//EN"
  "http://www.w3.org/Graphics/SVG/1.1/DTD/svg11.dtd">
<svg xmlns="http://www.w3.org/2000/svg" width="200pt" height="120pt" viewBox="-40 -40 200 120" version="1.1">
  <circle cx="0" cy="0" r="3" fill="black" stroke="black" stroke-width="2" />
  <circle cx="40" cy="0" r="3" fill="black" stroke="black" stroke-width="2" />
  <circle cx="80" cy="0" r="3" fill="black" stroke="black" stroke-width="2" />
  <line x1="0" y1="0" x2="40" y2="0" stroke="black" stroke-width="2" />
  <line x1="40" y1="0" x2="80" y2="0" stroke="black" stroke-width="2" />
  <line x1="80" y1="0" x2="0" y2="0" stroke="black" stroke-width="2" />
  <g transform="translate(20.0,0.0) rotate(0)">
<line x1="-20" y1="0" x2="-2" y2="0" stroke="black" stroke-width="2" />
<line x1="0" y1="-8" x2="0" y2="8" stroke="black" stroke-width="2" />
<line x1="4" y1="-5" x2="4" y2="5" stroke="black" stroke-width="2" />
<line x1="6" y1="0" x2="20" y2="0" stroke="black" stroke-width="2" />
<text x="0" y="20" font-size="11" text-anchor="middle" fill="black">1.5V</text>
<text x="-6" y="3" font-size="10" text-anchor="middle" fill="black">+</text>
<text x="10" y="3" font-size="10" text-anchor="middle" fill="black">-</text>
</g>
  <g transform="translate(60.0,0.0) rotate(0)">
<line x1="-20" y1="0" x2="-8" y2="0" stroke="black" stroke-width="2" />
<line x1="8" y1="0" x2="20" y2="0" stroke="black" stroke-width="2" />
<circle cx="-8" cy="0" r="2" fill="black" stroke="black" stroke-width="2" />
<circle cx="8" cy="0" r="2" fill="black" stroke="black" stroke-width="2" />
<line x1="-8" y1="0" x2="8" y2="0" stroke="black" stroke-width="2" />
</g>
  <g transform="translate(40.0,0.0) rotate(0)">
<line x1="-20" y1="0" x2="-10" y2="0" stroke="black" stroke-width="2" />
<line x1="10" y1="0" x2="20" y2="0" stroke="black" stroke-width="2" />
<circle cx="0" cy="0" r="10" fill="none" stroke="black" stroke-width="2" />
<line x1="-7.0" y1="-7.0" x2="7.0" y2="7.0" stroke="black" stroke-width="2" />
<line x1="7.0" y1="-7.0" x2="-7.0" y2="7.0" stroke="black" stroke-width="2" />
</g>
</svg>