<?xml version="1.0" encoding="utf-8" standalone="no"?>
<!DOCTYPE svg PUBLIC "-//W3C//DTD SVG 1.1//EN"
  "http://www.w3.org/Graphics/SVG/1.1/DTD/svg11.dtd">
<svg xmlns:xlink="http://www.w3.org/1999/xlink" width="414.708pt" height="303.12pt" viewBox="0 0 414.708 303.12" xmlns="http://www.w3.org/2000/svg" version="1.1">
 <metadata>
  <rdf:RDF xmlns:dc="http://purl.org/dc/elements/1.1/" xmlns:cc="http://creativecommons.org/ns#" xmlns:rdf="http://www.w3.org/1999/02/22-rdf-syntax-ns#">
   <cc:Work>
    <dc:type rdf:resource="http://purl.org/dc/dcmitype/StillImage"/>
    <dc:date>2026-06-17T16:08:55.399790</dc:date>
    <dc:format>image/svg+xml</dc:format>
    <dc:creator>
     <cc:Agent>
      <dc:title>Matplotlib v3.10.6, https://matplotlib.org/</dc:title>
     </cc:Agent>
    </dc:creator>
   </cc:Work>
  </rdf:RDF>
 </metadata>
 <defs>
  <style type="text/css">*{stroke-linejoin: round; stroke-linecap: butt}</style>
 </defs>
 <g id="figure_1">
  <g id="patch_1">
   <path d="M 0 303.12 
L 414.708 303.12 
L 414.708 0 
L 0 0 
z
" style="fill: #ffffff"/>
  </g>
  <g id="axes_1">
   <g id="patch_2">
    <path d="M 317.148 104.76 
L 317.147094 104.645765 
L 317.144375 104.531559 
L 317.139845 104.41741 
L 317.133504 104.303348 
L 317.125354 104.1894 
L 317.115398 104.075596 
L 317.103637 103.961965 
L 317.090075 103.848534 
L 317.074714 103.735333 
L 317.05756 103.62239 
L 317.038616 103.509733 
L 317.017887 103.397391 
L 316.995378 103.285392 
L 316.971094 103.173764 
L 316.945043 103.062536 
L 316.917231 102.951734 
L 316.887664 102.841389 
L 316.856349 102.731526 
L 316.823296 102.622173 
L 316.788512 102.513359 
L 316.752006 102.405111 
L 316.713787 102.297455 
L 316.673865 102.190419 
L 316.632249 102.08403 
L 316.588951 101.978315 
L 316.543981 101.8733 
L 316.49735 101.769012 
L 316.449071 101.665477 
L 316.399155 101.56272 
L 316.347615 101.460769 
L 316.294464 101.359648 
L 316.239716 101.259384 
L 316.183383 101.16 
L 316.125481 101.061523 
L 316.066023 100.963977 
L 316.005025 100.867386 
L 315.942503 100.771776 
L 315.878471 100.677169 
L 315.812947 100.58359 
L 315.745946 100.491063 
L 315.677485 100.39961 
L 315.607582 100.309255 
L 315.536255 100.220021 
L 315.46352 100.131929 
L 315.389397 100.045003 
L 315.313904 99.959263 
L 315.23706 99.874732 
L 315.158885 99.791431 
L 315.079398 99.709381 
L 314.998619 99.628602 
L 314.916569 99.549115 
L 314.833268 99.47094 
L 314.748737 99.394096 
L 314.662997 99.318603 
L 314.576071 99.24448 
L 314.487979 99.171745 
L 314.398745 99.100418 
L 314.30839 99.030515 
L 314.216937 98.962054 
L 314.12441 98.895053 
L 314.030831 98.829529 
L 313.936224 98.765497 
L 313.840614 98.702975 
L 313.744023 98.641977 
L 313.646477 98.582519 
L 313.548 98.524617 
L 313.448616 98.468284 
L 313.348352 98.413536 
L 313.247231 98.360385 
L 313.14528 98.308845 
L 313.042523 98.258929 
L 312.938988 98.21065 
L 312.8347 98.164019 
L 312.729685 98.119049 
L 312.62397 98.075751 
L 312.517581 98.034135 
L 312.410545 97.994213 
L 312.302889 97.955994 
L 312.194641 97.919488 
L 312.085827 97.884704 
L 311.976474 97.851651 
L 311.866611 97.820336 
L 311.756266 97.790769 
L 311.645464 97.762957 
L 311.534236 97.736906 
L 311.422608 97.712622 
L 311.310609 97.690113 
L 311.198267 97.669384 
L 311.08561 97.65044 
L 310.972667 97.633286 
L 310.859466 97.617925 
L 310.746035 97.604363 
L 310.632404 97.592602 
L 310.5186 97.582646 
L 310.404652 97.574496 
L 310.29059 97.568155 
L 310.176441 97.563625 
L 310.062235 97.560906 
L 309.948 97.56 
L 270.348 97.56 
L 270.233765 97.560906 
L 270.119559 97.563625 
L 270.00541 97.568155 
L 269.891348 97.574496 
L 269.7774 97.582646 
L 269.663596 97.592602 
L 269.549965 97.604363 
L 269.436534 97.617925 
L 269.323333 97.633286 
L 269.21039 97.65044 
L 269.097733 97.669384 
L 268.985391 97.690113 
L 268.873392 97.712622 
L 268.761764 97.736906 
L 268.650536 97.762957 
L 268.539734 97.790769 
L 268.429389 97.820336 
L 268.319526 97.851651 
L 268.210173 97.884704 
L 268.101359 97.919488 
L 267.993111 97.955994 
L 267.885455 97.994213 
L 267.778419 98.034135 
L 267.67203 98.075751 
L 267.566315 98.119049 
L 267.4613 98.164019 
L 267.357012 98.21065 
L 267.253477 98.258929 
L 267.15072 98.308845 
L 267.048769 98.360385 
L 266.947648 98.413536 
L 266.847384 98.468284 
L 266.748 98.524617 
L 266.649523 98.582519 
L 266.551977 98.641977 
L 266.455386 98.702975 
L 266.359776 98.765497 
L 266.265169 98.829529 
L 266.17159 98.895053 
L 266.079063 98.962054 
L 265.98761 99.030515 
L 265.897255 99.100418 
L 265.808021 99.171745 
L 265.719929 99.24448 
L 265.633003 99.318603 
L 265.547263 99.394096 
L 265.462732 99.47094 
L 265.379431 99.549115 
L 265.297381 99.628602 
L 265.216602 99.709381 
L 265.137115 99.791431 
L 265.05894 99.874732 
L 264.982096 99.959263 
L 264.906603 100.045003 
L 264.83248 100.131929 
L 264.759745 100.220021 
L 264.688418 100.309255 
L 264.618515 100.39961 
L 264.550054 100.491063 
L 264.483053 100.58359 
L 264.417529 100.677169 
L 264.353497 100.771776 
L 264.290975 100.867386 
L 264.229977 100.963977 
L 264.170519 101.061523 
L 264.112617 101.16 
L 264.056284 101.259384 
L 264.001536 101.359648 
L 263.948385 101.460769 
L 263.896845 101.56272 
L 263.846929 101.665477 
L 263.79865 101.769012 
L 263.752019 101.8733 
L 263.707049 101.978315 
L 263.663751 102.08403 
L 263.622135 102.190419 
L 263.582213 102.297455 
L 263.543994 102.405111 
L 263.507488 102.513359 
L 263.472704 102.622173 
L 263.439651 102.731526 
L 263.408336 102.841389 
L 263.378769 102.951734 
L 263.350957 103.062536 
L 263.324906 103.173764 
L 263.300622 103.285392 
L 263.278113 103.397391 
L 263.257384 103.509733 
L 263.23844 103.62239 
L 263.221286 103.735333 
L 263.205925 103.848534 
L 263.192363 103.961965 
L 263.180602 104.075596 
L 263.170646 104.1894 
L 263.162496 104.303348 
L 263.156155 104.41741 
L 263.151625 104.531559 
L 263.148906 104.645765 
L 263.148 104.76 
L 263.148 144.36 
L 263.148906 144.474235 
L 263.151625 144.588441 
L 263.156155 144.70259 
L 263.162496 144.816652 
L 263.170646 144.9306 
L 263.180602 145.044404 
L 263.192363 145.158035 
L 263.205925 145.271466 
L 263.221286 145.384667 
L 263.23844 145.49761 
L 263.257384 145.610267 
L 263.278113 145.722609 
L 263.300622 145.834608 
L 263.324906 145.946236 
L 263.350957 146.057464 
L 263.378769 146.168266 
L 263.408336 146.278611 
L 263.439651 146.388474 
L 263.472704 146.497827 
L 263.507488 146.606641 
L 263.543994 146.714889 
L 263.582213 146.822545 
L 263.622135 146.929581 
L 263.663751 147.03597 
L 263.707049 147.141685 
L 263.752019 147.2467 
L 263.79865 147.350988 
L 263.846929 147.454523 
L 263.896845 147.55728 
L 263.948385 147.659231 
L 264.001536 147.760352 
L 264.056284 147.860616 
L 264.112617 147.96 
L 264.170519 148.058477 
L 264.229977 148.156023 
L 264.290975 148.252614 
L 264.353497 148.348224 
L 264.417529 148.442831 
L 264.483053 148.53641 
L 264.550054 148.628937 
L 264.618515 148.72039 
L 264.688418 148.810745 
L 264.759745 148.899979 
L 264.83248 148.988071 
L 264.906603 149.074997 
L 264.982096 149.160737 
L 265.05894 149.245268 
L 265.137115 149.328569 
L 265.216602 149.410619 
L 265.297381 149.491398 
L 265.379431 149.570885 
L 265.462732 149.64906 
L 265.547263 149.725904 
L 265.633003 149.801397 
L 265.719929 149.87552 
L 265.808021 149.948255 
L 265.897255 150.019582 
L 265.98761 150.089485 
L 266.079063 150.157946 
L 266.17159 150.224947 
L 266.265169 150.290471 
L 266.359776 150.354503 
L 266.455386 150.417025 
L 266.551977 150.478023 
L 266.649523 150.537481 
L 266.748 150.595383 
L 266.847384 150.651716 
L 266.947648 150.706464 
L 267.048769 150.759615 
L 267.15072 150.811155 
L 267.253477 150.861071 
L 267.357012 150.90935 
L 267.4613 150.955981 
L 267.566315 151.000951 
L 267.67203 151.044249 
L 267.778419 151.085865 
L 267.885455 151.125787 
L 267.993111 151.164006 
L 268.101359 151.200512 
L 268.210173 151.235296 
L 268.319526 151.268349 
L 268.429389 151.299664 
L 268.539734 151.329231 
L 268.650536 151.357043 
L 268.761764 151.383094 
L 268.873392 151.407378 
L 268.985391 151.429887 
L 269.097733 151.450616 
L 269.21039 151.46956 
L 269.323333 151.486714 
L 269.436534 151.502075 
L 269.549965 151.515637 
L 269.663596 151.527398 
L 269.7774 151.537354 
L 269.891348 151.545504 
L 270.00541 151.551845 
L 270.119559 151.556375 
L 270.233765 151.559094 
L 270.348 151.56 
L 309.948 151.56 
L 310.062235 151.559094 
L 310.176441 151.556375 
L 310.29059 151.551845 
L 310.404652 151.545504 
L 310.5186 151.537354 
L 310.632404 151.527398 
L 310.746035 151.515637 
L 310.859466 151.502075 
L 310.972667 151.486714 
L 311.08561 151.46956 
L 311.198267 151.450616 
L 311.310609 151.429887 
L 311.422608 151.407378 
L 311.534236 151.383094 
L 311.645464 151.357043 
L 311.756266 151.329231 
L 311.866611 151.299664 
L 311.976474 151.268349 
L 312.085827 151.235296 
L 312.194641 151.200512 
L 312.302889 151.164006 
L 312.410545 151.125787 
L 312.517581 151.085865 
L 312.62397 151.044249 
L 312.729685 151.000951 
L 312.8347 150.955981 
L 312.938988 150.90935 
L 313.042523 150.861071 
L 313.14528 150.811155 
L 313.247231 150.759615 
L 313.348352 150.706464 
L 313.448616 150.651716 
L 313.548 150.595383 
L 313.646477 150.537481 
L 313.744023 150.478023 
L 313.840614 150.417025 
L 313.936224 150.354503 
L 314.030831 150.290471 
L 314.12441 150.224947 
L 314.216937 150.157946 
L 314.30839 150.089485 
L 314.398745 150.019582 
L 314.487979 149.948255 
L 314.576071 149.87552 
L 314.662997 149.801397 
L 314.748737 149.725904 
L 314.833268 149.64906 
L 314.916569 149.570885 
L 314.998619 149.491398 
L 315.079398 149.410619 
L 315.158885 149.328569 
L 315.23706 149.245268 
L 315.313904 149.160737 
L 315.389397 149.074997 
L 315.46352 148.988071 
L 315.536255 148.899979 
L 315.607582 148.810745 
L 315.677485 148.72039 
L 315.745946 148.628937 
L 315.812947 148.53641 
L 315.878471 148.442831 
L 315.942503 148.348224 
L 316.005025 148.252614 
L 316.066023 148.156023 
L 316.125481 148.058477 
L 316.183383 147.96 
L 316.239716 147.860616 
L 316.294464 147.760352 
L 316.347615 147.659231 
L 316.399155 147.55728 
L 316.449071 147.454523 
L 316.49735 147.350988 
L 316.543981 147.2467 
L 316.588951 147.141685 
L 316.632249 147.03597 
L 316.673865 146.929581 
L 316.713787 146.822545 
L 316.752006 146.714889 
L 316.788512 146.606641 
L 316.823296 146.497827 
L 316.856349 146.388474 
L 316.887664 146.278611 
L 316.917231 146.168266 
L 316.945043 146.057464 
L 316.971094 145.946236 
L 316.995378 145.834608 
L 317.017887 145.722609 
L 317.038616 145.610267 
L 317.05756 145.49761 
L 317.074714 145.384667 
L 317.090075 145.271466 
L 317.103637 145.158035 
L 317.115398 145.044404 
L 317.125354 144.9306 
L 317.133504 144.816652 
L 317.139845 144.70259 
L 317.144375 144.588441 
L 317.147094 144.474235 
L 317.148 144.36 
L 317.148 104.76 
z
" clip-path="url(#p32e71cefba)" style="fill: none; stroke: #000000; stroke-width: 2; stroke-linecap: round"/>
   </g>
   <g id="line2d_1">
    <path d="M 263.148 7.56 
L 203.875922 66.832078 
L 208.118563 75.317359 
L 191.148 66.832078 
L 199.633281 83.802641 
L 182.662719 75.317359 
L 191.148 92.287922 
L 174.177437 83.802641 
L 178.420078 92.287922 
L 119.148 151.56 
" clip-path="url(#p32e71cefba)" style="fill: none; stroke: #000000; stroke-width: 2; stroke-linecap: round"/>
   </g>
   <g id="line2d_2">
    <path d="M 119.148 151.56 
L 178.420078 210.832078 
L 186.905359 206.589437 
L 178.420078 223.56 
L 195.390641 215.074719 
L 186.905359 232.045281 
L 203.875922 223.56 
L 195.390641 240.530563 
L 203.875922 236.287922 
L 263.148 295.56 
" clip-path="url(#p32e71cefba)" style="fill: none; stroke: #000000; stroke-width: 2; stroke-linecap: round"/>
   </g>
   <g id="line2d_3">
    <path d="M 263.148 7.56 
L 322.420078 66.832078 
L 330.905359 62.589437 
L 322.420078 79.56 
L 339.390641 71.074719 
L 330.905359 88.045281 
L 347.875922 79.56 
L 339.390641 96.530563 
L 347.875922 92.287922 
L 407.148 151.56 
" clip-path="url(#p32e71cefba)" style="fill: none; stroke: #000000; stroke-width: 2; stroke-linecap: round"/>
   </g>
   <g id="line2d_4">
    <path d="M 407.148 151.56 
L 347.875922 210.832078 
L 352.118563 219.317359 
L 335.148 210.832078 
L 343.633281 227.802641 
L 326.662719 219.317359 
L 335.148 236.287922 
L 318.177437 227.802641 
L 322.420078 236.287922 
L 263.148 295.56 
" clip-path="url(#p32e71cefba)" style="fill: none; stroke: #000000; stroke-width: 2; stroke-linecap: round"/>
   </g>
   <g id="line2d_5">
    <path d="M 119.148 151.56 
L 263.148 151.56 
L 407.148 151.56 
" clip-path="url(#p32e71cefba)" style="fill: none; stroke: #000000; stroke-width: 2; stroke-linecap: round"/>
   </g>
   <g id="patch_3">
    <path d="M 272.148 108.36 
Q 290.148 101.16 308.148 108.36 
L 303.648 120.6 
Q 290.148 115.56 276.648 120.6 
L 272.148 108.36 
z
" clip-path="url(#p32e71cefba)" style="fill: none; stroke: #000000; stroke-linecap: round"/>
   </g>
   <g id="line2d_6">
    <path d="M 295.733211 118.184095 
L 297.278057 108.952462 
" clip-path="url(#p32e71cefba)" style="fill: none; stroke: #000000; stroke-width: 1.5; stroke-linecap: round"/>
   </g>
   <g id="line2d_7">
    <path d="M 263.148 7.56 
L 155.148 7.56 
L 47.148 7.56 
" clip-path="url(#p32e71cefba)" style="fill: none; stroke: #000000; stroke-width: 2; stroke-linecap: round"/>
   </g>
   <g id="line2d_8">
    <path d="M 47.148 295.56 
L 155.148 295.56 
L 263.148 295.56 
" clip-path="url(#p32e71cefba)" style="fill: none; stroke: #000000; stroke-width: 2; stroke-linecap: round"/>
   </g>
   <g id="line2d_9">
    <path d="M 47.148 7.56 
L 47.148 141.435 
M 47.148 161.685 
L 47.148 295.56 
" clip-path="url(#p32e71cefba)" style="fill: none; stroke: #000000; stroke-width: 2; stroke-linecap: round"/>
   </g>
   <g id="line2d_10">
    <path d="M 60.648 141.435 
L 33.648 141.435 
" clip-path="url(#p32e71cefba)" style="fill: none; stroke: #000000; stroke-width: 2; stroke-linecap: round"/>
   </g>
   <g id="line2d_11">
    <path d="M 53.898 148.185 
L 40.398 148.185 
" clip-path="url(#p32e71cefba)" style="fill: none; stroke: #000000; stroke-width: 2; stroke-linecap: round"/>
   </g>
   <g id="line2d_12">
    <path d="M 60.648 154.935 
L 33.648 154.935 
" clip-path="url(#p32e71cefba)" style="fill: none; stroke: #000000; stroke-width: 2; stroke-linecap: round"/>
   </g>
   <g id="line2d_13">
    <path d="M 53.898 161.685 
L 40.398 161.685 
" clip-path="url(#p32e71cefba)" style="fill: none; stroke: #000000; stroke-width: 2; stroke-linecap: round"/>
   </g>
   <g id="text_1">
    <!-- 2Ω -->
    <g transform="translate(162.631892 67.738892) scale(0.14 -0.14)">
     <defs>
      <path id="DejaVuSans-32" d="M 1228 531 
L 3431 531 
L 3431 0 
L 469 0 
L 469 531 
Q 828 903 1448 1529 
Q 2069 2156 2228 2338 
Q 2531 2678 2651 2914 
Q 2772 3150 2772 3378 
Q 2772 3750 2511 3984 
Q 2250 4219 1831 4219 
Q 1534 4219 1204 4116 
Q 875 4013 500 3803 
L 500 4441 
Q 881 4594 1212 4672 
Q 1544 4750 1819 4750 
Q 2544 4750 2975 4387 
Q 3406 4025 3406 3419 
Q 3406 3131 3298 2873 
Q 3191 2616 2906 2266 
Q 2828 2175 2409 1742 
Q 1991 1309 1228 531 
z
" transform="scale(0.015625)"/>
      <path id="DejaVuSans-3a9" d="M 4647 556 
L 4647 0 
L 2772 0 
L 2772 556 
Q 3325 859 3634 1378 
Q 3944 1897 3944 2528 
Q 3944 3278 3531 3731 
Q 3119 4184 2444 4184 
Q 1769 4184 1355 3729 
Q 941 3275 941 2528 
Q 941 1897 1250 1378 
Q 1563 859 2119 556 
L 2119 0 
L 244 0 
L 244 556 
L 1241 556 
Q 747 991 519 1456 
Q 294 1922 294 2497 
Q 294 3491 894 4106 
Q 1491 4722 2444 4722 
Q 3391 4722 3994 4106 
Q 4594 3494 4594 2528 
Q 4594 1922 4372 1459 
Q 4150 997 3647 556 
L 4647 556 
z
" transform="scale(0.015625)"/>
     </defs>
     <use xlink:href="#DejaVuSans-32"/>
     <use xlink:href="#DejaVuSans-3a9" transform="translate(63.623047 0)"/>
    </g>
   </g>
   <g id="text_2">
    <!-- 2Ω -->
    <g transform="translate(200.057545 211.738892) scale(0.14 -0.14)">
     <use xlink:href="#DejaVuSans-32"/>
     <use xlink:href="#DejaVuSans-3a9" transform="translate(63.623047 0)"/>
    </g>
   </g>
   <g id="text_3">
    <!-- 4Ω -->
    <g transform="translate(344.057545 67.738892) scale(0.14 -0.14)">
     <defs>
      <path id="DejaVuSans-34" d="M 2419 4116 
L 825 1625 
L 2419 1625 
L 2419 4116 
z
M 2253 4666 
L 3047 4666 
L 3047 1625 
L 3713 1625 
L 3713 1100 
L 3047 1100 
L 3047 0 
L 2419 0 
L 2419 1100 
L 313 1100 
L 313 1709 
L 2253 4666 
z
" transform="scale(0.015625)"/>
     </defs>
     <use xlink:href="#DejaVuSans-34"/>
     <use xlink:href="#DejaVuSans-3a9" transform="translate(63.623047 0)"/>
    </g>
   </g>
   <g id="text_4">
    <!-- 4Ω -->
    <g transform="translate(306.631892 211.738892) scale(0.14 -0.14)">
     <use xlink:href="#DejaVuSans-34"/>
     <use xlink:href="#DejaVuSans-3a9" transform="translate(63.623047 0)"/>
    </g>
   </g>
   <g id="text_5">
    <!-- G -->
    <g transform="translate(284.724094 91.048438) scale(0.14 -0.14)">
     <defs>
      <path id="DejaVuSans-47" d="M 3809 666 
L 3809 1919 
L 2778 1919 
L 2778 2438 
L 4434 2438 
L 4434 434 
Q 4069 175 3628 42 
Q 3188 -91 2688 -91 
Q 1594 -91 976 548 
Q 359 1188 359 2328 
Q 359 3472 976 4111 
Q 1594 4750 2688 4750 
Q 3144 4750 3555 4637 
Q 3966 4525 4313 4306 
L 4313 3634 
Q 3963 3931 3569 4081 
Q 3175 4231 2741 4231 
Q 1884 4231 1454 3753 
Q 1025 3275 1025 2328 
Q 1025 1384 1454 906 
Q 1884 428 2741 428 
Q 3075 428 3337 486 
Q 3600 544 3809 666 
z
" transform="scale(0.015625)"/>
     </defs>
     <use xlink:href="#DejaVuSans-47"/>
    </g>
   </g>
   <g id="text_6">
    <!-- 12V -->
    <g transform="translate(2.656125 155.423125) scale(0.14 -0.14)">
     <defs>
      <path id="DejaVuSans-31" d="M 794 531 
L 1825 531 
L 1825 4091 
L 703 3866 
L 703 4441 
L 1819 4666 
L 2450 4666 
L 2450 531 
L 3481 531 
L 3481 0 
L 794 0 
L 794 531 
z
" transform="scale(0.015625)"/>
      <path id="DejaVuSans-56" d="M 1831 0 
L 50 4666 
L 709 4666 
L 2188 738 
L 3669 4666 
L 4325 4666 
L 2547 0 
L 1831 0 
z
" transform="scale(0.015625)"/>
     </defs>
     <use xlink:href="#DejaVuSans-31"/>
     <use xlink:href="#DejaVuSans-32" transform="translate(63.623047 0)"/>
     <use xlink:href="#DejaVuSans-56" transform="translate(127.246094 0)"/>
    </g>
   </g>
   <g id="patch_4">
    <path d="M 263.148 10.44 
C 263.911785 10.44 264.64439 10.136545 265.184468 9.596468 
C 265.724545 9.05639 266.028 8.323785 266.028 7.56 
C 266.028 6.796215 265.724545 6.06361 265.184468 5.523532 
C 264.64439 4.983455 263.911785 4.68 263.148 4.68 
C 262.384215 4.68 261.65161 4.983455 261.111532 5.523532 
C 260.571455 6.06361 260.268 6.796215 260.268 7.56 
C 260.268 8.323785 260.571455 9.05639 261.111532 9.596468 
C 261.65161 10.136545 262.384215 10.44 263.148 10.44 
z
" clip-path="url(#p32e71cefba)" style="stroke: #000000; stroke-width: 2; stroke-linejoin: miter"/>
   </g>
   <g id="patch_5">
    <path d="M 119.148 154.44 
C 119.911785 154.44 120.64439 154.136545 121.184468 153.596468 
C 121.724545 153.05639 122.028 152.323785 122.028 151.56 
C 122.028 150.796215 121.724545 150.06361 121.184468 149.523532 
C 120.64439 148.983455 119.911785 148.68 119.148 148.68 
C 118.384215 148.68 117.65161 148.983455 117.111532 149.523532 
C 116.571455 150.06361 116.268 150.796215 116.268 151.56 
C 116.268 152.323785 116.571455 153.05639 117.111532 153.596468 
C 117.65161 154.136545 118.384215 154.44 119.148 154.44 
z
" clip-path="url(#p32e71cefba)" style="stroke: #000000; stroke-width: 2; stroke-linejoin: miter"/>
   </g>
   <g id="patch_6">
    <path d="M 407.148 154.44 
C 407.911785 154.44 408.64439 154.136545 409.184468 153.596468 
C 409.724545 153.05639 410.028 152.323785 410.028 151.56 
C 410.028 150.796215 409.724545 150.06361 409.184468 149.523532 
C 408.64439 148.983455 407.911785 148.68 407.148 148.68 
C 406.384215 148.68 405.65161 148.983455 405.111532 149.523532 
C 404.571455 150.06361 404.268 150.796215 404.268 151.56 
C 404.268 152.323785 404.571455 153.05639 405.111532 153.596468 
C 405.65161 154.136545 406.384215 154.44 407.148 154.44 
z
" clip-path="url(#p32e71cefba)" style="stroke: #000000; stroke-width: 2; stroke-linejoin: miter"/>
   </g>
   <g id="patch_7">
    <path d="M 263.148 298.44 
C 263.911785 298.44 264.64439 298.136545 265.184468 297.596468 
C 265.724545 297.05639 266.028 296.323785 266.028 295.56 
C 266.028 294.796215 265.724545 294.06361 265.184468 293.523532 
C 264.64439 292.983455 263.911785 292.68 263.148 292.68 
C 262.384215 292.68 261.65161 292.983455 261.111532 293.523532 
C 260.571455 294.06361 260.268 294.796215 260.268 295.56 
C 260.268 296.323785 260.571455 297.05639 261.111532 297.596468 
C 261.65161 298.136545 262.384215 298.44 263.148 298.44 
z
" clip-path="url(#p32e71cefba)" style="stroke: #000000; stroke-width: 2; stroke-linejoin: miter"/>
   </g>
   <g id="patch_8">
    <path d="M 277.548 144.36 
C 278.502731 144.36 279.418488 143.980681 280.093584 143.305584 
C 280.768681 142.630488 281.148 141.714731 281.148 140.76 
C 281.148 139.805269 280.768681 138.889512 280.093584 138.214416 
C 279.418488 137.539319 278.502731 137.16 277.548 137.16 
C 276.593269 137.16 275.677512 137.539319 275.002416 138.214416 
C 274.327319 138.889512 273.948 139.805269 273.948 140.76 
C 273.948 141.714731 274.327319 142.630488 275.002416 143.305584 
C 275.677512 143.980681 276.593269 144.36 277.548 144.36 
L 277.548 144.36 
z
" clip-path="url(#p32e71cefba)" style="fill: none; stroke: #000000; stroke-linejoin: miter"/>
   </g>
   <g id="patch_9">
    <path d="M 302.748 144.36 
C 303.702731 144.36 304.618488 143.980681 305.293584 143.305584 
C 305.968681 142.630488 306.348 141.714731 306.348 140.76 
C 306.348 139.805269 305.968681 138.889512 305.293584 138.214416 
C 304.618488 137.539319 303.702731 137.16 302.748 137.16 
C 301.793269 137.16 300.877512 137.539319 300.202416 138.214416 
C 299.527319 138.889512 299.148 139.805269 299.148 140.76 
C 299.148 141.714731 299.527319 142.630488 300.202416 143.305584 
C 300.877512 143.980681 301.793269 144.36 302.748 144.36 
L 302.748 144.36 
z
" clip-path="url(#p32e71cefba)" style="fill: none; stroke: #000000; stroke-linejoin: miter"/>
   </g>
  </g>
 </g>
 <defs>
  <clipPath id="p32e71cefba">
   <rect x="0" y="0" width="414.708" height="303.12"/>
  </clipPath>
 </defs>
</svg>
