<svg xmlns="http://www.w3.org/2000/svg" width="1200" height="700">
<defs>
  <marker id="ah" markerWidth="8" markerHeight="8" refX="8" refY="4.0" orient="auto">
    <polygon points="0,0 8,4.0 0,8" fill="black"/>
  </marker>
  <marker id="ah-red" markerWidth="8" markerHeight="8" refX="8" refY="4.0" orient="auto">
    <polygon points="0,0 8,4.0 0,8" fill="#cc0000"/>
  </marker>
  <marker id="ah-green" markerWidth="8" markerHeight="8" refX="8" refY="4.0" orient="auto">
    <polygon points="0,0 8,4.0 0,8" fill="#006600"/>
  </marker>
  <marker id="ah-blue" markerWidth="8" markerHeight="8" refX="8" refY="4.0" orient="auto">
    <polygon points="0,0 8,4.0 0,8" fill="#0000cc"/>
  </marker>
</defs>

<line x1="40" y1="300" x2="1160" y2="300" stroke="#333" stroke-width="1.5" marker-end="url(#ah)"/>
<ellipse cx="500" cy="300" rx="15" ry="160" fill="none" stroke="#1a1aff" stroke-width="3"/>
<line x1="500" y1="140" x2="500" y2="460" stroke="#1a1aff" stroke-width="1.5" stroke-dasharray="4,4"/>
<circle cx="400.0" cy="300" r="3.5" fill="#333"/>
<circle cx="600.0" cy="300" r="3.5" fill="#333"/>
<circle cx="300.0" cy="300" r="3.5" fill="#333"/>
<circle cx="700.0" cy="300" r="3.5" fill="#333"/>
<line x1="300.0" y1="294" x2="300.0" y2="306" stroke="#333" stroke-width="1"/>
<line x1="400.0" y1="294" x2="400.0" y2="306" stroke="#333" stroke-width="1"/>
<line x1="500" y1="294" x2="500" y2="306" stroke="#333" stroke-width="1"/>
<line x1="600.0" y1="294" x2="600.0" y2="306" stroke="#333" stroke-width="1"/>
<line x1="700.0" y1="294" x2="700.0" y2="306" stroke="#333" stroke-width="1"/>
<text x="300.0" y="328" text-anchor="middle" font-size="15" font-family="Arial, sans-serif" font-weight="bold">2F₁</text>
<text x="400.0" y="328" text-anchor="middle" font-size="15" font-family="Arial, sans-serif" font-weight="bold">F₁</text>
<text x="500" y="328" text-anchor="middle" font-size="15" font-family="Arial, sans-serif" font-weight="bold">O</text>
<text x="600.0" y="328" text-anchor="middle" font-size="15" font-family="Arial, sans-serif" font-weight="bold">F₂</text>
<text x="700.0" y="328" text-anchor="middle" font-size="15" font-family="Arial, sans-serif" font-weight="bold">2F₂</text>
<line x1="655.5555555555555" y1="214.44444444444446" x2="655.5555555555555" y2="365.55555555555554"
      stroke="#999" stroke-width="1" stroke-dasharray="3,3"/>
<!-- Rays -->
<line x1="220" y1="200" x2="500" y2="200" stroke="#cc0000" stroke-width="2"/>
<line x1="500" y1="200" x2="649.8987013060632" y2="349.8987013060632" stroke="#cc0000" stroke-width="2" marker-end="url(#ah-red)"/>
<line x1="649.8987013060632" y1="349.8987013060632" x2="655.5555555555555" y2="355.55555555555554" stroke="#cc0000" stroke-width="2"/>

<line x1="220" y1="200" x2="648.0216202627969" y2="352.8648643795703" stroke="#006600" stroke-width="2" marker-end="url(#ah-green)"/>
<line x1="648.0216202627969" y1="352.8648643795703" x2="655.5555555555555" y2="355.55555555555554" stroke="#006600" stroke-width="2"/>

<line x1="220" y1="200" x2="493.0067417910277" y2="351.6704121061265" stroke="#0000cc" stroke-width="2" marker-end="url(#ah-blue)"/>
<line x1="493.0067417910277" y1="351.6704121061265" x2="500" y2="355.55555555555554" stroke="#0000cc" stroke-width="2"/>
<line x1="500" y1="355.55555555555554" x2="647.5555555555555" y2="355.55555555555554" stroke="#0000cc" stroke-width="2" marker-end="url(#ah-blue)"/>
<line x1="647.5555555555555" y1="355.55555555555554" x2="655.5555555555555" y2="355.55555555555554" stroke="#0000cc" stroke-width="2"/>
<line x1="220" y1="300" x2="220" y2="200" stroke="black" stroke-width="3" marker-end="url(#ah)"/>
<text x="210" y="188" text-anchor="end" font-size="15" font-family="Arial, sans-serif" font-style="italic">Object</text>
<line x1="655.5555555555555" y1="300" x2="655.5555555555555" y2="355.55555555555554" stroke="black" stroke-width="3" marker-end="url(#ah)"/>
<text x="665.5555555555555" y="383.55555555555554" text-anchor="start" font-size="15" font-family="Arial, sans-serif" font-style="italic">Image</text>
<text x="600.0" y="35" text-anchor="middle" font-size="18" font-family="Arial, sans-serif" font-weight="bold">Ray Diagram — Convex Lens</text>
<text x="600.0" y="55" text-anchor="middle" font-size="14" font-family="Arial, sans-serif" fill="#555">Object Beyond 2F</text>
</svg>