
    <svg xmlns="http://www.w3.org/2000/svg"
         width="800" height="600"
         font-family="Arial, sans-serif">
      <defs>
        <marker id="arrow" markerWidth="10" markerHeight="7"
                refX="10" refY="3.5" orient="auto" markerUnits="strokeWidth">
          <polygon points="0 0, 10 3.5, 0 7" fill="black"/>
        </marker>
        <marker id="arrowSmall" markerWidth="8" markerHeight="6"
                refX="8" refY="3" orient="auto" markerUnits="strokeWidth">
          <polygon points="0 0, 8 3, 0 6" fill="black"/>
        </marker>
        <marker id="arrowBlue" markerWidth="10" markerHeight="7"
                refX="10" refY="3.5" orient="auto" markerUnits="strokeWidth">
          <polygon points="0 0, 10 3.5, 0 7" fill="#1976d2"/>
        </marker>
        <g id="dot">
          <circle cx="0" cy="0" r="6" fill="none" stroke="black" stroke-width="1.5"/>
          <circle cx="0" cy="0" r="2.5" fill="black"/>
        </g>
        <g id="cross">
          <circle cx="0" cy="0" r="6" fill="none" stroke="black" stroke-width="1.5"/>
          <line x1="-4" y1="-4" x2="4" y2="4" stroke="black" stroke-width="1.5"/>
          <line x1="-4" y1="4" x2="4" y2="-4" stroke="black" stroke-width="1.5"/>
        </g>
      </defs>
      <rect width="100%" height="100%" fill="white"/>
    
    <polyline points="438.6,310.4 437.5,314.0 436.0,317.5 434.1,320.9 431.9,324.1 429.5,327.0 426.8,329.7 423.8,332.2 420.6,334.3 417.2,336.1 413.7,337.6 410.0,338.7 406.3,339.5 402.4,339.9 398.6,340.0 394.8,339.7 391.0,339.0 387.3,337.9 383.7,336.5 380.3,334.8 377.1,332.8 374.0,330.4 371.2,327.8 368.7,324.9 366.5,321.8 364.5,318.5 362.9,315.0 361.6,311.4 360.7,307.6 360.2,303.8 360.0,300.0 360.2,296.2 360.7,292.4 361.6,288.6 362.9,285.0 364.5,281.5 366.5,278.2 368.7,275.1 371.2,272.2 374.0,269.6 377.1,267.2 380.3,265.2 383.7,263.5 387.3,262.1 391.0,261.0 394.8,260.3 398.6,260.0 402.4,260.1 406.3,260.5 410.0,261.3 413.7,262.4 417.2,263.9 420.6,265.7 423.8,267.8 426.8,270.3 429.5,273.0 431.9,275.9 434.1,279.1 436.0,282.5 437.5,286.0 438.6,289.6"
              fill="none"
              stroke="black"
              stroke-width="1.5"
              marker-end="url(#arrowSmall)"/>
    
    <polyline points="467.6,318.1 465.6,324.5 462.9,330.7 459.7,336.6 455.9,342.1 451.6,347.3 446.8,352.0 441.6,356.3 436.1,360.0 430.1,363.2 423.9,365.8 417.5,367.8 411.0,369.1 404.3,369.9 397.6,370.0 390.9,369.4 384.3,368.2 377.8,366.4 371.5,363.9 365.5,360.9 359.8,357.3 354.5,353.2 349.6,348.6 345.2,343.6 341.3,338.1 337.9,332.3 335.1,326.2 332.9,319.9 331.3,313.4 330.3,306.7 330.0,300.0 330.3,293.3 331.3,286.6 332.9,280.1 335.1,273.8 337.9,267.7 341.3,261.9 345.2,256.4 349.6,251.4 354.5,246.8 359.8,242.7 365.5,239.1 371.5,236.1 377.8,233.6 384.3,231.8 390.9,230.6 397.6,230.0 404.3,230.1 411.0,230.9 417.5,232.2 423.9,234.2 430.1,236.8 436.1,240.0 441.6,243.7 446.8,248.0 451.6,252.7 455.9,257.9 459.7,263.4 462.9,269.3 465.6,275.5 467.6,281.9"
              fill="none"
              stroke="black"
              stroke-width="1.5"
              marker-end="url(#arrowSmall)"/>
    
    <polyline points="496.6,325.9 493.7,335.0 489.9,343.8 485.3,352.2 479.9,360.2 473.7,367.6 466.9,374.3 459.5,380.4 451.5,385.7 443.1,390.3 434.2,394.0 425.0,396.8 415.6,398.8 406.1,399.8 396.5,399.9 386.9,399.1 377.5,397.4 368.3,394.8 359.3,391.4 350.8,387.0 342.6,381.9 335.1,376.0 328.1,369.5 321.7,362.3 316.1,354.5 311.3,346.2 307.3,337.5 304.1,328.4 301.8,319.1 300.5,309.6 300.0,300.0 300.5,290.4 301.8,280.9 304.1,271.6 307.3,262.5 311.3,253.8 316.1,245.5 321.7,237.7 328.1,230.5 335.1,224.0 342.6,218.1 350.8,213.0 359.3,208.6 368.3,205.2 377.5,202.6 386.9,200.9 396.5,200.1 406.1,200.2 415.6,201.2 425.0,203.2 434.2,206.0 443.1,209.7 451.5,214.3 459.5,219.6 466.9,225.7 473.7,232.4 479.9,239.8 485.3,247.8 489.9,256.2 493.7,265.0 496.6,274.1"
              fill="none"
              stroke="black"
              stroke-width="1.5"
              marker-end="url(#arrowSmall)"/>
    
    <polyline points="525.6,333.6 521.8,345.5 516.8,357.0 510.8,367.9 503.8,378.2 495.8,387.8 487.0,396.6 477.3,404.5 467.0,411.4 456.0,417.3 444.5,422.2 432.5,425.9 420.3,428.4 407.9,429.8 395.5,429.9 383.0,428.9 370.8,426.7 358.8,423.3 347.1,418.8 336.0,413.1 325.4,406.5 315.6,398.9 306.5,390.3 298.3,380.9 291.0,370.8 284.7,360.0 279.5,348.7 275.4,336.9 272.4,324.8 270.6,312.5 270.0,300.0 270.6,287.5 272.4,275.2 275.4,263.1 279.5,251.3 284.7,240.0 291.0,229.2 298.3,219.1 306.5,209.7 315.6,201.1 325.4,193.5 336.0,186.9 347.1,181.2 358.8,176.7 370.8,173.3 383.0,171.1 395.5,170.1 407.9,170.2 420.3,171.6 432.5,174.1 444.5,177.8 456.0,182.7 467.0,188.6 477.3,195.5 487.0,203.4 495.8,212.2 503.8,221.8 510.8,232.1 516.8,243.0 521.8,254.5 525.6,266.4"
              fill="none"
              stroke="black"
              stroke-width="1.5"
              marker-end="url(#arrowSmall)"/>
    
    <line x1="400" y1="120" x2="400" y2="480"
          stroke="black" stroke-width="4"/>

    <use href="#dot" x="400" y="300"/>

    <text x="393" y="105" font-size="16" font-weight="bold">I</text>
    </svg>