
    <svg xmlns="http://www.w3.org/2000/svg"
         width="800" height="600"
         font-family="Arial, sans-serif">
      <defs>
        <marker id="arrow" markerWidth="10" markerHeight="7"
                refX="10" refY="3.5" orient="auto" markerUnits="strokeWidth">
          <polygon points="0 0, 10 3.5, 0 7" fill="black"/>
        </marker>
        <marker id="arrowSmall" markerWidth="8" markerHeight="6"
                refX="8" refY="3" orient="auto" markerUnits="strokeWidth">
          <polygon points="0 0, 8 3, 0 6" fill="black"/>
        </marker>
        <marker id="arrowBlue" markerWidth="10" markerHeight="7"
                refX="10" refY="3.5" orient="auto" markerUnits="strokeWidth">
          <polygon points="0 0, 10 3.5, 0 7" fill="#1976d2"/>
        </marker>
        <g id="dot">
          <circle cx="0" cy="0" r="6" fill="none" stroke="black" stroke-width="1.5"/>
          <circle cx="0" cy="0" r="2.5" fill="black"/>
        </g>
        <g id="cross">
          <circle cx="0" cy="0" r="6" fill="none" stroke="black" stroke-width="1.5"/>
          <line x1="-4" y1="-4" x2="4" y2="4" stroke="black" stroke-width="1.5"/>
          <line x1="-4" y1="4" x2="4" y2="-4" stroke="black" stroke-width="1.5"/>
        </g>
      </defs>
      <rect width="100%" height="100%" fill="white"/>
    
    <path d="M 400 130
             A 170 170 0 0 0 400 470
             L 400 130 Z"
          fill="none" stroke="black" stroke-width="2"/>

    <path d="M 400 130
             A 170 170 0 0 1 400 470
             L 400 130 Z"
          fill="none" stroke="black" stroke-width="2"/>

    <line x1="390" y1="130" x2="390" y2="300"
          stroke="black" stroke-width="0.8" stroke-dasharray="2,3"/>
    <line x1="410" y1="130" x2="410" y2="300"
          stroke="black" stroke-width="0.8" stroke-dasharray="2,3"/>
    <line x1="390" y1="300" x2="390" y2="470"
          stroke="black" stroke-width="0.8" stroke-dasharray="2,3"/>
    <line x1="410" y1="300" x2="410" y2="470"
          stroke="black" stroke-width="0.8" stroke-dasharray="2,3"/>

    <text x="335" y="305" font-size="18" font-weight="bold">D1</text>
    <text x="445" y="305" font-size="18" font-weight="bold">D2</text>

    <path d="M 400 300
             A 20 20 0 0 1 420 300
             A 40 40 0 0 0 380 300
             A 60 60 0 0 1 440 300
             A 80 80 0 0 0 360 300
             A 100 100 0 0 1 460 300
             A 120 120 0 0 0 340 300
             A 140 140 0 0 1 480 300"
          fill="none" stroke="#1976d2" stroke-width="1.5"/>


        <use href="#cross" x="280" y="230"/>
        <use href="#cross" x="280" y="280"/>
        <use href="#cross" x="280" y="350"/>
        <use href="#cross" x="280" y="400"/>
        <use href="#cross" x="330" y="180"/>
        <use href="#cross" x="330" y="230"/>
        <use href="#cross" x="330" y="280"/>
        <use href="#cross" x="330" y="350"/>
        <use href="#cross" x="330" y="400"/>
        <use href="#cross" x="470" y="180"/>
        <use href="#cross" x="470" y="230"/>
        <use href="#cross" x="470" y="280"/>
        <use href="#cross" x="470" y="350"/>
        <use href="#cross" x="470" y="400"/>
        <use href="#cross" x="520" y="230"/>
        <use href="#cross" x="520" y="280"/>
        <use href="#cross" x="520" y="350"/>
        <use href="#cross" x="520" y="400"/>
    <text x="300" y="110" font-size="14" font-style="italic">× B (into page)</text>
    </svg>