
    <svg xmlns="http://www.w3.org/2000/svg"
         width="800" height="600"
         font-family="Arial, sans-serif">
      <defs>
        <marker id="arrow" markerWidth="10" markerHeight="7"
                refX="10" refY="3.5" orient="auto" markerUnits="strokeWidth">
          <polygon points="0 0, 10 3.5, 0 7" fill="black"/>
        </marker>
        <marker id="arrowSmall" markerWidth="8" markerHeight="6"
                refX="8" refY="3" orient="auto" markerUnits="strokeWidth">
          <polygon points="0 0, 8 3, 0 6" fill="black"/>
        </marker>
        <marker id="arrowBlue" markerWidth="10" markerHeight="7"
                refX="10" refY="3.5" orient="auto" markerUnits="strokeWidth">
          <polygon points="0 0, 10 3.5, 0 7" fill="#1976d2"/>
        </marker>
        <g id="dot">
          <circle cx="0" cy="0" r="6" fill="none" stroke="black" stroke-width="1.5"/>
          <circle cx="0" cy="0" r="2.5" fill="black"/>
        </g>
        <g id="cross">
          <circle cx="0" cy="0" r="6" fill="none" stroke="black" stroke-width="1.5"/>
          <line x1="-4" y1="-4" x2="4" y2="4" stroke="black" stroke-width="1.5"/>
          <line x1="-4" y1="4" x2="4" y2="-4" stroke="black" stroke-width="1.5"/>
        </g>
      </defs>
      <rect width="100%" height="100%" fill="white"/>
    
    <circle cx="400" cy="300" r="120"
            fill="none" stroke="black" stroke-width="3"/>

    <line x1="400" y1="150"
          x2="400" y2="450"
          stroke="black" stroke-dasharray="6,4" stroke-width="2"
          marker-end="url(#arrow)"/>

    <text x="390" y="150" font-size="16"
          font-weight="bold">I</text>
    <text x="415" y="330" font-size="16" font-style="italic">μ</text>
    <text x="415" y="175" font-size="14" font-weight="bold" fill="#1976d2">N</text>
    <text x="415" y="440" font-size="14" font-weight="bold" fill="#d32f2f">S</text>

    <polygon points="484.9,384.9 491.5,381.6 488.1,378.2"
             fill="black"/>
    
    <polygon points="315.1,384.9 318.4,391.5 321.8,388.1"
             fill="black"/>
    
    <polygon points="315.1,215.1 308.5,218.4 311.9,221.8"
             fill="black"/>
    
    <polygon points="484.9,215.1 481.6,208.5 478.2,211.9"
             fill="black"/>
        </svg>