
    <svg xmlns="http://www.w3.org/2000/svg"
         width="800" height="600"
         font-family="Arial, sans-serif">
      <defs>
        <marker id="arrow" markerWidth="10" markerHeight="7"
                refX="10" refY="3.5" orient="auto" markerUnits="strokeWidth">
          <polygon points="0 0, 10 3.5, 0 7" fill="black"/>
        </marker>
        <marker id="arrowSmall" markerWidth="8" markerHeight="6"
                refX="8" refY="3" orient="auto" markerUnits="strokeWidth">
          <polygon points="0 0, 8 3, 0 6" fill="black"/>
        </marker>
        <marker id="arrowBlue" markerWidth="10" markerHeight="7"
                refX="10" refY="3.5" orient="auto" markerUnits="strokeWidth">
          <polygon points="0 0, 10 3.5, 0 7" fill="#1976d2"/>
        </marker>
        <g id="dot">
          <circle cx="0" cy="0" r="6" fill="none" stroke="black" stroke-width="1.5"/>
          <circle cx="0" cy="0" r="2.5" fill="black"/>
        </g>
        <g id="cross">
          <circle cx="0" cy="0" r="6" fill="none" stroke="black" stroke-width="1.5"/>
          <line x1="-4" y1="-4" x2="4" y2="4" stroke="black" stroke-width="1.5"/>
          <line x1="-4" y1="4" x2="4" y2="-4" stroke="black" stroke-width="1.5"/>
        </g>
      </defs>
      <rect width="100%" height="100%" fill="white"/>
    
        <circle cx="200" cy="300" r="30"
                fill="none" stroke="black" stroke-width="1.5"/>

        <circle cx="240" cy="300" r="30"
                fill="none" stroke="black" stroke-width="1.5"/>

        <circle cx="280" cy="300" r="30"
                fill="none" stroke="black" stroke-width="1.5"/>

        <circle cx="320" cy="300" r="30"
                fill="none" stroke="black" stroke-width="1.5"/>

        <circle cx="360" cy="300" r="30"
                fill="none" stroke="black" stroke-width="1.5"/>

        <circle cx="400" cy="300" r="30"
                fill="none" stroke="black" stroke-width="1.5"/>

        <circle cx="440" cy="300" r="30"
                fill="none" stroke="black" stroke-width="1.5"/>

        <circle cx="480" cy="300" r="30"
                fill="none" stroke="black" stroke-width="1.5"/>

        <circle cx="520" cy="300" r="30"
                fill="none" stroke="black" stroke-width="1.5"/>

        <circle cx="560" cy="300" r="30"
                fill="none" stroke="black" stroke-width="1.5"/>

        <circle cx="600" cy="300" r="30"
                fill="none" stroke="black" stroke-width="1.5"/>

        <line x1="212" y1="270" x2="228" y2="270"
              stroke="black" stroke-width="1.5"/>
        <line x1="212" y1="330" x2="228" y2="330"
              stroke="black" stroke-width="1.5"/>

        <line x1="252" y1="270" x2="268" y2="270"
              stroke="black" stroke-width="1.5"/>
        <line x1="252" y1="330" x2="268" y2="330"
              stroke="black" stroke-width="1.5"/>

        <line x1="292" y1="270" x2="308" y2="270"
              stroke="black" stroke-width="1.5"/>
        <line x1="292" y1="330" x2="308" y2="330"
              stroke="black" stroke-width="1.5"/>

        <line x1="332" y1="270" x2="348" y2="270"
              stroke="black" stroke-width="1.5"/>
        <line x1="332" y1="330" x2="348" y2="330"
              stroke="black" stroke-width="1.5"/>

        <line x1="372" y1="270" x2="388" y2="270"
              stroke="black" stroke-width="1.5"/>
        <line x1="372" y1="330" x2="388" y2="330"
              stroke="black" stroke-width="1.5"/>

        <line x1="412" y1="270" x2="428" y2="270"
              stroke="black" stroke-width="1.5"/>
        <line x1="412" y1="330" x2="428" y2="330"
              stroke="black" stroke-width="1.5"/>

        <line x1="452" y1="270" x2="468" y2="270"
              stroke="black" stroke-width="1.5"/>
        <line x1="452" y1="330" x2="468" y2="330"
              stroke="black" stroke-width="1.5"/>

        <line x1="492" y1="270" x2="508" y2="270"
              stroke="black" stroke-width="1.5"/>
        <line x1="492" y1="330" x2="508" y2="330"
              stroke="black" stroke-width="1.5"/>

        <line x1="532" y1="270" x2="548" y2="270"
              stroke="black" stroke-width="1.5"/>
        <line x1="532" y1="330" x2="548" y2="330"
              stroke="black" stroke-width="1.5"/>

        <line x1="572" y1="270" x2="588" y2="270"
              stroke="black" stroke-width="1.5"/>
        <line x1="572" y1="330" x2="588" y2="330"
              stroke="black" stroke-width="1.5"/>

        <polyline points="180.0,260.0 620.0,260.0"
                  fill="none"
                  stroke="black"
                  stroke-width="1.5"
                  marker-end="url(#arrow)"/>

        <polyline points="180.0,300.0 620.0,300.0"
                  fill="none"
                  stroke="black"
                  stroke-width="1.5"
                  marker-end="url(#arrow)"/>

        <polyline points="180.0,340.0 620.0,340.0"
                  fill="none"
                  stroke="black"
                  stroke-width="1.5"
                  marker-end="url(#arrow)"/>

    <path d="M 620 260 Q 400 80 180 260"
          fill="none" stroke="black" stroke-width="1.5"
          marker-end="url(#arrowSmall)"/>
    <path d="M 620 340 Q 400 520 180 340"
          fill="none" stroke="black" stroke-width="1.5"
          marker-end="url(#arrowSmall)"/>

    <text x="150" y="225" font-size="18"
          font-weight="bold" fill="#d32f2f">S</text>
    <text x="630" y="225" font-size="18"
          font-weight="bold" fill="#1976d2">N</text>
    </svg>