
    <svg xmlns="http://www.w3.org/2000/svg"
         width="800" height="600"
         font-family="Arial, sans-serif">
      <defs>
        <marker id="arrow" markerWidth="10" markerHeight="7"
                refX="10" refY="3.5" orient="auto" markerUnits="strokeWidth">
          <polygon points="0 0, 10 3.5, 0 7" fill="black"/>
        </marker>
        <marker id="arrowSmall" markerWidth="8" markerHeight="6"
                refX="8" refY="3" orient="auto" markerUnits="strokeWidth">
          <polygon points="0 0, 8 3, 0 6" fill="black"/>
        </marker>
        <marker id="arrowBlue" markerWidth="10" markerHeight="7"
                refX="10" refY="3.5" orient="auto" markerUnits="strokeWidth">
          <polygon points="0 0, 10 3.5, 0 7" fill="#1976d2"/>
        </marker>
        <g id="dot">
          <circle cx="0" cy="0" r="6" fill="none" stroke="black" stroke-width="1.5"/>
          <circle cx="0" cy="0" r="2.5" fill="black"/>
        </g>
        <g id="cross">
          <circle cx="0" cy="0" r="6" fill="none" stroke="black" stroke-width="1.5"/>
          <line x1="-4" y1="-4" x2="4" y2="4" stroke="black" stroke-width="1.5"/>
          <line x1="-4" y1="4" x2="4" y2="-4" stroke="black" stroke-width="1.5"/>
        </g>
      </defs>
      <rect width="100%" height="100%" fill="white"/>
    
    <circle cx="400" cy="300" r="120"
            fill="#e3f2fd" stroke="black" stroke-width="2"/>

    <line x1="400" y1="150" x2="400" y2="450"
          stroke="black" stroke-width="2"/>
    <polygon points="400,162 392,175 408,175"
             fill="black"/>

    <line x1="422.9" y1="182.2"
          x2="377.1" y2="417.8"
          stroke="black" stroke-dasharray="8,4" stroke-width="2"
          marker-end="url(#arrow)"/>

    <path d="M 400 415 A 115 115 0 0 1 377.1 417.8"
          fill="none" stroke="black" stroke-width="1" stroke-dasharray="3,2"/>
    <text x="415" y="440" font-size="12" font-style="italic">~11°</text>

    <line x1="400" y1="300" x2="400" y2="220"
          stroke="#1976d2" stroke-width="2.5"
          marker-end="url(#arrowBlue)"/>
    <text x="405" y="215" font-size="14" font-style="italic" fill="#1976d2">m</text>

    <text x="410" y="170" font-size="14"
          font-weight="bold">Geographic N</text>
    <text x="410" y="215" font-size="14"
          fill="#1976d2" font-weight="bold">Magnetic N</text>
    <text x="377.1" y="427.8" font-size="14"
          fill="#d32f2f">Magnetic S</text>
    </svg>